M48
; DRILL file KiCad 10.0.1 date 2026-05-03T13:35:03
; FORMAT={-:-/ absolute / metric / decimal}
; #@! TF.CreationDate,2026-05-03T13:35:03+02:00
; #@! TF.GenerationSoftware,Kicad,Pcbnew,10.0.1
; #@! TF.FileFunction,Plated,1,4,PTH
FMAT,2
METRIC
; #@! TA.AperFunction,Plated,PTH,ViaDrill
T1C0.300
; #@! TA.AperFunction,Plated,PTH,ComponentDrill
T2C0.600
; #@! TA.AperFunction,Plated,PTH,ComponentDrill
T3C1.000
; #@! TA.AperFunction,Plated,PTH,ComponentDrill
T4C1.270
; #@! TA.AperFunction,Plated,PTH,ComponentDrill
T5C2.700
; #@! TA.AperFunction,Plated,PTH,ComponentDrill
T6C3.800
%
G90
G05
T1
X116.9Y-77.7
X118.0Y-124.0
X119.875Y-70.6
X120.0Y-69.3
X120.288Y-118.312
X123.0Y-79.8
X123.0Y-89.4
X124.5Y-77.65
X125.0Y-83.15
X125.1Y-95.0
X127.4Y-119.6
X127.99Y-74.6
X129.95Y-91.8
X133.85Y-87.1
X134.0Y-118.0
X134.0Y-124.0
X136.3Y-118.1
X139.1Y-84.0
X143.0Y-96.6
X143.9Y-96.6
X144.3Y-119.6
X146.05Y-85.45
X146.05Y-87.425
X146.05Y-89.4
X146.2Y-95.2
X146.9Y-105.1
X148.025Y-83.475
X148.025Y-91.375
X150.0Y-83.475
X150.0Y-91.375
X150.0Y-102.3
X150.0Y-118.4
X150.0Y-124.0
X150.8Y-103.0
X151.975Y-83.475
X151.975Y-91.375
X152.1Y-95.2
X152.3Y-118.2
X153.95Y-85.45
X153.95Y-87.425
X153.95Y-89.4
X154.0Y-93.6
X157.3Y-86.6
X157.3Y-87.4
X157.6Y-92.4
X159.8Y-82.2
X159.8Y-119.6
X162.1Y-97.6
X162.3Y-109.2
X164.2Y-113.2
X164.5Y-76.1
X164.5Y-114.4
X165.7Y-91.5
X166.0Y-124.0
X166.7Y-91.5
X168.3Y-118.3
X168.46Y-71.32
X168.5Y-72.82
X168.5Y-74.32
X168.5Y-69.3
X168.5Y-94.625
X169.3Y-114.4
X170.1Y-90.5
X171.4Y-98.1
X174.1Y-86.9
X174.2Y-83.5
X174.8Y-100.0
X175.3Y-119.6
X175.9Y-98.8
X176.1Y-88.3
X176.2Y-82.3
X176.6Y-97.8
X177.0Y-119.0
X177.0Y-120.0
X177.0Y-121.0
X177.29Y-105.0
X178.0Y-119.0
X178.0Y-120.0
X178.0Y-121.0
X179.0Y-119.0
X179.0Y-120.0
X179.0Y-121.0
X179.3Y-104.7
X180.0Y-119.0
X180.0Y-120.0
X180.0Y-121.0
X181.0Y-119.0
X181.0Y-120.0
X181.0Y-121.0
X181.1Y-83.4
T3
X113.0Y-79.5
X113.0Y-82.0
X113.0Y-89.0
X113.0Y-91.5
X154.1Y-110.0
X156.6Y-110.0
T4
X155.19Y-101.073
X162.81Y-104.527
T5
X121.5Y-128.5
X126.5Y-128.5
X136.5Y-128.5
X141.5Y-128.5
X152.5Y-128.5
X157.5Y-128.5
X168.5Y-128.5
X173.5Y-128.5
T6
X133.5Y-101.1
X133.5Y-112.0
T2
X123.7Y-97.1G85X124.5Y-97.1
G05
X123.7Y-116.0G85X124.5Y-116.0
G05
X179.425Y-80.98G85X180.525Y-80.98
G05
X179.425Y-89.62G85X180.525Y-89.62
G05
X183.775Y-80.98G85X184.575Y-80.98
G05
X183.775Y-89.62G85X184.575Y-89.62
G05
M30
