%TF.GenerationSoftware,KiCad,Pcbnew,10.0.1*%
%TF.CreationDate,2026-05-03T13:35:04+02:00*%
%TF.ProjectId,LabRover_PDB,4c616252-6f76-4657-925f-5044422e6b69,rev?*%
%TF.SameCoordinates,Original*%
%TF.FileFunction,Copper,L2,Inr*%
%TF.FilePolarity,Positive*%
%FSLAX46Y46*%
G04 Gerber Fmt 4.6, Leading zero omitted, Abs format (unit mm)*
G04 Created by KiCad (PCBNEW 10.0.1) date 2026-05-03 13:35:04*
%MOMM*%
%LPD*%
G01*
G04 APERTURE LIST*
G04 Aperture macros list*
%AMRoundRect*
0 Rectangle with rounded corners*
0 $1 Rounding radius*
0 $2 $3 $4 $5 $6 $7 $8 $9 X,Y pos of 4 corners*
0 Add a 4 corners polygon primitive as box body*
4,1,4,$2,$3,$4,$5,$6,$7,$8,$9,$2,$3,0*
0 Add four circle primitives for the rounded corners*
1,1,$1+$1,$2,$3*
1,1,$1+$1,$4,$5*
1,1,$1+$1,$6,$7*
1,1,$1+$1,$8,$9*
0 Add four rect primitives between the rounded corners*
20,1,$1+$1,$2,$3,$4,$5,0*
20,1,$1+$1,$4,$5,$6,$7,0*
20,1,$1+$1,$6,$7,$8,$9,0*
20,1,$1+$1,$8,$9,$2,$3,0*%
G04 Aperture macros list end*
%TA.AperFunction,ComponentPad*%
%ADD10O,2.000000X1.700000*%
%TD*%
%TA.AperFunction,ComponentPad*%
%ADD11RoundRect,0.250000X-0.750000X0.600000X-0.750000X-0.600000X0.750000X-0.600000X0.750000X0.600000X0*%
%TD*%
%TA.AperFunction,ComponentPad*%
%ADD12RoundRect,0.760000X1.140000X1.140000X-1.140000X1.140000X-1.140000X-1.140000X1.140000X-1.140000X0*%
%TD*%
%TA.AperFunction,ComponentPad*%
%ADD13C,3.800000*%
%TD*%
%TA.AperFunction,HeatsinkPad*%
%ADD14O,2.100000X1.000000*%
%TD*%
%TA.AperFunction,HeatsinkPad*%
%ADD15O,1.800000X1.000000*%
%TD*%
%TA.AperFunction,ComponentPad*%
%ADD16RoundRect,1.800000X1.800000X-1.800000X1.800000X1.800000X-1.800000X1.800000X-1.800000X-1.800000X0*%
%TD*%
%TA.AperFunction,ComponentPad*%
%ADD17C,7.200000*%
%TD*%
%TA.AperFunction,ComponentPad*%
%ADD18R,2.400000X1.600000*%
%TD*%
%TA.AperFunction,ComponentPad*%
%ADD19C,2.000000*%
%TD*%
%TA.AperFunction,ComponentPad*%
%ADD20RoundRect,0.250000X-0.600000X-0.750000X0.600000X-0.750000X0.600000X0.750000X-0.600000X0.750000X0*%
%TD*%
%TA.AperFunction,ComponentPad*%
%ADD21O,1.700000X2.000000*%
%TD*%
%TA.AperFunction,ViaPad*%
%ADD22C,0.600000*%
%TD*%
%TA.AperFunction,Conductor*%
%ADD23C,0.254000*%
%TD*%
%TA.AperFunction,Conductor*%
%ADD24C,0.200000*%
%TD*%
G04 APERTURE END LIST*
D10*
%TO.N,GND*%
%TO.C,J2*%
X113000000Y-91500000D03*
D11*
%TO.N,Net-(J2-Pin_1)*%
X113000000Y-89000000D03*
%TD*%
D12*
%TO.N,Net-(D8-K)*%
%TO.C,J9*%
X173500000Y-128500000D03*
D13*
%TO.N,+BATT_SENSED*%
X168500000Y-128500000D03*
%TD*%
D14*
%TO.N,GND*%
%TO.C,J5*%
X179975000Y-89620000D03*
D15*
X184175000Y-89620000D03*
D14*
X179975000Y-80980000D03*
D15*
X184175000Y-80980000D03*
%TD*%
D16*
%TO.N,Net-(D3-K)*%
%TO.C,J4*%
X133500000Y-112000000D03*
D17*
%TO.N,Net-(J4-Pin_2)*%
X133500000Y-101100002D03*
D18*
%TO.N,N/C*%
X124100000Y-116000000D03*
X124100000Y-97100000D03*
%TD*%
D11*
%TO.N,+VBATT_{2}*%
%TO.C,J3*%
X113000000Y-79500000D03*
D10*
%TO.N,Net-(J2-Pin_1)*%
X113000000Y-82000000D03*
%TD*%
D19*
%TO.N,Net-(J4-Pin_2)*%
%TO.C,F1*%
X155190000Y-101072800D03*
%TO.N,/Sensors/IN+*%
X162810000Y-104527200D03*
%TD*%
D12*
%TO.N,Net-(D7-K)*%
%TO.C,J8*%
X157500000Y-128500000D03*
D13*
%TO.N,+BATT_SENSED*%
X152500000Y-128500000D03*
%TD*%
D20*
%TO.N,+3.3V*%
%TO.C,J1*%
X154100000Y-110000000D03*
D21*
%TO.N,Net-(IC1-B)*%
X156600000Y-110000000D03*
%TD*%
D12*
%TO.N,Net-(D6-K)*%
%TO.C,J7*%
X141500000Y-128500000D03*
D13*
%TO.N,+BATT_SENSED*%
X136500000Y-128500000D03*
%TD*%
D12*
%TO.N,Net-(D5-K)*%
%TO.C,J6*%
X126500000Y-128500000D03*
D13*
%TO.N,+BATT_SENSED*%
X121500000Y-128500000D03*
%TD*%
D22*
%TO.N,/ESP32_C3/GPIO20*%
X157300000Y-87400000D03*
%TO.N,/ESP32_C3/GPIO21*%
X157300000Y-86600000D03*
%TO.N,GND*%
X174800000Y-100000000D03*
%TO.N,/ESP32_C3/GPIO20*%
X175900000Y-98800000D03*
%TO.N,Net-(D8-K)*%
X175300000Y-119600000D03*
X168499774Y-74320000D03*
%TO.N,Net-(D7-K)*%
X159800000Y-119600000D03*
X168499774Y-72820000D03*
%TO.N,Net-(D6-K)*%
X168459764Y-71320000D03*
X144300000Y-119600000D03*
%TO.N,Net-(D5-K)*%
X127400000Y-119600000D03*
X168500000Y-69300000D03*
%TO.N,/ESP32_C3/GPIO5*%
X150000000Y-118400000D03*
X150800000Y-103000000D03*
%TO.N,/ESP32_C3/GPIO4*%
X150000000Y-102300000D03*
%TO.N,+BATT_SENSED*%
X164500000Y-76100000D03*
X177290000Y-105000000D03*
%TO.N,/ESP32_C3/GPIO20*%
X164200000Y-113200000D03*
%TO.N,Net-(D3-K)*%
X120000000Y-69300000D03*
%TO.N,GND*%
X179300000Y-104700000D03*
%TO.N,/Power_Protection/VBATT_{2}Read*%
X162100000Y-97600000D03*
X125100000Y-95000000D03*
%TO.N,Net-(IC1-B)*%
X143900000Y-96600000D03*
%TO.N,/Power_Protection/VBATT_{2}Read*%
X123000000Y-89400000D03*
X123000000Y-79800000D03*
%TO.N,/ESP32_C3/5V*%
X124500000Y-77650000D03*
%TO.N,+3.3V*%
X152100000Y-95200000D03*
X139100000Y-84000000D03*
%TO.N,/ESP32_C3/5V*%
X174200000Y-83500000D03*
%TO.N,GND*%
X174100000Y-86900000D03*
%TO.N,/ESP32_C3/BOOT*%
X154000000Y-93600000D03*
X159800000Y-82200000D03*
%TO.N,GND*%
X129950000Y-91800000D03*
X125000000Y-83150000D03*
%TO.N,+3.3V*%
X133850000Y-87100000D03*
%TO.N,GND*%
X157600000Y-92400000D03*
X146050000Y-89400000D03*
X146050000Y-87425000D03*
X146050000Y-85450000D03*
X168500000Y-94625000D03*
%TO.N,+3.3V*%
X170100000Y-90500000D03*
%TO.N,/ESP32_C3/GPIO20*%
X165700000Y-91500000D03*
%TO.N,/ESP32_C3/GPIO21*%
X166700000Y-91500000D03*
%TO.N,/ESP32_C3/5V*%
X181100000Y-83400000D03*
%TO.N,GND*%
X151975000Y-91375000D03*
X116900000Y-77700000D03*
X136300000Y-118100000D03*
X150000000Y-124000000D03*
X148025000Y-83475000D03*
X148025000Y-91375000D03*
X150000000Y-91375000D03*
X127990000Y-74600000D03*
X143000000Y-96600000D03*
X176200000Y-82300000D03*
X153950000Y-85450000D03*
X151975000Y-83475000D03*
X152300000Y-118200000D03*
X150000000Y-83475000D03*
X146900000Y-105100000D03*
X162300000Y-109200000D03*
X120288000Y-118312000D03*
X153950000Y-89400000D03*
X153950000Y-87425000D03*
X168300000Y-118300000D03*
X118000000Y-124000000D03*
X176100000Y-88300000D03*
X134000000Y-124000000D03*
X166000000Y-124000000D03*
%TO.N,/ESP32_C3/GPIO21*%
X164500000Y-114400000D03*
%TO.N,+3.3V*%
X169300000Y-114400000D03*
X146200000Y-95200000D03*
%TO.N,+BATT_SENSED*%
X180000000Y-121000000D03*
X178000000Y-121000000D03*
X180000000Y-119000000D03*
X177000000Y-121000000D03*
X181000000Y-119000000D03*
X180000000Y-120000000D03*
X178000000Y-120000000D03*
X179000000Y-120000000D03*
X177000000Y-120000000D03*
X177000000Y-119000000D03*
X178000000Y-119000000D03*
X179000000Y-119000000D03*
X181000000Y-120000000D03*
X179000000Y-121000000D03*
X181000000Y-121000000D03*
%TO.N,Net-(J4-Pin_2)*%
X119875000Y-70600000D03*
%TO.N,/ESP32_C3/GPIO4*%
X134000000Y-118000000D03*
%TO.N,+3.3V*%
X171400000Y-98100000D03*
%TO.N,/ESP32_C3/GPIO21*%
X176600000Y-97800000D03*
%TD*%
%TO.N,Net-(D8-K)*%
D23*
X179927000Y-114973000D02*
X175300000Y-119600000D01*
X168499774Y-82999774D02*
X179927000Y-94427000D01*
X168499774Y-74320000D02*
X168499774Y-82999774D01*
X179927000Y-94427000D02*
X179927000Y-114973000D01*
%TO.N,Net-(D7-K)*%
X165500000Y-108500000D02*
X159800000Y-114200000D01*
X162871026Y-100471026D02*
X165500000Y-103100000D01*
X165500000Y-103100000D02*
X165500000Y-108500000D01*
X159800000Y-114200000D02*
X159800000Y-119600000D01*
X162871026Y-74671026D02*
X162871026Y-100471026D01*
X164722052Y-72820000D02*
X162871026Y-74671026D01*
X168499774Y-72820000D02*
X164722052Y-72820000D01*
%TO.N,Net-(D5-K)*%
X127400000Y-79400000D02*
X127400000Y-119600000D01*
X137500000Y-69300000D02*
X127400000Y-79400000D01*
X168500000Y-69300000D02*
X137500000Y-69300000D01*
%TO.N,/ESP32_C3/GPIO20*%
X164300000Y-113200000D02*
X164200000Y-113200000D01*
X167246000Y-116146000D02*
X164300000Y-113200000D01*
X175900000Y-114457948D02*
X174211948Y-116146000D01*
X174211948Y-116146000D02*
X167246000Y-116146000D01*
X175900000Y-98800000D02*
X175900000Y-114457948D01*
X175900000Y-97986712D02*
X175900000Y-98800000D01*
X167857948Y-96300000D02*
X174213288Y-96300000D01*
X165700000Y-94142052D02*
X167857948Y-96300000D01*
X165700000Y-91500000D02*
X165700000Y-94142052D01*
X174213288Y-96300000D02*
X175900000Y-97986712D01*
%TO.N,/ESP32_C3/GPIO21*%
X166700000Y-94500000D02*
X166700000Y-91500000D01*
X174400000Y-95600000D02*
X167800000Y-95600000D01*
X167800000Y-95600000D02*
X166700000Y-94500000D01*
X176600000Y-97800000D02*
X174400000Y-95600000D01*
X176600000Y-114400000D02*
X176600000Y-97800000D01*
X166700000Y-116600000D02*
X174400000Y-116600000D01*
X174400000Y-116600000D02*
X176600000Y-114400000D01*
X164500000Y-114400000D02*
X166700000Y-116600000D01*
%TO.N,Net-(IC1-B)*%
D24*
X143900000Y-97300000D02*
X143900000Y-96600000D01*
X156600000Y-110000000D02*
X143900000Y-97300000D01*
%TO.N,/ESP32_C3/BOOT*%
X159100000Y-93600000D02*
X159800000Y-92900000D01*
X154000000Y-93600000D02*
X159100000Y-93600000D01*
X159800000Y-92900000D02*
X159800000Y-82200000D01*
%TO.N,Net-(D6-K)*%
D23*
X165580000Y-71320000D02*
X161269300Y-75630700D01*
X147400000Y-116500000D02*
X144300000Y-119600000D01*
X161269300Y-108730700D02*
X153500000Y-116500000D01*
X153500000Y-116500000D02*
X147400000Y-116500000D01*
X168459764Y-71320000D02*
X165580000Y-71320000D01*
X161269300Y-75630700D02*
X161269300Y-108730700D01*
%TD*%
M02*
