%TF.GenerationSoftware,KiCad,Pcbnew,10.0.1*%
%TF.CreationDate,2026-05-03T13:35:04+02:00*%
%TF.ProjectId,LabRover_PDB,4c616252-6f76-4657-925f-5044422e6b69,rev?*%
%TF.SameCoordinates,Original*%
%TF.FileFunction,Copper,L4,Bot*%
%TF.FilePolarity,Positive*%
%FSLAX46Y46*%
G04 Gerber Fmt 4.6, Leading zero omitted, Abs format (unit mm)*
G04 Created by KiCad (PCBNEW 10.0.1) date 2026-05-03 13:35:04*
%MOMM*%
%LPD*%
G01*
G04 APERTURE LIST*
G04 Aperture macros list*
%AMRoundRect*
0 Rectangle with rounded corners*
0 $1 Rounding radius*
0 $2 $3 $4 $5 $6 $7 $8 $9 X,Y pos of 4 corners*
0 Add a 4 corners polygon primitive as box body*
4,1,4,$2,$3,$4,$5,$6,$7,$8,$9,$2,$3,0*
0 Add four circle primitives for the rounded corners*
1,1,$1+$1,$2,$3*
1,1,$1+$1,$4,$5*
1,1,$1+$1,$6,$7*
1,1,$1+$1,$8,$9*
0 Add four rect primitives between the rounded corners*
20,1,$1+$1,$2,$3,$4,$5,0*
20,1,$1+$1,$4,$5,$6,$7,0*
20,1,$1+$1,$6,$7,$8,$9,0*
20,1,$1+$1,$8,$9,$2,$3,0*%
G04 Aperture macros list end*
%TA.AperFunction,ComponentPad*%
%ADD10O,2.000000X1.700000*%
%TD*%
%TA.AperFunction,ComponentPad*%
%ADD11RoundRect,0.250000X-0.750000X0.600000X-0.750000X-0.600000X0.750000X-0.600000X0.750000X0.600000X0*%
%TD*%
%TA.AperFunction,ComponentPad*%
%ADD12RoundRect,0.760000X1.140000X1.140000X-1.140000X1.140000X-1.140000X-1.140000X1.140000X-1.140000X0*%
%TD*%
%TA.AperFunction,ComponentPad*%
%ADD13C,3.800000*%
%TD*%
%TA.AperFunction,HeatsinkPad*%
%ADD14O,2.100000X1.000000*%
%TD*%
%TA.AperFunction,HeatsinkPad*%
%ADD15O,1.800000X1.000000*%
%TD*%
%TA.AperFunction,ComponentPad*%
%ADD16RoundRect,1.800000X1.800000X-1.800000X1.800000X1.800000X-1.800000X1.800000X-1.800000X-1.800000X0*%
%TD*%
%TA.AperFunction,ComponentPad*%
%ADD17C,7.200000*%
%TD*%
%TA.AperFunction,ComponentPad*%
%ADD18R,2.400000X1.600000*%
%TD*%
%TA.AperFunction,ComponentPad*%
%ADD19C,2.000000*%
%TD*%
%TA.AperFunction,ComponentPad*%
%ADD20RoundRect,0.250000X-0.600000X-0.750000X0.600000X-0.750000X0.600000X0.750000X-0.600000X0.750000X0*%
%TD*%
%TA.AperFunction,ComponentPad*%
%ADD21O,1.700000X2.000000*%
%TD*%
%TA.AperFunction,ViaPad*%
%ADD22C,0.600000*%
%TD*%
%TA.AperFunction,Conductor*%
%ADD23C,0.200000*%
%TD*%
%TA.AperFunction,Conductor*%
%ADD24C,0.254000*%
%TD*%
%TA.AperFunction,Conductor*%
%ADD25C,0.762000*%
%TD*%
%TA.AperFunction,Conductor*%
%ADD26C,0.508000*%
%TD*%
G04 APERTURE END LIST*
D10*
%TO.P,J2,2,Pin_2_2*%
%TO.N,GND*%
X113000000Y-91500000D03*
D11*
%TO.P,J2,1,Pin_1_1*%
%TO.N,Net-(J2-Pin_1)*%
X113000000Y-89000000D03*
%TD*%
D12*
%TO.P,J9,1,Pin_1_1*%
%TO.N,Net-(D8-K)*%
X173500000Y-128500000D03*
D13*
%TO.P,J9,2,Pin_2_2*%
%TO.N,+BATT_SENSED*%
X168500000Y-128500000D03*
%TD*%
D14*
%TO.P,J5,S1,SHIELD_S1*%
%TO.N,GND*%
X179975000Y-89620000D03*
D15*
X184175000Y-89620000D03*
D14*
X179975000Y-80980000D03*
D15*
X184175000Y-80980000D03*
%TD*%
D16*
%TO.P,J4,1,Pin_1_1*%
%TO.N,Net-(D3-K)*%
X133500000Y-112000000D03*
D17*
%TO.P,J4,2,Pin_2_2*%
%TO.N,Net-(J4-Pin_2)*%
X133500000Y-101100002D03*
D18*
%TO.P,J4,MP*%
%TO.N,N/C*%
X124100000Y-116000000D03*
X124100000Y-97100000D03*
%TD*%
D11*
%TO.P,J3,1,Pin_1_1*%
%TO.N,+VBATT_{2}*%
X113000000Y-79500000D03*
D10*
%TO.P,J3,2,Pin_2_2*%
%TO.N,Net-(J2-Pin_1)*%
X113000000Y-82000000D03*
%TD*%
D19*
%TO.P,F1,1,1_1*%
%TO.N,Net-(J4-Pin_2)*%
X155190000Y-101072800D03*
%TO.P,F1,2,2_2*%
%TO.N,/Sensors/IN+*%
X162810000Y-104527200D03*
%TD*%
D12*
%TO.P,J8,1,Pin_1_1*%
%TO.N,Net-(D7-K)*%
X157500000Y-128500000D03*
D13*
%TO.P,J8,2,Pin_2_2*%
%TO.N,+BATT_SENSED*%
X152500000Y-128500000D03*
%TD*%
D20*
%TO.P,J1,1,Pin_1_1*%
%TO.N,+3.3V*%
X154100000Y-110000000D03*
D21*
%TO.P,J1,2,Pin_2_2*%
%TO.N,Net-(IC1-B)*%
X156600000Y-110000000D03*
%TD*%
D12*
%TO.P,J7,1,Pin_1_1*%
%TO.N,Net-(D6-K)*%
X141500000Y-128500000D03*
D13*
%TO.P,J7,2,Pin_2_2*%
%TO.N,+BATT_SENSED*%
X136500000Y-128500000D03*
%TD*%
D12*
%TO.P,J6,1,Pin_1_1*%
%TO.N,Net-(D5-K)*%
X126500000Y-128500000D03*
D13*
%TO.P,J6,2,Pin_2_2*%
%TO.N,+BATT_SENSED*%
X121500000Y-128500000D03*
%TD*%
D22*
%TO.N,/ESP32_C3/GPIO20*%
X157300000Y-87400000D03*
%TO.N,/ESP32_C3/GPIO21*%
X157300000Y-86600000D03*
%TO.N,GND*%
X174800000Y-100000000D03*
%TO.N,/ESP32_C3/GPIO20*%
X175900000Y-98800000D03*
%TO.N,Net-(D8-K)*%
X175300000Y-119600000D03*
X168499774Y-74320000D03*
%TO.N,Net-(D7-K)*%
X159800000Y-119600000D03*
X168499774Y-72820000D03*
%TO.N,Net-(D6-K)*%
X168459764Y-71320000D03*
X144300000Y-119600000D03*
%TO.N,Net-(D5-K)*%
X127400000Y-119600000D03*
X168500000Y-69300000D03*
%TO.N,/ESP32_C3/GPIO5*%
X150000000Y-118400000D03*
X150800000Y-103000000D03*
%TO.N,/ESP32_C3/GPIO4*%
X150000000Y-102300000D03*
%TO.N,+BATT_SENSED*%
X164500000Y-76100000D03*
X177290000Y-105000000D03*
%TO.N,/ESP32_C3/GPIO20*%
X164200000Y-113200000D03*
%TO.N,Net-(D3-K)*%
X120000000Y-69300000D03*
%TO.N,GND*%
X179300000Y-104700000D03*
%TO.N,/Power_Protection/VBATT_{2}Read*%
X162100000Y-97600000D03*
X125100000Y-95000000D03*
%TO.N,Net-(IC1-B)*%
X143900000Y-96600000D03*
%TO.N,/Power_Protection/VBATT_{2}Read*%
X123000000Y-89400000D03*
X123000000Y-79800000D03*
%TO.N,/ESP32_C3/5V*%
X124500000Y-77650000D03*
%TO.N,+3.3V*%
X152100000Y-95200000D03*
X139100000Y-84000000D03*
%TO.N,/ESP32_C3/5V*%
X174200000Y-83500000D03*
%TO.N,GND*%
X174100000Y-86900000D03*
%TO.N,/ESP32_C3/BOOT*%
X154000000Y-93600000D03*
X159800000Y-82200000D03*
%TO.N,GND*%
X129950000Y-91800000D03*
X125000000Y-83150000D03*
%TO.N,+3.3V*%
X133850000Y-87100000D03*
%TO.N,GND*%
X157600000Y-92400000D03*
X146050000Y-89400000D03*
X146050000Y-87425000D03*
X146050000Y-85450000D03*
X168500000Y-94625000D03*
%TO.N,+3.3V*%
X170100000Y-90500000D03*
%TO.N,/ESP32_C3/GPIO20*%
X165700000Y-91500000D03*
%TO.N,/ESP32_C3/GPIO21*%
X166700000Y-91500000D03*
%TO.N,/ESP32_C3/5V*%
X181100000Y-83400000D03*
%TO.N,GND*%
X151975000Y-91375000D03*
X116900000Y-77700000D03*
X136300000Y-118100000D03*
X150000000Y-124000000D03*
X148025000Y-83475000D03*
X148025000Y-91375000D03*
X150000000Y-91375000D03*
X127990000Y-74600000D03*
X143000000Y-96600000D03*
X176200000Y-82300000D03*
X153950000Y-85450000D03*
X151975000Y-83475000D03*
X152300000Y-118200000D03*
X150000000Y-83475000D03*
X146900000Y-105100000D03*
X162300000Y-109200000D03*
X120288000Y-118312000D03*
X153950000Y-89400000D03*
X153950000Y-87425000D03*
X168300000Y-118300000D03*
X118000000Y-124000000D03*
X176100000Y-88300000D03*
X134000000Y-124000000D03*
X166000000Y-124000000D03*
%TO.N,/ESP32_C3/GPIO21*%
X164500000Y-114400000D03*
%TO.N,+3.3V*%
X169300000Y-114400000D03*
X146200000Y-95200000D03*
%TO.N,+BATT_SENSED*%
X180000000Y-121000000D03*
X178000000Y-121000000D03*
X180000000Y-119000000D03*
X177000000Y-121000000D03*
X181000000Y-119000000D03*
X180000000Y-120000000D03*
X178000000Y-120000000D03*
X179000000Y-120000000D03*
X177000000Y-120000000D03*
X177000000Y-119000000D03*
X178000000Y-119000000D03*
X179000000Y-119000000D03*
X181000000Y-120000000D03*
X179000000Y-121000000D03*
X181000000Y-121000000D03*
%TO.N,Net-(J4-Pin_2)*%
X119875000Y-70600000D03*
%TO.N,/ESP32_C3/GPIO4*%
X134000000Y-118000000D03*
%TO.N,+3.3V*%
X171400000Y-98100000D03*
%TO.N,/ESP32_C3/GPIO21*%
X176600000Y-97800000D03*
%TD*%
%TO.N,/ESP32_C3/GPIO20*%
D23*
X161600000Y-87400000D02*
X165700000Y-91500000D01*
X157300000Y-87400000D02*
X161600000Y-87400000D01*
%TO.N,/ESP32_C3/GPIO21*%
D24*
X161800000Y-86600000D02*
X157300000Y-86600000D01*
X166700000Y-91500000D02*
X161800000Y-86600000D01*
%TO.N,+BATT_SENSED*%
X177617000Y-105327000D02*
X177290000Y-105000000D01*
X181673000Y-105327000D02*
X177617000Y-105327000D01*
X182948000Y-79948000D02*
X182948000Y-104052000D01*
X179100000Y-76100000D02*
X182948000Y-79948000D01*
X182948000Y-104052000D02*
X181673000Y-105327000D01*
X164500000Y-76100000D02*
X179100000Y-76100000D01*
%TO.N,+3.3V*%
X171400000Y-91800000D02*
X170100000Y-90500000D01*
X171400000Y-98100000D02*
X171400000Y-91800000D01*
X169300000Y-100200000D02*
X171400000Y-98100000D01*
X169300000Y-114400000D02*
X169300000Y-100200000D01*
X169300000Y-115600000D02*
X167700000Y-117200000D01*
X169300000Y-114400000D02*
X169300000Y-115600000D01*
X161300000Y-117200000D02*
X167700000Y-117200000D01*
X154100000Y-110000000D02*
X161300000Y-117200000D01*
%TO.N,/ESP32_C3/GPIO5*%
X150800000Y-117700000D02*
X150100000Y-118400000D01*
X150800000Y-103000000D02*
X150800000Y-117700000D01*
%TO.N,/ESP32_C3/GPIO4*%
X135100000Y-118000000D02*
X134000000Y-118000000D01*
X143500000Y-109600000D02*
X135100000Y-118000000D01*
X148500000Y-109600000D02*
X143500000Y-109600000D01*
X150000000Y-108100000D02*
X148500000Y-109600000D01*
X150000000Y-102300000D02*
X150000000Y-108100000D01*
%TO.N,Net-(D3-K)*%
X124800000Y-112000000D02*
X133500000Y-112000000D01*
X115200000Y-102400000D02*
X124800000Y-112000000D01*
X115200000Y-74100000D02*
X115200000Y-102400000D01*
X120000000Y-69300000D02*
X115200000Y-74100000D01*
%TO.N,Net-(J4-Pin_2)*%
X121300002Y-101100002D02*
X133500000Y-101100002D01*
X119875000Y-70600000D02*
X115900000Y-74575000D01*
X115900000Y-74575000D02*
X115900000Y-95700000D01*
X115900000Y-95700000D02*
X121300002Y-101100002D01*
%TO.N,/Power_Protection/VBATT_{2}Read*%
D23*
X141600000Y-97600000D02*
X162100000Y-97600000D01*
X125100000Y-95000000D02*
X139000000Y-95000000D01*
X139000000Y-95000000D02*
X141600000Y-97600000D01*
%TO.N,Net-(J4-Pin_2)*%
X155162798Y-101100002D02*
X155190000Y-101072800D01*
D25*
X133500000Y-101100002D02*
X155162798Y-101100002D01*
%TO.N,+3.3V*%
D23*
X137500000Y-91100000D02*
X137500000Y-88600000D01*
X137500000Y-88600000D02*
X136000000Y-87100000D01*
X141600000Y-95200000D02*
X137500000Y-91100000D01*
X152100000Y-95200000D02*
X141600000Y-95200000D01*
%TO.N,/Power_Protection/VBATT_{2}Read*%
D24*
X123000000Y-79800000D02*
X123000000Y-89400000D01*
%TO.N,/ESP32_C3/5V*%
D26*
X168350000Y-77650000D02*
X174200000Y-83500000D01*
X124500000Y-77650000D02*
X168350000Y-77650000D01*
D24*
X181100000Y-83400000D02*
X174300000Y-83400000D01*
X174300000Y-83400000D02*
X174200000Y-83500000D01*
%TO.N,Net-(J4-Pin_2)*%
X119890000Y-70600000D02*
X119917000Y-70627000D01*
%TO.N,+3.3V*%
D26*
X133850000Y-87100000D02*
X136000000Y-87100000D01*
X137500000Y-85600000D02*
X139100000Y-84000000D01*
X136000000Y-87100000D02*
X137500000Y-85600000D01*
%TD*%
%TA.AperFunction,Conductor*%
%TO.N,+BATT_SENSED*%
G36*
X119449823Y-118019685D02*
G01*
X119495578Y-118072489D01*
X119505522Y-118141647D01*
X119504401Y-118148192D01*
X119487500Y-118233155D01*
X119487500Y-118390846D01*
X119518261Y-118545489D01*
X119518264Y-118545501D01*
X119578602Y-118691172D01*
X119578609Y-118691185D01*
X119666210Y-118822288D01*
X119666213Y-118822292D01*
X119777707Y-118933786D01*
X119777711Y-118933789D01*
X119908814Y-119021390D01*
X119908827Y-119021397D01*
X120054498Y-119081735D01*
X120054503Y-119081737D01*
X120193523Y-119109390D01*
X120209153Y-119112499D01*
X120209156Y-119112500D01*
X120209158Y-119112500D01*
X120366844Y-119112500D01*
X120366845Y-119112499D01*
X120521497Y-119081737D01*
X120634166Y-119035067D01*
X120667172Y-119021397D01*
X120667172Y-119021396D01*
X120667179Y-119021394D01*
X120798289Y-118933789D01*
X120909789Y-118822289D01*
X120997394Y-118691179D01*
X121057737Y-118545497D01*
X121088500Y-118390842D01*
X121088500Y-118233158D01*
X121088500Y-118233155D01*
X121071599Y-118148192D01*
X121077826Y-118078600D01*
X121120688Y-118023423D01*
X121186578Y-118000178D01*
X121193216Y-118000000D01*
X133082053Y-118000000D01*
X133149092Y-118019685D01*
X133194847Y-118072489D01*
X133203670Y-118099809D01*
X133230261Y-118233489D01*
X133230264Y-118233501D01*
X133290602Y-118379172D01*
X133290609Y-118379185D01*
X133378210Y-118510288D01*
X133378213Y-118510292D01*
X133489707Y-118621786D01*
X133489711Y-118621789D01*
X133620814Y-118709390D01*
X133620827Y-118709397D01*
X133766498Y-118769735D01*
X133766503Y-118769737D01*
X133916131Y-118799500D01*
X133921153Y-118800499D01*
X133921156Y-118800500D01*
X133921158Y-118800500D01*
X134078844Y-118800500D01*
X134078845Y-118800499D01*
X134233497Y-118769737D01*
X134379179Y-118709394D01*
X134470466Y-118648398D01*
X134537143Y-118627520D01*
X134539357Y-118627500D01*
X135161804Y-118627500D01*
X135161805Y-118627499D01*
X135283035Y-118603386D01*
X135363784Y-118569937D01*
X135397233Y-118556083D01*
X135466842Y-118509571D01*
X135470481Y-118507482D01*
X135500531Y-118500265D01*
X135530019Y-118491032D01*
X135534200Y-118492179D01*
X135538420Y-118491166D01*
X135567603Y-118501342D01*
X135597399Y-118509516D01*
X135600995Y-118512986D01*
X135604393Y-118514171D01*
X135611087Y-118522724D01*
X135635335Y-118546121D01*
X135678210Y-118610288D01*
X135678213Y-118610292D01*
X135789707Y-118721786D01*
X135789711Y-118721789D01*
X135920814Y-118809390D01*
X135920827Y-118809397D01*
X136066498Y-118869735D01*
X136066503Y-118869737D01*
X136221153Y-118900499D01*
X136221156Y-118900500D01*
X136221158Y-118900500D01*
X136378844Y-118900500D01*
X136378845Y-118900499D01*
X136533497Y-118869737D01*
X136679179Y-118809394D01*
X136810289Y-118721789D01*
X136921789Y-118610289D01*
X137009394Y-118479179D01*
X137069737Y-118333497D01*
X137100500Y-118178842D01*
X137100500Y-118124000D01*
X137120185Y-118056961D01*
X137172989Y-118011206D01*
X137224500Y-118000000D01*
X149113652Y-118000000D01*
X149180691Y-118019685D01*
X149226446Y-118072489D01*
X149236390Y-118141647D01*
X149231233Y-118160434D01*
X149232031Y-118160676D01*
X149230261Y-118166510D01*
X149199500Y-118321153D01*
X149199500Y-118478846D01*
X149230261Y-118633489D01*
X149230264Y-118633501D01*
X149290602Y-118779172D01*
X149290609Y-118779185D01*
X149378210Y-118910288D01*
X149378213Y-118910292D01*
X149489707Y-119021786D01*
X149489711Y-119021789D01*
X149620814Y-119109390D01*
X149620827Y-119109397D01*
X149766498Y-119169735D01*
X149766503Y-119169737D01*
X149921153Y-119200499D01*
X149921156Y-119200500D01*
X149921158Y-119200500D01*
X150078844Y-119200500D01*
X150078845Y-119200499D01*
X150233497Y-119169737D01*
X150346166Y-119123067D01*
X150379172Y-119109397D01*
X150379172Y-119109396D01*
X150379179Y-119109394D01*
X150510289Y-119021789D01*
X150621789Y-118910289D01*
X150709394Y-118779179D01*
X150769737Y-118633497D01*
X150769737Y-118633496D01*
X150771482Y-118629284D01*
X150798359Y-118589058D01*
X151287410Y-118100009D01*
X151287412Y-118100005D01*
X151287819Y-118099599D01*
X151349142Y-118066114D01*
X151418834Y-118071098D01*
X151474767Y-118112970D01*
X151499184Y-118178434D01*
X151499500Y-118187280D01*
X151499500Y-118278846D01*
X151530261Y-118433489D01*
X151530264Y-118433501D01*
X151590602Y-118579172D01*
X151590609Y-118579185D01*
X151678210Y-118710288D01*
X151678213Y-118710292D01*
X151789707Y-118821786D01*
X151789711Y-118821789D01*
X151920814Y-118909390D01*
X151920827Y-118909397D01*
X152066498Y-118969735D01*
X152066503Y-118969737D01*
X152221153Y-119000499D01*
X152221156Y-119000500D01*
X152221158Y-119000500D01*
X152378844Y-119000500D01*
X152378845Y-119000499D01*
X152533497Y-118969737D01*
X152679179Y-118909394D01*
X152810289Y-118821789D01*
X152921789Y-118710289D01*
X153009394Y-118579179D01*
X153069737Y-118433497D01*
X153100500Y-118278842D01*
X153100500Y-118124000D01*
X153120185Y-118056961D01*
X153172989Y-118011206D01*
X153224500Y-118000000D01*
X167392397Y-118000000D01*
X167459436Y-118019685D01*
X167505191Y-118072489D01*
X167515135Y-118141647D01*
X167514014Y-118148192D01*
X167499500Y-118221155D01*
X167499500Y-118378846D01*
X167530261Y-118533489D01*
X167530264Y-118533501D01*
X167590602Y-118679172D01*
X167590609Y-118679185D01*
X167678210Y-118810288D01*
X167678213Y-118810292D01*
X167789707Y-118921786D01*
X167789711Y-118921789D01*
X167920814Y-119009390D01*
X167920827Y-119009397D01*
X168066498Y-119069735D01*
X168066503Y-119069737D01*
X168221153Y-119100499D01*
X168221156Y-119100500D01*
X168221158Y-119100500D01*
X168378844Y-119100500D01*
X168378845Y-119100499D01*
X168533497Y-119069737D01*
X168679179Y-119009394D01*
X168810289Y-118921789D01*
X168921789Y-118810289D01*
X169009394Y-118679179D01*
X169069737Y-118533497D01*
X169100500Y-118378842D01*
X169100500Y-118221158D01*
X169100500Y-118221155D01*
X169085986Y-118148192D01*
X169092213Y-118078601D01*
X169135075Y-118023423D01*
X169200965Y-118000178D01*
X169207603Y-118000000D01*
X181876000Y-118000000D01*
X181943039Y-118019685D01*
X181988794Y-118072489D01*
X182000000Y-118124000D01*
X182000000Y-129025500D01*
X181980315Y-129092539D01*
X181927511Y-129138294D01*
X181882685Y-129148045D01*
X181882763Y-129149234D01*
X181878717Y-129149499D01*
X181638214Y-129181161D01*
X181403895Y-129243947D01*
X181179794Y-129336773D01*
X181179785Y-129336777D01*
X180969706Y-129458067D01*
X180777263Y-129605733D01*
X180777256Y-129605739D01*
X180605739Y-129777256D01*
X180605733Y-129777263D01*
X180458067Y-129969706D01*
X180336777Y-130179785D01*
X180336773Y-130179794D01*
X180243947Y-130403895D01*
X180181161Y-130638214D01*
X180149500Y-130878711D01*
X180149500Y-131121288D01*
X180181161Y-131361785D01*
X180243947Y-131596104D01*
X180336773Y-131820205D01*
X180336776Y-131820212D01*
X180458064Y-132030289D01*
X180458066Y-132030292D01*
X180458067Y-132030293D01*
X180605733Y-132222736D01*
X180605739Y-132222743D01*
X180777256Y-132394260D01*
X180777262Y-132394265D01*
X180969711Y-132541936D01*
X181179788Y-132663224D01*
X181403900Y-132756054D01*
X181638211Y-132818838D01*
X181878712Y-132850500D01*
X181878717Y-132850500D01*
X181882763Y-132850766D01*
X181882652Y-132852453D01*
X181943039Y-132870185D01*
X181988794Y-132922989D01*
X182000000Y-132974500D01*
X182000000Y-133876000D01*
X181980315Y-133943039D01*
X181927511Y-133988794D01*
X181876000Y-134000000D01*
X109550096Y-134000000D01*
X109527584Y-133993389D01*
X109504220Y-133991202D01*
X109487607Y-133981651D01*
X109483057Y-133980315D01*
X109473623Y-133973611D01*
X109348426Y-133875525D01*
X109337218Y-133865595D01*
X109134404Y-133662781D01*
X109124474Y-133651573D01*
X108947573Y-133425776D01*
X108939071Y-133413458D01*
X108790680Y-133167987D01*
X108783722Y-133154730D01*
X108666000Y-132893163D01*
X108660698Y-132879182D01*
X108575363Y-132605334D01*
X108571780Y-132590797D01*
X108520076Y-132308659D01*
X108518271Y-132293794D01*
X108500726Y-132003736D01*
X108500500Y-131996249D01*
X108500500Y-130878711D01*
X110149500Y-130878711D01*
X110149500Y-131121288D01*
X110181161Y-131361785D01*
X110243947Y-131596104D01*
X110336773Y-131820205D01*
X110336776Y-131820212D01*
X110458064Y-132030289D01*
X110458066Y-132030292D01*
X110458067Y-132030293D01*
X110605733Y-132222736D01*
X110605739Y-132222743D01*
X110777256Y-132394260D01*
X110777262Y-132394265D01*
X110969711Y-132541936D01*
X111179788Y-132663224D01*
X111403900Y-132756054D01*
X111638211Y-132818838D01*
X111818586Y-132842584D01*
X111878711Y-132850500D01*
X111878712Y-132850500D01*
X112121289Y-132850500D01*
X112169388Y-132844167D01*
X112361789Y-132818838D01*
X112596100Y-132756054D01*
X112820212Y-132663224D01*
X113030289Y-132541936D01*
X113222738Y-132394265D01*
X113394265Y-132222738D01*
X113541936Y-132030289D01*
X113663224Y-131820212D01*
X113756054Y-131596100D01*
X113818838Y-131361789D01*
X113850500Y-131121288D01*
X113850500Y-130878712D01*
X113849329Y-130869821D01*
X113818838Y-130638214D01*
X113818838Y-130638211D01*
X113756054Y-130403900D01*
X113756052Y-130403895D01*
X113739386Y-130363659D01*
X113663226Y-130179794D01*
X113663224Y-130179788D01*
X113541936Y-129969711D01*
X113394265Y-129777262D01*
X113394260Y-129777256D01*
X113222743Y-129605739D01*
X113222736Y-129605733D01*
X113030293Y-129458067D01*
X113030292Y-129458066D01*
X113030289Y-129458064D01*
X112820212Y-129336776D01*
X112820205Y-129336773D01*
X112596104Y-129243947D01*
X112361785Y-129181161D01*
X112121289Y-129149500D01*
X112121288Y-129149500D01*
X111878712Y-129149500D01*
X111878711Y-129149500D01*
X111638214Y-129181161D01*
X111403895Y-129243947D01*
X111179794Y-129336773D01*
X111179785Y-129336777D01*
X110969706Y-129458067D01*
X110777263Y-129605733D01*
X110777256Y-129605739D01*
X110605739Y-129777256D01*
X110605733Y-129777263D01*
X110458067Y-129969706D01*
X110336777Y-130179785D01*
X110336773Y-130179794D01*
X110243947Y-130403895D01*
X110181161Y-130638214D01*
X110149500Y-130878711D01*
X108500500Y-130878711D01*
X108500500Y-128365212D01*
X119100000Y-128365212D01*
X119100000Y-128634787D01*
X119130178Y-128902633D01*
X119130181Y-128902651D01*
X119190163Y-129165451D01*
X119190167Y-129165463D01*
X119279192Y-129419881D01*
X119279198Y-129419895D01*
X119396152Y-129662752D01*
X119539568Y-129890998D01*
X119635346Y-130011099D01*
X120384728Y-129261716D01*
X120470278Y-129379466D01*
X120620534Y-129529722D01*
X120738281Y-129615270D01*
X119988899Y-130364652D01*
X119988900Y-130364653D01*
X120108993Y-130460427D01*
X120108997Y-130460429D01*
X120337247Y-130603847D01*
X120580104Y-130720801D01*
X120580118Y-130720807D01*
X120834536Y-130809832D01*
X120834548Y-130809836D01*
X121097348Y-130869818D01*
X121097366Y-130869821D01*
X121365212Y-130899999D01*
X121365216Y-130900000D01*
X121634784Y-130900000D01*
X121634787Y-130899999D01*
X121902633Y-130869821D01*
X121902651Y-130869818D01*
X122165451Y-130809836D01*
X122165463Y-130809832D01*
X122419881Y-130720807D01*
X122419895Y-130720801D01*
X122662752Y-130603847D01*
X122890999Y-130460431D01*
X123011098Y-130364653D01*
X123011099Y-130364652D01*
X122261717Y-129615271D01*
X122379466Y-129529722D01*
X122529722Y-129379466D01*
X122615270Y-129261717D01*
X123364652Y-130011099D01*
X123364653Y-130011098D01*
X123460431Y-129890999D01*
X123603847Y-129662752D01*
X123720801Y-129419895D01*
X123720807Y-129419881D01*
X123809832Y-129165463D01*
X123809836Y-129165451D01*
X123854609Y-128969288D01*
X123888718Y-128908309D01*
X123950379Y-128875451D01*
X124020016Y-128881146D01*
X124075520Y-128923586D01*
X124099268Y-128989296D01*
X124099500Y-128996880D01*
X124099500Y-129704739D01*
X124109987Y-129837982D01*
X124165426Y-130058002D01*
X124259258Y-130264579D01*
X124259263Y-130264589D01*
X124388473Y-130451090D01*
X124548909Y-130611526D01*
X124735410Y-130740736D01*
X124735420Y-130740741D01*
X124941997Y-130834573D01*
X124941998Y-130834573D01*
X124942000Y-130834574D01*
X125162017Y-130890013D01*
X125295264Y-130900500D01*
X125295270Y-130900500D01*
X127704730Y-130900500D01*
X127704736Y-130900500D01*
X127837983Y-130890013D01*
X128058000Y-130834574D01*
X128264582Y-130740740D01*
X128264584Y-130740738D01*
X128264589Y-130740736D01*
X128451090Y-130611526D01*
X128611526Y-130451090D01*
X128740736Y-130264589D01*
X128740743Y-130264576D01*
X128834573Y-130058002D01*
X128834574Y-130058000D01*
X128890013Y-129837983D01*
X128900500Y-129704736D01*
X128900500Y-128365212D01*
X134100000Y-128365212D01*
X134100000Y-128634787D01*
X134130178Y-128902633D01*
X134130181Y-128902651D01*
X134190163Y-129165451D01*
X134190167Y-129165463D01*
X134279192Y-129419881D01*
X134279198Y-129419895D01*
X134396152Y-129662752D01*
X134539568Y-129890998D01*
X134635346Y-130011099D01*
X135384728Y-129261716D01*
X135470278Y-129379466D01*
X135620534Y-129529722D01*
X135738281Y-129615270D01*
X134988899Y-130364652D01*
X134988900Y-130364653D01*
X135108993Y-130460427D01*
X135108997Y-130460429D01*
X135337247Y-130603847D01*
X135580104Y-130720801D01*
X135580118Y-130720807D01*
X135834536Y-130809832D01*
X135834548Y-130809836D01*
X136097348Y-130869818D01*
X136097366Y-130869821D01*
X136365212Y-130899999D01*
X136365216Y-130900000D01*
X136634784Y-130900000D01*
X136634787Y-130899999D01*
X136902633Y-130869821D01*
X136902651Y-130869818D01*
X137165451Y-130809836D01*
X137165463Y-130809832D01*
X137419881Y-130720807D01*
X137419895Y-130720801D01*
X137662752Y-130603847D01*
X137890999Y-130460431D01*
X138011098Y-130364653D01*
X138011099Y-130364652D01*
X137261717Y-129615271D01*
X137379466Y-129529722D01*
X137529722Y-129379466D01*
X137615270Y-129261717D01*
X138364652Y-130011099D01*
X138364653Y-130011098D01*
X138460431Y-129890999D01*
X138603847Y-129662752D01*
X138720801Y-129419895D01*
X138720807Y-129419881D01*
X138809832Y-129165463D01*
X138809836Y-129165451D01*
X138854609Y-128969288D01*
X138888718Y-128908309D01*
X138950379Y-128875451D01*
X139020016Y-128881146D01*
X139075520Y-128923586D01*
X139099268Y-128989296D01*
X139099500Y-128996880D01*
X139099500Y-129704739D01*
X139109987Y-129837982D01*
X139165426Y-130058002D01*
X139259258Y-130264579D01*
X139259263Y-130264589D01*
X139388473Y-130451090D01*
X139548909Y-130611526D01*
X139735410Y-130740736D01*
X139735420Y-130740741D01*
X139941997Y-130834573D01*
X139941998Y-130834573D01*
X139942000Y-130834574D01*
X140162017Y-130890013D01*
X140295264Y-130900500D01*
X140295270Y-130900500D01*
X142704730Y-130900500D01*
X142704736Y-130900500D01*
X142837983Y-130890013D01*
X143058000Y-130834574D01*
X143264582Y-130740740D01*
X143264584Y-130740738D01*
X143264589Y-130740736D01*
X143451090Y-130611526D01*
X143611526Y-130451090D01*
X143740736Y-130264589D01*
X143740743Y-130264576D01*
X143834573Y-130058002D01*
X143834574Y-130058000D01*
X143890013Y-129837983D01*
X143900500Y-129704736D01*
X143900500Y-128365212D01*
X150100000Y-128365212D01*
X150100000Y-128634787D01*
X150130178Y-128902633D01*
X150130181Y-128902651D01*
X150190163Y-129165451D01*
X150190167Y-129165463D01*
X150279192Y-129419881D01*
X150279198Y-129419895D01*
X150396152Y-129662752D01*
X150539568Y-129890998D01*
X150635346Y-130011099D01*
X151384728Y-129261716D01*
X151470278Y-129379466D01*
X151620534Y-129529722D01*
X151738281Y-129615270D01*
X150988899Y-130364652D01*
X150988900Y-130364653D01*
X151108993Y-130460427D01*
X151108997Y-130460429D01*
X151337247Y-130603847D01*
X151580104Y-130720801D01*
X151580118Y-130720807D01*
X151834536Y-130809832D01*
X151834548Y-130809836D01*
X152097348Y-130869818D01*
X152097366Y-130869821D01*
X152365212Y-130899999D01*
X152365216Y-130900000D01*
X152634784Y-130900000D01*
X152634787Y-130899999D01*
X152902633Y-130869821D01*
X152902651Y-130869818D01*
X153165451Y-130809836D01*
X153165463Y-130809832D01*
X153419881Y-130720807D01*
X153419895Y-130720801D01*
X153662752Y-130603847D01*
X153890999Y-130460431D01*
X154011098Y-130364653D01*
X154011099Y-130364652D01*
X153261717Y-129615271D01*
X153379466Y-129529722D01*
X153529722Y-129379466D01*
X153615270Y-129261717D01*
X154364652Y-130011099D01*
X154364653Y-130011098D01*
X154460431Y-129890999D01*
X154603847Y-129662752D01*
X154720801Y-129419895D01*
X154720807Y-129419881D01*
X154809832Y-129165463D01*
X154809836Y-129165451D01*
X154854609Y-128969288D01*
X154888718Y-128908309D01*
X154950379Y-128875451D01*
X155020016Y-128881146D01*
X155075520Y-128923586D01*
X155099268Y-128989296D01*
X155099500Y-128996880D01*
X155099500Y-129704739D01*
X155109987Y-129837982D01*
X155165426Y-130058002D01*
X155259258Y-130264579D01*
X155259263Y-130264589D01*
X155388473Y-130451090D01*
X155548909Y-130611526D01*
X155735410Y-130740736D01*
X155735420Y-130740741D01*
X155941997Y-130834573D01*
X155941998Y-130834573D01*
X155942000Y-130834574D01*
X156162017Y-130890013D01*
X156295264Y-130900500D01*
X156295270Y-130900500D01*
X158704730Y-130900500D01*
X158704736Y-130900500D01*
X158837983Y-130890013D01*
X159058000Y-130834574D01*
X159264582Y-130740740D01*
X159264584Y-130740738D01*
X159264589Y-130740736D01*
X159451090Y-130611526D01*
X159611526Y-130451090D01*
X159740736Y-130264589D01*
X159740743Y-130264576D01*
X159834573Y-130058002D01*
X159834574Y-130058000D01*
X159890013Y-129837983D01*
X159900500Y-129704736D01*
X159900500Y-128365212D01*
X166100000Y-128365212D01*
X166100000Y-128634787D01*
X166130178Y-128902633D01*
X166130181Y-128902651D01*
X166190163Y-129165451D01*
X166190167Y-129165463D01*
X166279192Y-129419881D01*
X166279198Y-129419895D01*
X166396152Y-129662752D01*
X166539568Y-129890998D01*
X166635346Y-130011099D01*
X167384728Y-129261716D01*
X167470278Y-129379466D01*
X167620534Y-129529722D01*
X167738281Y-129615270D01*
X166988899Y-130364652D01*
X166988900Y-130364653D01*
X167108993Y-130460427D01*
X167108997Y-130460429D01*
X167337247Y-130603847D01*
X167580104Y-130720801D01*
X167580118Y-130720807D01*
X167834536Y-130809832D01*
X167834548Y-130809836D01*
X168097348Y-130869818D01*
X168097366Y-130869821D01*
X168365212Y-130899999D01*
X168365216Y-130900000D01*
X168634784Y-130900000D01*
X168634787Y-130899999D01*
X168902633Y-130869821D01*
X168902651Y-130869818D01*
X169165451Y-130809836D01*
X169165463Y-130809832D01*
X169419881Y-130720807D01*
X169419895Y-130720801D01*
X169662752Y-130603847D01*
X169890999Y-130460431D01*
X170011098Y-130364653D01*
X170011099Y-130364652D01*
X169261717Y-129615271D01*
X169379466Y-129529722D01*
X169529722Y-129379466D01*
X169615271Y-129261717D01*
X170364652Y-130011099D01*
X170364653Y-130011098D01*
X170460431Y-129890999D01*
X170603847Y-129662752D01*
X170720801Y-129419895D01*
X170720807Y-129419881D01*
X170809832Y-129165463D01*
X170809836Y-129165451D01*
X170854609Y-128969288D01*
X170888718Y-128908309D01*
X170950379Y-128875451D01*
X171020016Y-128881146D01*
X171075520Y-128923586D01*
X171099268Y-128989296D01*
X171099500Y-128996880D01*
X171099500Y-129704739D01*
X171109987Y-129837982D01*
X171165426Y-130058002D01*
X171259258Y-130264579D01*
X171259263Y-130264589D01*
X171388473Y-130451090D01*
X171548909Y-130611526D01*
X171735410Y-130740736D01*
X171735420Y-130740741D01*
X171941997Y-130834573D01*
X171941998Y-130834573D01*
X171942000Y-130834574D01*
X172162017Y-130890013D01*
X172295264Y-130900500D01*
X172295270Y-130900500D01*
X174704730Y-130900500D01*
X174704736Y-130900500D01*
X174837983Y-130890013D01*
X175058000Y-130834574D01*
X175264582Y-130740740D01*
X175264584Y-130740738D01*
X175264589Y-130740736D01*
X175451090Y-130611526D01*
X175611526Y-130451090D01*
X175740736Y-130264589D01*
X175740741Y-130264579D01*
X175740743Y-130264576D01*
X175834574Y-130058000D01*
X175890013Y-129837983D01*
X175900500Y-129704736D01*
X175900500Y-127295264D01*
X175890013Y-127162017D01*
X175834574Y-126942000D01*
X175740740Y-126735418D01*
X175740736Y-126735410D01*
X175611526Y-126548909D01*
X175451090Y-126388473D01*
X175264589Y-126259263D01*
X175264579Y-126259258D01*
X175058002Y-126165426D01*
X174911322Y-126128466D01*
X174837983Y-126109987D01*
X174804671Y-126107365D01*
X174704739Y-126099500D01*
X174704736Y-126099500D01*
X172295264Y-126099500D01*
X172295260Y-126099500D01*
X172162017Y-126109987D01*
X171941997Y-126165426D01*
X171735420Y-126259258D01*
X171735410Y-126259263D01*
X171548909Y-126388473D01*
X171388473Y-126548909D01*
X171259263Y-126735410D01*
X171259258Y-126735420D01*
X171165426Y-126941997D01*
X171109987Y-127162017D01*
X171099500Y-127295260D01*
X171099500Y-128003119D01*
X171079815Y-128070158D01*
X171027011Y-128115913D01*
X170957853Y-128125857D01*
X170894297Y-128096832D01*
X170856523Y-128038054D01*
X170854609Y-128030712D01*
X170809835Y-127834544D01*
X170809832Y-127834536D01*
X170720807Y-127580118D01*
X170720801Y-127580104D01*
X170603847Y-127337247D01*
X170460429Y-127108997D01*
X170460427Y-127108993D01*
X170364653Y-126988900D01*
X170364652Y-126988899D01*
X169615270Y-127738281D01*
X169529722Y-127620534D01*
X169379466Y-127470278D01*
X169261717Y-127384728D01*
X170011099Y-126635346D01*
X169890998Y-126539568D01*
X169662752Y-126396152D01*
X169419895Y-126279198D01*
X169419881Y-126279192D01*
X169165463Y-126190167D01*
X169165451Y-126190163D01*
X168902651Y-126130181D01*
X168902633Y-126130178D01*
X168634787Y-126100000D01*
X168365212Y-126100000D01*
X168097366Y-126130178D01*
X168097348Y-126130181D01*
X167834548Y-126190163D01*
X167834536Y-126190167D01*
X167580118Y-126279192D01*
X167580104Y-126279198D01*
X167337247Y-126396152D01*
X167109001Y-126539568D01*
X166988899Y-126635345D01*
X167738282Y-127384728D01*
X167620534Y-127470278D01*
X167470278Y-127620534D01*
X167384728Y-127738282D01*
X166635345Y-126988899D01*
X166539568Y-127109001D01*
X166396152Y-127337247D01*
X166279198Y-127580104D01*
X166279192Y-127580118D01*
X166190167Y-127834536D01*
X166190163Y-127834548D01*
X166130181Y-128097348D01*
X166130178Y-128097366D01*
X166100000Y-128365212D01*
X159900500Y-128365212D01*
X159900500Y-127295264D01*
X159890013Y-127162017D01*
X159834574Y-126942000D01*
X159834573Y-126941997D01*
X159740743Y-126735423D01*
X159740736Y-126735410D01*
X159611526Y-126548909D01*
X159451090Y-126388473D01*
X159264589Y-126259263D01*
X159264579Y-126259258D01*
X159058002Y-126165426D01*
X158911322Y-126128466D01*
X158837983Y-126109987D01*
X158804671Y-126107365D01*
X158704739Y-126099500D01*
X158704736Y-126099500D01*
X156295264Y-126099500D01*
X156295260Y-126099500D01*
X156162017Y-126109987D01*
X155941997Y-126165426D01*
X155735420Y-126259258D01*
X155735410Y-126259263D01*
X155548909Y-126388473D01*
X155388473Y-126548909D01*
X155259263Y-126735410D01*
X155259258Y-126735420D01*
X155165426Y-126941997D01*
X155109987Y-127162017D01*
X155099500Y-127295260D01*
X155099500Y-128003119D01*
X155079815Y-128070158D01*
X155027011Y-128115913D01*
X154957853Y-128125857D01*
X154894297Y-128096832D01*
X154856523Y-128038054D01*
X154854609Y-128030712D01*
X154809835Y-127834544D01*
X154809832Y-127834536D01*
X154720807Y-127580118D01*
X154720801Y-127580104D01*
X154603847Y-127337247D01*
X154460429Y-127108997D01*
X154460427Y-127108993D01*
X154364653Y-126988900D01*
X154364652Y-126988899D01*
X153615270Y-127738281D01*
X153529722Y-127620534D01*
X153379466Y-127470278D01*
X153261717Y-127384728D01*
X154011099Y-126635346D01*
X153890998Y-126539568D01*
X153662752Y-126396152D01*
X153419895Y-126279198D01*
X153419881Y-126279192D01*
X153165463Y-126190167D01*
X153165451Y-126190163D01*
X152902651Y-126130181D01*
X152902633Y-126130178D01*
X152634787Y-126100000D01*
X152365212Y-126100000D01*
X152097366Y-126130178D01*
X152097348Y-126130181D01*
X151834548Y-126190163D01*
X151834536Y-126190167D01*
X151580118Y-126279192D01*
X151580104Y-126279198D01*
X151337247Y-126396152D01*
X151109001Y-126539568D01*
X150988899Y-126635345D01*
X151738282Y-127384728D01*
X151620534Y-127470278D01*
X151470278Y-127620534D01*
X151384728Y-127738282D01*
X150635345Y-126988899D01*
X150539568Y-127109001D01*
X150396152Y-127337247D01*
X150279198Y-127580104D01*
X150279192Y-127580118D01*
X150190167Y-127834536D01*
X150190163Y-127834548D01*
X150130181Y-128097348D01*
X150130178Y-128097366D01*
X150100000Y-128365212D01*
X143900500Y-128365212D01*
X143900500Y-127295264D01*
X143890013Y-127162017D01*
X143834574Y-126942000D01*
X143834573Y-126941997D01*
X143740743Y-126735423D01*
X143740736Y-126735410D01*
X143611526Y-126548909D01*
X143451090Y-126388473D01*
X143264589Y-126259263D01*
X143264579Y-126259258D01*
X143058002Y-126165426D01*
X142911322Y-126128466D01*
X142837983Y-126109987D01*
X142804671Y-126107365D01*
X142704739Y-126099500D01*
X142704736Y-126099500D01*
X140295264Y-126099500D01*
X140295260Y-126099500D01*
X140162017Y-126109987D01*
X139941997Y-126165426D01*
X139735420Y-126259258D01*
X139735410Y-126259263D01*
X139548909Y-126388473D01*
X139388473Y-126548909D01*
X139259263Y-126735410D01*
X139259258Y-126735420D01*
X139165426Y-126941997D01*
X139109987Y-127162017D01*
X139099500Y-127295260D01*
X139099500Y-128003119D01*
X139079815Y-128070158D01*
X139027011Y-128115913D01*
X138957853Y-128125857D01*
X138894297Y-128096832D01*
X138856523Y-128038054D01*
X138854609Y-128030712D01*
X138809835Y-127834544D01*
X138809832Y-127834536D01*
X138720807Y-127580118D01*
X138720801Y-127580104D01*
X138603847Y-127337247D01*
X138460429Y-127108997D01*
X138460427Y-127108993D01*
X138364653Y-126988900D01*
X138364652Y-126988899D01*
X137615270Y-127738281D01*
X137529722Y-127620534D01*
X137379466Y-127470278D01*
X137261717Y-127384728D01*
X138011099Y-126635346D01*
X137890998Y-126539568D01*
X137662752Y-126396152D01*
X137419895Y-126279198D01*
X137419881Y-126279192D01*
X137165463Y-126190167D01*
X137165451Y-126190163D01*
X136902651Y-126130181D01*
X136902633Y-126130178D01*
X136634787Y-126100000D01*
X136365212Y-126100000D01*
X136097366Y-126130178D01*
X136097348Y-126130181D01*
X135834548Y-126190163D01*
X135834536Y-126190167D01*
X135580118Y-126279192D01*
X135580104Y-126279198D01*
X135337247Y-126396152D01*
X135109001Y-126539568D01*
X134988899Y-126635345D01*
X135738282Y-127384728D01*
X135620534Y-127470278D01*
X135470278Y-127620534D01*
X135384728Y-127738282D01*
X134635345Y-126988899D01*
X134539568Y-127109001D01*
X134396152Y-127337247D01*
X134279198Y-127580104D01*
X134279192Y-127580118D01*
X134190167Y-127834536D01*
X134190163Y-127834548D01*
X134130181Y-128097348D01*
X134130178Y-128097366D01*
X134100000Y-128365212D01*
X128900500Y-128365212D01*
X128900500Y-127295264D01*
X128890013Y-127162017D01*
X128834574Y-126942000D01*
X128834573Y-126941997D01*
X128740743Y-126735423D01*
X128740736Y-126735410D01*
X128611526Y-126548909D01*
X128451090Y-126388473D01*
X128264589Y-126259263D01*
X128264579Y-126259258D01*
X128058002Y-126165426D01*
X127911322Y-126128466D01*
X127837983Y-126109987D01*
X127804671Y-126107365D01*
X127704739Y-126099500D01*
X127704736Y-126099500D01*
X125295264Y-126099500D01*
X125295260Y-126099500D01*
X125162017Y-126109987D01*
X124941997Y-126165426D01*
X124735420Y-126259258D01*
X124735410Y-126259263D01*
X124548909Y-126388473D01*
X124388473Y-126548909D01*
X124259263Y-126735410D01*
X124259258Y-126735420D01*
X124165426Y-126941997D01*
X124109987Y-127162017D01*
X124099500Y-127295260D01*
X124099500Y-128003119D01*
X124079815Y-128070158D01*
X124027011Y-128115913D01*
X123957853Y-128125857D01*
X123894297Y-128096832D01*
X123856523Y-128038054D01*
X123854609Y-128030712D01*
X123809835Y-127834544D01*
X123809832Y-127834536D01*
X123720807Y-127580118D01*
X123720801Y-127580104D01*
X123603847Y-127337247D01*
X123460429Y-127108997D01*
X123460427Y-127108993D01*
X123364653Y-126988900D01*
X123364652Y-126988899D01*
X122615270Y-127738281D01*
X122529722Y-127620534D01*
X122379466Y-127470278D01*
X122261717Y-127384728D01*
X123011099Y-126635346D01*
X122890998Y-126539568D01*
X122662752Y-126396152D01*
X122419895Y-126279198D01*
X122419881Y-126279192D01*
X122165463Y-126190167D01*
X122165451Y-126190163D01*
X121902651Y-126130181D01*
X121902633Y-126130178D01*
X121634787Y-126100000D01*
X121365212Y-126100000D01*
X121097366Y-126130178D01*
X121097348Y-126130181D01*
X120834548Y-126190163D01*
X120834536Y-126190167D01*
X120580118Y-126279192D01*
X120580104Y-126279198D01*
X120337247Y-126396152D01*
X120109001Y-126539568D01*
X119988899Y-126635345D01*
X120738282Y-127384728D01*
X120620534Y-127470278D01*
X120470278Y-127620534D01*
X120384728Y-127738282D01*
X119635345Y-126988899D01*
X119539568Y-127109001D01*
X119396152Y-127337247D01*
X119279198Y-127580104D01*
X119279192Y-127580118D01*
X119190167Y-127834536D01*
X119190163Y-127834548D01*
X119130181Y-128097348D01*
X119130178Y-128097366D01*
X119100000Y-128365212D01*
X108500500Y-128365212D01*
X108500500Y-123921153D01*
X117199500Y-123921153D01*
X117199500Y-124078846D01*
X117230261Y-124233489D01*
X117230264Y-124233501D01*
X117290602Y-124379172D01*
X117290609Y-124379185D01*
X117378210Y-124510288D01*
X117378213Y-124510292D01*
X117489707Y-124621786D01*
X117489711Y-124621789D01*
X117620814Y-124709390D01*
X117620827Y-124709397D01*
X117766498Y-124769735D01*
X117766503Y-124769737D01*
X117921153Y-124800499D01*
X117921156Y-124800500D01*
X117921158Y-124800500D01*
X118078844Y-124800500D01*
X118078845Y-124800499D01*
X118233497Y-124769737D01*
X118379179Y-124709394D01*
X118510289Y-124621789D01*
X118621789Y-124510289D01*
X118709394Y-124379179D01*
X118769737Y-124233497D01*
X118800500Y-124078842D01*
X118800500Y-123921158D01*
X118800500Y-123921155D01*
X118800499Y-123921153D01*
X133199500Y-123921153D01*
X133199500Y-124078846D01*
X133230261Y-124233489D01*
X133230264Y-124233501D01*
X133290602Y-124379172D01*
X133290609Y-124379185D01*
X133378210Y-124510288D01*
X133378213Y-124510292D01*
X133489707Y-124621786D01*
X133489711Y-124621789D01*
X133620814Y-124709390D01*
X133620827Y-124709397D01*
X133766498Y-124769735D01*
X133766503Y-124769737D01*
X133921153Y-124800499D01*
X133921156Y-124800500D01*
X133921158Y-124800500D01*
X134078844Y-124800500D01*
X134078845Y-124800499D01*
X134233497Y-124769737D01*
X134379179Y-124709394D01*
X134510289Y-124621789D01*
X134621789Y-124510289D01*
X134709394Y-124379179D01*
X134769737Y-124233497D01*
X134800500Y-124078842D01*
X134800500Y-123921158D01*
X134800500Y-123921155D01*
X134800499Y-123921153D01*
X149199500Y-123921153D01*
X149199500Y-124078846D01*
X149230261Y-124233489D01*
X149230264Y-124233501D01*
X149290602Y-124379172D01*
X149290609Y-124379185D01*
X149378210Y-124510288D01*
X149378213Y-124510292D01*
X149489707Y-124621786D01*
X149489711Y-124621789D01*
X149620814Y-124709390D01*
X149620827Y-124709397D01*
X149766498Y-124769735D01*
X149766503Y-124769737D01*
X149921153Y-124800499D01*
X149921156Y-124800500D01*
X149921158Y-124800500D01*
X150078844Y-124800500D01*
X150078845Y-124800499D01*
X150233497Y-124769737D01*
X150379179Y-124709394D01*
X150510289Y-124621789D01*
X150621789Y-124510289D01*
X150709394Y-124379179D01*
X150769737Y-124233497D01*
X150800500Y-124078842D01*
X150800500Y-123921158D01*
X150800500Y-123921155D01*
X150800499Y-123921153D01*
X165199500Y-123921153D01*
X165199500Y-124078846D01*
X165230261Y-124233489D01*
X165230264Y-124233501D01*
X165290602Y-124379172D01*
X165290609Y-124379185D01*
X165378210Y-124510288D01*
X165378213Y-124510292D01*
X165489707Y-124621786D01*
X165489711Y-124621789D01*
X165620814Y-124709390D01*
X165620827Y-124709397D01*
X165766498Y-124769735D01*
X165766503Y-124769737D01*
X165921153Y-124800499D01*
X165921156Y-124800500D01*
X165921158Y-124800500D01*
X166078844Y-124800500D01*
X166078845Y-124800499D01*
X166233497Y-124769737D01*
X166379179Y-124709394D01*
X166510289Y-124621789D01*
X166621789Y-124510289D01*
X166709394Y-124379179D01*
X166769737Y-124233497D01*
X166800500Y-124078842D01*
X166800500Y-123921158D01*
X166800500Y-123921155D01*
X166800499Y-123921153D01*
X166769738Y-123766510D01*
X166769737Y-123766503D01*
X166769735Y-123766498D01*
X166709397Y-123620827D01*
X166709390Y-123620814D01*
X166621789Y-123489711D01*
X166621786Y-123489707D01*
X166510292Y-123378213D01*
X166510288Y-123378210D01*
X166379185Y-123290609D01*
X166379172Y-123290602D01*
X166233501Y-123230264D01*
X166233489Y-123230261D01*
X166078845Y-123199500D01*
X166078842Y-123199500D01*
X165921158Y-123199500D01*
X165921155Y-123199500D01*
X165766510Y-123230261D01*
X165766498Y-123230264D01*
X165620827Y-123290602D01*
X165620814Y-123290609D01*
X165489711Y-123378210D01*
X165489707Y-123378213D01*
X165378213Y-123489707D01*
X165378210Y-123489711D01*
X165290609Y-123620814D01*
X165290602Y-123620827D01*
X165230264Y-123766498D01*
X165230261Y-123766510D01*
X165199500Y-123921153D01*
X150800499Y-123921153D01*
X150769738Y-123766510D01*
X150769737Y-123766503D01*
X150769735Y-123766498D01*
X150709397Y-123620827D01*
X150709390Y-123620814D01*
X150621789Y-123489711D01*
X150621786Y-123489707D01*
X150510292Y-123378213D01*
X150510288Y-123378210D01*
X150379185Y-123290609D01*
X150379172Y-123290602D01*
X150233501Y-123230264D01*
X150233489Y-123230261D01*
X150078845Y-123199500D01*
X150078842Y-123199500D01*
X149921158Y-123199500D01*
X149921155Y-123199500D01*
X149766510Y-123230261D01*
X149766498Y-123230264D01*
X149620827Y-123290602D01*
X149620814Y-123290609D01*
X149489711Y-123378210D01*
X149489707Y-123378213D01*
X149378213Y-123489707D01*
X149378210Y-123489711D01*
X149290609Y-123620814D01*
X149290602Y-123620827D01*
X149230264Y-123766498D01*
X149230261Y-123766510D01*
X149199500Y-123921153D01*
X134800499Y-123921153D01*
X134769738Y-123766510D01*
X134769737Y-123766503D01*
X134769735Y-123766498D01*
X134709397Y-123620827D01*
X134709390Y-123620814D01*
X134621789Y-123489711D01*
X134621786Y-123489707D01*
X134510292Y-123378213D01*
X134510288Y-123378210D01*
X134379185Y-123290609D01*
X134379172Y-123290602D01*
X134233501Y-123230264D01*
X134233489Y-123230261D01*
X134078845Y-123199500D01*
X134078842Y-123199500D01*
X133921158Y-123199500D01*
X133921155Y-123199500D01*
X133766510Y-123230261D01*
X133766498Y-123230264D01*
X133620827Y-123290602D01*
X133620814Y-123290609D01*
X133489711Y-123378210D01*
X133489707Y-123378213D01*
X133378213Y-123489707D01*
X133378210Y-123489711D01*
X133290609Y-123620814D01*
X133290602Y-123620827D01*
X133230264Y-123766498D01*
X133230261Y-123766510D01*
X133199500Y-123921153D01*
X118800499Y-123921153D01*
X118769738Y-123766510D01*
X118769737Y-123766503D01*
X118769735Y-123766498D01*
X118709397Y-123620827D01*
X118709390Y-123620814D01*
X118621789Y-123489711D01*
X118621786Y-123489707D01*
X118510292Y-123378213D01*
X118510288Y-123378210D01*
X118379185Y-123290609D01*
X118379172Y-123290602D01*
X118233501Y-123230264D01*
X118233489Y-123230261D01*
X118078845Y-123199500D01*
X118078842Y-123199500D01*
X117921158Y-123199500D01*
X117921155Y-123199500D01*
X117766510Y-123230261D01*
X117766498Y-123230264D01*
X117620827Y-123290602D01*
X117620814Y-123290609D01*
X117489711Y-123378210D01*
X117489707Y-123378213D01*
X117378213Y-123489707D01*
X117378210Y-123489711D01*
X117290609Y-123620814D01*
X117290602Y-123620827D01*
X117230264Y-123766498D01*
X117230261Y-123766510D01*
X117199500Y-123921153D01*
X108500500Y-123921153D01*
X108500500Y-119521153D01*
X126599500Y-119521153D01*
X126599500Y-119678846D01*
X126630261Y-119833489D01*
X126630264Y-119833501D01*
X126690602Y-119979172D01*
X126690609Y-119979185D01*
X126778210Y-120110288D01*
X126778213Y-120110292D01*
X126889707Y-120221786D01*
X126889711Y-120221789D01*
X127020814Y-120309390D01*
X127020827Y-120309397D01*
X127166498Y-120369735D01*
X127166503Y-120369737D01*
X127321153Y-120400499D01*
X127321156Y-120400500D01*
X127321158Y-120400500D01*
X127478844Y-120400500D01*
X127478845Y-120400499D01*
X127633497Y-120369737D01*
X127779179Y-120309394D01*
X127910289Y-120221789D01*
X128021789Y-120110289D01*
X128109394Y-119979179D01*
X128169737Y-119833497D01*
X128200500Y-119678842D01*
X128200500Y-119521158D01*
X128200500Y-119521155D01*
X128200499Y-119521153D01*
X143499500Y-119521153D01*
X143499500Y-119678846D01*
X143530261Y-119833489D01*
X143530264Y-119833501D01*
X143590602Y-119979172D01*
X143590609Y-119979185D01*
X143678210Y-120110288D01*
X143678213Y-120110292D01*
X143789707Y-120221786D01*
X143789711Y-120221789D01*
X143920814Y-120309390D01*
X143920827Y-120309397D01*
X144066498Y-120369735D01*
X144066503Y-120369737D01*
X144221153Y-120400499D01*
X144221156Y-120400500D01*
X144221158Y-120400500D01*
X144378844Y-120400500D01*
X144378845Y-120400499D01*
X144533497Y-120369737D01*
X144679179Y-120309394D01*
X144810289Y-120221789D01*
X144921789Y-120110289D01*
X145009394Y-119979179D01*
X145069737Y-119833497D01*
X145100500Y-119678842D01*
X145100500Y-119521158D01*
X145100500Y-119521155D01*
X145100499Y-119521153D01*
X158999500Y-119521153D01*
X158999500Y-119678846D01*
X159030261Y-119833489D01*
X159030264Y-119833501D01*
X159090602Y-119979172D01*
X159090609Y-119979185D01*
X159178210Y-120110288D01*
X159178213Y-120110292D01*
X159289707Y-120221786D01*
X159289711Y-120221789D01*
X159420814Y-120309390D01*
X159420827Y-120309397D01*
X159566498Y-120369735D01*
X159566503Y-120369737D01*
X159721153Y-120400499D01*
X159721156Y-120400500D01*
X159721158Y-120400500D01*
X159878844Y-120400500D01*
X159878845Y-120400499D01*
X160033497Y-120369737D01*
X160179179Y-120309394D01*
X160310289Y-120221789D01*
X160421789Y-120110289D01*
X160509394Y-119979179D01*
X160569737Y-119833497D01*
X160600500Y-119678842D01*
X160600500Y-119521158D01*
X160600500Y-119521155D01*
X160600499Y-119521153D01*
X174499500Y-119521153D01*
X174499500Y-119678846D01*
X174530261Y-119833489D01*
X174530264Y-119833501D01*
X174590602Y-119979172D01*
X174590609Y-119979185D01*
X174678210Y-120110288D01*
X174678213Y-120110292D01*
X174789707Y-120221786D01*
X174789711Y-120221789D01*
X174920814Y-120309390D01*
X174920827Y-120309397D01*
X175066498Y-120369735D01*
X175066503Y-120369737D01*
X175221153Y-120400499D01*
X175221156Y-120400500D01*
X175221158Y-120400500D01*
X175378844Y-120400500D01*
X175378845Y-120400499D01*
X175533497Y-120369737D01*
X175679179Y-120309394D01*
X175810289Y-120221789D01*
X175921789Y-120110289D01*
X176009394Y-119979179D01*
X176069737Y-119833497D01*
X176100500Y-119678842D01*
X176100500Y-119521158D01*
X176100500Y-119521155D01*
X176100499Y-119521153D01*
X176069738Y-119366510D01*
X176069737Y-119366503D01*
X176069735Y-119366498D01*
X176009397Y-119220827D01*
X176009390Y-119220814D01*
X175921789Y-119089711D01*
X175921786Y-119089707D01*
X175810292Y-118978213D01*
X175810288Y-118978210D01*
X175679185Y-118890609D01*
X175679172Y-118890602D01*
X175533501Y-118830264D01*
X175533489Y-118830261D01*
X175378845Y-118799500D01*
X175378842Y-118799500D01*
X175221158Y-118799500D01*
X175221155Y-118799500D01*
X175066510Y-118830261D01*
X175066498Y-118830264D01*
X174920827Y-118890602D01*
X174920814Y-118890609D01*
X174789711Y-118978210D01*
X174789707Y-118978213D01*
X174678213Y-119089707D01*
X174678210Y-119089711D01*
X174590609Y-119220814D01*
X174590602Y-119220827D01*
X174530264Y-119366498D01*
X174530261Y-119366510D01*
X174499500Y-119521153D01*
X160600499Y-119521153D01*
X160569738Y-119366510D01*
X160569737Y-119366503D01*
X160569735Y-119366498D01*
X160509397Y-119220827D01*
X160509390Y-119220814D01*
X160421789Y-119089711D01*
X160421786Y-119089707D01*
X160310292Y-118978213D01*
X160310288Y-118978210D01*
X160179185Y-118890609D01*
X160179172Y-118890602D01*
X160033501Y-118830264D01*
X160033489Y-118830261D01*
X159878845Y-118799500D01*
X159878842Y-118799500D01*
X159721158Y-118799500D01*
X159721155Y-118799500D01*
X159566510Y-118830261D01*
X159566498Y-118830264D01*
X159420827Y-118890602D01*
X159420814Y-118890609D01*
X159289711Y-118978210D01*
X159289707Y-118978213D01*
X159178213Y-119089707D01*
X159178210Y-119089711D01*
X159090609Y-119220814D01*
X159090602Y-119220827D01*
X159030264Y-119366498D01*
X159030261Y-119366510D01*
X158999500Y-119521153D01*
X145100499Y-119521153D01*
X145069738Y-119366510D01*
X145069737Y-119366503D01*
X145069735Y-119366498D01*
X145009397Y-119220827D01*
X145009390Y-119220814D01*
X144921789Y-119089711D01*
X144921786Y-119089707D01*
X144810292Y-118978213D01*
X144810288Y-118978210D01*
X144679185Y-118890609D01*
X144679172Y-118890602D01*
X144533501Y-118830264D01*
X144533489Y-118830261D01*
X144378845Y-118799500D01*
X144378842Y-118799500D01*
X144221158Y-118799500D01*
X144221155Y-118799500D01*
X144066510Y-118830261D01*
X144066498Y-118830264D01*
X143920827Y-118890602D01*
X143920814Y-118890609D01*
X143789711Y-118978210D01*
X143789707Y-118978213D01*
X143678213Y-119089707D01*
X143678210Y-119089711D01*
X143590609Y-119220814D01*
X143590602Y-119220827D01*
X143530264Y-119366498D01*
X143530261Y-119366510D01*
X143499500Y-119521153D01*
X128200499Y-119521153D01*
X128169738Y-119366510D01*
X128169737Y-119366503D01*
X128169735Y-119366498D01*
X128109397Y-119220827D01*
X128109390Y-119220814D01*
X128021789Y-119089711D01*
X128021786Y-119089707D01*
X127910292Y-118978213D01*
X127910288Y-118978210D01*
X127779185Y-118890609D01*
X127779172Y-118890602D01*
X127633501Y-118830264D01*
X127633489Y-118830261D01*
X127478845Y-118799500D01*
X127478842Y-118799500D01*
X127321158Y-118799500D01*
X127321155Y-118799500D01*
X127166510Y-118830261D01*
X127166498Y-118830264D01*
X127020827Y-118890602D01*
X127020814Y-118890609D01*
X126889711Y-118978210D01*
X126889707Y-118978213D01*
X126778213Y-119089707D01*
X126778210Y-119089711D01*
X126690609Y-119220814D01*
X126690602Y-119220827D01*
X126630264Y-119366498D01*
X126630261Y-119366510D01*
X126599500Y-119521153D01*
X108500500Y-119521153D01*
X108500500Y-118124000D01*
X108520185Y-118056961D01*
X108572989Y-118011206D01*
X108624500Y-118000000D01*
X119382784Y-118000000D01*
X119449823Y-118019685D01*
G37*
%TD.AperFunction*%
%TD*%
M02*
