%TF.GenerationSoftware,KiCad,Pcbnew,10.0.1*%
%TF.CreationDate,2026-05-03T13:35:04+02:00*%
%TF.ProjectId,LabRover_PDB,4c616252-6f76-4657-925f-5044422e6b69,rev?*%
%TF.SameCoordinates,Original*%
%TF.FileFunction,Paste,Top*%
%TF.FilePolarity,Positive*%
%FSLAX46Y46*%
G04 Gerber Fmt 4.6, Leading zero omitted, Abs format (unit mm)*
G04 Created by KiCad (PCBNEW 10.0.1) date 2026-05-03 13:35:04*
%MOMM*%
%LPD*%
G01*
G04 APERTURE LIST*
G04 Aperture macros list*
%AMRoundRect*
0 Rectangle with rounded corners*
0 $1 Rounding radius*
0 $2 $3 $4 $5 $6 $7 $8 $9 X,Y pos of 4 corners*
0 Add a 4 corners polygon primitive as box body*
4,1,4,$2,$3,$4,$5,$6,$7,$8,$9,$2,$3,0*
0 Add four circle primitives for the rounded corners*
1,1,$1+$1,$2,$3*
1,1,$1+$1,$4,$5*
1,1,$1+$1,$6,$7*
1,1,$1+$1,$8,$9*
0 Add four rect primitives between the rounded corners*
20,1,$1+$1,$2,$3,$4,$5,0*
20,1,$1+$1,$4,$5,$6,$7,0*
20,1,$1+$1,$6,$7,$8,$9,0*
20,1,$1+$1,$8,$9,$2,$3,0*%
G04 Aperture macros list end*
%ADD10RoundRect,0.135000X-0.135000X-0.185000X0.135000X-0.185000X0.135000X0.185000X-0.135000X0.185000X0*%
%ADD11R,1.800000X2.300000*%
%ADD12RoundRect,0.250000X0.650000X-1.000000X0.650000X1.000000X-0.650000X1.000000X-0.650000X-1.000000X0*%
%ADD13R,1.750000X0.950000*%
%ADD14R,1.750000X3.200000*%
%ADD15RoundRect,0.140000X-0.170000X0.140000X-0.170000X-0.140000X0.170000X-0.140000X0.170000X0.140000X0*%
%ADD16RoundRect,0.135000X0.135000X0.185000X-0.135000X0.185000X-0.135000X-0.185000X0.135000X-0.185000X0*%
%ADD17RoundRect,0.135000X0.185000X-0.135000X0.185000X0.135000X-0.185000X0.135000X-0.185000X-0.135000X0*%
%ADD18RoundRect,0.250000X-1.425000X0.362500X-1.425000X-0.362500X1.425000X-0.362500X1.425000X0.362500X0*%
%ADD19R,0.800000X0.400000*%
%ADD20R,0.400000X0.800000*%
%ADD21R,1.450000X1.450000*%
%ADD22R,0.700000X0.700000*%
%ADD23RoundRect,0.150000X0.512500X0.150000X-0.512500X0.150000X-0.512500X-0.150000X0.512500X-0.150000X0*%
%ADD24R,1.525000X0.700000*%
%ADD25RoundRect,0.147500X0.147500X0.172500X-0.147500X0.172500X-0.147500X-0.172500X0.147500X-0.172500X0*%
%ADD26RoundRect,0.140000X0.170000X-0.140000X0.170000X0.140000X-0.170000X0.140000X-0.170000X-0.140000X0*%
%ADD27RoundRect,0.250000X0.650000X-0.325000X0.650000X0.325000X-0.650000X0.325000X-0.650000X-0.325000X0*%
%ADD28R,1.240000X0.600000*%
%ADD29R,1.240000X0.300000*%
%ADD30R,1.400000X0.450000*%
%ADD31R,0.700000X1.525000*%
%ADD32R,0.600000X1.200000*%
%ADD33RoundRect,0.135000X-0.185000X0.135000X-0.185000X-0.135000X0.185000X-0.135000X0.185000X0.135000X0*%
%ADD34R,1.700000X0.900000*%
%ADD35RoundRect,0.150000X-0.587500X-0.150000X0.587500X-0.150000X0.587500X0.150000X-0.587500X0.150000X0*%
%ADD36RoundRect,0.140000X0.140000X0.170000X-0.140000X0.170000X-0.140000X-0.170000X0.140000X-0.170000X0*%
%ADD37R,1.400000X0.300000*%
G04 APERTURE END LIST*
D10*
%TO.C,R17*%
X169760000Y-85850000D03*
X168740000Y-85850000D03*
%TD*%
%TO.C,R18*%
X169760000Y-84750000D03*
X168740000Y-84750000D03*
%TD*%
D11*
%TO.C,C1*%
X125100000Y-92700000D03*
X128000000Y-92700000D03*
%TD*%
%TO.C,C2*%
X129450000Y-81600000D03*
X126550000Y-81600000D03*
%TD*%
D12*
%TO.C,D2*%
X121450000Y-89500000D03*
X121450000Y-85500000D03*
%TD*%
D13*
%TO.C,IC3*%
X124950000Y-84900000D03*
X124950000Y-87200000D03*
X124950000Y-89500000D03*
D14*
X131250000Y-87200000D03*
%TD*%
D15*
%TO.C,C3*%
X170125000Y-92470000D03*
X170125000Y-91510000D03*
%TD*%
D16*
%TO.C,R24*%
X165500000Y-72000000D03*
X164480000Y-72000000D03*
%TD*%
D17*
%TO.C,R26*%
X150000000Y-123010000D03*
X150000000Y-121990000D03*
%TD*%
D18*
%TO.C,R11*%
X173000000Y-108037500D03*
X173000000Y-113962500D03*
%TD*%
D19*
%TO.C,IC7*%
X144100000Y-83425000D03*
X144100000Y-84225000D03*
X144100000Y-85025000D03*
X144100000Y-85825000D03*
X144100000Y-86625000D03*
X144100000Y-87425000D03*
X144100000Y-88225000D03*
X144100000Y-89025000D03*
X144100000Y-89825000D03*
X144100000Y-90625000D03*
X144100000Y-91425000D03*
D20*
X145200000Y-92325000D03*
X146000000Y-92325000D03*
X146800000Y-92325000D03*
X147600000Y-92325000D03*
X148400000Y-92325000D03*
X149200000Y-92325000D03*
X150000000Y-92325000D03*
X150800000Y-92325000D03*
X151600000Y-92325000D03*
X152400000Y-92325000D03*
X153200000Y-92325000D03*
X154000000Y-92325000D03*
X154800000Y-92325000D03*
D19*
X155900000Y-91425000D03*
X155900000Y-90625000D03*
X155900000Y-89825000D03*
X155900000Y-89025000D03*
X155900000Y-88225000D03*
X155900000Y-87425000D03*
X155900000Y-86625000D03*
X155900000Y-85825000D03*
X155900000Y-85025000D03*
X155900000Y-84225000D03*
X155900000Y-83425000D03*
D20*
X154800000Y-82525000D03*
X154000000Y-82525000D03*
X153200000Y-82525000D03*
X152400000Y-82525000D03*
X151600000Y-82525000D03*
X150800000Y-82525000D03*
X150000000Y-82525000D03*
X149200000Y-82525000D03*
X148400000Y-82525000D03*
X147600000Y-82525000D03*
X146800000Y-82525000D03*
X146000000Y-82525000D03*
X145200000Y-82525000D03*
D21*
X150000000Y-87425000D03*
D22*
X155950000Y-82475000D03*
X155950000Y-92375000D03*
X144050000Y-92375000D03*
X144050000Y-82475000D03*
D21*
X148025000Y-85450000D03*
X148025000Y-87425000D03*
X148025000Y-89400000D03*
X150000000Y-89400000D03*
X151975000Y-89400000D03*
X151975000Y-87425000D03*
X151975000Y-85450000D03*
X150000000Y-85450000D03*
%TD*%
D23*
%TO.C,U1*%
X175237500Y-86250000D03*
X175237500Y-85300000D03*
X175237500Y-84350000D03*
X172962500Y-84350000D03*
X172962500Y-85300000D03*
X172962500Y-86250000D03*
%TD*%
D16*
%TO.C,R30*%
X165510000Y-75000000D03*
X164490000Y-75000000D03*
%TD*%
D17*
%TO.C,R29*%
X166000000Y-123110000D03*
X166000000Y-122090000D03*
%TD*%
D16*
%TO.C,R5*%
X125055000Y-70500000D03*
X124035000Y-70500000D03*
%TD*%
%TO.C,R1*%
X125000000Y-72000000D03*
X123980000Y-72000000D03*
%TD*%
D24*
%TO.C,IC11*%
X168288000Y-119595000D03*
X168288000Y-120865000D03*
X168288000Y-122135000D03*
X168288000Y-123405000D03*
X173712000Y-123405000D03*
X173712000Y-122135000D03*
X173712000Y-120865000D03*
X173712000Y-119595000D03*
%TD*%
D25*
%TO.C,D4*%
X127975000Y-73500000D03*
X127005000Y-73500000D03*
%TD*%
%TO.C,D3*%
X127975000Y-70500000D03*
X127005000Y-70500000D03*
%TD*%
D26*
%TO.C,C8*%
X139100000Y-83100000D03*
X139100000Y-82140000D03*
%TD*%
D27*
%TO.C,C7*%
X140900000Y-83375000D03*
X140900000Y-80425000D03*
%TD*%
D28*
%TO.C,J5*%
X179375000Y-88500000D03*
X179375000Y-87700000D03*
D29*
X179375000Y-86550000D03*
X179375000Y-85550000D03*
X179375000Y-85050000D03*
X179375000Y-84050000D03*
D28*
X179375000Y-82900000D03*
X179375000Y-82100000D03*
X179375000Y-82100000D03*
X179375000Y-82900000D03*
D29*
X179375000Y-83550000D03*
X179375000Y-84550000D03*
X179375000Y-86050000D03*
X179375000Y-87050000D03*
D28*
X179375000Y-87700000D03*
X179375000Y-88500000D03*
%TD*%
D24*
%TO.C,IC9*%
X136288000Y-119595000D03*
X136288000Y-120865000D03*
X136288000Y-122135000D03*
X136288000Y-123405000D03*
X141712000Y-123405000D03*
X141712000Y-122135000D03*
X141712000Y-120865000D03*
X141712000Y-119595000D03*
%TD*%
D30*
%TO.C,IC4*%
X163800000Y-91525000D03*
X163800000Y-92175000D03*
X163800000Y-92825000D03*
X163800000Y-93475000D03*
X168200000Y-93475000D03*
X168200000Y-92825000D03*
X168200000Y-92175000D03*
X168200000Y-91525000D03*
%TD*%
D31*
%TO.C,IC2*%
X146905000Y-106788000D03*
X145635000Y-106788000D03*
X144365000Y-106788000D03*
X143095000Y-106788000D03*
X143095000Y-112212000D03*
X144365000Y-112212000D03*
X145635000Y-112212000D03*
X146905000Y-112212000D03*
%TD*%
D32*
%TO.C,IC1*%
X144800000Y-98300000D03*
X143850000Y-98300000D03*
X142900000Y-98300000D03*
X142900000Y-100800000D03*
X144800000Y-100800000D03*
%TD*%
D16*
%TO.C,R21*%
X165510000Y-70500000D03*
X164490000Y-70500000D03*
%TD*%
D10*
%TO.C,R4*%
X117790000Y-77600000D03*
X118810000Y-77600000D03*
%TD*%
D33*
%TO.C,R16*%
X141700000Y-85590000D03*
X141700000Y-86610000D03*
%TD*%
D17*
%TO.C,R25*%
X150000000Y-120510000D03*
X150000000Y-119490000D03*
%TD*%
%TO.C,R20*%
X118000000Y-123010000D03*
X118000000Y-121990000D03*
%TD*%
D16*
%TO.C,R27*%
X165510000Y-73500000D03*
X164490000Y-73500000D03*
%TD*%
D34*
%TO.C,SW1*%
X135500000Y-83100000D03*
X135500000Y-79700000D03*
%TD*%
D33*
%TO.C,R14*%
X177100000Y-82290000D03*
X177100000Y-83310000D03*
%TD*%
D26*
%TO.C,C6*%
X137800000Y-80380000D03*
X137800000Y-79420000D03*
%TD*%
D25*
%TO.C,D6*%
X168475000Y-72000000D03*
X167505000Y-72000000D03*
%TD*%
%TO.C,D5*%
X168475000Y-70500000D03*
X167505000Y-70500000D03*
%TD*%
D24*
%TO.C,IC8*%
X120288000Y-119595000D03*
X120288000Y-120865000D03*
X120288000Y-122135000D03*
X120288000Y-123405000D03*
X125712000Y-123405000D03*
X125712000Y-122135000D03*
X125712000Y-120865000D03*
X125712000Y-119595000D03*
%TD*%
D17*
%TO.C,R19*%
X118000000Y-120510000D03*
X118000000Y-119490000D03*
%TD*%
D25*
%TO.C,D1*%
X127965000Y-72000000D03*
X126995000Y-72000000D03*
%TD*%
D17*
%TO.C,R3*%
X144500000Y-105010000D03*
X144500000Y-103990000D03*
%TD*%
D33*
%TO.C,R13*%
X177100000Y-87290000D03*
X177100000Y-88310000D03*
%TD*%
D24*
%TO.C,IC10*%
X152288000Y-119595000D03*
X152288000Y-120865000D03*
X152288000Y-122135000D03*
X152288000Y-123405000D03*
X157712000Y-123405000D03*
X157712000Y-122135000D03*
X157712000Y-120865000D03*
X157712000Y-119595000D03*
%TD*%
D25*
%TO.C,D8*%
X168475000Y-75000000D03*
X167505000Y-75000000D03*
%TD*%
D35*
%TO.C,Q1*%
X120725000Y-77650000D03*
X120725000Y-79550000D03*
X122600000Y-78600000D03*
%TD*%
D16*
%TO.C,R6*%
X125000000Y-73500000D03*
X123980000Y-73500000D03*
%TD*%
D17*
%TO.C,R28*%
X166000000Y-120510000D03*
X166000000Y-119490000D03*
%TD*%
D25*
%TO.C,D7*%
X168475000Y-73500000D03*
X167505000Y-73500000D03*
%TD*%
D10*
%TO.C,R15*%
X152090000Y-96200000D03*
X153110000Y-96200000D03*
%TD*%
D17*
%TO.C,R22*%
X134000000Y-120510000D03*
X134000000Y-119490000D03*
%TD*%
D36*
%TO.C,C4*%
X167480000Y-116000000D03*
X166520000Y-116000000D03*
%TD*%
D15*
%TO.C,R2*%
X143000000Y-104020000D03*
X143000000Y-104980000D03*
%TD*%
D34*
%TO.C,SW2*%
X159800000Y-83100000D03*
X159800000Y-79700000D03*
%TD*%
D17*
%TO.C,R23*%
X134000000Y-123010000D03*
X134000000Y-121990000D03*
%TD*%
%TO.C,R12*%
X139100000Y-85810000D03*
X139100000Y-84790000D03*
%TD*%
D24*
%TO.C,IC5*%
X162288000Y-110595000D03*
X162288000Y-111865000D03*
X162288000Y-113135000D03*
X162288000Y-114405000D03*
X167712000Y-114405000D03*
X167712000Y-113135000D03*
X167712000Y-111865000D03*
X167712000Y-110595000D03*
%TD*%
D37*
%TO.C,IC6*%
X173400000Y-99000000D03*
X173400000Y-99500000D03*
X173400000Y-100000000D03*
X173400000Y-100500000D03*
X173400000Y-101000000D03*
X177800000Y-101000000D03*
X177800000Y-100500000D03*
X177800000Y-100000000D03*
X177800000Y-99500000D03*
X177800000Y-99000000D03*
%TD*%
D10*
%TO.C,R10*%
X171390000Y-102700000D03*
X172410000Y-102700000D03*
%TD*%
D15*
%TO.C,C5*%
X171400000Y-99020000D03*
X171400000Y-99980000D03*
%TD*%
D10*
%TO.C,R7*%
X177290000Y-102400000D03*
X178310000Y-102400000D03*
%TD*%
%TO.C,R8*%
X178290000Y-103500000D03*
X179310000Y-103500000D03*
%TD*%
%TO.C,R9*%
X170390000Y-101100000D03*
X171410000Y-101100000D03*
%TD*%
M02*
