%TF.GenerationSoftware,KiCad,Pcbnew,10.0.1*%
%TF.CreationDate,2026-05-02T17:41:09+02:00*%
%TF.ProjectId,Odyssey_Driver,4f647973-7365-4795-9f44-72697665722e,rev?*%
%TF.SameCoordinates,Original*%
%TF.FileFunction,Paste,Top*%
%TF.FilePolarity,Positive*%
%FSLAX46Y46*%
G04 Gerber Fmt 4.6, Leading zero omitted, Abs format (unit mm)*
G04 Created by KiCad (PCBNEW 10.0.1) date 2026-05-02 17:41:09*
%MOMM*%
%LPD*%
G01*
G04 APERTURE LIST*
G04 Aperture macros list*
%AMRoundRect*
0 Rectangle with rounded corners*
0 $1 Rounding radius*
0 $2 $3 $4 $5 $6 $7 $8 $9 X,Y pos of 4 corners*
0 Add a 4 corners polygon primitive as box body*
4,1,4,$2,$3,$4,$5,$6,$7,$8,$9,$2,$3,0*
0 Add four circle primitives for the rounded corners*
1,1,$1+$1,$2,$3*
1,1,$1+$1,$4,$5*
1,1,$1+$1,$6,$7*
1,1,$1+$1,$8,$9*
0 Add four rect primitives between the rounded corners*
20,1,$1+$1,$2,$3,$4,$5,0*
20,1,$1+$1,$4,$5,$6,$7,0*
20,1,$1+$1,$6,$7,$8,$9,0*
20,1,$1+$1,$8,$9,$2,$3,0*%
G04 Aperture macros list end*
%ADD10RoundRect,0.135000X-0.135000X-0.185000X0.135000X-0.185000X0.135000X0.185000X-0.135000X0.185000X0*%
%ADD11RoundRect,0.250000X-1.000000X-0.650000X1.000000X-0.650000X1.000000X0.650000X-1.000000X0.650000X0*%
%ADD12RoundRect,0.135000X0.135000X0.185000X-0.135000X0.185000X-0.135000X-0.185000X0.135000X-0.185000X0*%
%ADD13R,4.000000X2.000000*%
%ADD14RoundRect,0.140000X-0.140000X-0.170000X0.140000X-0.170000X0.140000X0.170000X-0.140000X0.170000X0*%
%ADD15RoundRect,0.140000X0.140000X0.170000X-0.140000X0.170000X-0.140000X-0.170000X0.140000X-0.170000X0*%
%ADD16RoundRect,0.250000X-0.362500X-1.425000X0.362500X-1.425000X0.362500X1.425000X-0.362500X1.425000X0*%
%ADD17RoundRect,0.135000X0.185000X-0.135000X0.185000X0.135000X-0.185000X0.135000X-0.185000X-0.135000X0*%
%ADD18R,0.800000X0.400000*%
%ADD19R,0.400000X0.800000*%
%ADD20R,1.450000X1.450000*%
%ADD21R,0.700000X0.700000*%
%ADD22RoundRect,0.150000X0.512500X0.150000X-0.512500X0.150000X-0.512500X-0.150000X0.512500X-0.150000X0*%
%ADD23RoundRect,0.140000X-0.170000X0.140000X-0.170000X-0.140000X0.170000X-0.140000X0.170000X0.140000X0*%
%ADD24R,4.500000X1.300000*%
%ADD25R,3.900000X1.800000*%
%ADD26RoundRect,0.147500X-0.147500X-0.172500X0.147500X-0.172500X0.147500X0.172500X-0.147500X0.172500X0*%
%ADD27R,2.300000X1.800000*%
%ADD28RoundRect,0.250000X0.362500X1.425000X-0.362500X1.425000X-0.362500X-1.425000X0.362500X-1.425000X0*%
%ADD29RoundRect,0.150000X-0.150000X-0.470000X0.150000X-0.470000X0.150000X0.470000X-0.150000X0.470000X0*%
%ADD30RoundRect,0.075000X-0.075000X-0.545000X0.075000X-0.545000X0.075000X0.545000X-0.075000X0.545000X0*%
%ADD31R,1.700000X0.900000*%
%ADD32RoundRect,0.250000X1.000000X0.650000X-1.000000X0.650000X-1.000000X-0.650000X1.000000X-0.650000X0*%
%ADD33RoundRect,0.135000X-0.185000X0.135000X-0.185000X-0.135000X0.185000X-0.135000X0.185000X0.135000X0*%
%ADD34R,1.800000X2.300000*%
%ADD35RoundRect,0.250000X-0.650000X0.325000X-0.650000X-0.325000X0.650000X-0.325000X0.650000X0.325000X0*%
%ADD36R,1.400000X0.300000*%
%ADD37R,1.525000X0.650000*%
%ADD38RoundRect,0.375000X0.625000X0.375000X-0.625000X0.375000X-0.625000X-0.375000X0.625000X-0.375000X0*%
%ADD39RoundRect,0.500000X0.500000X1.400000X-0.500000X1.400000X-0.500000X-1.400000X0.500000X-1.400000X0*%
G04 APERTURE END LIST*
D10*
%TO.C,R27*%
X165990000Y-109800000D03*
X167010000Y-109800000D03*
%TD*%
D11*
%TO.C,D15*%
X168000000Y-96000000D03*
X172000000Y-96000000D03*
%TD*%
D12*
%TO.C,R23*%
X184710000Y-114100000D03*
X183690000Y-114100000D03*
%TD*%
D13*
%TO.C,C7*%
X167550000Y-67000000D03*
X160450000Y-67000000D03*
%TD*%
D14*
%TO.C,C8*%
X194520000Y-59000000D03*
X195480000Y-59000000D03*
%TD*%
D15*
%TO.C,C4*%
X105480000Y-61000000D03*
X104520000Y-61000000D03*
%TD*%
D16*
%TO.C,R1*%
X109037500Y-66000000D03*
X114962500Y-66000000D03*
%TD*%
D11*
%TO.C,D3*%
X136000000Y-76000000D03*
X140000000Y-76000000D03*
%TD*%
D17*
%TO.C,R20*%
X134100000Y-119110000D03*
X134100000Y-118090000D03*
%TD*%
D12*
%TO.C,R12*%
X115510000Y-90000000D03*
X114490000Y-90000000D03*
%TD*%
D13*
%TO.C,C1*%
X132450000Y-55847500D03*
X139550000Y-55847500D03*
%TD*%
D10*
%TO.C,R22*%
X126990000Y-118400000D03*
X128010000Y-118400000D03*
%TD*%
D18*
%TO.C,IC5*%
X155900000Y-119475000D03*
X155900000Y-118675000D03*
X155900000Y-117875000D03*
X155900000Y-117075000D03*
X155900000Y-116275000D03*
X155900000Y-115475000D03*
X155900000Y-114675000D03*
X155900000Y-113875000D03*
X155900000Y-113075000D03*
X155900000Y-112275000D03*
X155900000Y-111475000D03*
D19*
X154800000Y-110575000D03*
X154000000Y-110575000D03*
X153200000Y-110575000D03*
X152400000Y-110575000D03*
X151600000Y-110575000D03*
X150800000Y-110575000D03*
X150000000Y-110575000D03*
X149200000Y-110575000D03*
X148400000Y-110575000D03*
X147600000Y-110575000D03*
X146800000Y-110575000D03*
X146000000Y-110575000D03*
X145200000Y-110575000D03*
D18*
X144100000Y-111475000D03*
X144100000Y-112275000D03*
X144100000Y-113075000D03*
X144100000Y-113875000D03*
X144100000Y-114675000D03*
X144100000Y-115475000D03*
X144100000Y-116275000D03*
X144100000Y-117075000D03*
X144100000Y-117875000D03*
X144100000Y-118675000D03*
X144100000Y-119475000D03*
D19*
X145200000Y-120375000D03*
X146000000Y-120375000D03*
X146800000Y-120375000D03*
X147600000Y-120375000D03*
X148400000Y-120375000D03*
X149200000Y-120375000D03*
X150000000Y-120375000D03*
X150800000Y-120375000D03*
X151600000Y-120375000D03*
X152400000Y-120375000D03*
X153200000Y-120375000D03*
X154000000Y-120375000D03*
X154800000Y-120375000D03*
D20*
X150000000Y-115475000D03*
D21*
X144050000Y-120425000D03*
X144050000Y-110525000D03*
X155950000Y-110525000D03*
X155950000Y-120425000D03*
D20*
X151975000Y-117450000D03*
X151975000Y-115475000D03*
X151975000Y-113500000D03*
X150000000Y-113500000D03*
X148025000Y-113500000D03*
X148025000Y-115475000D03*
X148025000Y-117450000D03*
X150000000Y-117450000D03*
%TD*%
D22*
%TO.C,U1*%
X172837500Y-111300000D03*
X172837500Y-110350000D03*
X172837500Y-109400000D03*
X170562500Y-109400000D03*
X170562500Y-110350000D03*
X170562500Y-111300000D03*
%TD*%
D23*
%TO.C,C11*%
X132900000Y-119120000D03*
X132900000Y-120080000D03*
%TD*%
D24*
%TO.C,J7*%
X189725000Y-101750000D03*
X189725000Y-99250000D03*
X189725000Y-96750000D03*
X189725000Y-94250000D03*
D25*
X196525000Y-104950000D03*
X196525000Y-91050000D03*
%TD*%
D12*
%TO.C,R24*%
X189710000Y-114000000D03*
X188690000Y-114000000D03*
%TD*%
D16*
%TO.C,R15*%
X173037500Y-66000000D03*
X178962500Y-66000000D03*
%TD*%
D11*
%TO.C,D13*%
X168000000Y-81000000D03*
X172000000Y-81000000D03*
%TD*%
D26*
%TO.C,D19*%
X124300000Y-117200000D03*
X125270000Y-117200000D03*
%TD*%
D23*
%TO.C,C15*%
X161000000Y-117620000D03*
X161000000Y-118580000D03*
%TD*%
D27*
%TO.C,C13*%
X168600000Y-119850000D03*
X168600000Y-116950000D03*
%TD*%
D10*
%TO.C,R21*%
X126990000Y-117200000D03*
X128010000Y-117200000D03*
%TD*%
%TO.C,R18*%
X194490000Y-63000000D03*
X195510000Y-63000000D03*
%TD*%
D13*
%TO.C,C6*%
X167550000Y-56000000D03*
X160450000Y-56000000D03*
%TD*%
D15*
%TO.C,C5*%
X150480000Y-81800000D03*
X149520000Y-81800000D03*
%TD*%
D28*
%TO.C,R2*%
X126962500Y-66000000D03*
X121037500Y-66000000D03*
%TD*%
D29*
%TO.C,J10*%
X183600000Y-116075000D03*
X184400000Y-116075000D03*
D30*
X185550000Y-116075000D03*
X186550000Y-116075000D03*
X187050000Y-116075000D03*
X188050000Y-116075000D03*
D29*
X189200000Y-116075000D03*
X190000000Y-116075000D03*
X190000000Y-116075000D03*
X189200000Y-116075000D03*
D30*
X188550000Y-116075000D03*
X187550000Y-116075000D03*
X186050000Y-116075000D03*
X185050000Y-116075000D03*
D29*
X184400000Y-116075000D03*
X183600000Y-116075000D03*
%TD*%
D11*
%TO.C,D11*%
X168000000Y-101000000D03*
X172000000Y-101000000D03*
%TD*%
D31*
%TO.C,SW2*%
X136500000Y-117000000D03*
X136500000Y-120400000D03*
%TD*%
D17*
%TO.C,R6*%
X115000000Y-77510000D03*
X115000000Y-76490000D03*
%TD*%
D11*
%TO.C,D5*%
X136000000Y-96000000D03*
X140000000Y-96000000D03*
%TD*%
D10*
%TO.C,R8*%
X184490000Y-107000000D03*
X185510000Y-107000000D03*
%TD*%
D32*
%TO.C,D12*%
X164000000Y-101000000D03*
X160000000Y-101000000D03*
%TD*%
D12*
%TO.C,R17*%
X155510000Y-99000000D03*
X154490000Y-99000000D03*
%TD*%
D33*
%TO.C,R4*%
X145000000Y-84490000D03*
X145000000Y-85510000D03*
%TD*%
D15*
%TO.C,C3*%
X105480000Y-59000000D03*
X104520000Y-59000000D03*
%TD*%
D31*
%TO.C,SW1*%
X140100000Y-117000000D03*
X140100000Y-120400000D03*
%TD*%
D15*
%TO.C,C9*%
X150480000Y-103000000D03*
X149520000Y-103000000D03*
%TD*%
D32*
%TO.C,D2*%
X132000000Y-76000000D03*
X128000000Y-76000000D03*
%TD*%
D26*
%TO.C,D1*%
X104515000Y-65000000D03*
X105485000Y-65000000D03*
%TD*%
D24*
%TO.C,J5*%
X110275000Y-94250000D03*
X110275000Y-96750000D03*
X110275000Y-99250000D03*
X110275000Y-101750000D03*
D25*
X103475000Y-91050000D03*
X103475000Y-104950000D03*
%TD*%
D26*
%TO.C,D20*%
X124300000Y-118400000D03*
X125270000Y-118400000D03*
%TD*%
D24*
%TO.C,J6*%
X189725000Y-81750000D03*
X189725000Y-79250000D03*
X189725000Y-76750000D03*
X189725000Y-74250000D03*
D25*
X196525000Y-84950000D03*
X196525000Y-71050000D03*
%TD*%
D32*
%TO.C,D16*%
X164000000Y-96000000D03*
X160000000Y-96000000D03*
%TD*%
D34*
%TO.C,C12*%
X178150000Y-114300000D03*
X175250000Y-114300000D03*
%TD*%
D13*
%TO.C,C2*%
X132450000Y-66847500D03*
X139550000Y-66847500D03*
%TD*%
D11*
%TO.C,D9*%
X136000000Y-101000000D03*
X140000000Y-101000000D03*
%TD*%
D32*
%TO.C,D8*%
X132000000Y-101000000D03*
X128000000Y-101000000D03*
%TD*%
%TO.C,D14*%
X164000000Y-81000000D03*
X160000000Y-81000000D03*
%TD*%
D26*
%TO.C,D10*%
X194515000Y-65000000D03*
X195485000Y-65000000D03*
%TD*%
D10*
%TO.C,R13*%
X184490000Y-87000000D03*
X185510000Y-87000000D03*
%TD*%
D11*
%TO.C,D7*%
X136000000Y-81000000D03*
X140000000Y-81000000D03*
%TD*%
D14*
%TO.C,C10*%
X194520000Y-61000000D03*
X195480000Y-61000000D03*
%TD*%
D11*
%TO.C,D17*%
X168000000Y-76000000D03*
X172000000Y-76000000D03*
%TD*%
D32*
%TO.C,D6*%
X132000000Y-81000000D03*
X128000000Y-81000000D03*
%TD*%
D17*
%TO.C,R14*%
X115000000Y-97510000D03*
X115000000Y-96490000D03*
%TD*%
D12*
%TO.C,R19*%
X155510000Y-97000000D03*
X154490000Y-97000000D03*
%TD*%
D33*
%TO.C,R7*%
X155000000Y-83490000D03*
X155000000Y-84510000D03*
%TD*%
D16*
%TO.C,R16*%
X185037500Y-66000000D03*
X190962500Y-66000000D03*
%TD*%
D17*
%TO.C,R5*%
X185000000Y-100510000D03*
X185000000Y-99490000D03*
%TD*%
D33*
%TO.C,R10*%
X157000000Y-85490000D03*
X157000000Y-86510000D03*
%TD*%
D10*
%TO.C,R3*%
X104490000Y-63000000D03*
X105510000Y-63000000D03*
%TD*%
D24*
%TO.C,J4*%
X110275000Y-74250000D03*
X110275000Y-76750000D03*
X110275000Y-79250000D03*
X110275000Y-81750000D03*
D25*
X103475000Y-71050000D03*
X103475000Y-84950000D03*
%TD*%
D32*
%TO.C,D18*%
X164000000Y-76000000D03*
X160000000Y-76000000D03*
%TD*%
D35*
%TO.C,C14*%
X159100000Y-117925000D03*
X159100000Y-120875000D03*
%TD*%
D12*
%TO.C,R9*%
X115510000Y-70000000D03*
X114490000Y-70000000D03*
%TD*%
D10*
%TO.C,R26*%
X165990000Y-110900000D03*
X167010000Y-110900000D03*
%TD*%
D17*
%TO.C,R11*%
X185000000Y-80510000D03*
X185000000Y-79490000D03*
%TD*%
D36*
%TO.C,IC4*%
X147800000Y-99000000D03*
X147800000Y-99500000D03*
X147800000Y-100000000D03*
X147800000Y-100500000D03*
X147800000Y-101000000D03*
X152200000Y-101000000D03*
X152200000Y-100500000D03*
X152200000Y-100000000D03*
X152200000Y-99500000D03*
X152200000Y-99000000D03*
%TD*%
D37*
%TO.C,IC2*%
X147288000Y-83555000D03*
X147288000Y-84825000D03*
X147288000Y-86095000D03*
X147288000Y-87365000D03*
X147288000Y-88635000D03*
X147288000Y-89905000D03*
X147288000Y-91175000D03*
X147288000Y-92445000D03*
X152712000Y-92445000D03*
X152712000Y-91175000D03*
X152712000Y-89905000D03*
X152712000Y-88635000D03*
X152712000Y-87365000D03*
X152712000Y-86095000D03*
X152712000Y-84825000D03*
X152712000Y-83555000D03*
%TD*%
D38*
%TO.C,U2*%
X178250000Y-122200000D03*
X178250000Y-119900000D03*
D39*
X171950000Y-119900000D03*
D38*
X178250000Y-117600000D03*
%TD*%
D32*
%TO.C,D4*%
X132000000Y-96000000D03*
X128000000Y-96000000D03*
%TD*%
M02*
