M48
; DRILL file KiCad 10.0.1 date 2026-05-02T17:41:06
; FORMAT={-:-/ absolute / metric / decimal}
; #@! TF.CreationDate,2026-05-02T17:41:06+02:00
; #@! TF.GenerationSoftware,Kicad,Pcbnew,10.0.1
; #@! TF.FileFunction,Plated,1,4,PTH
FMAT,2
METRIC
; #@! TA.AperFunction,Plated,PTH,ViaDrill
T1C0.300
; #@! TA.AperFunction,Plated,PTH,ComponentDrill
T2C0.600
; #@! TA.AperFunction,Plated,PTH,ComponentDrill
T3C1.000
; #@! TA.AperFunction,Plated,PTH,ComponentDrill
T4C1.130
; #@! TA.AperFunction,Plated,PTH,ComponentDrill
T5C1.900
%
G90
G05
T1
X104.0Y-81.75
X104.515Y-66.2
X104.52Y-60.0
X104.8Y-62.0
X107.0Y-79.25
X107.0Y-99.25
X107.0Y-101.75
X113.5Y-86.0
X115.08Y-95.02
X115.3Y-122.9
X115.95Y-76.5
X115.95Y-78.3
X118.0Y-66.0
X118.7Y-86.0
X119.25Y-90.9
X121.4Y-86.0
X124.3Y-119.5
X128.0Y-73.0
X129.5Y-86.0
X130.0Y-52.0
X130.0Y-53.0
X130.0Y-54.0
X130.0Y-58.0
X130.0Y-59.0
X130.0Y-60.0
X130.0Y-63.0
X130.0Y-64.0
X130.0Y-65.0
X130.0Y-69.0
X130.0Y-70.0
X130.0Y-71.0
X130.0Y-75.0
X130.0Y-76.0
X130.0Y-77.0
X130.0Y-80.0
X130.0Y-81.0
X130.0Y-82.0
X130.0Y-95.0
X130.0Y-96.0
X130.0Y-97.0
X130.0Y-100.0
X130.0Y-101.0
X130.0Y-102.0
X131.0Y-52.0
X131.0Y-53.0
X131.0Y-54.0
X131.0Y-58.0
X131.0Y-59.0
X131.0Y-60.0
X131.0Y-63.0
X131.0Y-64.0
X131.0Y-65.0
X131.0Y-69.0
X131.0Y-70.0
X131.0Y-71.0
X131.9Y-118.4
X132.0Y-52.0
X132.0Y-53.0
X132.0Y-54.0
X132.0Y-58.0
X132.0Y-59.0
X132.0Y-60.0
X132.0Y-63.0
X132.0Y-64.0
X132.0Y-65.0
X132.0Y-69.0
X132.0Y-70.0
X132.0Y-71.0
X133.0Y-52.0
X133.0Y-53.0
X133.0Y-54.0
X133.0Y-58.0
X133.0Y-59.0
X133.0Y-60.0
X133.0Y-63.0
X133.0Y-64.0
X133.0Y-65.0
X133.0Y-69.0
X133.0Y-70.0
X133.0Y-71.0
X134.0Y-52.0
X134.0Y-53.0
X134.0Y-54.0
X134.0Y-58.0
X134.0Y-59.0
X134.0Y-60.0
X134.0Y-63.0
X134.0Y-64.0
X134.0Y-65.0
X134.0Y-69.0
X134.0Y-70.0
X134.0Y-71.0
X135.0Y-52.0
X135.0Y-53.0
X135.0Y-54.0
X135.0Y-58.0
X135.0Y-59.0
X135.0Y-60.0
X135.0Y-63.0
X135.0Y-64.0
X135.0Y-65.0
X135.0Y-69.0
X135.0Y-70.0
X135.0Y-71.0
X137.0Y-52.0
X137.0Y-53.0
X137.0Y-54.0
X137.0Y-58.0
X137.0Y-59.0
X137.0Y-60.0
X137.0Y-63.0
X137.0Y-64.0
X137.0Y-65.0
X137.0Y-69.0
X137.0Y-70.0
X137.0Y-71.0
X137.7Y-90.9
X138.0Y-52.0
X138.0Y-53.0
X138.0Y-54.0
X138.0Y-58.0
X138.0Y-59.0
X138.0Y-60.0
X138.0Y-63.0
X138.0Y-64.0
X138.0Y-65.0
X138.0Y-69.0
X138.0Y-70.0
X138.0Y-71.0
X138.0Y-75.0
X138.0Y-76.0
X138.0Y-77.0
X138.0Y-80.0
X138.0Y-81.0
X138.0Y-82.0
X138.0Y-95.0
X138.0Y-96.0
X138.0Y-97.0
X138.0Y-100.0
X138.0Y-101.0
X138.0Y-102.0
X139.0Y-52.0
X139.0Y-53.0
X139.0Y-54.0
X139.0Y-58.0
X139.0Y-59.0
X139.0Y-60.0
X139.0Y-63.0
X139.0Y-64.0
X139.0Y-65.0
X139.0Y-69.0
X139.0Y-70.0
X139.0Y-71.0
X140.0Y-52.0
X140.0Y-53.0
X140.0Y-54.0
X140.0Y-58.0
X140.0Y-59.0
X140.0Y-60.0
X140.0Y-63.0
X140.0Y-64.0
X140.0Y-65.0
X140.0Y-69.0
X140.0Y-70.0
X140.0Y-71.0
X140.1Y-89.905
X141.0Y-52.0
X141.0Y-53.0
X141.0Y-54.0
X141.0Y-58.0
X141.0Y-59.0
X141.0Y-60.0
X141.0Y-63.0
X141.0Y-64.0
X141.0Y-65.0
X141.0Y-69.0
X141.0Y-70.0
X141.0Y-71.0
X142.0Y-52.0
X142.0Y-53.0
X142.0Y-54.0
X142.0Y-58.0
X142.0Y-59.0
X142.0Y-60.0
X142.0Y-63.0
X142.0Y-64.0
X142.0Y-65.0
X142.0Y-69.0
X142.0Y-70.0
X142.0Y-71.0
X142.0Y-111.5
X142.0Y-112.3
X142.0Y-113.1
X142.0Y-113.9
X142.0Y-114.7
X142.2Y-117.0
X143.0Y-110.5
X143.4Y-86.3
X144.0Y-84.5
X144.0Y-109.0
X144.5Y-88.7
X145.2Y-108.6
X145.7Y-92.445
X146.05Y-113.5
X146.05Y-115.475
X146.05Y-117.45
X146.5Y-99.0
X146.5Y-100.5
X146.5Y-101.5
X149.52Y-80.5
X150.48Y-80.5
X150.5Y-104.0
X151.6Y-107.5
X152.4Y-107.5
X152.8Y-97.8
X153.6Y-99.0
X153.95Y-113.5
X153.95Y-115.655
X153.95Y-117.45
X154.0Y-101.5
X154.0Y-107.5
X154.566Y-100.934
X154.6Y-87.365
X154.75Y-92.5
X154.8Y-108.2
X155.51Y-95.9
X155.8Y-85.5
X157.25Y-92.5
X157.5Y-112.3
X157.5Y-113.1
X157.5Y-113.9
X157.5Y-115.5
X157.5Y-116.3
X158.0Y-52.0
X158.0Y-53.0
X158.0Y-54.0
X158.0Y-58.0
X158.0Y-59.0
X158.0Y-60.0
X158.0Y-63.0
X158.0Y-64.0
X158.0Y-65.0
X158.0Y-69.0
X158.0Y-70.0
X158.0Y-71.0
X159.0Y-52.0
X159.0Y-53.0
X159.0Y-54.0
X159.0Y-58.0
X159.0Y-59.0
X159.0Y-60.0
X159.0Y-63.0
X159.0Y-64.0
X159.0Y-65.0
X159.0Y-69.0
X159.0Y-70.0
X159.0Y-71.0
X160.0Y-52.0
X160.0Y-53.0
X160.0Y-54.0
X160.0Y-58.0
X160.0Y-59.0
X160.0Y-60.0
X160.0Y-63.0
X160.0Y-64.0
X160.0Y-65.0
X160.0Y-69.0
X160.0Y-70.0
X160.0Y-71.0
X161.0Y-52.0
X161.0Y-53.0
X161.0Y-54.0
X161.0Y-58.0
X161.0Y-59.0
X161.0Y-60.0
X161.0Y-63.0
X161.0Y-64.0
X161.0Y-65.0
X161.0Y-69.0
X161.0Y-70.0
X161.0Y-71.0
X162.0Y-52.0
X162.0Y-53.0
X162.0Y-54.0
X162.0Y-58.0
X162.0Y-59.0
X162.0Y-60.0
X162.0Y-63.0
X162.0Y-64.0
X162.0Y-65.0
X162.0Y-69.0
X162.0Y-70.0
X162.0Y-71.0
X162.0Y-75.0
X162.0Y-76.0
X162.0Y-77.0
X162.0Y-80.0
X162.0Y-81.0
X162.0Y-82.0
X162.0Y-95.0
X162.0Y-96.0
X162.0Y-97.0
X162.0Y-100.0
X162.0Y-101.0
X162.0Y-102.0
X162.1Y-118.6
X163.0Y-52.0
X163.0Y-53.0
X163.0Y-54.0
X163.0Y-58.0
X163.0Y-59.0
X163.0Y-60.0
X163.0Y-63.0
X163.0Y-64.0
X163.0Y-65.0
X163.0Y-69.0
X163.0Y-70.0
X163.0Y-71.0
X164.02Y-117.62
X165.0Y-52.0
X165.0Y-53.0
X165.0Y-54.0
X165.0Y-58.0
X165.0Y-59.0
X165.0Y-60.0
X165.0Y-63.0
X165.0Y-64.0
X165.0Y-65.0
X165.0Y-69.0
X165.0Y-70.0
X165.0Y-71.0
X166.0Y-52.0
X166.0Y-53.0
X166.0Y-54.0
X166.0Y-58.0
X166.0Y-59.0
X166.0Y-60.0
X166.0Y-63.0
X166.0Y-64.0
X166.0Y-65.0
X166.0Y-69.0
X166.0Y-70.0
X166.0Y-71.0
X166.2Y-117.0
X166.25Y-119.85
X167.0Y-52.0
X167.0Y-53.0
X167.0Y-54.0
X167.0Y-58.0
X167.0Y-59.0
X167.0Y-60.0
X167.0Y-63.0
X167.0Y-64.0
X167.0Y-65.0
X167.0Y-69.0
X167.0Y-70.0
X167.0Y-71.0
X167.5Y-123.0
X168.0Y-52.0
X168.0Y-53.0
X168.0Y-54.0
X168.0Y-58.0
X168.0Y-59.0
X168.0Y-60.0
X168.0Y-63.0
X168.0Y-64.0
X168.0Y-65.0
X168.0Y-69.0
X168.0Y-70.0
X168.0Y-71.0
X169.0Y-52.0
X169.0Y-53.0
X169.0Y-54.0
X169.0Y-58.0
X169.0Y-59.0
X169.0Y-60.0
X169.0Y-63.0
X169.0Y-64.0
X169.0Y-65.0
X169.0Y-69.0
X169.0Y-70.0
X169.0Y-71.0
X170.0Y-52.0
X170.0Y-53.0
X170.0Y-54.0
X170.0Y-58.0
X170.0Y-59.0
X170.0Y-60.0
X170.0Y-63.0
X170.0Y-64.0
X170.0Y-65.0
X170.0Y-69.0
X170.0Y-70.0
X170.0Y-71.0
X170.0Y-75.0
X170.0Y-76.0
X170.0Y-77.0
X170.0Y-80.0
X170.0Y-81.0
X170.0Y-82.0
X170.0Y-95.0
X170.0Y-96.0
X170.0Y-97.0
X170.0Y-100.0
X170.0Y-101.0
X170.0Y-102.0
X171.95Y-115.05
X172.0Y-73.25
X173.8Y-78.7
X175.3Y-117.3
X176.0Y-122.2
X177.05Y-109.925
X177.05Y-110.775
X179.2Y-86.65
X181.7Y-118.7
X182.0Y-66.0
X182.05Y-92.5
X183.7Y-113.15
X185.0Y-78.25
X186.375Y-113.283
X186.4Y-99.5
X187.225Y-113.283
X189.7Y-113.15
X193.0Y-76.75
X193.0Y-94.25
X193.0Y-96.75
X194.5Y-62.1
X194.515Y-66.2
X195.48Y-60.0
X196.0Y-74.25
X198.5Y-111.0
T3
X115.0Y-73.0
X115.0Y-84.0
X115.0Y-93.0
X115.0Y-104.0
X144.5Y-54.0
X155.5Y-54.0
X185.0Y-73.0
X185.0Y-84.0
X185.0Y-93.0
X185.0Y-104.0
T4
X109.11Y-61.53
X110.38Y-56.0
X111.65Y-61.53
X112.92Y-56.0
X114.19Y-61.53
X115.46Y-56.0
X116.73Y-61.53
X118.0Y-56.0
X119.27Y-61.53
X120.54Y-56.0
X121.81Y-61.53
X123.08Y-56.0
X124.35Y-61.53
X125.62Y-56.0
X126.89Y-61.53
X173.11Y-61.682
X174.38Y-56.152
X175.65Y-61.682
X176.92Y-56.152
X178.19Y-61.682
X179.46Y-56.152
X180.73Y-61.682
X182.0Y-56.152
X183.27Y-61.682
X184.54Y-56.152
X185.81Y-61.682
X187.08Y-56.152
X188.35Y-61.682
X189.62Y-56.152
X190.89Y-61.682
T5
X120.0Y-76.0
X120.0Y-81.0
X120.0Y-96.0
X120.0Y-101.0
X147.5Y-64.0
X152.5Y-64.0
X180.0Y-76.0
X180.0Y-81.0
X180.0Y-96.0
X180.0Y-101.0
T2
X182.48Y-116.125G85X182.48Y-117.225
G05
X182.48Y-120.325G85X182.48Y-121.425
G05
X191.12Y-116.125G85X191.12Y-117.225
G05
X191.12Y-120.475G85X191.12Y-121.275
G05
M30
