%TF.GenerationSoftware,KiCad,Pcbnew,10.0.1*%
%TF.CreationDate,2026-05-02T17:41:09+02:00*%
%TF.ProjectId,Odyssey_Driver,4f647973-7365-4795-9f44-72697665722e,rev?*%
%TF.SameCoordinates,Original*%
%TF.FileFunction,Copper,L1,Top*%
%TF.FilePolarity,Positive*%
%FSLAX46Y46*%
G04 Gerber Fmt 4.6, Leading zero omitted, Abs format (unit mm)*
G04 Created by KiCad (PCBNEW 10.0.1) date 2026-05-02 17:41:09*
%MOMM*%
%LPD*%
G01*
G04 APERTURE LIST*
G04 Aperture macros list*
%AMRoundRect*
0 Rectangle with rounded corners*
0 $1 Rounding radius*
0 $2 $3 $4 $5 $6 $7 $8 $9 X,Y pos of 4 corners*
0 Add a 4 corners polygon primitive as box body*
4,1,4,$2,$3,$4,$5,$6,$7,$8,$9,$2,$3,0*
0 Add four circle primitives for the rounded corners*
1,1,$1+$1,$2,$3*
1,1,$1+$1,$4,$5*
1,1,$1+$1,$6,$7*
1,1,$1+$1,$8,$9*
0 Add four rect primitives between the rounded corners*
20,1,$1+$1,$2,$3,$4,$5,0*
20,1,$1+$1,$4,$5,$6,$7,0*
20,1,$1+$1,$6,$7,$8,$9,0*
20,1,$1+$1,$8,$9,$2,$3,0*%
G04 Aperture macros list end*
%TA.AperFunction,SMDPad,CuDef*%
%ADD10RoundRect,0.135000X-0.135000X-0.185000X0.135000X-0.185000X0.135000X0.185000X-0.135000X0.185000X0*%
%TD*%
%TA.AperFunction,SMDPad,CuDef*%
%ADD11RoundRect,0.250000X-1.000000X-0.650000X1.000000X-0.650000X1.000000X0.650000X-1.000000X0.650000X0*%
%TD*%
%TA.AperFunction,SMDPad,CuDef*%
%ADD12RoundRect,0.135000X0.135000X0.185000X-0.135000X0.185000X-0.135000X-0.185000X0.135000X-0.185000X0*%
%TD*%
%TA.AperFunction,SMDPad,CuDef*%
%ADD13R,4.000000X2.000000*%
%TD*%
%TA.AperFunction,SMDPad,CuDef*%
%ADD14RoundRect,0.140000X-0.140000X-0.170000X0.140000X-0.170000X0.140000X0.170000X-0.140000X0.170000X0*%
%TD*%
%TA.AperFunction,SMDPad,CuDef*%
%ADD15RoundRect,0.140000X0.140000X0.170000X-0.140000X0.170000X-0.140000X-0.170000X0.140000X-0.170000X0*%
%TD*%
%TA.AperFunction,SMDPad,CuDef*%
%ADD16RoundRect,0.250000X-0.362500X-1.425000X0.362500X-1.425000X0.362500X1.425000X-0.362500X1.425000X0*%
%TD*%
%TA.AperFunction,SMDPad,CuDef*%
%ADD17RoundRect,0.135000X0.185000X-0.135000X0.185000X0.135000X-0.185000X0.135000X-0.185000X-0.135000X0*%
%TD*%
%TA.AperFunction,SMDPad,CuDef*%
%ADD18R,0.800000X0.400000*%
%TD*%
%TA.AperFunction,SMDPad,CuDef*%
%ADD19R,0.400000X0.800000*%
%TD*%
%TA.AperFunction,SMDPad,CuDef*%
%ADD20R,1.450000X1.450000*%
%TD*%
%TA.AperFunction,SMDPad,CuDef*%
%ADD21R,0.700000X0.700000*%
%TD*%
%TA.AperFunction,SMDPad,CuDef*%
%ADD22RoundRect,0.150000X0.512500X0.150000X-0.512500X0.150000X-0.512500X-0.150000X0.512500X-0.150000X0*%
%TD*%
%TA.AperFunction,SMDPad,CuDef*%
%ADD23RoundRect,0.140000X-0.170000X0.140000X-0.170000X-0.140000X0.170000X-0.140000X0.170000X0.140000X0*%
%TD*%
%TA.AperFunction,SMDPad,CuDef*%
%ADD24R,4.500000X1.300000*%
%TD*%
%TA.AperFunction,SMDPad,CuDef*%
%ADD25R,3.900000X1.800000*%
%TD*%
%TA.AperFunction,SMDPad,CuDef*%
%ADD26RoundRect,0.147500X-0.147500X-0.172500X0.147500X-0.172500X0.147500X0.172500X-0.147500X0.172500X0*%
%TD*%
%TA.AperFunction,SMDPad,CuDef*%
%ADD27R,2.300000X1.800000*%
%TD*%
%TA.AperFunction,SMDPad,CuDef*%
%ADD28RoundRect,0.250000X0.362500X1.425000X-0.362500X1.425000X-0.362500X-1.425000X0.362500X-1.425000X0*%
%TD*%
%TA.AperFunction,SMDPad,CuDef*%
%ADD29RoundRect,0.150000X-0.150000X-0.470000X0.150000X-0.470000X0.150000X0.470000X-0.150000X0.470000X0*%
%TD*%
%TA.AperFunction,SMDPad,CuDef*%
%ADD30RoundRect,0.075000X-0.075000X-0.545000X0.075000X-0.545000X0.075000X0.545000X-0.075000X0.545000X0*%
%TD*%
%TA.AperFunction,ComponentPad*%
%ADD31O,1.000000X2.100000*%
%TD*%
%TA.AperFunction,ComponentPad*%
%ADD32O,1.000000X1.800000*%
%TD*%
%TA.AperFunction,ComponentPad*%
%ADD33R,1.695000X1.695000*%
%TD*%
%TA.AperFunction,ComponentPad*%
%ADD34C,1.695000*%
%TD*%
%TA.AperFunction,SMDPad,CuDef*%
%ADD35R,1.700000X0.900000*%
%TD*%
%TA.AperFunction,SMDPad,CuDef*%
%ADD36RoundRect,0.250000X1.000000X0.650000X-1.000000X0.650000X-1.000000X-0.650000X1.000000X-0.650000X0*%
%TD*%
%TA.AperFunction,SMDPad,CuDef*%
%ADD37RoundRect,0.135000X-0.185000X0.135000X-0.185000X-0.135000X0.185000X-0.135000X0.185000X0.135000X0*%
%TD*%
%TA.AperFunction,ComponentPad*%
%ADD38C,1.400000*%
%TD*%
%TA.AperFunction,ComponentPad*%
%ADD39RoundRect,0.770000X-0.980000X-0.980000X0.980000X-0.980000X0.980000X0.980000X-0.980000X0.980000X0*%
%TD*%
%TA.AperFunction,ComponentPad*%
%ADD40C,3.500000*%
%TD*%
%TA.AperFunction,SMDPad,CuDef*%
%ADD41R,1.800000X2.300000*%
%TD*%
%TA.AperFunction,SMDPad,CuDef*%
%ADD42RoundRect,0.250000X-0.650000X0.325000X-0.650000X-0.325000X0.650000X-0.325000X0.650000X0.325000X0*%
%TD*%
%TA.AperFunction,SMDPad,CuDef*%
%ADD43R,1.400000X0.300000*%
%TD*%
%TA.AperFunction,SMDPad,CuDef*%
%ADD44R,1.525000X0.650000*%
%TD*%
%TA.AperFunction,SMDPad,CuDef*%
%ADD45RoundRect,0.375000X0.625000X0.375000X-0.625000X0.375000X-0.625000X-0.375000X0.625000X-0.375000X0*%
%TD*%
%TA.AperFunction,SMDPad,CuDef*%
%ADD46RoundRect,0.500000X0.500000X1.400000X-0.500000X1.400000X-0.500000X-1.400000X0.500000X-1.400000X0*%
%TD*%
%TA.AperFunction,ComponentPad*%
%ADD47RoundRect,0.770000X-0.980000X0.980000X-0.980000X-0.980000X0.980000X-0.980000X0.980000X0.980000X0*%
%TD*%
%TA.AperFunction,ComponentPad*%
%ADD48RoundRect,0.770000X0.980000X-0.980000X0.980000X0.980000X-0.980000X0.980000X-0.980000X-0.980000X0*%
%TD*%
%TA.AperFunction,ViaPad*%
%ADD49C,0.600000*%
%TD*%
%TA.AperFunction,Conductor*%
%ADD50C,0.508000*%
%TD*%
%TA.AperFunction,Conductor*%
%ADD51C,0.200000*%
%TD*%
%TA.AperFunction,Conductor*%
%ADD52C,0.500000*%
%TD*%
%TA.AperFunction,Conductor*%
%ADD53C,0.254000*%
%TD*%
G04 APERTURE END LIST*
D10*
%TO.P,R27,1*%
%TO.N,/ESP32-C6/DR+*%
X165990000Y-109800000D03*
%TO.P,R27,2*%
%TO.N,/ESP32-C6/D+*%
X167010000Y-109800000D03*
%TD*%
D11*
%TO.P,D15,1,K_1*%
%TO.N,/MotorControl/VS*%
X168000000Y-96000000D03*
%TO.P,D15,2,A_2*%
%TO.N,/MotorControlB/O4*%
X172000000Y-96000000D03*
%TD*%
D12*
%TO.P,R23,1*%
%TO.N,Net-(J10-CC1)*%
X184710000Y-114100000D03*
%TO.P,R23,2*%
%TO.N,GND*%
X183690000Y-114100000D03*
%TD*%
D13*
%TO.P,C7,1,+_1*%
%TO.N,/MotorControl/VS*%
X167550000Y-67000000D03*
%TO.P,C7,2,-_2*%
%TO.N,GND*%
X160450000Y-67000000D03*
%TD*%
D14*
%TO.P,C8,1*%
%TO.N,/MotorControl/VS*%
X194520000Y-59000000D03*
%TO.P,C8,2*%
%TO.N,GND*%
X195480000Y-59000000D03*
%TD*%
D15*
%TO.P,C4,1*%
%TO.N,VSS*%
X105480000Y-61000000D03*
%TO.P,C4,2*%
%TO.N,GND*%
X104520000Y-61000000D03*
%TD*%
D16*
%TO.P,R1,1*%
%TO.N,/ADC/ADC0*%
X109037500Y-66000000D03*
%TO.P,R1,2*%
%TO.N,GND*%
X114962500Y-66000000D03*
%TD*%
D11*
%TO.P,D3,1,K_1*%
%TO.N,/MotorControl/O4*%
X136000000Y-76000000D03*
%TO.P,D3,2,A_2*%
%TO.N,GND*%
X140000000Y-76000000D03*
%TD*%
D17*
%TO.P,R20,1*%
%TO.N,/ESP32-C6/RST*%
X134100000Y-119110000D03*
%TO.P,R20,2*%
%TO.N,3V3*%
X134100000Y-118090000D03*
%TD*%
D12*
%TO.P,R12,1*%
%TO.N,3V3*%
X115510000Y-90000000D03*
%TO.P,R12,2*%
%TO.N,/MotorEncoder/SCL3*%
X114490000Y-90000000D03*
%TD*%
D13*
%TO.P,C1,1,+_1*%
%TO.N,/MotorControl/VS*%
X132450000Y-55847500D03*
%TO.P,C1,2,-_2*%
%TO.N,GND*%
X139550000Y-55847500D03*
%TD*%
D10*
%TO.P,R22,1*%
%TO.N,Net-(D20-A)*%
X126990000Y-118400000D03*
%TO.P,R22,2*%
%TO.N,3V3*%
X128010000Y-118400000D03*
%TD*%
D18*
%TO.P,IC5,1,GND_1_1*%
%TO.N,GND*%
X155900000Y-119475000D03*
%TO.P,IC5,2,GND_2_2*%
X155900000Y-118675000D03*
%TO.P,IC5,3,3V3_3*%
%TO.N,3V3*%
X155900000Y-117875000D03*
%TO.P,IC5,4,NC_1_4*%
%TO.N,unconnected-(IC5-NC_1-Pad4)*%
X155900000Y-117075000D03*
%TO.P,IC5,5,IO2_5*%
%TO.N,/I8*%
X155900000Y-116275000D03*
%TO.P,IC5,6,IO3_6*%
%TO.N,/EN4*%
X155900000Y-115475000D03*
%TO.P,IC5,7,NC_2_7*%
%TO.N,unconnected-(IC5-NC_2-Pad7)*%
X155900000Y-114675000D03*
%TO.P,IC5,8,EN_8*%
%TO.N,/ESP32-C6/RST*%
X155900000Y-113875000D03*
%TO.P,IC5,9,IO4_9*%
%TO.N,/I7*%
X155900000Y-113075000D03*
%TO.P,IC5,10,IO5_10*%
%TO.N,/I6*%
X155900000Y-112275000D03*
%TO.P,IC5,11,GND_3_11*%
%TO.N,GND*%
X155900000Y-111475000D03*
D19*
%TO.P,IC5,12,IO0_12*%
%TO.N,/EN3*%
X154800000Y-110575000D03*
%TO.P,IC5,13,IO1_13*%
%TO.N,/I5*%
X154000000Y-110575000D03*
%TO.P,IC5,14,GND_4_14*%
%TO.N,GND*%
X153200000Y-110575000D03*
%TO.P,IC5,15,IO6_15*%
%TO.N,/SCL2*%
X152400000Y-110575000D03*
%TO.P,IC5,16,IO7_16*%
%TO.N,/SDA2*%
X151600000Y-110575000D03*
%TO.P,IC5,17,IO12_17*%
%TO.N,/ESP32-C6/DR-*%
X150800000Y-110575000D03*
%TO.P,IC5,18,IO13_18*%
%TO.N,/ESP32-C6/DR+*%
X150000000Y-110575000D03*
%TO.P,IC5,19,IO14_19*%
%TO.N,unconnected-(IC5-IO14-Pad19)*%
X149200000Y-110575000D03*
%TO.P,IC5,20,IO15_20*%
%TO.N,/SCL*%
X148400000Y-110575000D03*
%TO.P,IC5,21,NC_3_21*%
%TO.N,unconnected-(IC5-NC_3-Pad21)*%
X147600000Y-110575000D03*
%TO.P,IC5,22,IO8_22*%
%TO.N,/SDA*%
X146800000Y-110575000D03*
%TO.P,IC5,23,IO9_23*%
%TO.N,/ESP32-C6/BOOT*%
X146000000Y-110575000D03*
%TO.P,IC5,24,IO18_24*%
%TO.N,/I4*%
X145200000Y-110575000D03*
D18*
%TO.P,IC5,25,IO19_25*%
%TO.N,/EN2*%
X144100000Y-111475000D03*
%TO.P,IC5,26,IO20_26*%
%TO.N,/I3*%
X144100000Y-112275000D03*
%TO.P,IC5,27,IO21_27*%
%TO.N,/I2*%
X144100000Y-113075000D03*
%TO.P,IC5,28,IO22_28*%
%TO.N,/EN1*%
X144100000Y-113875000D03*
%TO.P,IC5,29,IO23_29*%
%TO.N,/I1*%
X144100000Y-114675000D03*
%TO.P,IC5,30,RXD0_30*%
%TO.N,/ESP32-C6/GPIO17*%
X144100000Y-115475000D03*
%TO.P,IC5,31,TXD0_31*%
%TO.N,/ESP32-C6/GPIO16*%
X144100000Y-116275000D03*
%TO.P,IC5,32,NC_4_32*%
%TO.N,unconnected-(IC5-NC_4-Pad32)*%
X144100000Y-117075000D03*
%TO.P,IC5,33,NC_5_33*%
%TO.N,unconnected-(IC5-NC_5-Pad33)*%
X144100000Y-117875000D03*
%TO.P,IC5,34,NC_6_34*%
%TO.N,unconnected-(IC5-NC_6-Pad34)*%
X144100000Y-118675000D03*
%TO.P,IC5,35,NC_7_35*%
%TO.N,unconnected-(IC5-NC_7-Pad35)*%
X144100000Y-119475000D03*
D19*
%TO.P,IC5,36,GND_5_36*%
%TO.N,GND*%
X145200000Y-120375000D03*
%TO.P,IC5,37,GND_6_37*%
X146000000Y-120375000D03*
%TO.P,IC5,38,GND_7_38*%
X146800000Y-120375000D03*
%TO.P,IC5,39,GND_8_39*%
X147600000Y-120375000D03*
%TO.P,IC5,40,GND_9_40*%
X148400000Y-120375000D03*
%TO.P,IC5,41,GND_10_41*%
X149200000Y-120375000D03*
%TO.P,IC5,42,GND_11_42*%
X150000000Y-120375000D03*
%TO.P,IC5,43,GND_12_43*%
X150800000Y-120375000D03*
%TO.P,IC5,44,GND_13_44*%
X151600000Y-120375000D03*
%TO.P,IC5,45,GND_14_45*%
X152400000Y-120375000D03*
%TO.P,IC5,46,GND_15_46*%
X153200000Y-120375000D03*
%TO.P,IC5,47,GND_16_47*%
X154000000Y-120375000D03*
%TO.P,IC5,48,GND_17_48*%
X154800000Y-120375000D03*
D20*
%TO.P,IC5,49,GND_18_49*%
X150000000Y-115475000D03*
D21*
%TO.P,IC5,50,GND_19_50*%
X144050000Y-120425000D03*
%TO.P,IC5,51,GND_20_51*%
X144050000Y-110525000D03*
%TO.P,IC5,52,GND_21_52*%
X155950000Y-110525000D03*
%TO.P,IC5,53,GND_22_53*%
X155950000Y-120425000D03*
D20*
%TO.P,IC5,54,GND_23_54*%
X151975000Y-117450000D03*
%TO.P,IC5,55,GND_24_55*%
X151975000Y-115475000D03*
%TO.P,IC5,56,GND_25_56*%
X151975000Y-113500000D03*
%TO.P,IC5,57,GND_26_57*%
X150000000Y-113500000D03*
%TO.P,IC5,58,GND_27_58*%
X148025000Y-113500000D03*
%TO.P,IC5,59,GND_28_59*%
X148025000Y-115475000D03*
%TO.P,IC5,60,GND_29_60*%
X148025000Y-117450000D03*
%TO.P,IC5,61,GND_30_61*%
X150000000Y-117450000D03*
%TD*%
D22*
%TO.P,U1,1,I/O1_1*%
%TO.N,/ESP32-C6/USB_D-*%
X172837500Y-111300000D03*
%TO.P,U1,2,GND_2*%
%TO.N,GND*%
X172837500Y-110350000D03*
%TO.P,U1,3,I/O2_3*%
%TO.N,/ESP32-C6/USB_D+*%
X172837500Y-109400000D03*
%TO.P,U1,4,I/O2_4*%
%TO.N,/ESP32-C6/D+*%
X170562500Y-109400000D03*
%TO.P,U1,5,VBUS_5*%
%TO.N,VSS*%
X170562500Y-110350000D03*
%TO.P,U1,6,I/O1_6*%
%TO.N,/ESP32-C6/D-*%
X170562500Y-111300000D03*
%TD*%
D23*
%TO.P,C11,1*%
%TO.N,/ESP32-C6/RST*%
X132900000Y-119120000D03*
%TO.P,C11,2*%
%TO.N,GND*%
X132900000Y-120080000D03*
%TD*%
D24*
%TO.P,J7,1,Pin_1_1*%
%TO.N,/MotorEncoder/SCL0*%
X189725000Y-101750000D03*
%TO.P,J7,2,Pin_2_2*%
%TO.N,/MotorEncoder/SDA0*%
X189725000Y-99250000D03*
%TO.P,J7,3,Pin_3_3*%
%TO.N,GND*%
X189725000Y-96750000D03*
%TO.P,J7,4,Pin_4_4*%
%TO.N,3V3*%
X189725000Y-94250000D03*
D25*
%TO.P,J7,MP1*%
%TO.N,N/C*%
X196525000Y-104950000D03*
%TO.P,J7,MP2*%
X196525000Y-91050000D03*
%TD*%
D12*
%TO.P,R24,1*%
%TO.N,GND*%
X189710000Y-114000000D03*
%TO.P,R24,2*%
%TO.N,Net-(J10-CC2)*%
X188690000Y-114000000D03*
%TD*%
D16*
%TO.P,R15,1*%
%TO.N,/ADC/ADC2*%
X173037500Y-66000000D03*
%TO.P,R15,2*%
%TO.N,GND*%
X178962500Y-66000000D03*
%TD*%
D11*
%TO.P,D13,1,K_1*%
%TO.N,/MotorControl/VS*%
X168000000Y-81000000D03*
%TO.P,D13,2,A_2*%
%TO.N,/MotorControlB/O2*%
X172000000Y-81000000D03*
%TD*%
D26*
%TO.P,D19,1,K_1*%
%TO.N,GND*%
X124300000Y-117200000D03*
%TO.P,D19,2,A_2*%
%TO.N,Net-(D19-A)*%
X125270000Y-117200000D03*
%TD*%
D23*
%TO.P,C15,1*%
%TO.N,3V3*%
X161000000Y-117620000D03*
%TO.P,C15,2*%
%TO.N,GND*%
X161000000Y-118580000D03*
%TD*%
D27*
%TO.P,C13,1,+_1*%
%TO.N,3V3*%
X168600000Y-119850000D03*
%TO.P,C13,2,-_2*%
%TO.N,GND*%
X168600000Y-116950000D03*
%TD*%
D10*
%TO.P,R21,1*%
%TO.N,Net-(D19-A)*%
X126990000Y-117200000D03*
%TO.P,R21,2*%
%TO.N,VSS*%
X128010000Y-117200000D03*
%TD*%
%TO.P,R18,1*%
%TO.N,VSS*%
X194490000Y-63000000D03*
%TO.P,R18,2*%
%TO.N,Net-(D10-A)*%
X195510000Y-63000000D03*
%TD*%
D13*
%TO.P,C6,1,+_1*%
%TO.N,/MotorControl/VS*%
X167550000Y-56000000D03*
%TO.P,C6,2,-_2*%
%TO.N,GND*%
X160450000Y-56000000D03*
%TD*%
D15*
%TO.P,C5,1*%
%TO.N,3V3*%
X150480000Y-81800000D03*
%TO.P,C5,2*%
%TO.N,GND*%
X149520000Y-81800000D03*
%TD*%
D28*
%TO.P,R2,1*%
%TO.N,/ADC/ADC1*%
X126962500Y-66000000D03*
%TO.P,R2,2*%
%TO.N,GND*%
X121037500Y-66000000D03*
%TD*%
D29*
%TO.P,J10,A1,GND_A1*%
%TO.N,GND*%
X183600000Y-116075000D03*
%TO.P,J10,A4,VBUS_A4*%
%TO.N,VSS*%
X184400000Y-116075000D03*
D30*
%TO.P,J10,A5,CC1_A5*%
%TO.N,Net-(J10-CC1)*%
X185550000Y-116075000D03*
%TO.P,J10,A6,D+_A6*%
%TO.N,unconnected-(J10-D+-PadA6)*%
X186550000Y-116075000D03*
%TO.P,J10,A7,D-_A7*%
%TO.N,unconnected-(J10-D--PadA7)*%
X187050000Y-116075000D03*
%TO.P,J10,A8,SBU1_A8*%
%TO.N,unconnected-(J10-SBU1-PadA8)*%
X188050000Y-116075000D03*
D29*
%TO.P,J10,A9,VBUS_A9*%
%TO.N,VSS*%
X189200000Y-116075000D03*
%TO.P,J10,A12,GND_A12*%
%TO.N,GND*%
X190000000Y-116075000D03*
%TO.P,J10,B1,GND_B1*%
X190000000Y-116075000D03*
%TO.P,J10,B4,VBUS_B4*%
%TO.N,VSS*%
X189200000Y-116075000D03*
D30*
%TO.P,J10,B5,CC2_B5*%
%TO.N,Net-(J10-CC2)*%
X188550000Y-116075000D03*
%TO.P,J10,B6,D+_B6*%
%TO.N,/ESP32-C6/USB_D+*%
X187550000Y-116075000D03*
%TO.P,J10,B7,D-_B7*%
%TO.N,/ESP32-C6/USB_D-*%
X186050000Y-116075000D03*
%TO.P,J10,B8,SBU2_B8*%
%TO.N,unconnected-(J10-SBU2-PadB8)*%
X185050000Y-116075000D03*
D29*
%TO.P,J10,B9,VBUS_B9*%
%TO.N,VSS*%
X184400000Y-116075000D03*
%TO.P,J10,B12,GND_B12*%
%TO.N,GND*%
X183600000Y-116075000D03*
D31*
%TO.P,J10,SH*%
%TO.N,N/C*%
X182480000Y-116675000D03*
X182480000Y-120875000D03*
X191120000Y-116675000D03*
D32*
X191120000Y-120875000D03*
%TD*%
D11*
%TO.P,D11,1,K_1*%
%TO.N,/MotorControl/VS*%
X168000000Y-101000000D03*
%TO.P,D11,2,A_2*%
%TO.N,/MotorControlB/O3*%
X172000000Y-101000000D03*
%TD*%
D33*
%TO.P,IC1,1,CURRENT_SENSING_A_1*%
%TO.N,/ADC/ADC0*%
X109110000Y-61530000D03*
D34*
%TO.P,IC1,2,OUTPUT_1_2*%
%TO.N,/MotorControl/O1*%
X110380000Y-56000000D03*
%TO.P,IC1,3,OUTPUT_2_3*%
%TO.N,/MotorControl/O2*%
X111650000Y-61530000D03*
%TO.P,IC1,4,SUPPLY_VOLTAGE_VS_4*%
%TO.N,/MotorControl/VS*%
X112920000Y-56000000D03*
%TO.P,IC1,5,INPUT_1_5*%
%TO.N,/I1*%
X114190000Y-61530000D03*
%TO.P,IC1,6,ENABLE_A_6*%
%TO.N,/EN1*%
X115460000Y-56000000D03*
%TO.P,IC1,7,INPUT_2_7*%
%TO.N,/I2*%
X116730000Y-61530000D03*
%TO.P,IC1,8,GND_8*%
%TO.N,GND*%
X118000000Y-56000000D03*
%TO.P,IC1,9,LOGIC_SUPPLY_VOLTAGE_VSS_9*%
%TO.N,VSS*%
X119270000Y-61530000D03*
%TO.P,IC1,10,INPUT_3_10*%
%TO.N,/I3*%
X120540000Y-56000000D03*
%TO.P,IC1,11,ENABLE_B_11*%
%TO.N,/EN2*%
X121810000Y-61530000D03*
%TO.P,IC1,12,INPUT_4_12*%
%TO.N,/I4*%
X123080000Y-56000000D03*
%TO.P,IC1,13,OUTPUT_3_13*%
%TO.N,/MotorControl/O3*%
X124350000Y-61530000D03*
%TO.P,IC1,14,OUTPUT_4_14*%
%TO.N,/MotorControl/O4*%
X125620000Y-56000000D03*
%TO.P,IC1,15,CURRENT_SENSING_B_15*%
%TO.N,/ADC/ADC1*%
X126890000Y-61530000D03*
%TD*%
D35*
%TO.P,SW2,1,1_1*%
%TO.N,/ESP32-C6/BOOT*%
X136500000Y-117000000D03*
%TO.P,SW2,2,2_2*%
%TO.N,GND*%
X136500000Y-120400000D03*
%TD*%
D17*
%TO.P,R6,1*%
%TO.N,3V3*%
X115000000Y-77510000D03*
%TO.P,R6,2*%
%TO.N,/MotorEncoder/SDA2*%
X115000000Y-76490000D03*
%TD*%
D11*
%TO.P,D5,1,K_1*%
%TO.N,/MotorControl/O2*%
X136000000Y-96000000D03*
%TO.P,D5,2,A_2*%
%TO.N,GND*%
X140000000Y-96000000D03*
%TD*%
D10*
%TO.P,R8,1*%
%TO.N,3V3*%
X184490000Y-107000000D03*
%TO.P,R8,2*%
%TO.N,/MotorEncoder/SCL0*%
X185510000Y-107000000D03*
%TD*%
D36*
%TO.P,D12,1,K_1*%
%TO.N,/MotorControlB/O3*%
X164000000Y-101000000D03*
%TO.P,D12,2,A_2*%
%TO.N,GND*%
X160000000Y-101000000D03*
%TD*%
D12*
%TO.P,R17,1*%
%TO.N,3V3*%
X155510000Y-99000000D03*
%TO.P,R17,2*%
%TO.N,/SCL2*%
X154490000Y-99000000D03*
%TD*%
D37*
%TO.P,R4,1*%
%TO.N,3V3*%
X145000000Y-84490000D03*
%TO.P,R4,2*%
%TO.N,Net-(IC2-~{RESET})*%
X145000000Y-85510000D03*
%TD*%
D15*
%TO.P,C3,1*%
%TO.N,/MotorControl/VS*%
X105480000Y-59000000D03*
%TO.P,C3,2*%
%TO.N,GND*%
X104520000Y-59000000D03*
%TD*%
D35*
%TO.P,SW1,1,1_1*%
%TO.N,/ESP32-C6/RST*%
X140100000Y-117000000D03*
%TO.P,SW1,2,2_2*%
%TO.N,GND*%
X140100000Y-120400000D03*
%TD*%
D15*
%TO.P,C9,1*%
%TO.N,3V3*%
X150480000Y-103000000D03*
%TO.P,C9,2*%
%TO.N,GND*%
X149520000Y-103000000D03*
%TD*%
D36*
%TO.P,D2,1,K_1*%
%TO.N,/MotorControl/VS*%
X132000000Y-76000000D03*
%TO.P,D2,2,A_2*%
%TO.N,/MotorControl/O4*%
X128000000Y-76000000D03*
%TD*%
D26*
%TO.P,D1,1,K_1*%
%TO.N,GND*%
X104515000Y-65000000D03*
%TO.P,D1,2,A_2*%
%TO.N,Net-(D1-A)*%
X105485000Y-65000000D03*
%TD*%
D24*
%TO.P,J5,1,Pin_1_1*%
%TO.N,/MotorEncoder/SCL3*%
X110275000Y-94250000D03*
%TO.P,J5,2,Pin_2_2*%
%TO.N,/MotorEncoder/SDA3*%
X110275000Y-96750000D03*
%TO.P,J5,3,Pin_3_3*%
%TO.N,GND*%
X110275000Y-99250000D03*
%TO.P,J5,4,Pin_4_4*%
%TO.N,3V3*%
X110275000Y-101750000D03*
D25*
%TO.P,J5,MP1*%
%TO.N,N/C*%
X103475000Y-91050000D03*
%TO.P,J5,MP2*%
X103475000Y-104950000D03*
%TD*%
D26*
%TO.P,D20,1,K_1*%
%TO.N,GND*%
X124300000Y-118400000D03*
%TO.P,D20,2,A_2*%
%TO.N,Net-(D20-A)*%
X125270000Y-118400000D03*
%TD*%
D24*
%TO.P,J6,1,Pin_1_1*%
%TO.N,/MotorEncoder/SCL1*%
X189725000Y-81750000D03*
%TO.P,J6,2,Pin_2_2*%
%TO.N,/MotorEncoder/SDA1*%
X189725000Y-79250000D03*
%TO.P,J6,3,Pin_3_3*%
%TO.N,GND*%
X189725000Y-76750000D03*
%TO.P,J6,4,Pin_4_4*%
%TO.N,3V3*%
X189725000Y-74250000D03*
D25*
%TO.P,J6,MP1*%
%TO.N,N/C*%
X196525000Y-84950000D03*
%TO.P,J6,MP2*%
X196525000Y-71050000D03*
%TD*%
D38*
%TO.P,J1,*%
%TO.N,*%
X144500000Y-54000000D03*
X155500000Y-54000000D03*
D39*
%TO.P,J1,1,Pin_1_1*%
%TO.N,GND*%
X152500000Y-64000000D03*
D40*
%TO.P,J1,2,Pin_2_2*%
%TO.N,/MotorControl/VS*%
X147500000Y-64000000D03*
%TD*%
D36*
%TO.P,D16,1,K_1*%
%TO.N,/MotorControlB/O4*%
X164000000Y-96000000D03*
%TO.P,D16,2,A_2*%
%TO.N,GND*%
X160000000Y-96000000D03*
%TD*%
D41*
%TO.P,C12,1,+_1*%
%TO.N,VSS*%
X178150000Y-114300000D03*
%TO.P,C12,2,-_2*%
%TO.N,GND*%
X175250000Y-114300000D03*
%TD*%
D13*
%TO.P,C2,1,+_1*%
%TO.N,/MotorControl/VS*%
X132450000Y-66847500D03*
%TO.P,C2,2,-_2*%
%TO.N,GND*%
X139550000Y-66847500D03*
%TD*%
D11*
%TO.P,D9,1,K_1*%
%TO.N,/MotorControl/O1*%
X136000000Y-101000000D03*
%TO.P,D9,2,A_2*%
%TO.N,GND*%
X140000000Y-101000000D03*
%TD*%
D36*
%TO.P,D8,1,K_1*%
%TO.N,/MotorControl/VS*%
X132000000Y-101000000D03*
%TO.P,D8,2,A_2*%
%TO.N,/MotorControl/O1*%
X128000000Y-101000000D03*
%TD*%
%TO.P,D14,1,K_1*%
%TO.N,/MotorControlB/O2*%
X164000000Y-81000000D03*
%TO.P,D14,2,A_2*%
%TO.N,GND*%
X160000000Y-81000000D03*
%TD*%
D26*
%TO.P,D10,1,K_1*%
%TO.N,GND*%
X194515000Y-65000000D03*
%TO.P,D10,2,A_2*%
%TO.N,Net-(D10-A)*%
X195485000Y-65000000D03*
%TD*%
D10*
%TO.P,R13,1*%
%TO.N,3V3*%
X184490000Y-87000000D03*
%TO.P,R13,2*%
%TO.N,/MotorEncoder/SCL1*%
X185510000Y-87000000D03*
%TD*%
D11*
%TO.P,D7,1,K_1*%
%TO.N,/MotorControl/O3*%
X136000000Y-81000000D03*
%TO.P,D7,2,A_2*%
%TO.N,GND*%
X140000000Y-81000000D03*
%TD*%
D14*
%TO.P,C10,1*%
%TO.N,VSS*%
X194520000Y-61000000D03*
%TO.P,C10,2*%
%TO.N,GND*%
X195480000Y-61000000D03*
%TD*%
D11*
%TO.P,D17,1,K_1*%
%TO.N,/MotorControl/VS*%
X168000000Y-76000000D03*
%TO.P,D17,2,A_2*%
%TO.N,/MotorControlB/O1*%
X172000000Y-76000000D03*
%TD*%
D36*
%TO.P,D6,1,K_1*%
%TO.N,/MotorControl/VS*%
X132000000Y-81000000D03*
%TO.P,D6,2,A_2*%
%TO.N,/MotorControl/O3*%
X128000000Y-81000000D03*
%TD*%
D17*
%TO.P,R14,1*%
%TO.N,3V3*%
X115000000Y-97510000D03*
%TO.P,R14,2*%
%TO.N,/MotorEncoder/SDA3*%
X115000000Y-96490000D03*
%TD*%
D12*
%TO.P,R19,1*%
%TO.N,3V3*%
X155510000Y-97000000D03*
%TO.P,R19,2*%
%TO.N,/SDA2*%
X154490000Y-97000000D03*
%TD*%
D37*
%TO.P,R7,1*%
%TO.N,3V3*%
X155000000Y-83490000D03*
%TO.P,R7,2*%
%TO.N,/SDA*%
X155000000Y-84510000D03*
%TD*%
D16*
%TO.P,R16,1*%
%TO.N,GND*%
X185037500Y-66000000D03*
%TO.P,R16,2*%
%TO.N,/ADC/ADC3*%
X190962500Y-66000000D03*
%TD*%
D33*
%TO.P,IC3,1,CURRENT_SENSING_A_1*%
%TO.N,/ADC/ADC2*%
X173110000Y-61682500D03*
D34*
%TO.P,IC3,2,OUTPUT_1_2*%
%TO.N,/MotorControlB/O1*%
X174380000Y-56152500D03*
%TO.P,IC3,3,OUTPUT_2_3*%
%TO.N,/MotorControlB/O2*%
X175650000Y-61682500D03*
%TO.P,IC3,4,SUPPLY_VOLTAGE_VS_4*%
%TO.N,/MotorControl/VS*%
X176920000Y-56152500D03*
%TO.P,IC3,5,INPUT_1_5*%
%TO.N,/I5*%
X178190000Y-61682500D03*
%TO.P,IC3,6,ENABLE_A_6*%
%TO.N,/EN3*%
X179460000Y-56152500D03*
%TO.P,IC3,7,INPUT_2_7*%
%TO.N,/I6*%
X180730000Y-61682500D03*
%TO.P,IC3,8,GND_8*%
%TO.N,GND*%
X182000000Y-56152500D03*
%TO.P,IC3,9,LOGIC_SUPPLY_VOLTAGE_VSS_9*%
%TO.N,VSS*%
X183270000Y-61682500D03*
%TO.P,IC3,10,INPUT_3_10*%
%TO.N,/I7*%
X184540000Y-56152500D03*
%TO.P,IC3,11,ENABLE_B_11*%
%TO.N,/EN4*%
X185810000Y-61682500D03*
%TO.P,IC3,12,INPUT_4_12*%
%TO.N,/I8*%
X187080000Y-56152500D03*
%TO.P,IC3,13,OUTPUT_3_13*%
%TO.N,/MotorControlB/O4*%
X188350000Y-61682500D03*
%TO.P,IC3,14,OUTPUT_4_14*%
%TO.N,/MotorControlB/O3*%
X189620000Y-56152500D03*
%TO.P,IC3,15,CURRENT_SENSING_B_15*%
%TO.N,/ADC/ADC3*%
X190890000Y-61682500D03*
%TD*%
D17*
%TO.P,R5,1*%
%TO.N,3V3*%
X185000000Y-100510000D03*
%TO.P,R5,2*%
%TO.N,/MotorEncoder/SDA0*%
X185000000Y-99490000D03*
%TD*%
D37*
%TO.P,R10,1*%
%TO.N,3V3*%
X157000000Y-85490000D03*
%TO.P,R10,2*%
%TO.N,/SCL*%
X157000000Y-86510000D03*
%TD*%
D10*
%TO.P,R3,1*%
%TO.N,VSS*%
X104490000Y-63000000D03*
%TO.P,R3,2*%
%TO.N,Net-(D1-A)*%
X105510000Y-63000000D03*
%TD*%
D24*
%TO.P,J4,1,Pin_1_1*%
%TO.N,/MotorEncoder/SCL2*%
X110275000Y-74250000D03*
%TO.P,J4,2,Pin_2_2*%
%TO.N,/MotorEncoder/SDA2*%
X110275000Y-76750000D03*
%TO.P,J4,3,Pin_3_3*%
%TO.N,GND*%
X110275000Y-79250000D03*
%TO.P,J4,4,Pin_4_4*%
%TO.N,3V3*%
X110275000Y-81750000D03*
D25*
%TO.P,J4,MP1*%
%TO.N,N/C*%
X103475000Y-71050000D03*
%TO.P,J4,MP2*%
X103475000Y-84950000D03*
%TD*%
D36*
%TO.P,D18,1,K_1*%
%TO.N,/MotorControlB/O1*%
X164000000Y-76000000D03*
%TO.P,D18,2,A_2*%
%TO.N,GND*%
X160000000Y-76000000D03*
%TD*%
D42*
%TO.P,C14,1*%
%TO.N,3V3*%
X159100000Y-117925000D03*
%TO.P,C14,2*%
%TO.N,GND*%
X159100000Y-120875000D03*
%TD*%
D12*
%TO.P,R9,1*%
%TO.N,3V3*%
X115510000Y-70000000D03*
%TO.P,R9,2*%
%TO.N,/MotorEncoder/SCL2*%
X114490000Y-70000000D03*
%TD*%
D10*
%TO.P,R26,1*%
%TO.N,/ESP32-C6/DR-*%
X165990000Y-110900000D03*
%TO.P,R26,2*%
%TO.N,/ESP32-C6/D-*%
X167010000Y-110900000D03*
%TD*%
D17*
%TO.P,R11,1*%
%TO.N,3V3*%
X185000000Y-80510000D03*
%TO.P,R11,2*%
%TO.N,/MotorEncoder/SDA1*%
X185000000Y-79490000D03*
%TD*%
D43*
%TO.P,IC4,1,ADDR_1*%
%TO.N,GND*%
X147800000Y-99000000D03*
%TO.P,IC4,2,ALERT/RDY_2*%
%TO.N,unconnected-(IC4-ALERT{slash}RDY-Pad2)*%
X147800000Y-99500000D03*
%TO.P,IC4,3,GND_3*%
%TO.N,GND*%
X147800000Y-100000000D03*
%TO.P,IC4,4,AIN0_4*%
%TO.N,/ADC/ADC1*%
X147800000Y-100500000D03*
%TO.P,IC4,5,AIN1_5*%
%TO.N,/ADC/ADC0*%
X147800000Y-101000000D03*
%TO.P,IC4,6,AIN2_6*%
%TO.N,/ADC/ADC3*%
X152200000Y-101000000D03*
%TO.P,IC4,7,AIN3_7*%
%TO.N,/ADC/ADC2*%
X152200000Y-100500000D03*
%TO.P,IC4,8,VDD_8*%
%TO.N,3V3*%
X152200000Y-100000000D03*
%TO.P,IC4,9,SDA_9*%
%TO.N,/SCL2*%
X152200000Y-99500000D03*
%TO.P,IC4,10,SCL_10*%
%TO.N,/SDA2*%
X152200000Y-99000000D03*
%TD*%
D44*
%TO.P,IC2,1,A0_1*%
%TO.N,GND*%
X147288000Y-83555000D03*
%TO.P,IC2,2,A1_2*%
X147288000Y-84825000D03*
%TO.P,IC2,3,~{RESET}_3*%
%TO.N,Net-(IC2-~{RESET})*%
X147288000Y-86095000D03*
%TO.P,IC2,4,SD0_4*%
%TO.N,/MotorEncoder/SDA2*%
X147288000Y-87365000D03*
%TO.P,IC2,5,SC0_5*%
%TO.N,/MotorEncoder/SCL2*%
X147288000Y-88635000D03*
%TO.P,IC2,6,SD1_6*%
%TO.N,/MotorEncoder/SDA3*%
X147288000Y-89905000D03*
%TO.P,IC2,7,SC1_7*%
%TO.N,/MotorEncoder/SCL3*%
X147288000Y-91175000D03*
%TO.P,IC2,8,GND_8*%
%TO.N,GND*%
X147288000Y-92445000D03*
%TO.P,IC2,9,SD2_9*%
%TO.N,/MotorEncoder/SDA0*%
X152712000Y-92445000D03*
%TO.P,IC2,10,SC2_10*%
%TO.N,/MotorEncoder/SCL0*%
X152712000Y-91175000D03*
%TO.P,IC2,11,SD3_11*%
%TO.N,/MotorEncoder/SCL1*%
X152712000Y-89905000D03*
%TO.P,IC2,12,SC3_12*%
%TO.N,/MotorEncoder/SDA1*%
X152712000Y-88635000D03*
%TO.P,IC2,13,A2_13*%
%TO.N,GND*%
X152712000Y-87365000D03*
%TO.P,IC2,14,SCL_14*%
%TO.N,/SCL*%
X152712000Y-86095000D03*
%TO.P,IC2,15,SDA_15*%
%TO.N,/SDA*%
X152712000Y-84825000D03*
%TO.P,IC2,16,VCC_16*%
%TO.N,3V3*%
X152712000Y-83555000D03*
%TD*%
D45*
%TO.P,U2,1,GND_1*%
%TO.N,GND*%
X178250000Y-122200000D03*
%TO.P,U2,2,VO_2*%
%TO.N,3V3*%
X178250000Y-119900000D03*
D46*
X171950000Y-119900000D03*
D45*
%TO.P,U2,3,VI_3*%
%TO.N,VSS*%
X178250000Y-117600000D03*
%TD*%
D36*
%TO.P,D4,1,K_1*%
%TO.N,/MotorControl/VS*%
X132000000Y-96000000D03*
%TO.P,D4,2,A_2*%
%TO.N,/MotorControl/O2*%
X128000000Y-96000000D03*
%TD*%
D38*
%TO.P,J3,*%
%TO.N,*%
X115000000Y-93000000D03*
X115000000Y-104000000D03*
D47*
%TO.P,J3,1,Pin_1_1*%
%TO.N,/MotorControl/O2*%
X120000000Y-96000000D03*
D40*
%TO.P,J3,2,Pin_2_2*%
%TO.N,/MotorControl/O1*%
X120000000Y-101000000D03*
%TD*%
D38*
%TO.P,J8,*%
%TO.N,*%
X185000000Y-104000000D03*
X185000000Y-93000000D03*
D48*
%TO.P,J8,1,Pin_1_1*%
%TO.N,/MotorControlB/O3*%
X180000000Y-101000000D03*
D40*
%TO.P,J8,2,Pin_2_2*%
%TO.N,/MotorControlB/O4*%
X180000000Y-96000000D03*
%TD*%
D38*
%TO.P,J2,*%
%TO.N,*%
X115000000Y-73000000D03*
X115000000Y-84000000D03*
D47*
%TO.P,J2,1,Pin_1_1*%
%TO.N,/MotorControl/O4*%
X120000000Y-76000000D03*
D40*
%TO.P,J2,2,Pin_2_2*%
%TO.N,/MotorControl/O3*%
X120000000Y-81000000D03*
%TD*%
D38*
%TO.P,J9,*%
%TO.N,*%
X185000000Y-84000000D03*
X185000000Y-73000000D03*
D48*
%TO.P,J9,1,Pin_1_1*%
%TO.N,/MotorControlB/O2*%
X180000000Y-81000000D03*
D40*
%TO.P,J9,2,Pin_2_2*%
%TO.N,/MotorControlB/O1*%
X180000000Y-76000000D03*
%TD*%
D49*
%TO.N,GND*%
X144000000Y-109000000D03*
X143000000Y-110500000D03*
%TO.N,VSS*%
X115300000Y-122900000D03*
%TO.N,/MotorControl/VS*%
X130000000Y-96000000D03*
X133000000Y-64000000D03*
X130000000Y-100000000D03*
X168000000Y-65000000D03*
X168000000Y-71000000D03*
X131000000Y-71000000D03*
X168000000Y-52000000D03*
X165000000Y-64000000D03*
X170000000Y-80000000D03*
X169000000Y-64000000D03*
X130000000Y-53000000D03*
X170000000Y-60000000D03*
X170000000Y-71000000D03*
X135000000Y-63000000D03*
X133000000Y-59000000D03*
X169000000Y-63000000D03*
X165000000Y-59000000D03*
X130000000Y-95000000D03*
X166000000Y-53000000D03*
X170000000Y-75000000D03*
X166000000Y-63000000D03*
X132000000Y-65000000D03*
X165000000Y-52000000D03*
X130000000Y-63000000D03*
X132000000Y-71000000D03*
X168000000Y-63000000D03*
X168000000Y-58000000D03*
X167000000Y-63000000D03*
X130000000Y-65000000D03*
X166000000Y-71000000D03*
X131000000Y-52000000D03*
X165000000Y-63000000D03*
X165000000Y-58000000D03*
X135000000Y-52000000D03*
X134000000Y-60000000D03*
X167000000Y-58000000D03*
X165000000Y-70000000D03*
X134000000Y-58000000D03*
X131000000Y-69000000D03*
X133000000Y-69000000D03*
X165000000Y-71000000D03*
X167000000Y-65000000D03*
X169000000Y-53000000D03*
X170000000Y-65000000D03*
X133000000Y-65000000D03*
X165000000Y-54000000D03*
X167000000Y-64000000D03*
X132000000Y-69000000D03*
X135000000Y-59000000D03*
X168000000Y-59000000D03*
X134000000Y-65000000D03*
X169000000Y-65000000D03*
X130000000Y-102000000D03*
X166000000Y-60000000D03*
X132000000Y-64000000D03*
X167000000Y-59000000D03*
X135000000Y-58000000D03*
X134000000Y-63000000D03*
X133000000Y-70000000D03*
X133000000Y-54000000D03*
X134000000Y-59000000D03*
X170000000Y-59000000D03*
X170000000Y-95000000D03*
X130000000Y-70000000D03*
X133000000Y-71000000D03*
X130000000Y-64000000D03*
X167000000Y-54000000D03*
X130000000Y-54000000D03*
X168000000Y-69000000D03*
X131000000Y-64000000D03*
X170000000Y-100000000D03*
X167000000Y-53000000D03*
X170000000Y-53000000D03*
X130000000Y-97000000D03*
X166000000Y-54000000D03*
X166000000Y-65000000D03*
X135000000Y-64000000D03*
X135000000Y-54000000D03*
X170000000Y-52000000D03*
X168000000Y-70000000D03*
X133000000Y-53000000D03*
X170000000Y-101000000D03*
X134000000Y-54000000D03*
X131000000Y-54000000D03*
X169000000Y-59000000D03*
X130000000Y-75000000D03*
X165000000Y-53000000D03*
X169000000Y-60000000D03*
X168000000Y-64000000D03*
X167000000Y-69000000D03*
X134000000Y-64000000D03*
X130000000Y-81000000D03*
X132000000Y-60000000D03*
X167000000Y-52000000D03*
X170000000Y-81000000D03*
X135000000Y-65000000D03*
X132000000Y-70000000D03*
X131000000Y-63000000D03*
X166000000Y-69000000D03*
X130000000Y-58000000D03*
X131000000Y-70000000D03*
X169000000Y-52000000D03*
X132000000Y-63000000D03*
X135000000Y-69000000D03*
X132000000Y-52000000D03*
X170000000Y-63000000D03*
X133000000Y-63000000D03*
X168000000Y-53000000D03*
X169000000Y-69000000D03*
X133000000Y-52000000D03*
X165000000Y-69000000D03*
X166000000Y-70000000D03*
X166000000Y-64000000D03*
X135000000Y-53000000D03*
X169000000Y-70000000D03*
X168000000Y-54000000D03*
X132000000Y-54000000D03*
X166000000Y-52000000D03*
X130000000Y-76000000D03*
X131000000Y-60000000D03*
X170000000Y-102000000D03*
X170000000Y-64000000D03*
X134000000Y-71000000D03*
X134000000Y-70000000D03*
X170000000Y-97000000D03*
X170000000Y-58000000D03*
X134000000Y-53000000D03*
X170000000Y-96000000D03*
X170000000Y-76000000D03*
X170000000Y-70000000D03*
X134000000Y-69000000D03*
X170000000Y-54000000D03*
X166000000Y-58000000D03*
X135000000Y-70000000D03*
X168000000Y-60000000D03*
X133000000Y-60000000D03*
X131000000Y-65000000D03*
X132000000Y-59000000D03*
X133000000Y-58000000D03*
X130000000Y-82000000D03*
X167000000Y-60000000D03*
X130000000Y-77000000D03*
X166000000Y-59000000D03*
X169000000Y-58000000D03*
X130000000Y-52000000D03*
X165000000Y-60000000D03*
X132000000Y-53000000D03*
X131000000Y-53000000D03*
X130000000Y-60000000D03*
X130000000Y-71000000D03*
X132000000Y-58000000D03*
X167000000Y-71000000D03*
X170000000Y-82000000D03*
X169000000Y-54000000D03*
X130000000Y-69000000D03*
X130000000Y-101000000D03*
X135000000Y-71000000D03*
X170000000Y-69000000D03*
X134000000Y-52000000D03*
X131000000Y-59000000D03*
X131000000Y-58000000D03*
X170000000Y-77000000D03*
X130000000Y-59000000D03*
X130000000Y-80000000D03*
X169000000Y-71000000D03*
X135000000Y-60000000D03*
X167000000Y-70000000D03*
X165000000Y-65000000D03*
%TO.N,GND*%
X142000000Y-54000000D03*
X139000000Y-58000000D03*
X137000000Y-58000000D03*
X141000000Y-71000000D03*
X138000000Y-71000000D03*
X163000000Y-53000000D03*
X158000000Y-71000000D03*
X160000000Y-53000000D03*
X161000000Y-64000000D03*
X138000000Y-80000000D03*
X176000000Y-122200000D03*
X158000000Y-58000000D03*
X163000000Y-59000000D03*
X159000000Y-60000000D03*
X193000000Y-96750000D03*
X160000000Y-58000000D03*
X140000000Y-60000000D03*
X149520000Y-80500000D03*
X159000000Y-70000000D03*
X138000000Y-65000000D03*
X163000000Y-54000000D03*
X141000000Y-60000000D03*
X140000000Y-69000000D03*
X161000000Y-59000000D03*
X138000000Y-97000000D03*
X153950000Y-115655000D03*
X139000000Y-52000000D03*
X159000000Y-58000000D03*
X162000000Y-80000000D03*
X162000000Y-69000000D03*
X138000000Y-54000000D03*
X158000000Y-70000000D03*
X161000000Y-70000000D03*
X140000000Y-63000000D03*
X163000000Y-71000000D03*
X162000000Y-58000000D03*
X140000000Y-70000000D03*
X183700000Y-113150000D03*
X138000000Y-52000000D03*
X159000000Y-65000000D03*
X162000000Y-100000000D03*
X158000000Y-65000000D03*
X162000000Y-77000000D03*
X161000000Y-71000000D03*
X141000000Y-63000000D03*
X160000000Y-64000000D03*
X161000000Y-52000000D03*
X138000000Y-70000000D03*
X162000000Y-52000000D03*
X159000000Y-53000000D03*
X140000000Y-52000000D03*
X139000000Y-54000000D03*
X142000000Y-58000000D03*
X137000000Y-71000000D03*
X142000000Y-65000000D03*
X140000000Y-54000000D03*
X163000000Y-70000000D03*
X142000000Y-60000000D03*
X138000000Y-76000000D03*
X140000000Y-65000000D03*
X107000000Y-99250000D03*
X163000000Y-60000000D03*
X145700000Y-92445000D03*
X163000000Y-52000000D03*
X160000000Y-54000000D03*
X140000000Y-71000000D03*
X138000000Y-60000000D03*
X141000000Y-53000000D03*
X142000000Y-63000000D03*
X160000000Y-70000000D03*
X162000000Y-96000000D03*
X162000000Y-71000000D03*
X138000000Y-102000000D03*
X159000000Y-64000000D03*
X137000000Y-60000000D03*
X162100000Y-118600000D03*
X137000000Y-52000000D03*
X158000000Y-69000000D03*
X137000000Y-70000000D03*
X138000000Y-63000000D03*
X194515000Y-66200000D03*
X140000000Y-58000000D03*
X142000000Y-69000000D03*
X161000000Y-65000000D03*
X158000000Y-54000000D03*
X163000000Y-65000000D03*
X163000000Y-69000000D03*
X137000000Y-65000000D03*
X160000000Y-65000000D03*
X138000000Y-64000000D03*
X141000000Y-64000000D03*
X104520000Y-60000000D03*
X139000000Y-53000000D03*
X137000000Y-63000000D03*
X146050000Y-113500000D03*
X161000000Y-54000000D03*
X158000000Y-63000000D03*
X138000000Y-95000000D03*
X142000000Y-64000000D03*
X175300000Y-117300000D03*
X158000000Y-53000000D03*
X160000000Y-63000000D03*
X138000000Y-75000000D03*
X160000000Y-59000000D03*
X141000000Y-69000000D03*
X139000000Y-70000000D03*
X137000000Y-59000000D03*
X141000000Y-58000000D03*
X139000000Y-63000000D03*
X162000000Y-53000000D03*
X139000000Y-69000000D03*
X107000000Y-79250000D03*
X158000000Y-59000000D03*
X138000000Y-100000000D03*
X161000000Y-58000000D03*
X162000000Y-60000000D03*
X154600000Y-87365000D03*
X162000000Y-59000000D03*
X139000000Y-60000000D03*
X162000000Y-54000000D03*
X138000000Y-59000000D03*
X161000000Y-60000000D03*
X140000000Y-64000000D03*
X139000000Y-65000000D03*
X158000000Y-52000000D03*
X162000000Y-102000000D03*
X140000000Y-53000000D03*
X162000000Y-97000000D03*
X159000000Y-71000000D03*
X137000000Y-69000000D03*
X140000000Y-59000000D03*
X159000000Y-63000000D03*
X162000000Y-70000000D03*
X146050000Y-117450000D03*
X146500000Y-99000000D03*
X138000000Y-53000000D03*
X138000000Y-77000000D03*
X138000000Y-58000000D03*
X189700000Y-113150000D03*
X161000000Y-69000000D03*
X182000000Y-66000000D03*
X160000000Y-60000000D03*
X158000000Y-60000000D03*
X138000000Y-81000000D03*
X142000000Y-53000000D03*
X142000000Y-70000000D03*
X139000000Y-71000000D03*
X142000000Y-59000000D03*
X141000000Y-65000000D03*
X118000000Y-66000000D03*
X141000000Y-52000000D03*
X162000000Y-95000000D03*
X138000000Y-101000000D03*
X137000000Y-54000000D03*
X162000000Y-65000000D03*
X160000000Y-52000000D03*
X138000000Y-69000000D03*
X153950000Y-117450000D03*
X146050000Y-115475000D03*
X163000000Y-63000000D03*
X162000000Y-64000000D03*
X142000000Y-52000000D03*
X159000000Y-54000000D03*
X163000000Y-58000000D03*
X124300000Y-119500000D03*
X142000000Y-71000000D03*
X139000000Y-64000000D03*
X141000000Y-54000000D03*
X162000000Y-81000000D03*
X138000000Y-96000000D03*
X162000000Y-82000000D03*
X137000000Y-53000000D03*
X160000000Y-69000000D03*
X166200000Y-117000000D03*
X193000000Y-76750000D03*
X137000000Y-64000000D03*
X161000000Y-63000000D03*
X158000000Y-64000000D03*
X139000000Y-59000000D03*
X195480000Y-60000000D03*
X162000000Y-63000000D03*
X153950000Y-113500000D03*
X104515000Y-66200000D03*
X161000000Y-53000000D03*
X163000000Y-64000000D03*
X160000000Y-71000000D03*
X162000000Y-76000000D03*
X162000000Y-101000000D03*
X141000000Y-70000000D03*
X159000000Y-69000000D03*
X141000000Y-59000000D03*
X138000000Y-82000000D03*
X162000000Y-75000000D03*
X159000000Y-59000000D03*
X159000000Y-52000000D03*
%TO.N,VSS*%
X167500000Y-123000000D03*
X198500000Y-111000000D03*
X181700000Y-118700000D03*
X104800000Y-62000000D03*
X194500000Y-62100000D03*
%TO.N,/ADC/ADC0*%
X113500000Y-86000000D03*
X129500000Y-86000000D03*
X146500000Y-101500000D03*
X121400000Y-86000000D03*
X118700000Y-86000000D03*
%TO.N,/MotorControl/O4*%
X128000000Y-73000000D03*
%TO.N,/ESP32-C6/RST*%
X142200000Y-117000000D03*
X157500000Y-113900000D03*
%TO.N,3V3*%
X164020000Y-117620000D03*
X155510000Y-95900000D03*
X107000000Y-101750000D03*
X144000000Y-84500000D03*
X150480000Y-80500000D03*
X166250000Y-119850000D03*
X171950000Y-115050000D03*
X193000000Y-94250000D03*
X131900000Y-118400000D03*
X196000000Y-74250000D03*
X104000000Y-81750000D03*
X155800000Y-85500000D03*
X150500000Y-104000000D03*
%TO.N,/I8*%
X157500000Y-116300000D03*
%TO.N,/EN4*%
X157500000Y-115500000D03*
%TO.N,/I7*%
X157500000Y-113100000D03*
%TO.N,/I6*%
X157500000Y-112300000D03*
%TO.N,/EN3*%
X154800000Y-108200000D03*
%TO.N,/I5*%
X154000000Y-107500000D03*
%TO.N,/SCL2*%
X153600000Y-99000000D03*
X152400000Y-107500000D03*
%TO.N,/SDA2*%
X151600000Y-107500000D03*
X152800000Y-97800000D03*
%TO.N,/I4*%
X145200000Y-108600000D03*
%TO.N,/EN2*%
X142000000Y-111500000D03*
%TO.N,/I3*%
X142000000Y-112300000D03*
%TO.N,/I2*%
X142000000Y-113100000D03*
%TO.N,/EN1*%
X142000000Y-113900003D03*
%TO.N,/I1*%
X142000000Y-114700006D03*
%TO.N,/ESP32-C6/USB_D-*%
X186375000Y-113282915D03*
X177050000Y-110775000D03*
%TO.N,/ESP32-C6/USB_D+*%
X187225000Y-113282915D03*
X177050000Y-109925000D03*
%TO.N,/MotorEncoder/SDA0*%
X182050000Y-92500000D03*
X154750000Y-92500000D03*
X186400000Y-99500000D03*
X157250000Y-92500000D03*
%TO.N,/ADC/ADC2*%
X154565687Y-100934313D03*
%TO.N,/ADC/ADC1*%
X146500000Y-100500000D03*
%TO.N,/MotorEncoder/SDA2*%
X115950000Y-76500000D03*
X115950000Y-78300000D03*
%TO.N,/MotorEncoder/SDA3*%
X140100000Y-89905000D03*
X137700000Y-90900000D03*
X119250000Y-90900000D03*
X115080331Y-95019669D03*
%TO.N,/MotorEncoder/SDA1*%
X185000000Y-78250000D03*
X179200000Y-86650000D03*
%TO.N,/MotorControlB/O1*%
X172000000Y-73250000D03*
%TO.N,/ADC/ADC3*%
X173800000Y-78700000D03*
X154000000Y-101500000D03*
%TO.N,/MotorEncoder/SCL2*%
X143400000Y-86300000D03*
X144500000Y-88700000D03*
%TD*%
%TO.N,VSS*%
D50*
X119650000Y-116750000D02*
X119650000Y-122650000D01*
X119650000Y-122650000D02*
X120000000Y-123000000D01*
X121400000Y-115000000D02*
X119650000Y-116750000D01*
X126800000Y-115000000D02*
X121400000Y-115000000D01*
X120000000Y-123000000D02*
X125300000Y-123000000D01*
X128000000Y-116200000D02*
X126800000Y-115000000D01*
X125300000Y-123000000D02*
X115400000Y-123000000D01*
X115400000Y-123000000D02*
X115300000Y-122900000D01*
X125300000Y-123000000D02*
X167500000Y-123000000D01*
%TO.N,/ESP32-C6/DR+*%
D51*
X165184999Y-110125000D02*
X163343198Y-110125000D01*
X150000000Y-109974999D02*
X150000000Y-110575000D01*
X165509999Y-109800000D02*
X165184999Y-110125000D01*
X163343198Y-110125000D02*
X158393198Y-105175000D01*
X151306802Y-105175000D02*
X150175000Y-106306802D01*
X150175000Y-109799999D02*
X150000000Y-109974999D01*
X150175000Y-106306802D02*
X150175000Y-109799999D01*
X158393198Y-105175000D02*
X151306802Y-105175000D01*
X165990000Y-109800000D02*
X165509999Y-109800000D01*
%TO.N,/ESP32-C6/D+*%
X167490001Y-109800000D02*
X167010000Y-109800000D01*
X170562500Y-109400000D02*
X169568749Y-109400000D01*
X167815001Y-110125000D02*
X167490001Y-109800000D01*
X168843749Y-110125000D02*
X167815001Y-110125000D01*
X169568749Y-109400000D02*
X168843749Y-110125000D01*
%TO.N,/MotorControl/VS*%
X112920000Y-56000000D02*
X109920000Y-59000000D01*
X179767500Y-59000000D02*
X176920000Y-56152500D01*
X109920000Y-59000000D02*
X105480000Y-59000000D01*
X194520000Y-59000000D02*
X179767500Y-59000000D01*
%TO.N,/MotorControlB/O4*%
D52*
X164000000Y-94200000D02*
X164000000Y-96000000D01*
X164600000Y-93600000D02*
X164000000Y-94200000D01*
X180000000Y-96000000D02*
X172000000Y-96000000D01*
X172000000Y-96000000D02*
X172000000Y-94050000D01*
X171550000Y-93600000D02*
X164600000Y-93600000D01*
X172000000Y-94050000D02*
X171550000Y-93600000D01*
%TO.N,Net-(J10-CC1)*%
D51*
X185550000Y-114940000D02*
X184710000Y-114100000D01*
X185550000Y-116075000D02*
X185550000Y-114940000D01*
%TO.N,GND*%
D53*
X153200000Y-110575000D02*
X153200000Y-111900000D01*
D51*
X154565000Y-87365000D02*
X154600000Y-87400000D01*
X114962500Y-66000000D02*
X121037500Y-66000000D01*
D53*
X124300000Y-118400000D02*
X124300000Y-117200000D01*
D51*
X178962500Y-66000000D02*
X185037500Y-66000000D01*
X149520000Y-81800000D02*
X149520000Y-80520000D01*
X104520000Y-61000000D02*
X104520000Y-59000000D01*
X148750000Y-99000000D02*
X147800000Y-99000000D01*
X144025000Y-120400000D02*
X144050000Y-120425000D01*
D53*
X174100000Y-114300000D02*
X175250000Y-114300000D01*
X124300000Y-118400000D02*
X124300000Y-119500000D01*
D51*
X149520000Y-80520000D02*
X149500000Y-80500000D01*
D53*
X166250000Y-116950000D02*
X166200000Y-117000000D01*
D51*
X104515000Y-65000000D02*
X104515000Y-66085000D01*
X159100000Y-119475000D02*
X160105000Y-119475000D01*
X110275000Y-99250000D02*
X107250000Y-99250000D01*
X147800000Y-99000000D02*
X146500000Y-99000000D01*
X189725000Y-96750000D02*
X193050000Y-96750000D01*
X133220000Y-120400000D02*
X132900000Y-120080000D01*
X149043000Y-81800000D02*
X149520000Y-81800000D01*
X107000000Y-79250000D02*
X110275000Y-79250000D01*
X149520000Y-100770000D02*
X149520000Y-99770000D01*
X136500000Y-120400000D02*
X133220000Y-120400000D01*
X147288000Y-83555000D02*
X147288000Y-84825000D01*
X160105000Y-119475000D02*
X161000000Y-118580000D01*
D53*
X168600000Y-116950000D02*
X166250000Y-116950000D01*
X171800000Y-110725001D02*
X171800000Y-112000000D01*
D51*
X148750000Y-100000000D02*
X147800000Y-100000000D01*
X194515000Y-65000000D02*
X194515000Y-66165000D01*
X149520000Y-103000000D02*
X149520000Y-100770000D01*
D53*
X171800000Y-112000000D02*
X174100000Y-114300000D01*
X172175001Y-110350000D02*
X171800000Y-110725001D01*
D51*
X189710000Y-114000000D02*
X190000000Y-114290000D01*
D53*
X183690000Y-113160000D02*
X183700000Y-113150000D01*
X155125000Y-111475000D02*
X154700000Y-111900000D01*
D51*
X104515000Y-66085000D02*
X104400000Y-66200000D01*
D53*
X189710000Y-113160000D02*
X189700000Y-113150000D01*
D51*
X147288000Y-92445000D02*
X145745000Y-92445000D01*
X183600000Y-116075000D02*
X183600000Y-114190000D01*
X189725000Y-76750000D02*
X193000000Y-76750000D01*
D53*
X162080000Y-118580000D02*
X162100000Y-118600000D01*
X183690000Y-114100000D02*
X183690000Y-113160000D01*
D51*
X193050000Y-96750000D02*
X193100000Y-96700000D01*
X155900000Y-119475000D02*
X159100000Y-119475000D01*
D53*
X175250000Y-114300000D02*
X175250000Y-117250000D01*
X155900000Y-111475000D02*
X155125000Y-111475000D01*
X172837500Y-110350000D02*
X172175001Y-110350000D01*
X175250000Y-117250000D02*
X175300000Y-117300000D01*
X189710000Y-114000000D02*
X189710000Y-113160000D01*
D51*
X194515000Y-66165000D02*
X194550000Y-66200000D01*
X183600000Y-114190000D02*
X183690000Y-114100000D01*
X152712000Y-87365000D02*
X154565000Y-87365000D01*
X107250000Y-99250000D02*
X107000000Y-99500000D01*
X190000000Y-114290000D02*
X190000000Y-116075000D01*
D53*
X178250000Y-122200000D02*
X176000000Y-122200000D01*
D51*
X140100000Y-120400000D02*
X136500000Y-120400000D01*
X140100000Y-120400000D02*
X144025000Y-120400000D01*
X195480000Y-61000000D02*
X195480000Y-59000000D01*
X149520000Y-99770000D02*
X148750000Y-99000000D01*
D53*
X161000000Y-118580000D02*
X162080000Y-118580000D01*
D51*
X147288000Y-83555000D02*
X149043000Y-81800000D01*
X149520000Y-100770000D02*
X148750000Y-100000000D01*
D53*
X159100000Y-119475000D02*
X159100000Y-120875000D01*
D51*
X145745000Y-92445000D02*
X145700000Y-92400000D01*
%TO.N,VSS*%
D50*
X128000000Y-117190000D02*
X128010000Y-117200000D01*
X180500000Y-111000000D02*
X184200000Y-111000000D01*
D51*
X194520000Y-61000000D02*
X194520000Y-62970000D01*
D53*
X170562500Y-110350000D02*
X171224999Y-110350000D01*
D51*
X194520000Y-61000000D02*
X194520000Y-60920000D01*
X194520000Y-60920000D02*
X193550000Y-59950000D01*
X106680000Y-59800000D02*
X117540000Y-59800000D01*
D53*
X171224999Y-110350000D02*
X171848000Y-109726999D01*
D51*
X184600000Y-116275000D02*
X184600000Y-118600000D01*
D50*
X189000000Y-118300000D02*
X188600000Y-118700000D01*
D51*
X105480000Y-61000000D02*
X106680000Y-59800000D01*
D50*
X184200000Y-111000000D02*
X198500000Y-111000000D01*
D51*
X105480000Y-61320000D02*
X104490000Y-62310000D01*
X194520000Y-62970000D02*
X194490000Y-63000000D01*
D50*
X128000000Y-116200000D02*
X128000000Y-117190000D01*
D51*
X104490000Y-62310000D02*
X104490000Y-63000000D01*
D50*
X180600000Y-117600000D02*
X178250000Y-117600000D01*
D53*
X171848000Y-109726999D02*
X171848000Y-108552000D01*
D51*
X193550000Y-59950000D02*
X185002500Y-59950000D01*
X184400000Y-116075000D02*
X184600000Y-116275000D01*
X185002500Y-59950000D02*
X183270000Y-61682500D01*
D50*
X181700000Y-118700000D02*
X180600000Y-117600000D01*
D51*
X189200000Y-116075000D02*
X189000000Y-116275000D01*
D50*
X178150000Y-114300000D02*
X178150000Y-113350000D01*
X183600000Y-118700000D02*
X181700000Y-118700000D01*
D53*
X172100000Y-108300000D02*
X181500000Y-108300000D01*
X171848000Y-108552000D02*
X172100000Y-108300000D01*
D50*
X178150000Y-113350000D02*
X180500000Y-111000000D01*
X188600000Y-118700000D02*
X184500000Y-118700000D01*
D53*
X181500000Y-108300000D02*
X184200000Y-111000000D01*
D50*
X184500000Y-118700000D02*
X183600000Y-118700000D01*
X178250000Y-114400000D02*
X178150000Y-114300000D01*
D51*
X105480000Y-61000000D02*
X105480000Y-61320000D01*
X184600000Y-118600000D02*
X184500000Y-118700000D01*
X189000000Y-116275000D02*
X189000000Y-118300000D01*
X117540000Y-59800000D02*
X119270000Y-61530000D01*
D50*
X178250000Y-117600000D02*
X178250000Y-114400000D01*
%TO.N,/ADC/ADC0*%
D51*
X147800000Y-101000000D02*
X147000000Y-101000000D01*
X109110000Y-65927500D02*
X109037500Y-66000000D01*
X118700000Y-86000000D02*
X113500000Y-86000000D01*
X121400000Y-86000000D02*
X129500000Y-86000000D01*
X147000000Y-101000000D02*
X146500000Y-101500000D01*
X109110000Y-61530000D02*
X109110000Y-65927500D01*
%TO.N,/MotorControl/O4*%
D52*
X128000000Y-76000000D02*
X128000000Y-73000000D01*
X128000000Y-73000000D02*
X133000000Y-73000000D01*
X133000000Y-73000000D02*
X136000000Y-76000000D01*
%TO.N,/ESP32-C6/RST*%
D51*
X132900000Y-119120000D02*
X134090000Y-119120000D01*
X134090000Y-119120000D02*
X134100000Y-119110000D01*
X137990000Y-119110000D02*
X134200000Y-119110000D01*
X140100000Y-117000000D02*
X137990000Y-119110000D01*
X142200000Y-117000000D02*
X140100000Y-117000000D01*
X157475000Y-113875000D02*
X157500000Y-113900000D01*
X155900000Y-113875000D02*
X157475000Y-113875000D01*
%TO.N,3V3*%
D53*
X155810000Y-85490000D02*
X155800000Y-85500000D01*
D51*
X145000000Y-84490000D02*
X144010000Y-84490000D01*
X150480000Y-103000000D02*
X150480000Y-100770000D01*
X183600000Y-76450000D02*
X183600000Y-79110000D01*
X150957000Y-81800000D02*
X150480000Y-81800000D01*
X193050000Y-94250000D02*
X193100000Y-94300000D01*
X185800000Y-74250000D02*
X183600000Y-76450000D01*
X152200000Y-100000000D02*
X155000000Y-100000000D01*
X115890000Y-97510000D02*
X116800000Y-96600000D01*
X183750000Y-96750000D02*
X183750000Y-99700000D01*
X183750000Y-99700000D02*
X183750000Y-106260000D01*
X184490000Y-87000000D02*
X183600000Y-86110000D01*
X189725000Y-74250000D02*
X185800000Y-74250000D01*
X184560000Y-100510000D02*
X185000000Y-100510000D01*
D50*
X178250000Y-119900000D02*
X171950000Y-119900000D01*
D51*
X189725000Y-74250000D02*
X196000000Y-74250000D01*
X159050000Y-117875000D02*
X159100000Y-117925000D01*
D50*
X168600000Y-119850000D02*
X166250000Y-119850000D01*
D51*
X116000000Y-90000000D02*
X115510000Y-90000000D01*
X155510000Y-97000000D02*
X155510000Y-95910000D01*
D53*
X128700000Y-119400000D02*
X130900000Y-119400000D01*
D51*
X150480000Y-80520000D02*
X150500000Y-80500000D01*
X115890000Y-77510000D02*
X116800000Y-76600000D01*
X189725000Y-94250000D02*
X193050000Y-94250000D01*
X152712000Y-83555000D02*
X150957000Y-81800000D01*
X110275000Y-81750000D02*
X104000000Y-81750000D01*
X155682080Y-83490000D02*
X155000000Y-83490000D01*
X183600000Y-79110000D02*
X185000000Y-80510000D01*
X155510000Y-99000000D02*
X155510000Y-97000000D01*
X110275000Y-101750000D02*
X106950000Y-101750000D01*
D53*
X150480000Y-103000000D02*
X150480000Y-103980000D01*
X132210000Y-118090000D02*
X131900000Y-118400000D01*
D51*
X111875000Y-81750000D02*
X115000000Y-78625000D01*
X152712000Y-83555000D02*
X154935000Y-83555000D01*
X116800000Y-70800000D02*
X116000000Y-70000000D01*
X157000000Y-85490000D02*
X157000000Y-84807920D01*
D50*
X166250000Y-119850000D02*
X164020000Y-117620000D01*
D51*
X157000000Y-84807920D02*
X155682080Y-83490000D01*
D53*
X130900000Y-119400000D02*
X131900000Y-118400000D01*
D51*
X183750000Y-106260000D02*
X184490000Y-107000000D01*
X150480000Y-100770000D02*
X151250000Y-100000000D01*
D53*
X134100000Y-118090000D02*
X132210000Y-118090000D01*
D51*
X116800000Y-96600000D02*
X116800000Y-90800000D01*
X151250000Y-100000000D02*
X152200000Y-100000000D01*
X155000000Y-100000000D02*
X155510000Y-99490000D01*
X183750000Y-99700000D02*
X184560000Y-100510000D01*
X150480000Y-81800000D02*
X150480000Y-80520000D01*
X116000000Y-70000000D02*
X115510000Y-70000000D01*
X106950000Y-101750000D02*
X106900000Y-101800000D01*
X144010000Y-84490000D02*
X144000000Y-84500000D01*
X154935000Y-83555000D02*
X155000000Y-83490000D01*
X116800000Y-76600000D02*
X116800000Y-70800000D01*
D53*
X157000000Y-85490000D02*
X155810000Y-85490000D01*
D51*
X159405000Y-117620000D02*
X159100000Y-117925000D01*
X155510000Y-99490000D02*
X155510000Y-99000000D01*
X115000000Y-77510000D02*
X115890000Y-77510000D01*
X189725000Y-94250000D02*
X186250000Y-94250000D01*
X115000000Y-97510000D02*
X115890000Y-97510000D01*
X115000000Y-99800000D02*
X115000000Y-97510000D01*
X161000000Y-117620000D02*
X159405000Y-117620000D01*
X116800000Y-90800000D02*
X116000000Y-90000000D01*
X113050000Y-101750000D02*
X115000000Y-99800000D01*
X115000000Y-78625000D02*
X115000000Y-77510000D01*
D53*
X128010000Y-118400000D02*
X128010000Y-118710000D01*
D50*
X164020000Y-117620000D02*
X161000000Y-117620000D01*
D51*
X155900000Y-117875000D02*
X159050000Y-117875000D01*
X186250000Y-94250000D02*
X183750000Y-96750000D01*
D50*
X168650000Y-119900000D02*
X168600000Y-119850000D01*
D51*
X110275000Y-101750000D02*
X113050000Y-101750000D01*
X110275000Y-81750000D02*
X111875000Y-81750000D01*
D53*
X171950000Y-115050000D02*
X171950000Y-119900000D01*
D51*
X183600000Y-86110000D02*
X183600000Y-79110000D01*
D53*
X150480000Y-103980000D02*
X150500000Y-104000000D01*
D51*
X155510000Y-95910000D02*
X155500000Y-95900000D01*
D53*
X128010000Y-118710000D02*
X128700000Y-119400000D01*
D50*
X171950000Y-119900000D02*
X168650000Y-119900000D01*
%TO.N,/MotorEncoder/SCL3*%
D51*
X114350000Y-88650000D02*
X137950000Y-88650000D01*
X137950000Y-88650000D02*
X140475000Y-91175000D01*
X110275000Y-92725000D02*
X110275000Y-94250000D01*
X113000000Y-90000000D02*
X112950000Y-90050000D01*
X145375000Y-91175000D02*
X145350000Y-91200000D01*
X112950000Y-90050000D02*
X110275000Y-92725000D01*
X147288000Y-91175000D02*
X145375000Y-91175000D01*
X114490000Y-90000000D02*
X113000000Y-90000000D01*
X140475000Y-91175000D02*
X145350000Y-91175000D01*
X112950000Y-90050000D02*
X114350000Y-88650000D01*
%TO.N,Net-(D20-A)*%
D53*
X126990000Y-118400000D02*
X125270000Y-118400000D01*
%TO.N,/I8*%
D51*
X157475000Y-116275000D02*
X157500000Y-116300000D01*
X155900000Y-116275000D02*
X157475000Y-116275000D01*
%TO.N,/EN4*%
X157475000Y-115475000D02*
X157500000Y-115500000D01*
X155900000Y-115475000D02*
X157475000Y-115475000D01*
%TO.N,/I7*%
X155900000Y-113075000D02*
X157475000Y-113075000D01*
X157475000Y-113075000D02*
X157500000Y-113100000D01*
%TO.N,/I6*%
X157475000Y-112275000D02*
X157500000Y-112300000D01*
X155900000Y-112275000D02*
X157475000Y-112275000D01*
%TO.N,/EN3*%
X154800000Y-110575000D02*
X154800000Y-108200000D01*
%TO.N,/I5*%
X154000000Y-110575000D02*
X154000000Y-107500000D01*
%TO.N,/SCL2*%
X152250000Y-99450000D02*
X152200000Y-99500000D01*
X152200000Y-99500000D02*
X153100000Y-99500000D01*
X153600000Y-99000000D02*
X154490000Y-99000000D01*
X152400000Y-110575000D02*
X152400000Y-107500000D01*
X153100000Y-99500000D02*
X153600000Y-99000000D01*
%TO.N,/SDA2*%
X153600000Y-97000000D02*
X152200000Y-98400000D01*
X151600000Y-110575000D02*
X151600000Y-107500000D01*
X154490000Y-97000000D02*
X153600000Y-97000000D01*
X152200000Y-98400000D02*
X152200000Y-99000000D01*
%TO.N,/ESP32-C6/DR-*%
X165184999Y-110575000D02*
X163156802Y-110575000D01*
X150625000Y-109799999D02*
X150800000Y-109974999D01*
X150800000Y-109974999D02*
X150800000Y-110575000D01*
X163156802Y-110575000D02*
X158206802Y-105625000D01*
X151493198Y-105625000D02*
X150625000Y-106493198D01*
X158206802Y-105625000D02*
X151493198Y-105625000D01*
X165509999Y-110900000D02*
X165184999Y-110575000D01*
X150625000Y-106493198D02*
X150625000Y-109799999D01*
X165990000Y-110900000D02*
X165509999Y-110900000D01*
%TO.N,/SCL*%
X145400000Y-97200000D02*
X145400000Y-102200000D01*
X151570186Y-86095000D02*
X149600000Y-88065186D01*
X155710000Y-86510000D02*
X155295000Y-86095000D01*
X149600000Y-92965686D02*
X149600000Y-93000000D01*
X155295000Y-86095000D02*
X152712000Y-86095000D01*
X149600000Y-88065186D02*
X149600000Y-92634314D01*
X149600000Y-92634314D02*
X149600000Y-92965686D01*
X148400000Y-105200000D02*
X148400000Y-110575000D01*
X149600000Y-93000000D02*
X145400000Y-97200000D01*
X145400000Y-102200000D02*
X148400000Y-105200000D01*
X152712000Y-86095000D02*
X151570186Y-86095000D01*
X157000000Y-86510000D02*
X155710000Y-86510000D01*
%TO.N,/SDA*%
X152274500Y-84825000D02*
X152712000Y-84825000D01*
X152712000Y-84825000D02*
X154685000Y-84825000D01*
X149200000Y-92800000D02*
X149200000Y-87899500D01*
X145300000Y-102700000D02*
X144982843Y-102382843D01*
X154685000Y-84825000D02*
X155000000Y-84510000D01*
X149200000Y-87899500D02*
X152274500Y-84825000D01*
X146800000Y-104200000D02*
X145300000Y-102700000D01*
X146800000Y-110575000D02*
X146800000Y-104200000D01*
X144982843Y-97017157D02*
X149200000Y-92800000D01*
X144982843Y-102382843D02*
X144982843Y-97017157D01*
%TO.N,/ESP32-C6/BOOT*%
X145600000Y-107800000D02*
X142400000Y-107800000D01*
X142400000Y-107800000D02*
X136500000Y-113700000D01*
X146000000Y-108200000D02*
X145600000Y-107800000D01*
X136500000Y-113700000D02*
X136500000Y-117000000D01*
X146000000Y-110575000D02*
X146000000Y-108200000D01*
%TO.N,/I4*%
X145200000Y-110575000D02*
X145200000Y-108600000D01*
%TO.N,/EN2*%
X144100000Y-111475000D02*
X142025000Y-111475000D01*
X142025000Y-111475000D02*
X142000000Y-111500000D01*
%TO.N,/I3*%
X142025000Y-112275000D02*
X142000000Y-112300000D01*
X144100000Y-112275000D02*
X142025000Y-112275000D01*
%TO.N,/I2*%
X142025000Y-113075000D02*
X142000000Y-113100000D01*
X144100000Y-113075000D02*
X142025000Y-113075000D01*
%TO.N,/EN1*%
X144100000Y-113875000D02*
X142025003Y-113875000D01*
X142025003Y-113875000D02*
X142000000Y-113900003D01*
%TO.N,/I1*%
X144100000Y-114675000D02*
X142025006Y-114675000D01*
X142025006Y-114675000D02*
X142000000Y-114700006D01*
%TO.N,/ESP32-C6/USB_D-*%
X176850001Y-110575001D02*
X177050000Y-110775000D01*
X173831251Y-111300000D02*
X174556251Y-110575000D01*
X174556251Y-110575000D02*
X175100000Y-110575000D01*
X186574999Y-113482914D02*
X186375000Y-113282915D01*
X175100000Y-110575000D02*
X175100001Y-110575001D01*
X186050000Y-115144999D02*
X186575000Y-114619999D01*
X186575000Y-114300000D02*
X186574999Y-114299999D01*
X186575000Y-114619999D02*
X186575000Y-114300000D01*
X186574999Y-114299999D02*
X186574999Y-113482914D01*
X186050000Y-116075000D02*
X186050000Y-115144999D01*
X172837500Y-111300000D02*
X173831251Y-111300000D01*
X175100001Y-110575001D02*
X176850001Y-110575001D01*
%TO.N,/ESP32-C6/USB_D+*%
X174556251Y-110125000D02*
X175100000Y-110125000D01*
X187025001Y-113482914D02*
X187225000Y-113282915D01*
X187550000Y-115144999D02*
X187025000Y-114619999D01*
X175100001Y-110124999D02*
X176850001Y-110124999D01*
X187025000Y-114619999D02*
X187025000Y-114300000D01*
X175100000Y-110125000D02*
X175100001Y-110124999D01*
X172837500Y-109400000D02*
X173831251Y-109400000D01*
X187025000Y-114300000D02*
X187025001Y-114299999D01*
X187025001Y-114299999D02*
X187025001Y-113482914D01*
X173831251Y-109400000D02*
X174556251Y-110125000D01*
X176850001Y-110124999D02*
X177050000Y-109925000D01*
X187550000Y-116075000D02*
X187550000Y-115144999D01*
%TO.N,/ESP32-C6/D-*%
X168843749Y-110575000D02*
X167815001Y-110575000D01*
X169568749Y-111300000D02*
X168843749Y-110575000D01*
X167815001Y-110575000D02*
X167490001Y-110900000D01*
X167490001Y-110900000D02*
X167010000Y-110900000D01*
X170562500Y-111300000D02*
X169568749Y-111300000D01*
%TO.N,/MotorEncoder/SCL0*%
D53*
X156850000Y-103600000D02*
X156850000Y-103750000D01*
D51*
X181600000Y-107850000D02*
X185100000Y-107850000D01*
X156850000Y-93450000D02*
X156850000Y-103600000D01*
X185100000Y-107850000D02*
X185510000Y-107440000D01*
D53*
X178450000Y-104700000D02*
X181600000Y-107850000D01*
D51*
X189725000Y-102785000D02*
X185510000Y-107000000D01*
X154575000Y-91175000D02*
X156850000Y-93450000D01*
X152712000Y-91175000D02*
X154575000Y-91175000D01*
X189725000Y-101750000D02*
X189725000Y-102785000D01*
D53*
X157800000Y-104700000D02*
X178450000Y-104700000D01*
D51*
X185510000Y-107440000D02*
X185510000Y-107000000D01*
D53*
X156850000Y-103750000D02*
X157800000Y-104700000D01*
%TO.N,/MotorEncoder/SDA0*%
D51*
X154750000Y-92500000D02*
X154650000Y-92500000D01*
X189485000Y-99490000D02*
X189725000Y-99250000D01*
X154650000Y-92500000D02*
X154595000Y-92445000D01*
X182050000Y-92500000D02*
X157250000Y-92500000D01*
X154595000Y-92445000D02*
X152712000Y-92445000D01*
X185000000Y-99490000D02*
X189485000Y-99490000D01*
%TO.N,Net-(J10-CC2)*%
X188690000Y-114000000D02*
X188550000Y-114140000D01*
X188550000Y-114140000D02*
X188550000Y-116075000D01*
%TO.N,/ADC/ADC2*%
X173037500Y-66000000D02*
X173037500Y-61755000D01*
X173037500Y-61755000D02*
X173110000Y-61682500D01*
X152200000Y-100500000D02*
X154131374Y-100500000D01*
X154131374Y-100500000D02*
X154565687Y-100934313D01*
%TO.N,/MotorControlB/O2*%
D52*
X164000000Y-81000000D02*
X164000000Y-82900000D01*
X172000000Y-82350000D02*
X170450000Y-83900000D01*
X164000000Y-82900000D02*
X165000000Y-83900000D01*
X170450000Y-83900000D02*
X165000000Y-83900000D01*
X172000000Y-81000000D02*
X172000000Y-82350000D01*
X180000000Y-81000000D02*
X172000000Y-81000000D01*
%TO.N,Net-(D19-A)*%
D53*
X126990000Y-117200000D02*
X125270000Y-117200000D01*
%TO.N,Net-(D10-A)*%
D51*
X195485000Y-65000000D02*
X195485000Y-63025000D01*
X195485000Y-63025000D02*
X195510000Y-63000000D01*
%TO.N,/ADC/ADC1*%
X126890000Y-61530000D02*
X126890000Y-65927500D01*
X147800000Y-100500000D02*
X146500000Y-100500000D01*
X126890000Y-65927500D02*
X126962500Y-66000000D01*
%TO.N,/MotorControlB/O3*%
D52*
X172000000Y-101000000D02*
X172000000Y-102650000D01*
X164000000Y-102800000D02*
X164000000Y-101000000D01*
X172000000Y-102650000D02*
X171100000Y-103550000D01*
X180000000Y-101000000D02*
X172000000Y-101000000D01*
X171100000Y-103550000D02*
X164750000Y-103550000D01*
X164750000Y-103550000D02*
X164000000Y-102800000D01*
%TO.N,/MotorControl/O1*%
X134600000Y-103400000D02*
X129200000Y-103400000D01*
X136000000Y-101000000D02*
X136000000Y-102000000D01*
X128000000Y-101000000D02*
X120000000Y-101000000D01*
X129200000Y-103400000D02*
X128000000Y-102200000D01*
X136000000Y-102000000D02*
X134600000Y-103400000D01*
X128000000Y-102200000D02*
X128000000Y-101000000D01*
%TO.N,/MotorControl/O2*%
X128000000Y-94800000D02*
X128000000Y-96000000D01*
X129000000Y-93800000D02*
X128000000Y-94800000D01*
X136000000Y-94600000D02*
X135200000Y-93800000D01*
X136000000Y-96000000D02*
X136000000Y-94600000D01*
X120000000Y-96000000D02*
X128000000Y-96000000D01*
X135200000Y-93800000D02*
X129000000Y-93800000D01*
%TO.N,/MotorControl/O3*%
X120000000Y-81000000D02*
X128000000Y-81000000D01*
X129000000Y-83000000D02*
X128000000Y-82000000D01*
X128000000Y-82000000D02*
X128000000Y-81000000D01*
X136000000Y-82000000D02*
X135000000Y-83000000D01*
X135000000Y-83000000D02*
X129000000Y-83000000D01*
X136000000Y-81000000D02*
X136000000Y-82000000D01*
%TO.N,/MotorEncoder/SDA2*%
D51*
X110535000Y-76490000D02*
X110275000Y-76750000D01*
X115950000Y-81850000D02*
X121465000Y-87365000D01*
X115000000Y-76490000D02*
X110535000Y-76490000D01*
X121465000Y-87365000D02*
X147288000Y-87365000D01*
X115950000Y-78300000D02*
X115950000Y-81850000D01*
X115010000Y-76500000D02*
X115000000Y-76490000D01*
X115950000Y-76500000D02*
X115010000Y-76500000D01*
%TO.N,Net-(IC2-~{RESET})*%
X145585000Y-86095000D02*
X145000000Y-85510000D01*
X147288000Y-86095000D02*
X145585000Y-86095000D01*
%TO.N,Net-(D1-A)*%
X105510000Y-63000000D02*
X105510000Y-64975000D01*
X105510000Y-64975000D02*
X105485000Y-65000000D01*
%TO.N,/MotorEncoder/SDA3*%
X115000000Y-96490000D02*
X110535000Y-96490000D01*
X110535000Y-96490000D02*
X110275000Y-96750000D01*
X115080331Y-95019669D02*
X115080331Y-96409669D01*
X147288000Y-89905000D02*
X144205000Y-89905000D01*
X140100000Y-89905000D02*
X144205000Y-89905000D01*
X137700000Y-90900000D02*
X119250000Y-90900000D01*
X115080331Y-96409669D02*
X115000000Y-96490000D01*
%TO.N,/MotorEncoder/SCL1*%
X152712000Y-89905000D02*
X182605000Y-89905000D01*
X187800000Y-87000000D02*
X185510000Y-87000000D01*
X189725000Y-85075000D02*
X187800000Y-87000000D01*
X189725000Y-81750000D02*
X189725000Y-85075000D01*
X182605000Y-89905000D02*
X185510000Y-87000000D01*
%TO.N,/MotorEncoder/SDA1*%
X189725000Y-79250000D02*
X185240000Y-79250000D01*
X185240000Y-79250000D02*
X185000000Y-79490000D01*
X152712000Y-88635000D02*
X177215000Y-88635000D01*
X185000000Y-79490000D02*
X185000000Y-78250000D01*
X177215000Y-88635000D02*
X179200000Y-86650000D01*
%TO.N,/MotorControlB/O1*%
D52*
X172000000Y-76000000D02*
X172000000Y-73250000D01*
X164000000Y-74750000D02*
X164000000Y-76000000D01*
X172000000Y-73250000D02*
X165500000Y-73250000D01*
X165500000Y-73250000D02*
X164000000Y-74750000D01*
%TO.N,/ADC/ADC3*%
D51*
X183000000Y-69500000D02*
X187462500Y-69500000D01*
X187462500Y-69500000D02*
X190962500Y-66000000D01*
X173800000Y-78700000D02*
X183000000Y-69500000D01*
X190962500Y-66000000D02*
X190962500Y-61755000D01*
X190962500Y-61755000D02*
X190890000Y-61682500D01*
X152200000Y-101000000D02*
X153500000Y-101000000D01*
X153500000Y-101000000D02*
X154000000Y-101500000D01*
%TO.N,/MotorEncoder/SCL2*%
X127150000Y-72100000D02*
X123900000Y-68850000D01*
X123900000Y-68850000D02*
X115640000Y-68850000D01*
X115640000Y-68850000D02*
X114490000Y-70000000D01*
X140500000Y-72100000D02*
X127150000Y-72100000D01*
X113500000Y-70000000D02*
X110275000Y-73225000D01*
X114490000Y-70000000D02*
X113500000Y-70000000D01*
X147288000Y-88635000D02*
X144565000Y-88635000D01*
X143400000Y-86300000D02*
X143400000Y-75000000D01*
X144565000Y-88635000D02*
X144500000Y-88700000D01*
X110275000Y-73225000D02*
X110275000Y-74250000D01*
X143400000Y-75000000D02*
X140500000Y-72100000D01*
%TD*%
%TA.AperFunction,Conductor*%
%TO.N,/MotorControl/VS*%
G36*
X170443039Y-94519685D02*
G01*
X170488794Y-94572489D01*
X170500000Y-94624000D01*
X170500000Y-94737270D01*
X170480315Y-94804309D01*
X170463681Y-94824951D01*
X170407289Y-94881342D01*
X170315187Y-95030663D01*
X170315185Y-95030668D01*
X170315115Y-95030880D01*
X170260001Y-95197203D01*
X170260001Y-95197204D01*
X170260000Y-95197204D01*
X170249500Y-95299983D01*
X170249500Y-96700001D01*
X170249501Y-96700018D01*
X170260000Y-96802796D01*
X170260001Y-96802799D01*
X170315115Y-96969119D01*
X170315186Y-96969334D01*
X170407096Y-97118345D01*
X170407289Y-97118657D01*
X170463681Y-97175049D01*
X170497166Y-97236372D01*
X170500000Y-97262730D01*
X170500000Y-99737270D01*
X170480315Y-99804309D01*
X170463681Y-99824951D01*
X170407289Y-99881342D01*
X170315187Y-100030663D01*
X170315185Y-100030668D01*
X170315115Y-100030880D01*
X170260001Y-100197203D01*
X170260001Y-100197204D01*
X170260000Y-100197204D01*
X170249500Y-100299983D01*
X170249500Y-101700001D01*
X170249501Y-101700018D01*
X170260000Y-101802796D01*
X170260001Y-101802799D01*
X170315115Y-101969119D01*
X170315186Y-101969334D01*
X170407096Y-102118345D01*
X170407289Y-102118657D01*
X170463681Y-102175049D01*
X170478384Y-102201976D01*
X170494977Y-102227795D01*
X170495868Y-102233995D01*
X170497166Y-102236372D01*
X170500000Y-102262730D01*
X170500000Y-102376000D01*
X170480315Y-102443039D01*
X170427511Y-102488794D01*
X170376000Y-102500000D01*
X169487812Y-102500000D01*
X169420773Y-102480315D01*
X169375018Y-102427511D01*
X169365074Y-102358353D01*
X169394099Y-102294797D01*
X169422715Y-102270462D01*
X169468340Y-102242319D01*
X169468344Y-102242316D01*
X169592315Y-102118345D01*
X169684356Y-101969124D01*
X169684358Y-101969119D01*
X169739505Y-101802697D01*
X169739506Y-101802690D01*
X169749999Y-101699986D01*
X169750000Y-101699973D01*
X169750000Y-101250000D01*
X168124000Y-101250000D01*
X168056961Y-101230315D01*
X168011206Y-101177511D01*
X168000000Y-101126000D01*
X168000000Y-101000000D01*
X167874000Y-101000000D01*
X167806961Y-100980315D01*
X167761206Y-100927511D01*
X167750000Y-100876000D01*
X167750000Y-100750000D01*
X168250000Y-100750000D01*
X169749999Y-100750000D01*
X169749999Y-100300028D01*
X169749998Y-100300013D01*
X169739505Y-100197302D01*
X169684358Y-100030880D01*
X169684356Y-100030875D01*
X169592315Y-99881654D01*
X169468345Y-99757684D01*
X169319124Y-99665643D01*
X169319119Y-99665641D01*
X169152697Y-99610494D01*
X169152690Y-99610493D01*
X169049986Y-99600000D01*
X168250000Y-99600000D01*
X168250000Y-100750000D01*
X167750000Y-100750000D01*
X167750000Y-99600000D01*
X166950028Y-99600000D01*
X166950012Y-99600001D01*
X166847302Y-99610494D01*
X166680871Y-99665644D01*
X166676394Y-99667732D01*
X166607316Y-99678217D01*
X166543535Y-99649692D01*
X166505300Y-99591212D01*
X166500000Y-99555345D01*
X166500000Y-97444654D01*
X166519685Y-97377615D01*
X166572489Y-97331860D01*
X166641647Y-97321916D01*
X166676403Y-97332271D01*
X166680877Y-97334357D01*
X166847302Y-97389505D01*
X166847309Y-97389506D01*
X166950019Y-97399999D01*
X167749999Y-97399999D01*
X168250000Y-97399999D01*
X169049972Y-97399999D01*
X169049986Y-97399998D01*
X169152697Y-97389505D01*
X169319119Y-97334358D01*
X169319124Y-97334356D01*
X169468345Y-97242315D01*
X169592315Y-97118345D01*
X169684356Y-96969124D01*
X169684358Y-96969119D01*
X169739505Y-96802697D01*
X169739506Y-96802690D01*
X169749999Y-96699986D01*
X169750000Y-96699973D01*
X169750000Y-96250000D01*
X168250000Y-96250000D01*
X168250000Y-97399999D01*
X167749999Y-97399999D01*
X167750000Y-97399998D01*
X167750000Y-96124000D01*
X167769685Y-96056961D01*
X167822489Y-96011206D01*
X167874000Y-96000000D01*
X168000000Y-96000000D01*
X168000000Y-95874000D01*
X168019685Y-95806961D01*
X168072489Y-95761206D01*
X168124000Y-95750000D01*
X169749999Y-95750000D01*
X169749999Y-95300028D01*
X169749998Y-95300013D01*
X169739505Y-95197302D01*
X169684358Y-95030880D01*
X169684356Y-95030875D01*
X169592315Y-94881654D01*
X169468344Y-94757683D01*
X169468340Y-94757680D01*
X169422715Y-94729538D01*
X169375990Y-94677590D01*
X169364769Y-94608628D01*
X169392612Y-94544546D01*
X169450681Y-94505690D01*
X169487812Y-94500000D01*
X170376000Y-94500000D01*
X170443039Y-94519685D01*
G37*
%TD.AperFunction*%
%TD*%
%TA.AperFunction,Conductor*%
%TO.N,/MotorControl/VS*%
G36*
X170443039Y-74519685D02*
G01*
X170488794Y-74572489D01*
X170500000Y-74624000D01*
X170500000Y-74737270D01*
X170480315Y-74804309D01*
X170463681Y-74824951D01*
X170407289Y-74881342D01*
X170315187Y-75030663D01*
X170315185Y-75030668D01*
X170315115Y-75030880D01*
X170260001Y-75197203D01*
X170260001Y-75197204D01*
X170260000Y-75197204D01*
X170249500Y-75299983D01*
X170249500Y-76700001D01*
X170249501Y-76700018D01*
X170260000Y-76802796D01*
X170260001Y-76802799D01*
X170315115Y-76969119D01*
X170315186Y-76969334D01*
X170407096Y-77118345D01*
X170407289Y-77118657D01*
X170463681Y-77175049D01*
X170497166Y-77236372D01*
X170500000Y-77262730D01*
X170500000Y-79737270D01*
X170480315Y-79804309D01*
X170463681Y-79824951D01*
X170407289Y-79881342D01*
X170315187Y-80030663D01*
X170315185Y-80030668D01*
X170315115Y-80030880D01*
X170260001Y-80197203D01*
X170260001Y-80197204D01*
X170260000Y-80197204D01*
X170249500Y-80299983D01*
X170249500Y-81700001D01*
X170249501Y-81700018D01*
X170260000Y-81802796D01*
X170260001Y-81802799D01*
X170315115Y-81969119D01*
X170315186Y-81969334D01*
X170407096Y-82118345D01*
X170407289Y-82118657D01*
X170463681Y-82175049D01*
X170478384Y-82201976D01*
X170494977Y-82227795D01*
X170495868Y-82233995D01*
X170497166Y-82236372D01*
X170500000Y-82262730D01*
X170500000Y-82376000D01*
X170480315Y-82443039D01*
X170427511Y-82488794D01*
X170376000Y-82500000D01*
X169487812Y-82500000D01*
X169420773Y-82480315D01*
X169375018Y-82427511D01*
X169365074Y-82358353D01*
X169394099Y-82294797D01*
X169422715Y-82270462D01*
X169468340Y-82242319D01*
X169468344Y-82242316D01*
X169592315Y-82118345D01*
X169684356Y-81969124D01*
X169684358Y-81969119D01*
X169739505Y-81802697D01*
X169739506Y-81802690D01*
X169749999Y-81699986D01*
X169750000Y-81699973D01*
X169750000Y-81250000D01*
X168124000Y-81250000D01*
X168056961Y-81230315D01*
X168011206Y-81177511D01*
X168000000Y-81126000D01*
X168000000Y-81000000D01*
X167874000Y-81000000D01*
X167806961Y-80980315D01*
X167761206Y-80927511D01*
X167750000Y-80876000D01*
X167750000Y-80750000D01*
X168250000Y-80750000D01*
X169749999Y-80750000D01*
X169749999Y-80300028D01*
X169749998Y-80300013D01*
X169739505Y-80197302D01*
X169684358Y-80030880D01*
X169684356Y-80030875D01*
X169592315Y-79881654D01*
X169468345Y-79757684D01*
X169319124Y-79665643D01*
X169319119Y-79665641D01*
X169152697Y-79610494D01*
X169152690Y-79610493D01*
X169049986Y-79600000D01*
X168250000Y-79600000D01*
X168250000Y-80750000D01*
X167750000Y-80750000D01*
X167750000Y-79600000D01*
X166950028Y-79600000D01*
X166950012Y-79600001D01*
X166847302Y-79610494D01*
X166680871Y-79665644D01*
X166676394Y-79667732D01*
X166607316Y-79678217D01*
X166543535Y-79649692D01*
X166505300Y-79591212D01*
X166500000Y-79555345D01*
X166500000Y-77444654D01*
X166519685Y-77377615D01*
X166572489Y-77331860D01*
X166641647Y-77321916D01*
X166676403Y-77332271D01*
X166680877Y-77334357D01*
X166847302Y-77389505D01*
X166847309Y-77389506D01*
X166950019Y-77399999D01*
X167749999Y-77399999D01*
X168250000Y-77399999D01*
X169049972Y-77399999D01*
X169049986Y-77399998D01*
X169152697Y-77389505D01*
X169319119Y-77334358D01*
X169319124Y-77334356D01*
X169468345Y-77242315D01*
X169592315Y-77118345D01*
X169684356Y-76969124D01*
X169684358Y-76969119D01*
X169739505Y-76802697D01*
X169739506Y-76802690D01*
X169749999Y-76699986D01*
X169750000Y-76699973D01*
X169750000Y-76250000D01*
X168250000Y-76250000D01*
X168250000Y-77399999D01*
X167749999Y-77399999D01*
X167750000Y-77399998D01*
X167750000Y-76124000D01*
X167769685Y-76056961D01*
X167822489Y-76011206D01*
X167874000Y-76000000D01*
X168000000Y-76000000D01*
X168000000Y-75874000D01*
X168019685Y-75806961D01*
X168072489Y-75761206D01*
X168124000Y-75750000D01*
X169749999Y-75750000D01*
X169749999Y-75300028D01*
X169749998Y-75300013D01*
X169739505Y-75197302D01*
X169684358Y-75030880D01*
X169684356Y-75030875D01*
X169592315Y-74881654D01*
X169468344Y-74757683D01*
X169468340Y-74757680D01*
X169422715Y-74729538D01*
X169375990Y-74677590D01*
X169364769Y-74608628D01*
X169392612Y-74544546D01*
X169450681Y-74505690D01*
X169487812Y-74500000D01*
X170376000Y-74500000D01*
X170443039Y-74519685D01*
G37*
%TD.AperFunction*%
%TD*%
%TA.AperFunction,Conductor*%
%TO.N,/MotorControl/VS*%
G36*
X170443039Y-51019685D02*
G01*
X170488794Y-51072489D01*
X170500000Y-51124000D01*
X170500000Y-71876000D01*
X170480315Y-71943039D01*
X170427511Y-71988794D01*
X170376000Y-72000000D01*
X164124000Y-72000000D01*
X164056961Y-71980315D01*
X164011206Y-71927511D01*
X164000000Y-71876000D01*
X164000000Y-68047844D01*
X165050000Y-68047844D01*
X165056401Y-68107372D01*
X165056403Y-68107379D01*
X165106645Y-68242086D01*
X165106649Y-68242093D01*
X165192809Y-68357187D01*
X165192812Y-68357190D01*
X165307906Y-68443350D01*
X165307913Y-68443354D01*
X165442620Y-68493596D01*
X165442627Y-68493598D01*
X165502155Y-68499999D01*
X165502172Y-68500000D01*
X167300000Y-68500000D01*
X167800000Y-68500000D01*
X169597828Y-68500000D01*
X169597844Y-68499999D01*
X169657372Y-68493598D01*
X169657379Y-68493596D01*
X169792086Y-68443354D01*
X169792093Y-68443350D01*
X169907187Y-68357190D01*
X169907190Y-68357187D01*
X169993350Y-68242093D01*
X169993354Y-68242086D01*
X170043596Y-68107379D01*
X170043598Y-68107372D01*
X170049999Y-68047844D01*
X170050000Y-68047827D01*
X170050000Y-67250000D01*
X167800000Y-67250000D01*
X167800000Y-68500000D01*
X167300000Y-68500000D01*
X167300000Y-67250000D01*
X165050000Y-67250000D01*
X165050000Y-68047844D01*
X164000000Y-68047844D01*
X164000000Y-65952155D01*
X165050000Y-65952155D01*
X165050000Y-66750000D01*
X167300000Y-66750000D01*
X167800000Y-66750000D01*
X170050000Y-66750000D01*
X170050000Y-65952172D01*
X170049999Y-65952155D01*
X170043598Y-65892627D01*
X170043596Y-65892620D01*
X169993354Y-65757913D01*
X169993350Y-65757906D01*
X169907190Y-65642812D01*
X169907187Y-65642809D01*
X169792093Y-65556649D01*
X169792086Y-65556645D01*
X169657379Y-65506403D01*
X169657372Y-65506401D01*
X169597844Y-65500000D01*
X167800000Y-65500000D01*
X167800000Y-66750000D01*
X167300000Y-66750000D01*
X167300000Y-65500000D01*
X165502155Y-65500000D01*
X165442627Y-65506401D01*
X165442620Y-65506403D01*
X165307913Y-65556645D01*
X165307906Y-65556649D01*
X165192812Y-65642809D01*
X165192809Y-65642812D01*
X165106649Y-65757906D01*
X165106645Y-65757913D01*
X165056403Y-65892620D01*
X165056401Y-65892627D01*
X165050000Y-65952155D01*
X164000000Y-65952155D01*
X164000000Y-57047844D01*
X165050000Y-57047844D01*
X165056401Y-57107372D01*
X165056403Y-57107379D01*
X165106645Y-57242086D01*
X165106649Y-57242093D01*
X165192809Y-57357187D01*
X165192812Y-57357190D01*
X165307906Y-57443350D01*
X165307913Y-57443354D01*
X165442620Y-57493596D01*
X165442627Y-57493598D01*
X165502155Y-57499999D01*
X165502172Y-57500000D01*
X167300000Y-57500000D01*
X167800000Y-57500000D01*
X169597828Y-57500000D01*
X169597844Y-57499999D01*
X169657372Y-57493598D01*
X169657379Y-57493596D01*
X169792086Y-57443354D01*
X169792093Y-57443350D01*
X169907187Y-57357190D01*
X169907190Y-57357187D01*
X169993350Y-57242093D01*
X169993354Y-57242086D01*
X170043596Y-57107379D01*
X170043598Y-57107372D01*
X170049999Y-57047844D01*
X170050000Y-57047827D01*
X170050000Y-56250000D01*
X167800000Y-56250000D01*
X167800000Y-57500000D01*
X167300000Y-57500000D01*
X167300000Y-56250000D01*
X165050000Y-56250000D01*
X165050000Y-57047844D01*
X164000000Y-57047844D01*
X164000000Y-54952155D01*
X165050000Y-54952155D01*
X165050000Y-55750000D01*
X167300000Y-55750000D01*
X167800000Y-55750000D01*
X170050000Y-55750000D01*
X170050000Y-54952172D01*
X170049999Y-54952155D01*
X170043598Y-54892627D01*
X170043596Y-54892620D01*
X169993354Y-54757913D01*
X169993350Y-54757906D01*
X169907190Y-54642812D01*
X169907187Y-54642809D01*
X169792093Y-54556649D01*
X169792086Y-54556645D01*
X169657379Y-54506403D01*
X169657372Y-54506401D01*
X169597844Y-54500000D01*
X167800000Y-54500000D01*
X167800000Y-55750000D01*
X167300000Y-55750000D01*
X167300000Y-54500000D01*
X165502155Y-54500000D01*
X165442627Y-54506401D01*
X165442620Y-54506403D01*
X165307913Y-54556645D01*
X165307906Y-54556649D01*
X165192812Y-54642809D01*
X165192809Y-54642812D01*
X165106649Y-54757906D01*
X165106645Y-54757913D01*
X165056403Y-54892620D01*
X165056401Y-54892627D01*
X165050000Y-54952155D01*
X164000000Y-54952155D01*
X164000000Y-51124000D01*
X164019685Y-51056961D01*
X164072489Y-51011206D01*
X164124000Y-51000000D01*
X170376000Y-51000000D01*
X170443039Y-51019685D01*
G37*
%TD.AperFunction*%
%TD*%
%TA.AperFunction,Conductor*%
%TO.N,/MotorControl/VS*%
G36*
X130579227Y-74519685D02*
G01*
X130624982Y-74572489D01*
X130634926Y-74641647D01*
X130605901Y-74705203D01*
X130577285Y-74729538D01*
X130531659Y-74757680D01*
X130531655Y-74757683D01*
X130407684Y-74881654D01*
X130315643Y-75030875D01*
X130315641Y-75030880D01*
X130260494Y-75197302D01*
X130260493Y-75197309D01*
X130250000Y-75300013D01*
X130250000Y-75750000D01*
X131876000Y-75750000D01*
X131943039Y-75769685D01*
X131988794Y-75822489D01*
X132000000Y-75874000D01*
X132000000Y-76000000D01*
X132126000Y-76000000D01*
X132193039Y-76019685D01*
X132238794Y-76072489D01*
X132250000Y-76124000D01*
X132250000Y-77399999D01*
X133049972Y-77399999D01*
X133049986Y-77399998D01*
X133152697Y-77389505D01*
X133319122Y-77334357D01*
X133323597Y-77332271D01*
X133392675Y-77321780D01*
X133456458Y-77350301D01*
X133494697Y-77408779D01*
X133500000Y-77444654D01*
X133500000Y-79555345D01*
X133480315Y-79622384D01*
X133427511Y-79668139D01*
X133358353Y-79678083D01*
X133323606Y-79667732D01*
X133319128Y-79665644D01*
X133152697Y-79610494D01*
X133152690Y-79610493D01*
X133049986Y-79600000D01*
X132250000Y-79600000D01*
X132250000Y-80876000D01*
X132230315Y-80943039D01*
X132177511Y-80988794D01*
X132126000Y-81000000D01*
X132000000Y-81000000D01*
X132000000Y-81126000D01*
X131980315Y-81193039D01*
X131927511Y-81238794D01*
X131876000Y-81250000D01*
X130250001Y-81250000D01*
X130250001Y-81699986D01*
X130260494Y-81802697D01*
X130315641Y-81969119D01*
X130315643Y-81969124D01*
X130371945Y-82060403D01*
X130390385Y-82127796D01*
X130369462Y-82194459D01*
X130315820Y-82239229D01*
X130266406Y-82249500D01*
X129734181Y-82249500D01*
X129667142Y-82229815D01*
X129621387Y-82177011D01*
X129611443Y-82107853D01*
X129628641Y-82060405D01*
X129684814Y-81969334D01*
X129739999Y-81802797D01*
X129750500Y-81700009D01*
X129750499Y-80300013D01*
X130250000Y-80300013D01*
X130250000Y-80750000D01*
X131750000Y-80750000D01*
X131750000Y-79600000D01*
X130950028Y-79600000D01*
X130950012Y-79600001D01*
X130847302Y-79610494D01*
X130680880Y-79665641D01*
X130680875Y-79665643D01*
X130531654Y-79757684D01*
X130407684Y-79881654D01*
X130315643Y-80030875D01*
X130315641Y-80030880D01*
X130260494Y-80197302D01*
X130260493Y-80197309D01*
X130250000Y-80300013D01*
X129750499Y-80300013D01*
X129750499Y-80299992D01*
X129739999Y-80197203D01*
X129684814Y-80030666D01*
X129592712Y-79881344D01*
X129536319Y-79824951D01*
X129502834Y-79763628D01*
X129500000Y-79737270D01*
X129500000Y-77262730D01*
X129519685Y-77195691D01*
X129536319Y-77175049D01*
X129592712Y-77118656D01*
X129684814Y-76969334D01*
X129739999Y-76802797D01*
X129750500Y-76700009D01*
X129750500Y-76699986D01*
X130250001Y-76699986D01*
X130260494Y-76802697D01*
X130315641Y-76969119D01*
X130315643Y-76969124D01*
X130407684Y-77118345D01*
X130531654Y-77242315D01*
X130680875Y-77334356D01*
X130680880Y-77334358D01*
X130847302Y-77389505D01*
X130847309Y-77389506D01*
X130950019Y-77399999D01*
X131749999Y-77399999D01*
X131750000Y-77399998D01*
X131750000Y-76250000D01*
X130250001Y-76250000D01*
X130250001Y-76699986D01*
X129750500Y-76699986D01*
X129750499Y-76000000D01*
X129750499Y-75299998D01*
X129750498Y-75299981D01*
X129739999Y-75197203D01*
X129739998Y-75197200D01*
X129684814Y-75030666D01*
X129592712Y-74881344D01*
X129536319Y-74824951D01*
X129521615Y-74798023D01*
X129505023Y-74772205D01*
X129504131Y-74766004D01*
X129502834Y-74763628D01*
X129500000Y-74737270D01*
X129500000Y-74624000D01*
X129519685Y-74556961D01*
X129572489Y-74511206D01*
X129624000Y-74500000D01*
X130512188Y-74500000D01*
X130579227Y-74519685D01*
G37*
%TD.AperFunction*%
%TD*%
%TA.AperFunction,Conductor*%
%TO.N,/MotorControl/VS*%
G36*
X130506516Y-94570185D02*
G01*
X130552271Y-94622989D01*
X130562215Y-94692147D01*
X130533190Y-94755703D01*
X130527158Y-94762181D01*
X130407684Y-94881654D01*
X130315643Y-95030875D01*
X130315641Y-95030880D01*
X130260494Y-95197302D01*
X130260493Y-95197309D01*
X130250000Y-95300013D01*
X130250000Y-95750000D01*
X131876000Y-95750000D01*
X131943039Y-95769685D01*
X131988794Y-95822489D01*
X132000000Y-95874000D01*
X132000000Y-96000000D01*
X132126000Y-96000000D01*
X132193039Y-96019685D01*
X132238794Y-96072489D01*
X132250000Y-96124000D01*
X132250000Y-97399999D01*
X133049972Y-97399999D01*
X133049986Y-97399998D01*
X133152697Y-97389505D01*
X133319122Y-97334357D01*
X133323597Y-97332271D01*
X133392675Y-97321780D01*
X133456458Y-97350301D01*
X133494697Y-97408779D01*
X133500000Y-97444654D01*
X133500000Y-99555345D01*
X133480315Y-99622384D01*
X133427511Y-99668139D01*
X133358353Y-99678083D01*
X133323606Y-99667732D01*
X133319128Y-99665644D01*
X133152697Y-99610494D01*
X133152690Y-99610493D01*
X133049986Y-99600000D01*
X132250000Y-99600000D01*
X132250000Y-100876000D01*
X132230315Y-100943039D01*
X132177511Y-100988794D01*
X132126000Y-101000000D01*
X132000000Y-101000000D01*
X132000000Y-101126000D01*
X131980315Y-101193039D01*
X131927511Y-101238794D01*
X131876000Y-101250000D01*
X130250001Y-101250000D01*
X130250001Y-101699986D01*
X130260494Y-101802697D01*
X130315641Y-101969119D01*
X130315643Y-101969124D01*
X130407684Y-102118345D01*
X130531655Y-102242316D01*
X130531659Y-102242319D01*
X130577285Y-102270462D01*
X130624010Y-102322410D01*
X130635231Y-102391372D01*
X130607388Y-102455454D01*
X130549319Y-102494310D01*
X130512188Y-102500000D01*
X129624000Y-102500000D01*
X129615314Y-102497449D01*
X129606353Y-102498738D01*
X129582312Y-102487759D01*
X129556961Y-102480315D01*
X129551033Y-102473474D01*
X129542797Y-102469713D01*
X129528507Y-102447478D01*
X129511206Y-102427511D01*
X129508918Y-102416996D01*
X129505023Y-102410935D01*
X129500000Y-102376000D01*
X129500000Y-102262730D01*
X129519685Y-102195691D01*
X129536319Y-102175049D01*
X129592712Y-102118656D01*
X129684814Y-101969334D01*
X129739999Y-101802797D01*
X129750500Y-101700009D01*
X129750499Y-100300013D01*
X130250000Y-100300013D01*
X130250000Y-100750000D01*
X131750000Y-100750000D01*
X131750000Y-99600000D01*
X130950028Y-99600000D01*
X130950012Y-99600001D01*
X130847302Y-99610494D01*
X130680880Y-99665641D01*
X130680875Y-99665643D01*
X130531654Y-99757684D01*
X130407684Y-99881654D01*
X130315643Y-100030875D01*
X130315641Y-100030880D01*
X130260494Y-100197302D01*
X130260493Y-100197309D01*
X130250000Y-100300013D01*
X129750499Y-100300013D01*
X129750499Y-100299992D01*
X129739999Y-100197203D01*
X129684814Y-100030666D01*
X129592712Y-99881344D01*
X129536319Y-99824951D01*
X129502834Y-99763628D01*
X129500000Y-99737270D01*
X129500000Y-97262730D01*
X129519685Y-97195691D01*
X129536319Y-97175049D01*
X129592712Y-97118656D01*
X129684814Y-96969334D01*
X129739999Y-96802797D01*
X129750500Y-96700009D01*
X129750500Y-96699986D01*
X130250001Y-96699986D01*
X130260494Y-96802697D01*
X130315641Y-96969119D01*
X130315643Y-96969124D01*
X130407684Y-97118345D01*
X130531654Y-97242315D01*
X130680875Y-97334356D01*
X130680880Y-97334358D01*
X130847302Y-97389505D01*
X130847309Y-97389506D01*
X130950019Y-97399999D01*
X131749999Y-97399999D01*
X131750000Y-97399998D01*
X131750000Y-96250000D01*
X130250001Y-96250000D01*
X130250001Y-96699986D01*
X129750500Y-96699986D01*
X129750499Y-96000000D01*
X129750499Y-95299998D01*
X129750498Y-95299981D01*
X129739999Y-95197203D01*
X129739998Y-95197200D01*
X129684814Y-95030666D01*
X129592712Y-94881344D01*
X129536319Y-94824951D01*
X129521615Y-94798023D01*
X129505023Y-94772205D01*
X129504131Y-94766004D01*
X129502834Y-94763628D01*
X129500000Y-94737270D01*
X129500000Y-94674500D01*
X129519685Y-94607461D01*
X129572489Y-94561706D01*
X129624000Y-94550500D01*
X130439477Y-94550500D01*
X130506516Y-94570185D01*
G37*
%TD.AperFunction*%
%TD*%
%TA.AperFunction,Conductor*%
%TO.N,GND*%
G36*
X138579227Y-94519685D02*
G01*
X138624982Y-94572489D01*
X138634926Y-94641647D01*
X138605901Y-94705203D01*
X138577285Y-94729538D01*
X138531659Y-94757680D01*
X138531655Y-94757683D01*
X138407684Y-94881654D01*
X138315643Y-95030875D01*
X138315641Y-95030880D01*
X138260494Y-95197302D01*
X138260493Y-95197309D01*
X138250000Y-95300013D01*
X138250000Y-95750000D01*
X139876000Y-95750000D01*
X139943039Y-95769685D01*
X139988794Y-95822489D01*
X140000000Y-95874000D01*
X140000000Y-96000000D01*
X140126000Y-96000000D01*
X140193039Y-96019685D01*
X140238794Y-96072489D01*
X140250000Y-96124000D01*
X140250000Y-97399999D01*
X141049972Y-97399999D01*
X141049986Y-97399998D01*
X141152697Y-97389505D01*
X141319122Y-97334357D01*
X141323597Y-97332271D01*
X141392675Y-97321780D01*
X141456458Y-97350301D01*
X141494697Y-97408779D01*
X141500000Y-97444654D01*
X141500000Y-99555345D01*
X141480315Y-99622384D01*
X141427511Y-99668139D01*
X141358353Y-99678083D01*
X141323606Y-99667732D01*
X141319128Y-99665644D01*
X141152697Y-99610494D01*
X141152690Y-99610493D01*
X141049986Y-99600000D01*
X140250000Y-99600000D01*
X140250000Y-100876000D01*
X140230315Y-100943039D01*
X140177511Y-100988794D01*
X140126000Y-101000000D01*
X140000000Y-101000000D01*
X140000000Y-101126000D01*
X139980315Y-101193039D01*
X139927511Y-101238794D01*
X139876000Y-101250000D01*
X138250001Y-101250000D01*
X138250001Y-101699986D01*
X138260494Y-101802697D01*
X138315641Y-101969119D01*
X138315643Y-101969124D01*
X138407684Y-102118345D01*
X138531655Y-102242316D01*
X138531659Y-102242319D01*
X138577285Y-102270462D01*
X138624010Y-102322410D01*
X138635231Y-102391372D01*
X138607388Y-102455454D01*
X138549319Y-102494310D01*
X138512188Y-102500000D01*
X137624000Y-102500000D01*
X137615314Y-102497449D01*
X137606353Y-102498738D01*
X137582312Y-102487759D01*
X137556961Y-102480315D01*
X137551033Y-102473474D01*
X137542797Y-102469713D01*
X137528507Y-102447478D01*
X137511206Y-102427511D01*
X137508918Y-102416996D01*
X137505023Y-102410935D01*
X137500000Y-102376000D01*
X137500000Y-102262730D01*
X137519685Y-102195691D01*
X137536319Y-102175049D01*
X137592712Y-102118656D01*
X137684814Y-101969334D01*
X137739999Y-101802797D01*
X137750500Y-101700009D01*
X137750499Y-100300013D01*
X138250000Y-100300013D01*
X138250000Y-100750000D01*
X139750000Y-100750000D01*
X139750000Y-99600000D01*
X138950028Y-99600000D01*
X138950012Y-99600001D01*
X138847302Y-99610494D01*
X138680880Y-99665641D01*
X138680875Y-99665643D01*
X138531654Y-99757684D01*
X138407684Y-99881654D01*
X138315643Y-100030875D01*
X138315641Y-100030880D01*
X138260494Y-100197302D01*
X138260493Y-100197309D01*
X138250000Y-100300013D01*
X137750499Y-100300013D01*
X137750499Y-100299992D01*
X137739999Y-100197203D01*
X137684814Y-100030666D01*
X137592712Y-99881344D01*
X137536319Y-99824951D01*
X137502834Y-99763628D01*
X137500000Y-99737270D01*
X137500000Y-97262730D01*
X137519685Y-97195691D01*
X137536319Y-97175049D01*
X137592712Y-97118656D01*
X137684814Y-96969334D01*
X137739999Y-96802797D01*
X137750500Y-96700009D01*
X137750500Y-96699986D01*
X138250001Y-96699986D01*
X138260494Y-96802697D01*
X138315641Y-96969119D01*
X138315643Y-96969124D01*
X138407684Y-97118345D01*
X138531654Y-97242315D01*
X138680875Y-97334356D01*
X138680880Y-97334358D01*
X138847302Y-97389505D01*
X138847309Y-97389506D01*
X138950019Y-97399999D01*
X139749999Y-97399999D01*
X139750000Y-97399998D01*
X139750000Y-96250000D01*
X138250001Y-96250000D01*
X138250001Y-96699986D01*
X137750500Y-96699986D01*
X137750499Y-96000000D01*
X137750499Y-95299998D01*
X137750498Y-95299981D01*
X137739999Y-95197203D01*
X137739998Y-95197200D01*
X137684814Y-95030666D01*
X137592712Y-94881344D01*
X137536319Y-94824951D01*
X137521615Y-94798023D01*
X137505023Y-94772205D01*
X137504131Y-94766004D01*
X137502834Y-94763628D01*
X137500000Y-94737270D01*
X137500000Y-94624000D01*
X137519685Y-94556961D01*
X137572489Y-94511206D01*
X137624000Y-94500000D01*
X138512188Y-94500000D01*
X138579227Y-94519685D01*
G37*
%TD.AperFunction*%
%TD*%
%TA.AperFunction,Conductor*%
%TO.N,/MotorControl/VS*%
G36*
X135443039Y-51019685D02*
G01*
X135488794Y-51072489D01*
X135500000Y-51124000D01*
X135500000Y-71375500D01*
X135480315Y-71442539D01*
X135427511Y-71488294D01*
X135376000Y-71499500D01*
X129124000Y-71499500D01*
X129056961Y-71479815D01*
X129011206Y-71427011D01*
X129000000Y-71375500D01*
X129000000Y-67895344D01*
X129950000Y-67895344D01*
X129956401Y-67954872D01*
X129956403Y-67954879D01*
X130006645Y-68089586D01*
X130006649Y-68089593D01*
X130092809Y-68204687D01*
X130092812Y-68204690D01*
X130207906Y-68290850D01*
X130207913Y-68290854D01*
X130342620Y-68341096D01*
X130342627Y-68341098D01*
X130402155Y-68347499D01*
X130402172Y-68347500D01*
X132200000Y-68347500D01*
X132700000Y-68347500D01*
X134497828Y-68347500D01*
X134497844Y-68347499D01*
X134557372Y-68341098D01*
X134557379Y-68341096D01*
X134692086Y-68290854D01*
X134692093Y-68290850D01*
X134807187Y-68204690D01*
X134807190Y-68204687D01*
X134893350Y-68089593D01*
X134893354Y-68089586D01*
X134943596Y-67954879D01*
X134943598Y-67954872D01*
X134949999Y-67895344D01*
X134950000Y-67895327D01*
X134950000Y-67097500D01*
X132700000Y-67097500D01*
X132700000Y-68347500D01*
X132200000Y-68347500D01*
X132200000Y-67097500D01*
X129950000Y-67097500D01*
X129950000Y-67895344D01*
X129000000Y-67895344D01*
X129000000Y-65799655D01*
X129950000Y-65799655D01*
X129950000Y-66597500D01*
X132200000Y-66597500D01*
X132700000Y-66597500D01*
X134950000Y-66597500D01*
X134950000Y-65799672D01*
X134949999Y-65799655D01*
X134943598Y-65740127D01*
X134943596Y-65740120D01*
X134893354Y-65605413D01*
X134893350Y-65605406D01*
X134807190Y-65490312D01*
X134807187Y-65490309D01*
X134692093Y-65404149D01*
X134692086Y-65404145D01*
X134557379Y-65353903D01*
X134557372Y-65353901D01*
X134497844Y-65347500D01*
X132700000Y-65347500D01*
X132700000Y-66597500D01*
X132200000Y-66597500D01*
X132200000Y-65347500D01*
X130402155Y-65347500D01*
X130342627Y-65353901D01*
X130342620Y-65353903D01*
X130207913Y-65404145D01*
X130207906Y-65404149D01*
X130092812Y-65490309D01*
X130092809Y-65490312D01*
X130006649Y-65605406D01*
X130006645Y-65605413D01*
X129956403Y-65740120D01*
X129956401Y-65740127D01*
X129950000Y-65799655D01*
X129000000Y-65799655D01*
X129000000Y-56895344D01*
X129950000Y-56895344D01*
X129956401Y-56954872D01*
X129956403Y-56954879D01*
X130006645Y-57089586D01*
X130006649Y-57089593D01*
X130092809Y-57204687D01*
X130092812Y-57204690D01*
X130207906Y-57290850D01*
X130207913Y-57290854D01*
X130342620Y-57341096D01*
X130342627Y-57341098D01*
X130402155Y-57347499D01*
X130402172Y-57347500D01*
X132200000Y-57347500D01*
X132700000Y-57347500D01*
X134497828Y-57347500D01*
X134497844Y-57347499D01*
X134557372Y-57341098D01*
X134557379Y-57341096D01*
X134692086Y-57290854D01*
X134692093Y-57290850D01*
X134807187Y-57204690D01*
X134807190Y-57204687D01*
X134893350Y-57089593D01*
X134893354Y-57089586D01*
X134943596Y-56954879D01*
X134943598Y-56954872D01*
X134949999Y-56895344D01*
X134950000Y-56895327D01*
X134950000Y-56097500D01*
X132700000Y-56097500D01*
X132700000Y-57347500D01*
X132200000Y-57347500D01*
X132200000Y-56097500D01*
X129950000Y-56097500D01*
X129950000Y-56895344D01*
X129000000Y-56895344D01*
X129000000Y-54799655D01*
X129950000Y-54799655D01*
X129950000Y-55597500D01*
X132200000Y-55597500D01*
X132700000Y-55597500D01*
X134950000Y-55597500D01*
X134950000Y-54799672D01*
X134949999Y-54799655D01*
X134943598Y-54740127D01*
X134943596Y-54740120D01*
X134893354Y-54605413D01*
X134893350Y-54605406D01*
X134807190Y-54490312D01*
X134807187Y-54490309D01*
X134692093Y-54404149D01*
X134692086Y-54404145D01*
X134557379Y-54353903D01*
X134557372Y-54353901D01*
X134497844Y-54347500D01*
X132700000Y-54347500D01*
X132700000Y-55597500D01*
X132200000Y-55597500D01*
X132200000Y-54347500D01*
X130402155Y-54347500D01*
X130342627Y-54353901D01*
X130342620Y-54353903D01*
X130207913Y-54404145D01*
X130207906Y-54404149D01*
X130092812Y-54490309D01*
X130092809Y-54490312D01*
X130006649Y-54605406D01*
X130006645Y-54605413D01*
X129956403Y-54740120D01*
X129956401Y-54740127D01*
X129950000Y-54799655D01*
X129000000Y-54799655D01*
X129000000Y-51124000D01*
X129019685Y-51056961D01*
X129072489Y-51011206D01*
X129124000Y-51000000D01*
X135376000Y-51000000D01*
X135443039Y-51019685D01*
G37*
%TD.AperFunction*%
%TD*%
%TA.AperFunction,Conductor*%
%TO.N,GND*%
G36*
X142393106Y-51005023D02*
G01*
X142408104Y-51009427D01*
X142423094Y-51019057D01*
X142440175Y-51024067D01*
X142466855Y-51047172D01*
X142468042Y-51048541D01*
X142495518Y-51103402D01*
X142497163Y-51110960D01*
X142500000Y-51137331D01*
X142500000Y-71858170D01*
X142494975Y-71893114D01*
X142490570Y-71908112D01*
X142480939Y-71923101D01*
X142475932Y-71940175D01*
X142452827Y-71966855D01*
X142451458Y-71968042D01*
X142396597Y-71995518D01*
X142389039Y-71997163D01*
X142362668Y-72000000D01*
X141318427Y-72000000D01*
X141283491Y-71994977D01*
X141258249Y-71987565D01*
X141205504Y-71956269D01*
X140991928Y-71742693D01*
X140987590Y-71738355D01*
X140987588Y-71738352D01*
X140868717Y-71619481D01*
X140868716Y-71619480D01*
X140868715Y-71619479D01*
X140868712Y-71619477D01*
X140802798Y-71581421D01*
X140802798Y-71581422D01*
X140766843Y-71560664D01*
X140766842Y-71560663D01*
X140731786Y-71540423D01*
X140693603Y-71530192D01*
X140579057Y-71499499D01*
X140579054Y-71499499D01*
X140411443Y-71499499D01*
X140411380Y-71499500D01*
X136141830Y-71499500D01*
X136141826Y-71499499D01*
X136141825Y-71499500D01*
X136106890Y-71494476D01*
X136094560Y-71490855D01*
X136035784Y-71453078D01*
X136006761Y-71389521D01*
X136005500Y-71371879D01*
X136005500Y-67895352D01*
X137050000Y-67895352D01*
X137056400Y-67954870D01*
X137056402Y-67954877D01*
X137106646Y-68089588D01*
X137106648Y-68089591D01*
X137192807Y-68204685D01*
X137192809Y-68204687D01*
X137192812Y-68204690D01*
X137307906Y-68290850D01*
X137307913Y-68290854D01*
X137442620Y-68341096D01*
X137442627Y-68341098D01*
X137449468Y-68341833D01*
X137502138Y-68347498D01*
X137502155Y-68347499D01*
X137502172Y-68347500D01*
X139300000Y-68347500D01*
X139800000Y-68347500D01*
X141597828Y-68347500D01*
X141597836Y-68347500D01*
X141597847Y-68347499D01*
X141633560Y-68343658D01*
X141657372Y-68341098D01*
X141657379Y-68341096D01*
X141792086Y-68290854D01*
X141792093Y-68290850D01*
X141907187Y-68204690D01*
X141907190Y-68204687D01*
X141993350Y-68089593D01*
X141993354Y-68089586D01*
X142043596Y-67954879D01*
X142043598Y-67954872D01*
X142045069Y-67941189D01*
X142049998Y-67895360D01*
X142050000Y-67895327D01*
X142050000Y-67097500D01*
X139800000Y-67097500D01*
X139800000Y-68347500D01*
X139300000Y-68347500D01*
X139300000Y-67097500D01*
X137050000Y-67097500D01*
X137050000Y-67895352D01*
X136005500Y-67895352D01*
X136005500Y-65799646D01*
X137050000Y-65799646D01*
X137050000Y-65799655D01*
X137050000Y-66597500D01*
X139300000Y-66597500D01*
X139800000Y-66597500D01*
X142050000Y-66597500D01*
X142050000Y-65799672D01*
X142049999Y-65799655D01*
X142049998Y-65799646D01*
X142049998Y-65799638D01*
X142043598Y-65740128D01*
X142043596Y-65740121D01*
X142043596Y-65740120D01*
X141993354Y-65605413D01*
X141993350Y-65605406D01*
X141907190Y-65490312D01*
X141907187Y-65490309D01*
X141907185Y-65490307D01*
X141849317Y-65446987D01*
X141792093Y-65404149D01*
X141792088Y-65404146D01*
X141792089Y-65404146D01*
X141657377Y-65353902D01*
X141657370Y-65353900D01*
X141597852Y-65347500D01*
X141597844Y-65347500D01*
X139800000Y-65347500D01*
X139800000Y-66597500D01*
X139300000Y-66597500D01*
X139300000Y-65347500D01*
X137502146Y-65347500D01*
X137442628Y-65353900D01*
X137442621Y-65353902D01*
X137307910Y-65404146D01*
X137307907Y-65404148D01*
X137192813Y-65490307D01*
X137192807Y-65490313D01*
X137106648Y-65605407D01*
X137106646Y-65605410D01*
X137056402Y-65740121D01*
X137056400Y-65740128D01*
X137050000Y-65799646D01*
X136005500Y-65799646D01*
X136005500Y-56895352D01*
X137050000Y-56895352D01*
X137056400Y-56954870D01*
X137056402Y-56954877D01*
X137106646Y-57089588D01*
X137106648Y-57089591D01*
X137192807Y-57204685D01*
X137192809Y-57204687D01*
X137192812Y-57204690D01*
X137307906Y-57290850D01*
X137307913Y-57290854D01*
X137442620Y-57341096D01*
X137442627Y-57341098D01*
X137449468Y-57341833D01*
X137502138Y-57347498D01*
X137502155Y-57347499D01*
X137502172Y-57347500D01*
X139300000Y-57347500D01*
X139800000Y-57347500D01*
X141597828Y-57347500D01*
X141597836Y-57347500D01*
X141597847Y-57347499D01*
X141633560Y-57343658D01*
X141657372Y-57341098D01*
X141657379Y-57341096D01*
X141792086Y-57290854D01*
X141792093Y-57290850D01*
X141907187Y-57204690D01*
X141907190Y-57204687D01*
X141993350Y-57089593D01*
X141993354Y-57089586D01*
X142043596Y-56954879D01*
X142043598Y-56954872D01*
X142045069Y-56941189D01*
X142049998Y-56895360D01*
X142050000Y-56895327D01*
X142050000Y-56097500D01*
X139800000Y-56097500D01*
X139800000Y-57347500D01*
X139300000Y-57347500D01*
X139300000Y-56097500D01*
X137050000Y-56097500D01*
X137050000Y-56895352D01*
X136005500Y-56895352D01*
X136005500Y-54799646D01*
X137050000Y-54799646D01*
X137050000Y-54799655D01*
X137050000Y-55597500D01*
X139300000Y-55597500D01*
X139800000Y-55597500D01*
X142050000Y-55597500D01*
X142050000Y-54799672D01*
X142049999Y-54799655D01*
X142049998Y-54799646D01*
X142049998Y-54799638D01*
X142043598Y-54740128D01*
X142043596Y-54740121D01*
X142043596Y-54740120D01*
X141993354Y-54605413D01*
X141993350Y-54605406D01*
X141907190Y-54490312D01*
X141907187Y-54490309D01*
X141907185Y-54490307D01*
X141849317Y-54446987D01*
X141792093Y-54404149D01*
X141792088Y-54404146D01*
X141792089Y-54404146D01*
X141657377Y-54353902D01*
X141657370Y-54353900D01*
X141597852Y-54347500D01*
X141597844Y-54347500D01*
X139800000Y-54347500D01*
X139800000Y-55597500D01*
X139300000Y-55597500D01*
X139300000Y-54347500D01*
X137502146Y-54347500D01*
X137442628Y-54353900D01*
X137442621Y-54353902D01*
X137307910Y-54404146D01*
X137307907Y-54404148D01*
X137192813Y-54490307D01*
X137192807Y-54490313D01*
X137106648Y-54605407D01*
X137106646Y-54605410D01*
X137056402Y-54740121D01*
X137056400Y-54740128D01*
X137050000Y-54799646D01*
X136005500Y-54799646D01*
X136005500Y-51125881D01*
X136015161Y-51092976D01*
X136025122Y-51058938D01*
X136025174Y-51058877D01*
X136025185Y-51058842D01*
X136048206Y-51032246D01*
X136048486Y-51032004D01*
X136103420Y-51004477D01*
X136110979Y-51002833D01*
X136137332Y-51000000D01*
X142358170Y-51000000D01*
X142393106Y-51005023D01*
G37*
%TD.AperFunction*%
%TD*%
%TA.AperFunction,Conductor*%
%TO.N,GND*%
G36*
X162443039Y-74519685D02*
G01*
X162488794Y-74572489D01*
X162500000Y-74624000D01*
X162500000Y-74737270D01*
X162480315Y-74804309D01*
X162463681Y-74824951D01*
X162407289Y-74881342D01*
X162315187Y-75030663D01*
X162315185Y-75030668D01*
X162315115Y-75030880D01*
X162260001Y-75197203D01*
X162260001Y-75197204D01*
X162260000Y-75197204D01*
X162249500Y-75299983D01*
X162249500Y-76700001D01*
X162249501Y-76700018D01*
X162260000Y-76802796D01*
X162260001Y-76802799D01*
X162315115Y-76969119D01*
X162315186Y-76969334D01*
X162407096Y-77118345D01*
X162407289Y-77118657D01*
X162463681Y-77175049D01*
X162497166Y-77236372D01*
X162500000Y-77262730D01*
X162500000Y-79737270D01*
X162480315Y-79804309D01*
X162463681Y-79824951D01*
X162407289Y-79881342D01*
X162315187Y-80030663D01*
X162315185Y-80030668D01*
X162315115Y-80030880D01*
X162260001Y-80197203D01*
X162260001Y-80197204D01*
X162260000Y-80197204D01*
X162249500Y-80299983D01*
X162249500Y-81700001D01*
X162249501Y-81700018D01*
X162260000Y-81802796D01*
X162260001Y-81802799D01*
X162315115Y-81969119D01*
X162315186Y-81969334D01*
X162407096Y-82118345D01*
X162407289Y-82118657D01*
X162463681Y-82175049D01*
X162478384Y-82201976D01*
X162494977Y-82227795D01*
X162495868Y-82233995D01*
X162497166Y-82236372D01*
X162500000Y-82262730D01*
X162500000Y-82376000D01*
X162480315Y-82443039D01*
X162427511Y-82488794D01*
X162376000Y-82500000D01*
X161487812Y-82500000D01*
X161420773Y-82480315D01*
X161375018Y-82427511D01*
X161365074Y-82358353D01*
X161394099Y-82294797D01*
X161422715Y-82270462D01*
X161468340Y-82242319D01*
X161468344Y-82242316D01*
X161592315Y-82118345D01*
X161684356Y-81969124D01*
X161684358Y-81969119D01*
X161739505Y-81802697D01*
X161739506Y-81802690D01*
X161749999Y-81699986D01*
X161750000Y-81699973D01*
X161750000Y-81250000D01*
X160124000Y-81250000D01*
X160056961Y-81230315D01*
X160011206Y-81177511D01*
X160000000Y-81126000D01*
X160000000Y-81000000D01*
X159874000Y-81000000D01*
X159806961Y-80980315D01*
X159761206Y-80927511D01*
X159750000Y-80876000D01*
X159750000Y-80750000D01*
X160250000Y-80750000D01*
X161749999Y-80750000D01*
X161749999Y-80300028D01*
X161749998Y-80300013D01*
X161739505Y-80197302D01*
X161684358Y-80030880D01*
X161684356Y-80030875D01*
X161592315Y-79881654D01*
X161468345Y-79757684D01*
X161319124Y-79665643D01*
X161319119Y-79665641D01*
X161152697Y-79610494D01*
X161152690Y-79610493D01*
X161049986Y-79600000D01*
X160250000Y-79600000D01*
X160250000Y-80750000D01*
X159750000Y-80750000D01*
X159750000Y-79600000D01*
X158950028Y-79600000D01*
X158950012Y-79600001D01*
X158847302Y-79610494D01*
X158680871Y-79665644D01*
X158676394Y-79667732D01*
X158607316Y-79678217D01*
X158543535Y-79649692D01*
X158505300Y-79591212D01*
X158500000Y-79555345D01*
X158500000Y-77444654D01*
X158519685Y-77377615D01*
X158572489Y-77331860D01*
X158641647Y-77321916D01*
X158676403Y-77332271D01*
X158680877Y-77334357D01*
X158847302Y-77389505D01*
X158847309Y-77389506D01*
X158950019Y-77399999D01*
X159749999Y-77399999D01*
X160250000Y-77399999D01*
X161049972Y-77399999D01*
X161049986Y-77399998D01*
X161152697Y-77389505D01*
X161319119Y-77334358D01*
X161319124Y-77334356D01*
X161468345Y-77242315D01*
X161592315Y-77118345D01*
X161684356Y-76969124D01*
X161684358Y-76969119D01*
X161739505Y-76802697D01*
X161739506Y-76802690D01*
X161749999Y-76699986D01*
X161750000Y-76699973D01*
X161750000Y-76250000D01*
X160250000Y-76250000D01*
X160250000Y-77399999D01*
X159749999Y-77399999D01*
X159750000Y-77399998D01*
X159750000Y-76124000D01*
X159769685Y-76056961D01*
X159822489Y-76011206D01*
X159874000Y-76000000D01*
X160000000Y-76000000D01*
X160000000Y-75874000D01*
X160019685Y-75806961D01*
X160072489Y-75761206D01*
X160124000Y-75750000D01*
X161749999Y-75750000D01*
X161749999Y-75300028D01*
X161749998Y-75300013D01*
X161739505Y-75197302D01*
X161684358Y-75030880D01*
X161684356Y-75030875D01*
X161592315Y-74881654D01*
X161468344Y-74757683D01*
X161468340Y-74757680D01*
X161422715Y-74729538D01*
X161375990Y-74677590D01*
X161364769Y-74608628D01*
X161392612Y-74544546D01*
X161450681Y-74505690D01*
X161487812Y-74500000D01*
X162376000Y-74500000D01*
X162443039Y-74519685D01*
G37*
%TD.AperFunction*%
%TD*%
%TA.AperFunction,Conductor*%
%TO.N,GND*%
G36*
X153259426Y-111044527D02*
G01*
X153308832Y-111093932D01*
X153316182Y-111110027D01*
X153320205Y-111120814D01*
X153356204Y-111217331D01*
X153363571Y-111227172D01*
X153375266Y-111242794D01*
X153379974Y-111255416D01*
X153388794Y-111265595D01*
X153395823Y-111297908D01*
X153399684Y-111308258D01*
X153398879Y-111311955D01*
X153400000Y-111317106D01*
X153400000Y-111475000D01*
X153447828Y-111475000D01*
X153447844Y-111474999D01*
X153507372Y-111468598D01*
X153507375Y-111468597D01*
X153555949Y-111450480D01*
X153625640Y-111445494D01*
X153642610Y-111450477D01*
X153692517Y-111469091D01*
X153752127Y-111475500D01*
X154247872Y-111475499D01*
X154307483Y-111469091D01*
X154356665Y-111450746D01*
X154426355Y-111445761D01*
X154443333Y-111450747D01*
X154492508Y-111469088D01*
X154492511Y-111469089D01*
X154492517Y-111469091D01*
X154552127Y-111475500D01*
X154876001Y-111475499D01*
X154943039Y-111495183D01*
X154988794Y-111547987D01*
X155000000Y-111599499D01*
X155000000Y-111722844D01*
X155006401Y-111782372D01*
X155006403Y-111782383D01*
X155024519Y-111830953D01*
X155029503Y-111900644D01*
X155024520Y-111917616D01*
X155005910Y-111967513D01*
X155005909Y-111967517D01*
X154999500Y-112027127D01*
X154999500Y-112027134D01*
X154999500Y-112027135D01*
X154999500Y-112522870D01*
X154999501Y-112522876D01*
X155005908Y-112582482D01*
X155019004Y-112617593D01*
X155024252Y-112631665D01*
X155024253Y-112631666D01*
X155029237Y-112701358D01*
X155024253Y-112718331D01*
X155005910Y-112767511D01*
X155005909Y-112767515D01*
X155005909Y-112767517D01*
X154999500Y-112827127D01*
X154999500Y-112827134D01*
X154999500Y-112827135D01*
X154999500Y-113322870D01*
X154999501Y-113322876D01*
X155005908Y-113382482D01*
X155019004Y-113417593D01*
X155024252Y-113431665D01*
X155024253Y-113431666D01*
X155029237Y-113501358D01*
X155024253Y-113518331D01*
X155005910Y-113567511D01*
X155005909Y-113567515D01*
X155005909Y-113567517D01*
X154999500Y-113627127D01*
X154999500Y-113627134D01*
X154999500Y-113627135D01*
X154999500Y-114122870D01*
X154999501Y-114122876D01*
X155005908Y-114182482D01*
X155019004Y-114217593D01*
X155024252Y-114231665D01*
X155024253Y-114231666D01*
X155029237Y-114301358D01*
X155024253Y-114318331D01*
X155005910Y-114367511D01*
X155005910Y-114367514D01*
X155005909Y-114367517D01*
X154999500Y-114427127D01*
X154999500Y-114427134D01*
X154999500Y-114427135D01*
X154999500Y-114922870D01*
X154999501Y-114922876D01*
X155005908Y-114982482D01*
X155019004Y-115017593D01*
X155024252Y-115031665D01*
X155024253Y-115031666D01*
X155029237Y-115101358D01*
X155024253Y-115118331D01*
X155005910Y-115167511D01*
X155005910Y-115167514D01*
X155005909Y-115167517D01*
X154999500Y-115227127D01*
X154999500Y-115227134D01*
X154999500Y-115227135D01*
X154999500Y-115722870D01*
X154999501Y-115722876D01*
X155005908Y-115782482D01*
X155024253Y-115831666D01*
X155029237Y-115901358D01*
X155024253Y-115918331D01*
X155005910Y-115967511D01*
X155005910Y-115967514D01*
X155005909Y-115967517D01*
X154999500Y-116027127D01*
X154999500Y-116027134D01*
X154999500Y-116027135D01*
X154999500Y-116522870D01*
X154999501Y-116522876D01*
X155005908Y-116582482D01*
X155019004Y-116617593D01*
X155024252Y-116631665D01*
X155024253Y-116631666D01*
X155029237Y-116701358D01*
X155024253Y-116718331D01*
X155005910Y-116767511D01*
X155005910Y-116767514D01*
X155005909Y-116767517D01*
X154999500Y-116827127D01*
X154999500Y-116827134D01*
X154999500Y-116827135D01*
X154999500Y-117322870D01*
X154999501Y-117322876D01*
X155005908Y-117382482D01*
X155012412Y-117399920D01*
X155024252Y-117431665D01*
X155024253Y-117431666D01*
X155029237Y-117501358D01*
X155024253Y-117518331D01*
X155005910Y-117567511D01*
X155005909Y-117567515D01*
X155005909Y-117567517D01*
X154999500Y-117627127D01*
X154999500Y-117627134D01*
X154999500Y-117627135D01*
X154999500Y-118122870D01*
X154999501Y-118122876D01*
X155005909Y-118182484D01*
X155024519Y-118232382D01*
X155029503Y-118302074D01*
X155024520Y-118319046D01*
X155006402Y-118367623D01*
X155006401Y-118367627D01*
X155000000Y-118427155D01*
X155000000Y-118475000D01*
X155157893Y-118475000D01*
X155224932Y-118494685D01*
X155232204Y-118499733D01*
X155257668Y-118518795D01*
X155257671Y-118518797D01*
X155293572Y-118532187D01*
X155392517Y-118569091D01*
X155452127Y-118575500D01*
X156347872Y-118575499D01*
X156407483Y-118569091D01*
X156542331Y-118518796D01*
X156567128Y-118500233D01*
X156632592Y-118475816D01*
X156641439Y-118475500D01*
X157644551Y-118475500D01*
X157711590Y-118495185D01*
X157757345Y-118547989D01*
X157762256Y-118560493D01*
X157765104Y-118569089D01*
X157765186Y-118569334D01*
X157857288Y-118718656D01*
X157981344Y-118842712D01*
X158130666Y-118934814D01*
X158297203Y-118989999D01*
X158399991Y-119000500D01*
X159800008Y-119000499D01*
X159863399Y-118994023D01*
X159932090Y-119006792D01*
X159982975Y-119054673D01*
X160000000Y-119117381D01*
X160000000Y-119683120D01*
X159980315Y-119750159D01*
X159927511Y-119795914D01*
X159863399Y-119806478D01*
X159799991Y-119800000D01*
X159350000Y-119800000D01*
X159350000Y-121949999D01*
X159799972Y-121949999D01*
X159799986Y-121949998D01*
X159863398Y-121943520D01*
X159932090Y-121956289D01*
X159982975Y-122004170D01*
X160000000Y-122066878D01*
X160000000Y-122121500D01*
X159980315Y-122188539D01*
X159927511Y-122234294D01*
X159876000Y-122245500D01*
X139124000Y-122245500D01*
X139056961Y-122225815D01*
X139011206Y-122173011D01*
X139000000Y-122121500D01*
X139000000Y-121466309D01*
X139019685Y-121399270D01*
X139072489Y-121353515D01*
X139137258Y-121343020D01*
X139202160Y-121349999D01*
X139202172Y-121350000D01*
X139850000Y-121350000D01*
X140350000Y-121350000D01*
X140997828Y-121350000D01*
X140997844Y-121349999D01*
X141057372Y-121343598D01*
X141057379Y-121343596D01*
X141192086Y-121293354D01*
X141192093Y-121293350D01*
X141307187Y-121207190D01*
X141307190Y-121207187D01*
X141393350Y-121092093D01*
X141393354Y-121092086D01*
X141443596Y-120957379D01*
X141443598Y-120957372D01*
X141449999Y-120897844D01*
X141450000Y-120897827D01*
X141450000Y-120822844D01*
X143200000Y-120822844D01*
X143206401Y-120882372D01*
X143206403Y-120882379D01*
X143256645Y-121017086D01*
X143256649Y-121017093D01*
X143342809Y-121132187D01*
X143342812Y-121132190D01*
X143457906Y-121218350D01*
X143457913Y-121218354D01*
X143592620Y-121268596D01*
X143592627Y-121268598D01*
X143652155Y-121274999D01*
X143652172Y-121275000D01*
X143800000Y-121275000D01*
X144300000Y-121275000D01*
X144447828Y-121275000D01*
X144447844Y-121274999D01*
X144507372Y-121268598D01*
X144507376Y-121268597D01*
X144650398Y-121215253D01*
X144651015Y-121216909D01*
X144708840Y-121204327D01*
X144749251Y-121216193D01*
X144749602Y-121215253D01*
X144892623Y-121268597D01*
X144892627Y-121268598D01*
X144952155Y-121274999D01*
X144952172Y-121275000D01*
X145000000Y-121275000D01*
X145400000Y-121275000D01*
X145447828Y-121275000D01*
X145447844Y-121274999D01*
X145507377Y-121268597D01*
X145507378Y-121268597D01*
X145556665Y-121250214D01*
X145626356Y-121245228D01*
X145643335Y-121250214D01*
X145692621Y-121268597D01*
X145752155Y-121274999D01*
X145752172Y-121275000D01*
X145800000Y-121275000D01*
X146200000Y-121275000D01*
X146247828Y-121275000D01*
X146247844Y-121274999D01*
X146307377Y-121268597D01*
X146307378Y-121268597D01*
X146356665Y-121250214D01*
X146426356Y-121245228D01*
X146443335Y-121250214D01*
X146492621Y-121268597D01*
X146552155Y-121274999D01*
X146552172Y-121275000D01*
X146600000Y-121275000D01*
X147000000Y-121275000D01*
X147047828Y-121275000D01*
X147047844Y-121274999D01*
X147107377Y-121268597D01*
X147107378Y-121268597D01*
X147156665Y-121250214D01*
X147226356Y-121245228D01*
X147243335Y-121250214D01*
X147292621Y-121268597D01*
X147352155Y-121274999D01*
X147352172Y-121275000D01*
X147400000Y-121275000D01*
X147800000Y-121275000D01*
X147847828Y-121275000D01*
X147847844Y-121274999D01*
X147907377Y-121268597D01*
X147907378Y-121268597D01*
X147956665Y-121250214D01*
X148026356Y-121245228D01*
X148043335Y-121250214D01*
X148092621Y-121268597D01*
X148152155Y-121274999D01*
X148152172Y-121275000D01*
X148200000Y-121275000D01*
X148600000Y-121275000D01*
X148647828Y-121275000D01*
X148647844Y-121274999D01*
X148707377Y-121268597D01*
X148707378Y-121268597D01*
X148756665Y-121250214D01*
X148826356Y-121245228D01*
X148843335Y-121250214D01*
X148892621Y-121268597D01*
X148952155Y-121274999D01*
X148952172Y-121275000D01*
X149000000Y-121275000D01*
X149400000Y-121275000D01*
X149447828Y-121275000D01*
X149447844Y-121274999D01*
X149507377Y-121268597D01*
X149507378Y-121268597D01*
X149556665Y-121250214D01*
X149626356Y-121245228D01*
X149643335Y-121250214D01*
X149692621Y-121268597D01*
X149752155Y-121274999D01*
X149752172Y-121275000D01*
X149800000Y-121275000D01*
X150200000Y-121275000D01*
X150247828Y-121275000D01*
X150247844Y-121274999D01*
X150307377Y-121268597D01*
X150307378Y-121268597D01*
X150356665Y-121250214D01*
X150426356Y-121245228D01*
X150443335Y-121250214D01*
X150492621Y-121268597D01*
X150552155Y-121274999D01*
X150552172Y-121275000D01*
X150600000Y-121275000D01*
X151000000Y-121275000D01*
X151047828Y-121275000D01*
X151047844Y-121274999D01*
X151107377Y-121268597D01*
X151107378Y-121268597D01*
X151156665Y-121250214D01*
X151226356Y-121245228D01*
X151243335Y-121250214D01*
X151292621Y-121268597D01*
X151352155Y-121274999D01*
X151352172Y-121275000D01*
X151400000Y-121275000D01*
X151800000Y-121275000D01*
X151847828Y-121275000D01*
X151847844Y-121274999D01*
X151907377Y-121268597D01*
X151907378Y-121268597D01*
X151956665Y-121250214D01*
X152026356Y-121245228D01*
X152043335Y-121250214D01*
X152092621Y-121268597D01*
X152152155Y-121274999D01*
X152152172Y-121275000D01*
X152200000Y-121275000D01*
X152600000Y-121275000D01*
X152647828Y-121275000D01*
X152647844Y-121274999D01*
X152707377Y-121268597D01*
X152707378Y-121268597D01*
X152756665Y-121250214D01*
X152826356Y-121245228D01*
X152843335Y-121250214D01*
X152892621Y-121268597D01*
X152952155Y-121274999D01*
X152952172Y-121275000D01*
X153000000Y-121275000D01*
X153400000Y-121275000D01*
X153447828Y-121275000D01*
X153447844Y-121274999D01*
X153507377Y-121268597D01*
X153507378Y-121268597D01*
X153556665Y-121250214D01*
X153626356Y-121245228D01*
X153643335Y-121250214D01*
X153692621Y-121268597D01*
X153752155Y-121274999D01*
X153752172Y-121275000D01*
X153800000Y-121275000D01*
X154200000Y-121275000D01*
X154247828Y-121275000D01*
X154247844Y-121274999D01*
X154307377Y-121268597D01*
X154307378Y-121268597D01*
X154356665Y-121250214D01*
X154426356Y-121245228D01*
X154443335Y-121250214D01*
X154492621Y-121268597D01*
X154552155Y-121274999D01*
X154552172Y-121275000D01*
X154600000Y-121275000D01*
X155000000Y-121275000D01*
X155047828Y-121275000D01*
X155047844Y-121274999D01*
X155107372Y-121268598D01*
X155107376Y-121268597D01*
X155250398Y-121215253D01*
X155251015Y-121216909D01*
X155308840Y-121204327D01*
X155349251Y-121216193D01*
X155349602Y-121215253D01*
X155492623Y-121268597D01*
X155492627Y-121268598D01*
X155552155Y-121274999D01*
X155552172Y-121275000D01*
X155700000Y-121275000D01*
X156200000Y-121275000D01*
X156347828Y-121275000D01*
X156347844Y-121274999D01*
X156407372Y-121268598D01*
X156407379Y-121268596D01*
X156457275Y-121249986D01*
X157700001Y-121249986D01*
X157710494Y-121352697D01*
X157765641Y-121519119D01*
X157765643Y-121519124D01*
X157857684Y-121668345D01*
X157981654Y-121792315D01*
X158130875Y-121884356D01*
X158130880Y-121884358D01*
X158297302Y-121939505D01*
X158297309Y-121939506D01*
X158400019Y-121949999D01*
X158849999Y-121949999D01*
X158850000Y-121949998D01*
X158850000Y-121125000D01*
X157700001Y-121125000D01*
X157700001Y-121249986D01*
X156457275Y-121249986D01*
X156542086Y-121218354D01*
X156542093Y-121218350D01*
X156657187Y-121132190D01*
X156657190Y-121132187D01*
X156743350Y-121017093D01*
X156743354Y-121017086D01*
X156793596Y-120882379D01*
X156793598Y-120882372D01*
X156799999Y-120822844D01*
X156800000Y-120822827D01*
X156800000Y-120675000D01*
X156200000Y-120675000D01*
X156200000Y-121275000D01*
X155700000Y-121275000D01*
X155700000Y-120675000D01*
X155000000Y-120675000D01*
X155000000Y-121275000D01*
X154600000Y-121275000D01*
X154600000Y-120636590D01*
X154586992Y-120575000D01*
X154200000Y-120575000D01*
X154200000Y-121275000D01*
X153800000Y-121275000D01*
X153800000Y-120575000D01*
X153400000Y-120575000D01*
X153400000Y-121275000D01*
X153000000Y-121275000D01*
X153000000Y-120575000D01*
X152600000Y-120575000D01*
X152600000Y-121275000D01*
X152200000Y-121275000D01*
X152200000Y-120575000D01*
X151800000Y-120575000D01*
X151800000Y-121275000D01*
X151400000Y-121275000D01*
X151400000Y-120575000D01*
X151000000Y-120575000D01*
X151000000Y-121275000D01*
X150600000Y-121275000D01*
X150600000Y-120575000D01*
X150200000Y-120575000D01*
X150200000Y-121275000D01*
X149800000Y-121275000D01*
X149800000Y-120575000D01*
X149400000Y-120575000D01*
X149400000Y-121275000D01*
X149000000Y-121275000D01*
X149000000Y-120575000D01*
X148600000Y-120575000D01*
X148600000Y-121275000D01*
X148200000Y-121275000D01*
X148200000Y-120575000D01*
X147800000Y-120575000D01*
X147800000Y-121275000D01*
X147400000Y-121275000D01*
X147400000Y-120575000D01*
X147000000Y-120575000D01*
X147000000Y-121275000D01*
X146600000Y-121275000D01*
X146600000Y-120575000D01*
X146200000Y-120575000D01*
X146200000Y-121275000D01*
X145800000Y-121275000D01*
X145800000Y-120575000D01*
X145400000Y-120575000D01*
X145400000Y-121275000D01*
X145000000Y-121275000D01*
X145000000Y-120675000D01*
X144300000Y-120675000D01*
X144300000Y-121275000D01*
X143800000Y-121275000D01*
X143800000Y-120675000D01*
X143200000Y-120675000D01*
X143200000Y-120822844D01*
X141450000Y-120822844D01*
X141450000Y-120650000D01*
X140350000Y-120650000D01*
X140350000Y-121350000D01*
X139850000Y-121350000D01*
X139850000Y-120500013D01*
X157700000Y-120500013D01*
X157700000Y-120625000D01*
X158850000Y-120625000D01*
X158850000Y-119800000D01*
X158400028Y-119800000D01*
X158400012Y-119800001D01*
X158297302Y-119810494D01*
X158130880Y-119865641D01*
X158130875Y-119865643D01*
X157981654Y-119957684D01*
X157857684Y-120081654D01*
X157765643Y-120230875D01*
X157765641Y-120230880D01*
X157710494Y-120397302D01*
X157710493Y-120397309D01*
X157700000Y-120500013D01*
X139850000Y-120500013D01*
X139850000Y-120150000D01*
X140350000Y-120150000D01*
X141450000Y-120150000D01*
X141450000Y-119902172D01*
X141449999Y-119902155D01*
X141443598Y-119842627D01*
X141443596Y-119842620D01*
X141393354Y-119707913D01*
X141393350Y-119707906D01*
X141307190Y-119592812D01*
X141307187Y-119592809D01*
X141192093Y-119506649D01*
X141192086Y-119506645D01*
X141057379Y-119456403D01*
X141057372Y-119456401D01*
X140997844Y-119450000D01*
X140350000Y-119450000D01*
X140350000Y-120150000D01*
X139850000Y-120150000D01*
X139850000Y-119450000D01*
X139202155Y-119450000D01*
X139137256Y-119456979D01*
X139068497Y-119444574D01*
X139017359Y-119396965D01*
X139000000Y-119333690D01*
X139000000Y-119000596D01*
X139019685Y-118933557D01*
X139036319Y-118912915D01*
X139274235Y-118675000D01*
X139962417Y-117986818D01*
X140023740Y-117953333D01*
X140050098Y-117950499D01*
X140997871Y-117950499D01*
X140997872Y-117950499D01*
X141057483Y-117944091D01*
X141192331Y-117893796D01*
X141307546Y-117807546D01*
X141393796Y-117692331D01*
X141397960Y-117681165D01*
X141411228Y-117663441D01*
X141420428Y-117643297D01*
X141431758Y-117636015D01*
X141439829Y-117625234D01*
X141460577Y-117617495D01*
X141479206Y-117605523D01*
X141501121Y-117602371D01*
X141505293Y-117600816D01*
X141514141Y-117600500D01*
X141620234Y-117600500D01*
X141687273Y-117620185D01*
X141689125Y-117621398D01*
X141820814Y-117709390D01*
X141820827Y-117709397D01*
X141966498Y-117769735D01*
X141966503Y-117769737D01*
X142121153Y-117800499D01*
X142121156Y-117800500D01*
X142121158Y-117800500D01*
X142278844Y-117800500D01*
X142278845Y-117800499D01*
X142433497Y-117769737D01*
X142579179Y-117709394D01*
X142710289Y-117621789D01*
X142821789Y-117510289D01*
X142909394Y-117379179D01*
X142960941Y-117254731D01*
X143004779Y-117200332D01*
X143071073Y-117178266D01*
X143138772Y-117195544D01*
X143186383Y-117246681D01*
X143197355Y-117279220D01*
X143199500Y-117290605D01*
X143199501Y-117322872D01*
X143205909Y-117382483D01*
X143227961Y-117441610D01*
X143229926Y-117452032D01*
X143227471Y-117476666D01*
X143229237Y-117501358D01*
X143224253Y-117518331D01*
X143205910Y-117567511D01*
X143205909Y-117567515D01*
X143205909Y-117567517D01*
X143199500Y-117627127D01*
X143199500Y-117627134D01*
X143199500Y-117627135D01*
X143199500Y-118122870D01*
X143199501Y-118122876D01*
X143205908Y-118182482D01*
X143214702Y-118206059D01*
X143224252Y-118231665D01*
X143224253Y-118231666D01*
X143229237Y-118301358D01*
X143224253Y-118318331D01*
X143205910Y-118367511D01*
X143205910Y-118367514D01*
X143205909Y-118367517D01*
X143199500Y-118427127D01*
X143199500Y-118427134D01*
X143199500Y-118427135D01*
X143199500Y-118922870D01*
X143199501Y-118922876D01*
X143205908Y-118982482D01*
X143219004Y-119017593D01*
X143224252Y-119031665D01*
X143224253Y-119031666D01*
X143229237Y-119101358D01*
X143224253Y-119118331D01*
X143205910Y-119167511D01*
X143205910Y-119167514D01*
X143205909Y-119167517D01*
X143199500Y-119227127D01*
X143199500Y-119227134D01*
X143199500Y-119227135D01*
X143199500Y-119722870D01*
X143199501Y-119722876D01*
X143205909Y-119782484D01*
X143224519Y-119832382D01*
X143229503Y-119902074D01*
X143224520Y-119919046D01*
X143206402Y-119967623D01*
X143206401Y-119967627D01*
X143200000Y-120027155D01*
X143200000Y-120175000D01*
X143640833Y-120175000D01*
X143648811Y-120175427D01*
X143648817Y-120175322D01*
X143652102Y-120175497D01*
X143652127Y-120175500D01*
X144547872Y-120175499D01*
X144547872Y-120175498D01*
X144551196Y-120175321D01*
X144551201Y-120175426D01*
X144559163Y-120175000D01*
X145000000Y-120175000D01*
X145400000Y-120175000D01*
X145800000Y-120175000D01*
X146200000Y-120175000D01*
X146600000Y-120175000D01*
X147000000Y-120175000D01*
X147400000Y-120175000D01*
X147800000Y-120175000D01*
X148200000Y-120175000D01*
X148600000Y-120175000D01*
X149000000Y-120175000D01*
X149400000Y-120175000D01*
X149800000Y-120175000D01*
X150200000Y-120175000D01*
X150600000Y-120175000D01*
X151000000Y-120175000D01*
X151400000Y-120175000D01*
X151800000Y-120175000D01*
X152200000Y-120175000D01*
X152600000Y-120175000D01*
X153000000Y-120175000D01*
X153400000Y-120175000D01*
X153800000Y-120175000D01*
X154200000Y-120175000D01*
X154600000Y-120175000D01*
X155000000Y-120175000D01*
X155700000Y-120175000D01*
X156200000Y-120175000D01*
X156800000Y-120175000D01*
X156800000Y-120027172D01*
X156799999Y-120027155D01*
X156793597Y-119967622D01*
X156793597Y-119967621D01*
X156775214Y-119918335D01*
X156770228Y-119848644D01*
X156775214Y-119831665D01*
X156793597Y-119782378D01*
X156793597Y-119782377D01*
X156799999Y-119722844D01*
X156800000Y-119722827D01*
X156800000Y-119675000D01*
X156200000Y-119675000D01*
X156200000Y-120175000D01*
X155700000Y-120175000D01*
X155700000Y-119675000D01*
X155000000Y-119675000D01*
X155000000Y-120175000D01*
X154600000Y-120175000D01*
X154600000Y-119475000D01*
X154552155Y-119475000D01*
X154492627Y-119481401D01*
X154492619Y-119481403D01*
X154443333Y-119499786D01*
X154373641Y-119504770D01*
X154356667Y-119499786D01*
X154307380Y-119481403D01*
X154307372Y-119481401D01*
X154247844Y-119475000D01*
X154200000Y-119475000D01*
X154200000Y-120175000D01*
X153800000Y-120175000D01*
X153800000Y-119475000D01*
X153752155Y-119475000D01*
X153692627Y-119481401D01*
X153692619Y-119481403D01*
X153643333Y-119499786D01*
X153573641Y-119504770D01*
X153556667Y-119499786D01*
X153507380Y-119481403D01*
X153507372Y-119481401D01*
X153447844Y-119475000D01*
X153400000Y-119475000D01*
X153400000Y-120175000D01*
X153000000Y-120175000D01*
X153000000Y-119475000D01*
X152952155Y-119475000D01*
X152892627Y-119481401D01*
X152892619Y-119481403D01*
X152843333Y-119499786D01*
X152773641Y-119504770D01*
X152756667Y-119499786D01*
X152707380Y-119481403D01*
X152707372Y-119481401D01*
X152647844Y-119475000D01*
X152600000Y-119475000D01*
X152600000Y-120175000D01*
X152200000Y-120175000D01*
X152200000Y-119475000D01*
X152152155Y-119475000D01*
X152092627Y-119481401D01*
X152092619Y-119481403D01*
X152043333Y-119499786D01*
X151973641Y-119504770D01*
X151956667Y-119499786D01*
X151907380Y-119481403D01*
X151907372Y-119481401D01*
X151847844Y-119475000D01*
X151800000Y-119475000D01*
X151800000Y-120175000D01*
X151400000Y-120175000D01*
X151400000Y-119475000D01*
X151352155Y-119475000D01*
X151292627Y-119481401D01*
X151292619Y-119481403D01*
X151243333Y-119499786D01*
X151173641Y-119504770D01*
X151156667Y-119499786D01*
X151107380Y-119481403D01*
X151107372Y-119481401D01*
X151047844Y-119475000D01*
X151000000Y-119475000D01*
X151000000Y-120175000D01*
X150600000Y-120175000D01*
X150600000Y-119475000D01*
X150552155Y-119475000D01*
X150492627Y-119481401D01*
X150492619Y-119481403D01*
X150443333Y-119499786D01*
X150373641Y-119504770D01*
X150356667Y-119499786D01*
X150307380Y-119481403D01*
X150307372Y-119481401D01*
X150247844Y-119475000D01*
X150200000Y-119475000D01*
X150200000Y-120175000D01*
X149800000Y-120175000D01*
X149800000Y-119475000D01*
X149752155Y-119475000D01*
X149692627Y-119481401D01*
X149692619Y-119481403D01*
X149643333Y-119499786D01*
X149573641Y-119504770D01*
X149556667Y-119499786D01*
X149507380Y-119481403D01*
X149507372Y-119481401D01*
X149447844Y-119475000D01*
X149400000Y-119475000D01*
X149400000Y-120175000D01*
X149000000Y-120175000D01*
X149000000Y-119475000D01*
X148952155Y-119475000D01*
X148892627Y-119481401D01*
X148892619Y-119481403D01*
X148843333Y-119499786D01*
X148773641Y-119504770D01*
X148756667Y-119499786D01*
X148707380Y-119481403D01*
X148707372Y-119481401D01*
X148647844Y-119475000D01*
X148600000Y-119475000D01*
X148600000Y-120175000D01*
X148200000Y-120175000D01*
X148200000Y-119475000D01*
X148152155Y-119475000D01*
X148092627Y-119481401D01*
X148092619Y-119481403D01*
X148043333Y-119499786D01*
X147973641Y-119504770D01*
X147956667Y-119499786D01*
X147907380Y-119481403D01*
X147907372Y-119481401D01*
X147847844Y-119475000D01*
X147800000Y-119475000D01*
X147800000Y-120175000D01*
X147400000Y-120175000D01*
X147400000Y-119475000D01*
X147352155Y-119475000D01*
X147292627Y-119481401D01*
X147292619Y-119481403D01*
X147243333Y-119499786D01*
X147173641Y-119504770D01*
X147156667Y-119499786D01*
X147107380Y-119481403D01*
X147107372Y-119481401D01*
X147047844Y-119475000D01*
X147000000Y-119475000D01*
X147000000Y-120175000D01*
X146600000Y-120175000D01*
X146600000Y-119475000D01*
X146552155Y-119475000D01*
X146492627Y-119481401D01*
X146492619Y-119481403D01*
X146443333Y-119499786D01*
X146373641Y-119504770D01*
X146356667Y-119499786D01*
X146307380Y-119481403D01*
X146307372Y-119481401D01*
X146247844Y-119475000D01*
X146200000Y-119475000D01*
X146200000Y-120175000D01*
X145800000Y-120175000D01*
X145800000Y-119475000D01*
X145752155Y-119475000D01*
X145692627Y-119481401D01*
X145692619Y-119481403D01*
X145643333Y-119499786D01*
X145573641Y-119504770D01*
X145556667Y-119499786D01*
X145507380Y-119481403D01*
X145507372Y-119481401D01*
X145447844Y-119475000D01*
X145400000Y-119475000D01*
X145400000Y-120175000D01*
X145000000Y-120175000D01*
X145000000Y-119734167D01*
X145000427Y-119726188D01*
X145000322Y-119726183D01*
X145000497Y-119722898D01*
X145000500Y-119722873D01*
X145000499Y-119227128D01*
X144994091Y-119167517D01*
X144975747Y-119118334D01*
X144970762Y-119048643D01*
X144975747Y-119031665D01*
X144994089Y-118982488D01*
X144994088Y-118982488D01*
X144994091Y-118982483D01*
X145000500Y-118922873D01*
X145000500Y-118922844D01*
X155000000Y-118922844D01*
X155006401Y-118982372D01*
X155006403Y-118982380D01*
X155024786Y-119031667D01*
X155029770Y-119101359D01*
X155024786Y-119118333D01*
X155006403Y-119167619D01*
X155006401Y-119167627D01*
X155000000Y-119227155D01*
X155000000Y-119275000D01*
X155700000Y-119275000D01*
X156100000Y-119275000D01*
X156800000Y-119275000D01*
X156800000Y-119227172D01*
X156799999Y-119227155D01*
X156793597Y-119167622D01*
X156793597Y-119167621D01*
X156775214Y-119118335D01*
X156770228Y-119048644D01*
X156775214Y-119031665D01*
X156793597Y-118982378D01*
X156793597Y-118982377D01*
X156799999Y-118922844D01*
X156800000Y-118922827D01*
X156800000Y-118875000D01*
X156100000Y-118875000D01*
X156100000Y-119275000D01*
X155700000Y-119275000D01*
X155700000Y-118875000D01*
X155000000Y-118875000D01*
X155000000Y-118922844D01*
X145000500Y-118922844D01*
X145000499Y-118675000D01*
X145000499Y-118427129D01*
X145000498Y-118427123D01*
X144999420Y-118417093D01*
X144994091Y-118367517D01*
X144985881Y-118345505D01*
X144975747Y-118318334D01*
X144970762Y-118248643D01*
X144975747Y-118231665D01*
X144979037Y-118222844D01*
X146800000Y-118222844D01*
X146806401Y-118282372D01*
X146806403Y-118282379D01*
X146856645Y-118417086D01*
X146856649Y-118417093D01*
X146942809Y-118532187D01*
X146942812Y-118532190D01*
X147057906Y-118618350D01*
X147057913Y-118618354D01*
X147192620Y-118668596D01*
X147192627Y-118668598D01*
X147252155Y-118674999D01*
X147252172Y-118675000D01*
X147775000Y-118675000D01*
X148275000Y-118675000D01*
X148797828Y-118675000D01*
X148797844Y-118674999D01*
X148857372Y-118668598D01*
X148857376Y-118668597D01*
X148969166Y-118626902D01*
X149038858Y-118621918D01*
X149055834Y-118626902D01*
X149167623Y-118668597D01*
X149167627Y-118668598D01*
X149227155Y-118674999D01*
X149227172Y-118675000D01*
X149750000Y-118675000D01*
X150250000Y-118675000D01*
X150772828Y-118675000D01*
X150772844Y-118674999D01*
X150832372Y-118668598D01*
X150832376Y-118668597D01*
X150944166Y-118626902D01*
X151013858Y-118621918D01*
X151030834Y-118626902D01*
X151142623Y-118668597D01*
X151142627Y-118668598D01*
X151202155Y-118674999D01*
X151202172Y-118675000D01*
X151725000Y-118675000D01*
X152225000Y-118675000D01*
X152747828Y-118675000D01*
X152747844Y-118674999D01*
X152807372Y-118668598D01*
X152807379Y-118668596D01*
X152942086Y-118618354D01*
X152942093Y-118618350D01*
X153057187Y-118532190D01*
X153057190Y-118532187D01*
X153143350Y-118417093D01*
X153143354Y-118417086D01*
X153193596Y-118282379D01*
X153193598Y-118282372D01*
X153199999Y-118222844D01*
X153200000Y-118222827D01*
X153200000Y-117700000D01*
X152225000Y-117700000D01*
X152225000Y-118675000D01*
X151725000Y-118675000D01*
X151725000Y-117700000D01*
X150250000Y-117700000D01*
X150250000Y-118675000D01*
X149750000Y-118675000D01*
X149750000Y-117700000D01*
X148275000Y-117700000D01*
X148275000Y-118675000D01*
X147775000Y-118675000D01*
X147775000Y-117700000D01*
X146800000Y-117700000D01*
X146800000Y-118222844D01*
X144979037Y-118222844D01*
X144994089Y-118182488D01*
X144994088Y-118182488D01*
X144994091Y-118182483D01*
X145000500Y-118122873D01*
X145000499Y-117627128D01*
X144994091Y-117567517D01*
X144972020Y-117508342D01*
X144970054Y-117497861D01*
X144972524Y-117473281D01*
X144970762Y-117448643D01*
X144975747Y-117431665D01*
X144994089Y-117382488D01*
X144994088Y-117382488D01*
X144994091Y-117382483D01*
X145000500Y-117322873D01*
X145000499Y-116827128D01*
X144994091Y-116767517D01*
X144981074Y-116732617D01*
X144975747Y-116718334D01*
X144970762Y-116648643D01*
X144975747Y-116631665D01*
X144980984Y-116617623D01*
X144994091Y-116582483D01*
X145000500Y-116522873D01*
X145000499Y-116247844D01*
X146800000Y-116247844D01*
X146806401Y-116307372D01*
X146806403Y-116307379D01*
X146848097Y-116419167D01*
X146853081Y-116488859D01*
X146848097Y-116505833D01*
X146806403Y-116617620D01*
X146806401Y-116617627D01*
X146800000Y-116677155D01*
X146800000Y-117200000D01*
X147775000Y-117200000D01*
X148275000Y-117200000D01*
X149750000Y-117200000D01*
X150250000Y-117200000D01*
X151725000Y-117200000D01*
X152225000Y-117200000D01*
X153200000Y-117200000D01*
X153200000Y-116677172D01*
X153199999Y-116677155D01*
X153193598Y-116617627D01*
X153193597Y-116617623D01*
X153151902Y-116505834D01*
X153146918Y-116436142D01*
X153151902Y-116419166D01*
X153193597Y-116307376D01*
X153193598Y-116307372D01*
X153199999Y-116247844D01*
X153200000Y-116247827D01*
X153200000Y-115725000D01*
X152225000Y-115725000D01*
X152225000Y-117200000D01*
X151725000Y-117200000D01*
X151725000Y-115725000D01*
X150250000Y-115725000D01*
X150250000Y-117200000D01*
X149750000Y-117200000D01*
X149750000Y-115725000D01*
X148275000Y-115725000D01*
X148275000Y-117200000D01*
X147775000Y-117200000D01*
X147775000Y-115725000D01*
X146800000Y-115725000D01*
X146800000Y-116247844D01*
X145000499Y-116247844D01*
X145000499Y-116027128D01*
X144994091Y-115967517D01*
X144986607Y-115947452D01*
X144975747Y-115918334D01*
X144969519Y-115855199D01*
X144971471Y-115843128D01*
X144994091Y-115782483D01*
X145000500Y-115722873D01*
X145000499Y-115227128D01*
X144994091Y-115167517D01*
X144976677Y-115120827D01*
X144975747Y-115118334D01*
X144970762Y-115048643D01*
X144975747Y-115031665D01*
X144991395Y-114989711D01*
X144994091Y-114982483D01*
X145000500Y-114922873D01*
X145000499Y-114427128D01*
X144994091Y-114367517D01*
X144975747Y-114318334D01*
X144972493Y-114272844D01*
X146800000Y-114272844D01*
X146806401Y-114332372D01*
X146806403Y-114332379D01*
X146848097Y-114444167D01*
X146853081Y-114513859D01*
X146848097Y-114530833D01*
X146806403Y-114642620D01*
X146806401Y-114642627D01*
X146800000Y-114702155D01*
X146800000Y-115225000D01*
X147775000Y-115225000D01*
X148275000Y-115225000D01*
X149750000Y-115225000D01*
X150250000Y-115225000D01*
X151725000Y-115225000D01*
X152225000Y-115225000D01*
X153200000Y-115225000D01*
X153200000Y-114702172D01*
X153199999Y-114702155D01*
X153193598Y-114642627D01*
X153193597Y-114642623D01*
X153151902Y-114530834D01*
X153146918Y-114461142D01*
X153151902Y-114444166D01*
X153193597Y-114332376D01*
X153193598Y-114332372D01*
X153199999Y-114272844D01*
X153200000Y-114272827D01*
X153200000Y-113750000D01*
X152225000Y-113750000D01*
X152225000Y-115225000D01*
X151725000Y-115225000D01*
X151725000Y-113750000D01*
X150250000Y-113750000D01*
X150250000Y-115225000D01*
X149750000Y-115225000D01*
X149750000Y-113750000D01*
X148275000Y-113750000D01*
X148275000Y-115225000D01*
X147775000Y-115225000D01*
X147775000Y-113750000D01*
X146800000Y-113750000D01*
X146800000Y-114272844D01*
X144972493Y-114272844D01*
X144970762Y-114248643D01*
X144975747Y-114231665D01*
X144994089Y-114182488D01*
X144994088Y-114182488D01*
X144994091Y-114182483D01*
X145000500Y-114122873D01*
X145000499Y-113627128D01*
X144994091Y-113567517D01*
X144971127Y-113505950D01*
X144969223Y-113492871D01*
X144972349Y-113470838D01*
X144970762Y-113448643D01*
X144975747Y-113431665D01*
X144994089Y-113382488D01*
X144994088Y-113382488D01*
X144994091Y-113382483D01*
X145000500Y-113322873D01*
X145000499Y-112827128D01*
X144994091Y-112767517D01*
X144993967Y-112767184D01*
X144993967Y-112767183D01*
X144979037Y-112727155D01*
X146800000Y-112727155D01*
X146800000Y-113250000D01*
X147775000Y-113250000D01*
X148275000Y-113250000D01*
X149750000Y-113250000D01*
X150250000Y-113250000D01*
X151725000Y-113250000D01*
X152225000Y-113250000D01*
X153200000Y-113250000D01*
X153200000Y-112727172D01*
X153199999Y-112727155D01*
X153193598Y-112667627D01*
X153193596Y-112667620D01*
X153143354Y-112532913D01*
X153143350Y-112532906D01*
X153057190Y-112417812D01*
X153057187Y-112417809D01*
X152942093Y-112331649D01*
X152942086Y-112331645D01*
X152807379Y-112281403D01*
X152807372Y-112281401D01*
X152747844Y-112275000D01*
X152225000Y-112275000D01*
X152225000Y-113250000D01*
X151725000Y-113250000D01*
X151725000Y-112275000D01*
X151202155Y-112275000D01*
X151142627Y-112281401D01*
X151142620Y-112281403D01*
X151030833Y-112323097D01*
X150961141Y-112328081D01*
X150944167Y-112323097D01*
X150832379Y-112281403D01*
X150832372Y-112281401D01*
X150772844Y-112275000D01*
X150250000Y-112275000D01*
X150250000Y-113250000D01*
X149750000Y-113250000D01*
X149750000Y-112275000D01*
X149227155Y-112275000D01*
X149167627Y-112281401D01*
X149167620Y-112281403D01*
X149055833Y-112323097D01*
X148986141Y-112328081D01*
X148969167Y-112323097D01*
X148857379Y-112281403D01*
X148857372Y-112281401D01*
X148797844Y-112275000D01*
X148275000Y-112275000D01*
X148275000Y-113250000D01*
X147775000Y-113250000D01*
X147775000Y-112275000D01*
X147252155Y-112275000D01*
X147192627Y-112281401D01*
X147192620Y-112281403D01*
X147057913Y-112331645D01*
X147057906Y-112331649D01*
X146942812Y-112417809D01*
X146942809Y-112417812D01*
X146856649Y-112532906D01*
X146856645Y-112532913D01*
X146806403Y-112667620D01*
X146806401Y-112667627D01*
X146800000Y-112727155D01*
X144979037Y-112727155D01*
X144975747Y-112718335D01*
X144970762Y-112648643D01*
X144975747Y-112631665D01*
X144994089Y-112582488D01*
X144994088Y-112582488D01*
X144994091Y-112582483D01*
X145000500Y-112522873D01*
X145000499Y-112027128D01*
X144994091Y-111967517D01*
X144976677Y-111920827D01*
X144975747Y-111918334D01*
X144970762Y-111848643D01*
X144975747Y-111831665D01*
X144991395Y-111789711D01*
X144994091Y-111782483D01*
X145000500Y-111722873D01*
X145000499Y-111599498D01*
X145020183Y-111532460D01*
X145072987Y-111486705D01*
X145124499Y-111475499D01*
X145447871Y-111475499D01*
X145447872Y-111475499D01*
X145507483Y-111469091D01*
X145556665Y-111450746D01*
X145626355Y-111445761D01*
X145643333Y-111450747D01*
X145692508Y-111469088D01*
X145692511Y-111469089D01*
X145692517Y-111469091D01*
X145752127Y-111475500D01*
X146247872Y-111475499D01*
X146307483Y-111469091D01*
X146356665Y-111450746D01*
X146426355Y-111445761D01*
X146443333Y-111450747D01*
X146492508Y-111469088D01*
X146492511Y-111469089D01*
X146492517Y-111469091D01*
X146552127Y-111475500D01*
X147047872Y-111475499D01*
X147107483Y-111469091D01*
X147156665Y-111450746D01*
X147226355Y-111445761D01*
X147243333Y-111450747D01*
X147292508Y-111469088D01*
X147292511Y-111469089D01*
X147292517Y-111469091D01*
X147352127Y-111475500D01*
X147847872Y-111475499D01*
X147907483Y-111469091D01*
X147956665Y-111450746D01*
X148026355Y-111445761D01*
X148043333Y-111450747D01*
X148092508Y-111469088D01*
X148092511Y-111469089D01*
X148092517Y-111469091D01*
X148152127Y-111475500D01*
X148647872Y-111475499D01*
X148707483Y-111469091D01*
X148756665Y-111450746D01*
X148826355Y-111445761D01*
X148843333Y-111450747D01*
X148892508Y-111469088D01*
X148892511Y-111469089D01*
X148892517Y-111469091D01*
X148952127Y-111475500D01*
X149447872Y-111475499D01*
X149507483Y-111469091D01*
X149556665Y-111450746D01*
X149626355Y-111445761D01*
X149643333Y-111450747D01*
X149692508Y-111469088D01*
X149692511Y-111469089D01*
X149692517Y-111469091D01*
X149752127Y-111475500D01*
X150247872Y-111475499D01*
X150307483Y-111469091D01*
X150356665Y-111450746D01*
X150426355Y-111445761D01*
X150443333Y-111450747D01*
X150492508Y-111469088D01*
X150492511Y-111469089D01*
X150492517Y-111469091D01*
X150552127Y-111475500D01*
X151047872Y-111475499D01*
X151107483Y-111469091D01*
X151156665Y-111450746D01*
X151226355Y-111445761D01*
X151243333Y-111450747D01*
X151292508Y-111469088D01*
X151292511Y-111469089D01*
X151292517Y-111469091D01*
X151352127Y-111475500D01*
X151847872Y-111475499D01*
X151907483Y-111469091D01*
X151956665Y-111450746D01*
X152026355Y-111445761D01*
X152043333Y-111450747D01*
X152092508Y-111469088D01*
X152092511Y-111469089D01*
X152092517Y-111469091D01*
X152152127Y-111475500D01*
X152647872Y-111475499D01*
X152707483Y-111469091D01*
X152757382Y-111450479D01*
X152827069Y-111445494D01*
X152844048Y-111450479D01*
X152892628Y-111468598D01*
X152892627Y-111468598D01*
X152952155Y-111474999D01*
X152952172Y-111475000D01*
X153000000Y-111475000D01*
X153000000Y-111317106D01*
X153002550Y-111308420D01*
X153001262Y-111299459D01*
X153012240Y-111275418D01*
X153019685Y-111250067D01*
X153024734Y-111242794D01*
X153043796Y-111217331D01*
X153079795Y-111120814D01*
X153083818Y-111110027D01*
X153125689Y-111054093D01*
X153191153Y-111029676D01*
X153259426Y-111044527D01*
G37*
%TD.AperFunction*%
%TA.AperFunction,Conductor*%
G36*
X159823244Y-108094685D02*
G01*
X159843886Y-108111319D01*
X159963681Y-108231114D01*
X159997166Y-108292437D01*
X160000000Y-108318795D01*
X160000000Y-116732617D01*
X159980315Y-116799656D01*
X159927511Y-116845411D01*
X159863399Y-116855975D01*
X159800012Y-116849500D01*
X158399998Y-116849500D01*
X158399978Y-116849502D01*
X158333884Y-116856253D01*
X158265191Y-116843483D01*
X158214308Y-116795601D01*
X158197388Y-116727811D01*
X158208910Y-116685573D01*
X158207063Y-116684808D01*
X158269735Y-116533501D01*
X158269737Y-116533497D01*
X158300500Y-116378842D01*
X158300500Y-116221158D01*
X158300500Y-116221155D01*
X158300499Y-116221153D01*
X158277634Y-116106204D01*
X158269737Y-116066503D01*
X158265349Y-116055909D01*
X158220425Y-115947452D01*
X158212956Y-115877983D01*
X158220425Y-115852548D01*
X158269735Y-115733501D01*
X158269737Y-115733497D01*
X158300500Y-115578842D01*
X158300500Y-115421158D01*
X158300500Y-115421155D01*
X158300499Y-115421153D01*
X158296192Y-115399500D01*
X158269737Y-115266503D01*
X158269735Y-115266498D01*
X158209397Y-115120827D01*
X158209390Y-115120814D01*
X158121789Y-114989711D01*
X158121786Y-114989707D01*
X158010292Y-114878213D01*
X158010288Y-114878210D01*
X157897881Y-114803102D01*
X157853076Y-114749490D01*
X157844369Y-114680165D01*
X157874523Y-114617137D01*
X157897881Y-114596898D01*
X157931981Y-114574112D01*
X158010289Y-114521789D01*
X158121789Y-114410289D01*
X158209394Y-114279179D01*
X158269737Y-114133497D01*
X158300500Y-113978842D01*
X158300500Y-113821158D01*
X158300500Y-113821156D01*
X158300500Y-113821155D01*
X158300499Y-113821153D01*
X158269737Y-113666503D01*
X158253430Y-113627135D01*
X158220425Y-113547452D01*
X158212956Y-113477983D01*
X158220425Y-113452548D01*
X158269735Y-113333501D01*
X158269737Y-113333497D01*
X158300500Y-113178842D01*
X158300500Y-113021158D01*
X158300500Y-113021155D01*
X158300499Y-113021153D01*
X158269738Y-112866510D01*
X158269737Y-112866503D01*
X158253428Y-112827129D01*
X158220425Y-112747452D01*
X158212956Y-112677983D01*
X158220425Y-112652548D01*
X158269735Y-112533501D01*
X158269737Y-112533497D01*
X158300500Y-112378842D01*
X158300500Y-112221158D01*
X158300500Y-112221155D01*
X158300499Y-112221153D01*
X158269737Y-112066503D01*
X158256091Y-112033558D01*
X158209397Y-111920827D01*
X158209390Y-111920814D01*
X158121789Y-111789711D01*
X158121786Y-111789707D01*
X158010292Y-111678213D01*
X158010288Y-111678210D01*
X157879185Y-111590609D01*
X157879172Y-111590602D01*
X157733501Y-111530264D01*
X157733489Y-111530261D01*
X157578845Y-111499500D01*
X157578842Y-111499500D01*
X157421158Y-111499500D01*
X157421155Y-111499500D01*
X157266510Y-111530261D01*
X157266498Y-111530264D01*
X157120827Y-111590602D01*
X157120815Y-111590609D01*
X157026541Y-111653602D01*
X156959864Y-111674480D01*
X156957650Y-111674500D01*
X156641439Y-111674500D01*
X156574400Y-111654815D01*
X156567128Y-111649767D01*
X156542331Y-111631204D01*
X156542328Y-111631202D01*
X156407482Y-111580908D01*
X156407483Y-111580908D01*
X156347883Y-111574501D01*
X156347881Y-111574500D01*
X156347873Y-111574500D01*
X156347865Y-111574500D01*
X156024000Y-111574500D01*
X156015314Y-111571949D01*
X156006353Y-111573238D01*
X155982312Y-111562259D01*
X155956961Y-111554815D01*
X155951033Y-111547974D01*
X155942797Y-111544213D01*
X155928507Y-111521978D01*
X155911206Y-111502011D01*
X155908918Y-111491496D01*
X155905023Y-111485435D01*
X155900000Y-111450500D01*
X155900000Y-111399000D01*
X155919685Y-111331961D01*
X155972489Y-111286206D01*
X156024000Y-111275000D01*
X156800000Y-111275000D01*
X156800000Y-111227172D01*
X156799999Y-111227155D01*
X156793597Y-111167622D01*
X156793597Y-111167621D01*
X156775214Y-111118335D01*
X156770228Y-111048644D01*
X156775214Y-111031665D01*
X156793597Y-110982378D01*
X156793597Y-110982377D01*
X156799999Y-110922844D01*
X156800000Y-110922827D01*
X156800000Y-110775000D01*
X156074000Y-110775000D01*
X156006961Y-110755315D01*
X155961206Y-110702511D01*
X155950000Y-110651000D01*
X155950000Y-110525000D01*
X155824000Y-110525000D01*
X155756961Y-110505315D01*
X155711206Y-110452511D01*
X155700000Y-110401000D01*
X155700000Y-110275000D01*
X156200000Y-110275000D01*
X156800000Y-110275000D01*
X156800000Y-110127172D01*
X156799999Y-110127155D01*
X156793598Y-110067627D01*
X156793596Y-110067620D01*
X156743354Y-109932913D01*
X156743350Y-109932906D01*
X156657190Y-109817812D01*
X156657187Y-109817809D01*
X156542093Y-109731649D01*
X156542086Y-109731645D01*
X156407379Y-109681403D01*
X156407372Y-109681401D01*
X156347844Y-109675000D01*
X156200000Y-109675000D01*
X156200000Y-110275000D01*
X155700000Y-110275000D01*
X155700000Y-109675000D01*
X155552172Y-109675000D01*
X155537755Y-109676550D01*
X155468996Y-109664144D01*
X155417858Y-109616534D01*
X155400500Y-109553260D01*
X155400500Y-108779765D01*
X155420185Y-108712726D01*
X155421398Y-108710874D01*
X155442799Y-108678846D01*
X155509394Y-108579179D01*
X155569737Y-108433497D01*
X155600500Y-108278842D01*
X155600500Y-108199000D01*
X155620185Y-108131961D01*
X155672989Y-108086206D01*
X155724500Y-108075000D01*
X159756205Y-108075000D01*
X159823244Y-108094685D01*
G37*
%TD.AperFunction*%
%TA.AperFunction,Conductor*%
G36*
X144342539Y-108420185D02*
G01*
X144388294Y-108472989D01*
X144399500Y-108524500D01*
X144399500Y-108678846D01*
X144430261Y-108833489D01*
X144430264Y-108833501D01*
X144490602Y-108979172D01*
X144490609Y-108979185D01*
X144578602Y-109110874D01*
X144599480Y-109177551D01*
X144599500Y-109179765D01*
X144599500Y-109553260D01*
X144579815Y-109620299D01*
X144527011Y-109666054D01*
X144462245Y-109676550D01*
X144447828Y-109675000D01*
X144300000Y-109675000D01*
X144300000Y-110401000D01*
X144280315Y-110468039D01*
X144227511Y-110513794D01*
X144176000Y-110525000D01*
X144050000Y-110525000D01*
X144050000Y-110650500D01*
X144030315Y-110717539D01*
X143977511Y-110763294D01*
X143926000Y-110774500D01*
X143652130Y-110774500D01*
X143648805Y-110774679D01*
X143648799Y-110774573D01*
X143640837Y-110775000D01*
X143200000Y-110775000D01*
X143189815Y-110785184D01*
X143180315Y-110817539D01*
X143127511Y-110863294D01*
X143076000Y-110874500D01*
X142542350Y-110874500D01*
X142475311Y-110854815D01*
X142473459Y-110853602D01*
X142379184Y-110790609D01*
X142379172Y-110790602D01*
X142233501Y-110730264D01*
X142233489Y-110730261D01*
X142078845Y-110699500D01*
X142078842Y-110699500D01*
X141921158Y-110699500D01*
X141921155Y-110699500D01*
X141766510Y-110730261D01*
X141766498Y-110730264D01*
X141620827Y-110790602D01*
X141620814Y-110790609D01*
X141489711Y-110878210D01*
X141489707Y-110878213D01*
X141378213Y-110989707D01*
X141378210Y-110989711D01*
X141290609Y-111120814D01*
X141290602Y-111120827D01*
X141230264Y-111266498D01*
X141230261Y-111266510D01*
X141199500Y-111421153D01*
X141199500Y-111578846D01*
X141230261Y-111733489D01*
X141230264Y-111733501D01*
X141279574Y-111852548D01*
X141287043Y-111922018D01*
X141279574Y-111947452D01*
X141230264Y-112066498D01*
X141230261Y-112066510D01*
X141199500Y-112221153D01*
X141199500Y-112378846D01*
X141230261Y-112533489D01*
X141230264Y-112533501D01*
X141279574Y-112652548D01*
X141287043Y-112722018D01*
X141279574Y-112747452D01*
X141230264Y-112866498D01*
X141230261Y-112866510D01*
X141199500Y-113021153D01*
X141199500Y-113178846D01*
X141230261Y-113333489D01*
X141230264Y-113333501D01*
X141279575Y-113452549D01*
X141287044Y-113522018D01*
X141279575Y-113547453D01*
X141230264Y-113666501D01*
X141230261Y-113666513D01*
X141199500Y-113821156D01*
X141199500Y-113978849D01*
X141230261Y-114133492D01*
X141230264Y-114133504D01*
X141279575Y-114252552D01*
X141287044Y-114322021D01*
X141279575Y-114347456D01*
X141230264Y-114466504D01*
X141230261Y-114466516D01*
X141199500Y-114621159D01*
X141199500Y-114778852D01*
X141230261Y-114933495D01*
X141230264Y-114933507D01*
X141290602Y-115079178D01*
X141290609Y-115079191D01*
X141378210Y-115210294D01*
X141378213Y-115210298D01*
X141489707Y-115321792D01*
X141489711Y-115321795D01*
X141620814Y-115409396D01*
X141620827Y-115409403D01*
X141766498Y-115469741D01*
X141766503Y-115469743D01*
X141921153Y-115500505D01*
X141921156Y-115500506D01*
X141921158Y-115500506D01*
X142078844Y-115500506D01*
X142078845Y-115500505D01*
X142233497Y-115469743D01*
X142379179Y-115409400D01*
X142510289Y-115321795D01*
X142510292Y-115321792D01*
X142520266Y-115311819D01*
X142581589Y-115278334D01*
X142607947Y-115275500D01*
X143075500Y-115275500D01*
X143142539Y-115295185D01*
X143188294Y-115347989D01*
X143199500Y-115399500D01*
X143199500Y-115722869D01*
X143199501Y-115722876D01*
X143205908Y-115782482D01*
X143224253Y-115831666D01*
X143229237Y-115901358D01*
X143224253Y-115918331D01*
X143205910Y-115967511D01*
X143205910Y-115967514D01*
X143205909Y-115967517D01*
X143199500Y-116027127D01*
X143199500Y-116027134D01*
X143199500Y-116027135D01*
X143199500Y-116522870D01*
X143199501Y-116522876D01*
X143205908Y-116582482D01*
X143219004Y-116617593D01*
X143224252Y-116631665D01*
X143224253Y-116631666D01*
X143226138Y-116658025D01*
X143231755Y-116683846D01*
X143228917Y-116696890D01*
X143229237Y-116701358D01*
X143224253Y-116718333D01*
X143204117Y-116772319D01*
X143162245Y-116828252D01*
X143096781Y-116852669D01*
X143028508Y-116837817D01*
X142979103Y-116788411D01*
X142972243Y-116772057D01*
X142972068Y-116772130D01*
X142909397Y-116620827D01*
X142909390Y-116620814D01*
X142821789Y-116489711D01*
X142821786Y-116489707D01*
X142710292Y-116378213D01*
X142710288Y-116378210D01*
X142579185Y-116290609D01*
X142579172Y-116290602D01*
X142433501Y-116230264D01*
X142433489Y-116230261D01*
X142278845Y-116199500D01*
X142278842Y-116199500D01*
X142121158Y-116199500D01*
X142121155Y-116199500D01*
X141966510Y-116230261D01*
X141966498Y-116230264D01*
X141820827Y-116290602D01*
X141820814Y-116290609D01*
X141689125Y-116378602D01*
X141671078Y-116384252D01*
X141655169Y-116394477D01*
X141624207Y-116398928D01*
X141622447Y-116399480D01*
X141620234Y-116399500D01*
X141514141Y-116399500D01*
X141447102Y-116379815D01*
X141401347Y-116327011D01*
X141397969Y-116318859D01*
X141393796Y-116307669D01*
X141393793Y-116307665D01*
X141393793Y-116307664D01*
X141307547Y-116192455D01*
X141307544Y-116192452D01*
X141192335Y-116106206D01*
X141192328Y-116106202D01*
X141057482Y-116055908D01*
X141057483Y-116055908D01*
X140997883Y-116049501D01*
X140997881Y-116049500D01*
X140997873Y-116049500D01*
X140997864Y-116049500D01*
X139202129Y-116049500D01*
X139202120Y-116049501D01*
X139137252Y-116056474D01*
X139068493Y-116044067D01*
X139017357Y-115996455D01*
X139000000Y-115933184D01*
X139000000Y-112100597D01*
X139019685Y-112033558D01*
X139036319Y-112012916D01*
X140922080Y-110127155D01*
X143200000Y-110127155D01*
X143200000Y-110275000D01*
X143800000Y-110275000D01*
X143800000Y-109675000D01*
X143652155Y-109675000D01*
X143592627Y-109681401D01*
X143592620Y-109681403D01*
X143457913Y-109731645D01*
X143457906Y-109731649D01*
X143342812Y-109817809D01*
X143342809Y-109817812D01*
X143256649Y-109932906D01*
X143256645Y-109932913D01*
X143206403Y-110067620D01*
X143206401Y-110067627D01*
X143200000Y-110127155D01*
X140922080Y-110127155D01*
X142612416Y-108436819D01*
X142673739Y-108403334D01*
X142700097Y-108400500D01*
X144275500Y-108400500D01*
X144342539Y-108420185D01*
G37*
%TD.AperFunction*%
%TD*%
%TA.AperFunction,Conductor*%
%TO.N,GND*%
G36*
X138579227Y-74519685D02*
G01*
X138624982Y-74572489D01*
X138634926Y-74641647D01*
X138605901Y-74705203D01*
X138577285Y-74729538D01*
X138531659Y-74757680D01*
X138531655Y-74757683D01*
X138407684Y-74881654D01*
X138315643Y-75030875D01*
X138315641Y-75030880D01*
X138260494Y-75197302D01*
X138260493Y-75197309D01*
X138250000Y-75300013D01*
X138250000Y-75750000D01*
X139876000Y-75750000D01*
X139943039Y-75769685D01*
X139988794Y-75822489D01*
X140000000Y-75874000D01*
X140000000Y-76000000D01*
X140126000Y-76000000D01*
X140193039Y-76019685D01*
X140238794Y-76072489D01*
X140250000Y-76124000D01*
X140250000Y-77399999D01*
X141049972Y-77399999D01*
X141049986Y-77399998D01*
X141152697Y-77389505D01*
X141319122Y-77334357D01*
X141323597Y-77332271D01*
X141392675Y-77321780D01*
X141456458Y-77350301D01*
X141494697Y-77408779D01*
X141500000Y-77444654D01*
X141500000Y-79555345D01*
X141480315Y-79622384D01*
X141427511Y-79668139D01*
X141358353Y-79678083D01*
X141323606Y-79667732D01*
X141319128Y-79665644D01*
X141152697Y-79610494D01*
X141152690Y-79610493D01*
X141049986Y-79600000D01*
X140250000Y-79600000D01*
X140250000Y-80876000D01*
X140230315Y-80943039D01*
X140177511Y-80988794D01*
X140126000Y-81000000D01*
X140000000Y-81000000D01*
X140000000Y-81126000D01*
X139980315Y-81193039D01*
X139927511Y-81238794D01*
X139876000Y-81250000D01*
X138250001Y-81250000D01*
X138250001Y-81699986D01*
X138260494Y-81802697D01*
X138315641Y-81969119D01*
X138315643Y-81969124D01*
X138407684Y-82118345D01*
X138531655Y-82242316D01*
X138531659Y-82242319D01*
X138577285Y-82270462D01*
X138624010Y-82322410D01*
X138635231Y-82391372D01*
X138607388Y-82455454D01*
X138549319Y-82494310D01*
X138512188Y-82500000D01*
X137624000Y-82500000D01*
X137615314Y-82497449D01*
X137606353Y-82498738D01*
X137582312Y-82487759D01*
X137556961Y-82480315D01*
X137551033Y-82473474D01*
X137542797Y-82469713D01*
X137528507Y-82447478D01*
X137511206Y-82427511D01*
X137508918Y-82416996D01*
X137505023Y-82410935D01*
X137500000Y-82376000D01*
X137500000Y-82262730D01*
X137519685Y-82195691D01*
X137536319Y-82175049D01*
X137592712Y-82118656D01*
X137684814Y-81969334D01*
X137739999Y-81802797D01*
X137750500Y-81700009D01*
X137750499Y-80300013D01*
X138250000Y-80300013D01*
X138250000Y-80750000D01*
X139750000Y-80750000D01*
X139750000Y-79600000D01*
X138950028Y-79600000D01*
X138950012Y-79600001D01*
X138847302Y-79610494D01*
X138680880Y-79665641D01*
X138680875Y-79665643D01*
X138531654Y-79757684D01*
X138407684Y-79881654D01*
X138315643Y-80030875D01*
X138315641Y-80030880D01*
X138260494Y-80197302D01*
X138260493Y-80197309D01*
X138250000Y-80300013D01*
X137750499Y-80300013D01*
X137750499Y-80299992D01*
X137739999Y-80197203D01*
X137684814Y-80030666D01*
X137592712Y-79881344D01*
X137536319Y-79824951D01*
X137502834Y-79763628D01*
X137500000Y-79737270D01*
X137500000Y-77262730D01*
X137519685Y-77195691D01*
X137536319Y-77175049D01*
X137592712Y-77118656D01*
X137684814Y-76969334D01*
X137739999Y-76802797D01*
X137750500Y-76700009D01*
X137750500Y-76699986D01*
X138250001Y-76699986D01*
X138260494Y-76802697D01*
X138315641Y-76969119D01*
X138315643Y-76969124D01*
X138407684Y-77118345D01*
X138531654Y-77242315D01*
X138680875Y-77334356D01*
X138680880Y-77334358D01*
X138847302Y-77389505D01*
X138847309Y-77389506D01*
X138950019Y-77399999D01*
X139749999Y-77399999D01*
X139750000Y-77399998D01*
X139750000Y-76250000D01*
X138250001Y-76250000D01*
X138250001Y-76699986D01*
X137750500Y-76699986D01*
X137750499Y-76000000D01*
X137750499Y-75299998D01*
X137750498Y-75299981D01*
X137739999Y-75197203D01*
X137739998Y-75197200D01*
X137700849Y-75079057D01*
X137684814Y-75030666D01*
X137592712Y-74881344D01*
X137536319Y-74824951D01*
X137521615Y-74798023D01*
X137505023Y-74772205D01*
X137504131Y-74766004D01*
X137502834Y-74763628D01*
X137500000Y-74737270D01*
X137500000Y-74624000D01*
X137519685Y-74556961D01*
X137572489Y-74511206D01*
X137624000Y-74500000D01*
X138512188Y-74500000D01*
X138579227Y-74519685D01*
G37*
%TD.AperFunction*%
%TD*%
%TA.AperFunction,Conductor*%
%TO.N,GND*%
G36*
X163393101Y-51005022D02*
G01*
X163405431Y-51008642D01*
X163464210Y-51046414D01*
X163493237Y-51109969D01*
X163494500Y-51127620D01*
X163494500Y-71874118D01*
X163494484Y-71874172D01*
X163494500Y-71874227D01*
X163484624Y-71907748D01*
X163474815Y-71941157D01*
X163474766Y-71941212D01*
X163474756Y-71941249D01*
X163451620Y-71967902D01*
X163451346Y-71968139D01*
X163396597Y-71995518D01*
X163389039Y-71997163D01*
X163362668Y-72000000D01*
X157141830Y-72000000D01*
X157106889Y-71994975D01*
X157091890Y-71990570D01*
X157076902Y-71980940D01*
X157059824Y-71975932D01*
X157033144Y-71952827D01*
X157031957Y-71951458D01*
X157004477Y-71896583D01*
X157002832Y-71889021D01*
X157000000Y-71862668D01*
X157000000Y-68047852D01*
X157950000Y-68047852D01*
X157956400Y-68107370D01*
X157956402Y-68107377D01*
X158006646Y-68242088D01*
X158006648Y-68242091D01*
X158092807Y-68357185D01*
X158092809Y-68357187D01*
X158092812Y-68357190D01*
X158207906Y-68443350D01*
X158207913Y-68443354D01*
X158342620Y-68493596D01*
X158342627Y-68493598D01*
X158349468Y-68494333D01*
X158402138Y-68499998D01*
X158402155Y-68499999D01*
X158402172Y-68500000D01*
X160200000Y-68500000D01*
X160700000Y-68500000D01*
X162497828Y-68500000D01*
X162497836Y-68500000D01*
X162497847Y-68499999D01*
X162533560Y-68496158D01*
X162557372Y-68493598D01*
X162557379Y-68493596D01*
X162692086Y-68443354D01*
X162692093Y-68443350D01*
X162807187Y-68357190D01*
X162807190Y-68357187D01*
X162893350Y-68242093D01*
X162893354Y-68242086D01*
X162943596Y-68107379D01*
X162943598Y-68107372D01*
X162945069Y-68093689D01*
X162949998Y-68047860D01*
X162950000Y-68047827D01*
X162950000Y-67250000D01*
X160700000Y-67250000D01*
X160700000Y-68500000D01*
X160200000Y-68500000D01*
X160200000Y-67250000D01*
X157950000Y-67250000D01*
X157950000Y-68047852D01*
X157000000Y-68047852D01*
X157000000Y-65952146D01*
X157950000Y-65952146D01*
X157950000Y-65952155D01*
X157950000Y-66750000D01*
X160200000Y-66750000D01*
X160700000Y-66750000D01*
X162950000Y-66750000D01*
X162950000Y-65952172D01*
X162949999Y-65952155D01*
X162949998Y-65952146D01*
X162949998Y-65952138D01*
X162943598Y-65892628D01*
X162943596Y-65892621D01*
X162943596Y-65892620D01*
X162893354Y-65757913D01*
X162893350Y-65757906D01*
X162807190Y-65642812D01*
X162807187Y-65642809D01*
X162807185Y-65642807D01*
X162749317Y-65599487D01*
X162692093Y-65556649D01*
X162692088Y-65556646D01*
X162692089Y-65556646D01*
X162557377Y-65506402D01*
X162557370Y-65506400D01*
X162497852Y-65500000D01*
X162497844Y-65500000D01*
X160700000Y-65500000D01*
X160700000Y-66750000D01*
X160200000Y-66750000D01*
X160200000Y-65500000D01*
X158402146Y-65500000D01*
X158342628Y-65506400D01*
X158342621Y-65506402D01*
X158207910Y-65556646D01*
X158207907Y-65556648D01*
X158092813Y-65642807D01*
X158092807Y-65642813D01*
X158006648Y-65757907D01*
X158006646Y-65757910D01*
X157956402Y-65892621D01*
X157956400Y-65892628D01*
X157950000Y-65952146D01*
X157000000Y-65952146D01*
X157000000Y-57047852D01*
X157950000Y-57047852D01*
X157956400Y-57107370D01*
X157956402Y-57107377D01*
X158006646Y-57242088D01*
X158006648Y-57242091D01*
X158092807Y-57357185D01*
X158092809Y-57357187D01*
X158092812Y-57357190D01*
X158207906Y-57443350D01*
X158207913Y-57443354D01*
X158342620Y-57493596D01*
X158342627Y-57493598D01*
X158349468Y-57494333D01*
X158402138Y-57499998D01*
X158402155Y-57499999D01*
X158402172Y-57500000D01*
X160200000Y-57500000D01*
X160700000Y-57500000D01*
X162497828Y-57500000D01*
X162497836Y-57500000D01*
X162497847Y-57499999D01*
X162533560Y-57496158D01*
X162557372Y-57493598D01*
X162557379Y-57493596D01*
X162692086Y-57443354D01*
X162692093Y-57443350D01*
X162807187Y-57357190D01*
X162807190Y-57357187D01*
X162893350Y-57242093D01*
X162893354Y-57242086D01*
X162943596Y-57107379D01*
X162943598Y-57107372D01*
X162945069Y-57093689D01*
X162949998Y-57047860D01*
X162950000Y-57047827D01*
X162950000Y-56250000D01*
X160700000Y-56250000D01*
X160700000Y-57500000D01*
X160200000Y-57500000D01*
X160200000Y-56250000D01*
X157950000Y-56250000D01*
X157950000Y-57047852D01*
X157000000Y-57047852D01*
X157000000Y-54952146D01*
X157950000Y-54952146D01*
X157950000Y-54952155D01*
X157950000Y-55750000D01*
X160200000Y-55750000D01*
X160700000Y-55750000D01*
X162950000Y-55750000D01*
X162950000Y-54952172D01*
X162949999Y-54952155D01*
X162949998Y-54952146D01*
X162949998Y-54952138D01*
X162943598Y-54892628D01*
X162943596Y-54892621D01*
X162943596Y-54892620D01*
X162893354Y-54757913D01*
X162893350Y-54757906D01*
X162807190Y-54642812D01*
X162807187Y-54642809D01*
X162807185Y-54642807D01*
X162749317Y-54599487D01*
X162692093Y-54556649D01*
X162692088Y-54556646D01*
X162692089Y-54556646D01*
X162557377Y-54506402D01*
X162557370Y-54506400D01*
X162497852Y-54500000D01*
X162497844Y-54500000D01*
X160700000Y-54500000D01*
X160700000Y-55750000D01*
X160200000Y-55750000D01*
X160200000Y-54500000D01*
X158402146Y-54500000D01*
X158342628Y-54506400D01*
X158342621Y-54506402D01*
X158207910Y-54556646D01*
X158207907Y-54556648D01*
X158092813Y-54642807D01*
X158092807Y-54642813D01*
X158006648Y-54757907D01*
X158006646Y-54757910D01*
X157956402Y-54892621D01*
X157956400Y-54892628D01*
X157950000Y-54952146D01*
X157000000Y-54952146D01*
X157000000Y-51141829D01*
X157005023Y-51106893D01*
X157009427Y-51091895D01*
X157047172Y-51033144D01*
X157047200Y-51033119D01*
X157047199Y-51033119D01*
X157048541Y-51031956D01*
X157103420Y-51004477D01*
X157110979Y-51002833D01*
X157137332Y-51000000D01*
X163358170Y-51000000D01*
X163393101Y-51005022D01*
G37*
%TD.AperFunction*%
%TD*%
%TA.AperFunction,Conductor*%
%TO.N,GND*%
G36*
X162443039Y-94519685D02*
G01*
X162488794Y-94572489D01*
X162500000Y-94624000D01*
X162500000Y-94737270D01*
X162480315Y-94804309D01*
X162463681Y-94824951D01*
X162407289Y-94881342D01*
X162315187Y-95030663D01*
X162315185Y-95030668D01*
X162315115Y-95030880D01*
X162260001Y-95197203D01*
X162260001Y-95197204D01*
X162260000Y-95197204D01*
X162249500Y-95299983D01*
X162249500Y-96700001D01*
X162249501Y-96700018D01*
X162260000Y-96802796D01*
X162260001Y-96802799D01*
X162315115Y-96969119D01*
X162315186Y-96969334D01*
X162407096Y-97118345D01*
X162407289Y-97118657D01*
X162463681Y-97175049D01*
X162497166Y-97236372D01*
X162500000Y-97262730D01*
X162500000Y-99737270D01*
X162480315Y-99804309D01*
X162463681Y-99824951D01*
X162407289Y-99881342D01*
X162315187Y-100030663D01*
X162315185Y-100030668D01*
X162315115Y-100030880D01*
X162260001Y-100197203D01*
X162260001Y-100197204D01*
X162260000Y-100197204D01*
X162249500Y-100299983D01*
X162249500Y-101700001D01*
X162249501Y-101700018D01*
X162260000Y-101802796D01*
X162260001Y-101802799D01*
X162315115Y-101969119D01*
X162315186Y-101969334D01*
X162407096Y-102118345D01*
X162407289Y-102118657D01*
X162463681Y-102175049D01*
X162478384Y-102201976D01*
X162494977Y-102227795D01*
X162495868Y-102233995D01*
X162497166Y-102236372D01*
X162500000Y-102262730D01*
X162500000Y-102376000D01*
X162480315Y-102443039D01*
X162427511Y-102488794D01*
X162376000Y-102500000D01*
X161487812Y-102500000D01*
X161420773Y-102480315D01*
X161375018Y-102427511D01*
X161365074Y-102358353D01*
X161394099Y-102294797D01*
X161422715Y-102270462D01*
X161468340Y-102242319D01*
X161468344Y-102242316D01*
X161592315Y-102118345D01*
X161684356Y-101969124D01*
X161684358Y-101969119D01*
X161739505Y-101802697D01*
X161739506Y-101802690D01*
X161749999Y-101699986D01*
X161750000Y-101699973D01*
X161750000Y-101250000D01*
X160124000Y-101250000D01*
X160056961Y-101230315D01*
X160011206Y-101177511D01*
X160000000Y-101126000D01*
X160000000Y-101000000D01*
X159874000Y-101000000D01*
X159806961Y-100980315D01*
X159761206Y-100927511D01*
X159750000Y-100876000D01*
X159750000Y-100750000D01*
X160250000Y-100750000D01*
X161749999Y-100750000D01*
X161749999Y-100300028D01*
X161749998Y-100300013D01*
X161739505Y-100197302D01*
X161684358Y-100030880D01*
X161684356Y-100030875D01*
X161592315Y-99881654D01*
X161468345Y-99757684D01*
X161319124Y-99665643D01*
X161319119Y-99665641D01*
X161152697Y-99610494D01*
X161152690Y-99610493D01*
X161049986Y-99600000D01*
X160250000Y-99600000D01*
X160250000Y-100750000D01*
X159750000Y-100750000D01*
X159750000Y-99600000D01*
X158950028Y-99600000D01*
X158950012Y-99600001D01*
X158847302Y-99610494D01*
X158680871Y-99665644D01*
X158676394Y-99667732D01*
X158607316Y-99678217D01*
X158543535Y-99649692D01*
X158505300Y-99591212D01*
X158500000Y-99555345D01*
X158500000Y-97444654D01*
X158519685Y-97377615D01*
X158572489Y-97331860D01*
X158641647Y-97321916D01*
X158676403Y-97332271D01*
X158680877Y-97334357D01*
X158847302Y-97389505D01*
X158847309Y-97389506D01*
X158950019Y-97399999D01*
X159749999Y-97399999D01*
X160250000Y-97399999D01*
X161049972Y-97399999D01*
X161049986Y-97399998D01*
X161152697Y-97389505D01*
X161319119Y-97334358D01*
X161319124Y-97334356D01*
X161468345Y-97242315D01*
X161592315Y-97118345D01*
X161684356Y-96969124D01*
X161684358Y-96969119D01*
X161739505Y-96802697D01*
X161739506Y-96802690D01*
X161749999Y-96699986D01*
X161750000Y-96699973D01*
X161750000Y-96250000D01*
X160250000Y-96250000D01*
X160250000Y-97399999D01*
X159749999Y-97399999D01*
X159750000Y-97399998D01*
X159750000Y-96124000D01*
X159769685Y-96056961D01*
X159822489Y-96011206D01*
X159874000Y-96000000D01*
X160000000Y-96000000D01*
X160000000Y-95874000D01*
X160019685Y-95806961D01*
X160072489Y-95761206D01*
X160124000Y-95750000D01*
X161749999Y-95750000D01*
X161749999Y-95300028D01*
X161749998Y-95300013D01*
X161739505Y-95197302D01*
X161684358Y-95030880D01*
X161684356Y-95030875D01*
X161592315Y-94881654D01*
X161468344Y-94757683D01*
X161468340Y-94757680D01*
X161422715Y-94729538D01*
X161375990Y-94677590D01*
X161364769Y-94608628D01*
X161392612Y-94544546D01*
X161450681Y-94505690D01*
X161487812Y-94500000D01*
X162376000Y-94500000D01*
X162443039Y-94519685D01*
G37*
%TD.AperFunction*%
%TD*%
M02*
