M48
; DRILL file {KiCad 9.0.6} date 2025-12-29T22:14:33+0100
; FORMAT={-:-/ absolute / metric / decimal}
; #@! TF.CreationDate,2025-12-29T22:14:33+01:00
; #@! TF.GenerationSoftware,Kicad,Pcbnew,9.0.6
; #@! TF.FileFunction,Plated,1,4,PTH
FMAT,2
METRIC
; #@! TA.AperFunction,Plated,PTH,ViaDrill
T1C0.300
; #@! TA.AperFunction,Plated,PTH,ComponentDrill
T2C0.950
; #@! TA.AperFunction,Plated,PTH,ComponentDrill
T3C1.020
; #@! TA.AperFunction,Plated,PTH,ComponentDrill
T4C1.130
; #@! TA.AperFunction,Plated,PTH,ComponentDrill
T5C2.700
%
G90
G05
T1
X54.6Y-45.0
X54.6Y-45.75
X55.0Y-41.6
X55.0Y-42.8
X55.0Y-44.0
X55.4Y-45.0
X55.4Y-45.75
X56.8Y-28.05
X58.7Y-45.0
X58.7Y-45.75
X59.1Y-41.6
X59.1Y-42.8
X59.1Y-44.0
X59.5Y-45.0
X59.5Y-45.75
X60.7Y-48.0
X68.063Y-43.787
X72.5Y-43.75
X80.05Y-48.0
X84.65Y-45.05
X84.65Y-45.8
X85.05Y-41.65
X85.05Y-42.85
X85.05Y-44.05
X85.45Y-45.05
X85.45Y-45.8
X87.55Y-66.35
X88.328Y-64.536
X88.75Y-45.05
X88.75Y-45.8
X88.78Y-63.874
X89.15Y-41.65
X89.15Y-42.85
X89.15Y-44.05
X89.234Y-63.216
X89.55Y-45.05
X89.55Y-45.8
X89.55Y-55.35
X89.69Y-48.05
X89.8Y-62.65
X90.338Y-54.215
X90.85Y-53.6
X93.473Y-62.392
X93.7Y-56.8
X93.8Y-73.55
X93.939Y-63.042
X94.582Y-63.518
X94.75Y-64.3
X97.65Y-50.45
X98.15Y-53.6
X98.35Y-66.35
X98.85Y-52.6
X98.868Y-54.2
X100.44Y-47.88
X103.65Y-44.85
X103.65Y-45.6
X104.05Y-41.45
X104.05Y-42.65
X104.05Y-43.85
X104.45Y-44.85
X104.45Y-45.6
X107.75Y-44.85
X107.75Y-45.6
X108.15Y-41.45
X108.15Y-42.65
X108.15Y-43.85
X108.55Y-44.85
X108.55Y-45.6
X110.05Y-47.8
X117.6Y-43.785
X122.143Y-43.793
X128.85Y-47.8
X130.55Y-41.0
X130.55Y-41.75
X130.95Y-37.6
X130.95Y-38.8
X130.95Y-40.0
X131.35Y-41.0
X131.35Y-41.75
X133.3Y-28.05
X134.65Y-41.0
X134.65Y-41.75
X135.05Y-37.6
X135.05Y-38.8
X135.05Y-40.0
X135.45Y-41.0
X135.45Y-41.75
T2
X53.5Y-68.0
X56.0Y-68.0
X58.5Y-68.0
X61.0Y-68.0
X71.5Y-68.0
X74.0Y-68.0
X76.5Y-68.0
X79.0Y-68.0
X104.5Y-68.0
X107.0Y-68.0
X109.5Y-68.0
X112.0Y-68.0
X122.5Y-68.0
X125.0Y-68.0
X127.5Y-68.0
X130.0Y-68.0
T3
X71.01Y-79.59
X71.01Y-102.45
X73.55Y-79.59
X73.55Y-102.45
X76.09Y-79.59
X76.09Y-102.45
X78.63Y-79.59
X78.63Y-102.45
X81.17Y-79.59
X81.17Y-102.45
X83.71Y-79.59
X83.71Y-102.45
X86.25Y-79.59
X86.25Y-102.45
X88.79Y-79.59
X88.79Y-102.45
X91.33Y-79.59
X91.33Y-102.45
X93.87Y-79.59
X93.87Y-102.45
X96.41Y-79.59
X96.41Y-102.45
X98.95Y-79.59
X98.95Y-102.45
X101.49Y-79.59
X101.49Y-102.45
X104.03Y-79.59
X104.03Y-102.45
X106.57Y-79.59
X106.57Y-102.45
X109.11Y-79.59
X109.11Y-102.45
X111.65Y-79.59
X111.65Y-102.45
X114.19Y-79.59
X114.19Y-102.45
X116.73Y-79.59
X116.73Y-102.45
X119.27Y-79.59
X119.27Y-102.45
X121.81Y-79.59
X121.81Y-102.45
X124.35Y-79.59
X124.35Y-102.45
T4
X61.2Y-38.0
X62.47Y-32.47
X63.74Y-38.0
X65.01Y-32.47
X66.28Y-38.0
X67.55Y-32.47
X68.82Y-38.0
X70.09Y-32.47
X71.36Y-38.0
X72.63Y-32.47
X73.9Y-38.0
X75.17Y-32.47
X76.44Y-38.0
X77.71Y-32.47
X78.98Y-38.0
X111.0Y-38.0
X112.27Y-32.47
X113.54Y-38.0
X114.81Y-32.47
X116.08Y-38.0
X117.35Y-32.47
X118.62Y-38.0
X119.89Y-32.47
X121.16Y-38.0
X122.43Y-32.47
X123.7Y-38.0
X124.97Y-32.47
X126.24Y-38.0
X127.51Y-32.47
X128.78Y-38.0
T5
X55.0Y-58.0
X60.0Y-58.0
X73.0Y-58.0
X78.0Y-58.0
X94.5Y-32.5
X94.5Y-37.5
X106.0Y-58.0
X111.0Y-58.0
X124.0Y-58.0
X129.0Y-58.0
M30
