%TF.GenerationSoftware,KiCad,Pcbnew,10.0.1*%
%TF.CreationDate,2026-05-02T17:41:09+02:00*%
%TF.ProjectId,Odyssey_Driver,4f647973-7365-4795-9f44-72697665722e,rev?*%
%TF.SameCoordinates,Original*%
%TF.FileFunction,Copper,L4,Bot*%
%TF.FilePolarity,Positive*%
%FSLAX46Y46*%
G04 Gerber Fmt 4.6, Leading zero omitted, Abs format (unit mm)*
G04 Created by KiCad (PCBNEW 10.0.1) date 2026-05-02 17:41:09*
%MOMM*%
%LPD*%
G01*
G04 APERTURE LIST*
G04 Aperture macros list*
%AMRoundRect*
0 Rectangle with rounded corners*
0 $1 Rounding radius*
0 $2 $3 $4 $5 $6 $7 $8 $9 X,Y pos of 4 corners*
0 Add a 4 corners polygon primitive as box body*
4,1,4,$2,$3,$4,$5,$6,$7,$8,$9,$2,$3,0*
0 Add four circle primitives for the rounded corners*
1,1,$1+$1,$2,$3*
1,1,$1+$1,$4,$5*
1,1,$1+$1,$6,$7*
1,1,$1+$1,$8,$9*
0 Add four rect primitives between the rounded corners*
20,1,$1+$1,$2,$3,$4,$5,0*
20,1,$1+$1,$4,$5,$6,$7,0*
20,1,$1+$1,$6,$7,$8,$9,0*
20,1,$1+$1,$8,$9,$2,$3,0*%
G04 Aperture macros list end*
%TA.AperFunction,ComponentPad*%
%ADD10O,1.000000X2.100000*%
%TD*%
%TA.AperFunction,ComponentPad*%
%ADD11O,1.000000X1.800000*%
%TD*%
%TA.AperFunction,ComponentPad*%
%ADD12R,1.695000X1.695000*%
%TD*%
%TA.AperFunction,ComponentPad*%
%ADD13C,1.695000*%
%TD*%
%TA.AperFunction,ComponentPad*%
%ADD14C,1.400000*%
%TD*%
%TA.AperFunction,ComponentPad*%
%ADD15RoundRect,0.770000X-0.980000X-0.980000X0.980000X-0.980000X0.980000X0.980000X-0.980000X0.980000X0*%
%TD*%
%TA.AperFunction,ComponentPad*%
%ADD16C,3.500000*%
%TD*%
%TA.AperFunction,ComponentPad*%
%ADD17RoundRect,0.770000X-0.980000X0.980000X-0.980000X-0.980000X0.980000X-0.980000X0.980000X0.980000X0*%
%TD*%
%TA.AperFunction,ComponentPad*%
%ADD18RoundRect,0.770000X0.980000X-0.980000X0.980000X0.980000X-0.980000X0.980000X-0.980000X-0.980000X0*%
%TD*%
%TA.AperFunction,ViaPad*%
%ADD19C,0.600000*%
%TD*%
%TA.AperFunction,Conductor*%
%ADD20C,0.508000*%
%TD*%
%TA.AperFunction,Conductor*%
%ADD21C,0.500000*%
%TD*%
%TA.AperFunction,Conductor*%
%ADD22C,0.254000*%
%TD*%
%TA.AperFunction,Conductor*%
%ADD23C,0.200000*%
%TD*%
G04 APERTURE END LIST*
D10*
%TO.P,J10,SH*%
%TO.N,N/C*%
X182480000Y-116675000D03*
X182480000Y-120875000D03*
X191120000Y-116675000D03*
D11*
X191120000Y-120875000D03*
%TD*%
D12*
%TO.P,IC1,1,CURRENT_SENSING_A_1*%
%TO.N,/ADC/ADC0*%
X109110000Y-61530000D03*
D13*
%TO.P,IC1,2,OUTPUT_1_2*%
%TO.N,/MotorControl/O1*%
X110380000Y-56000000D03*
%TO.P,IC1,3,OUTPUT_2_3*%
%TO.N,/MotorControl/O2*%
X111650000Y-61530000D03*
%TO.P,IC1,4,SUPPLY_VOLTAGE_VS_4*%
%TO.N,/MotorControl/VS*%
X112920000Y-56000000D03*
%TO.P,IC1,5,INPUT_1_5*%
%TO.N,/I1*%
X114190000Y-61530000D03*
%TO.P,IC1,6,ENABLE_A_6*%
%TO.N,/EN1*%
X115460000Y-56000000D03*
%TO.P,IC1,7,INPUT_2_7*%
%TO.N,/I2*%
X116730000Y-61530000D03*
%TO.P,IC1,8,GND_8*%
%TO.N,GND*%
X118000000Y-56000000D03*
%TO.P,IC1,9,LOGIC_SUPPLY_VOLTAGE_VSS_9*%
%TO.N,VSS*%
X119270000Y-61530000D03*
%TO.P,IC1,10,INPUT_3_10*%
%TO.N,/I3*%
X120540000Y-56000000D03*
%TO.P,IC1,11,ENABLE_B_11*%
%TO.N,/EN2*%
X121810000Y-61530000D03*
%TO.P,IC1,12,INPUT_4_12*%
%TO.N,/I4*%
X123080000Y-56000000D03*
%TO.P,IC1,13,OUTPUT_3_13*%
%TO.N,/MotorControl/O3*%
X124350000Y-61530000D03*
%TO.P,IC1,14,OUTPUT_4_14*%
%TO.N,/MotorControl/O4*%
X125620000Y-56000000D03*
%TO.P,IC1,15,CURRENT_SENSING_B_15*%
%TO.N,/ADC/ADC1*%
X126890000Y-61530000D03*
%TD*%
D14*
%TO.P,J1,*%
%TO.N,*%
X144500000Y-54000000D03*
X155500000Y-54000000D03*
D15*
%TO.P,J1,1,Pin_1_1*%
%TO.N,GND*%
X152500000Y-64000000D03*
D16*
%TO.P,J1,2,Pin_2_2*%
%TO.N,/MotorControl/VS*%
X147500000Y-64000000D03*
%TD*%
D12*
%TO.P,IC3,1,CURRENT_SENSING_A_1*%
%TO.N,/ADC/ADC2*%
X173110000Y-61682500D03*
D13*
%TO.P,IC3,2,OUTPUT_1_2*%
%TO.N,/MotorControlB/O1*%
X174380000Y-56152500D03*
%TO.P,IC3,3,OUTPUT_2_3*%
%TO.N,/MotorControlB/O2*%
X175650000Y-61682500D03*
%TO.P,IC3,4,SUPPLY_VOLTAGE_VS_4*%
%TO.N,/MotorControl/VS*%
X176920000Y-56152500D03*
%TO.P,IC3,5,INPUT_1_5*%
%TO.N,/I5*%
X178190000Y-61682500D03*
%TO.P,IC3,6,ENABLE_A_6*%
%TO.N,/EN3*%
X179460000Y-56152500D03*
%TO.P,IC3,7,INPUT_2_7*%
%TO.N,/I6*%
X180730000Y-61682500D03*
%TO.P,IC3,8,GND_8*%
%TO.N,GND*%
X182000000Y-56152500D03*
%TO.P,IC3,9,LOGIC_SUPPLY_VOLTAGE_VSS_9*%
%TO.N,VSS*%
X183270000Y-61682500D03*
%TO.P,IC3,10,INPUT_3_10*%
%TO.N,/I7*%
X184540000Y-56152500D03*
%TO.P,IC3,11,ENABLE_B_11*%
%TO.N,/EN4*%
X185810000Y-61682500D03*
%TO.P,IC3,12,INPUT_4_12*%
%TO.N,/I8*%
X187080000Y-56152500D03*
%TO.P,IC3,13,OUTPUT_3_13*%
%TO.N,/MotorControlB/O4*%
X188350000Y-61682500D03*
%TO.P,IC3,14,OUTPUT_4_14*%
%TO.N,/MotorControlB/O3*%
X189620000Y-56152500D03*
%TO.P,IC3,15,CURRENT_SENSING_B_15*%
%TO.N,/ADC/ADC3*%
X190890000Y-61682500D03*
%TD*%
D14*
%TO.P,J3,*%
%TO.N,*%
X115000000Y-93000000D03*
X115000000Y-104000000D03*
D17*
%TO.P,J3,1,Pin_1_1*%
%TO.N,/MotorControl/O2*%
X120000000Y-96000000D03*
D16*
%TO.P,J3,2,Pin_2_2*%
%TO.N,/MotorControl/O1*%
X120000000Y-101000000D03*
%TD*%
D14*
%TO.P,J8,*%
%TO.N,*%
X185000000Y-104000000D03*
X185000000Y-93000000D03*
D18*
%TO.P,J8,1,Pin_1_1*%
%TO.N,/MotorControlB/O3*%
X180000000Y-101000000D03*
D16*
%TO.P,J8,2,Pin_2_2*%
%TO.N,/MotorControlB/O4*%
X180000000Y-96000000D03*
%TD*%
D14*
%TO.P,J2,*%
%TO.N,*%
X115000000Y-73000000D03*
X115000000Y-84000000D03*
D17*
%TO.P,J2,1,Pin_1_1*%
%TO.N,/MotorControl/O4*%
X120000000Y-76000000D03*
D16*
%TO.P,J2,2,Pin_2_2*%
%TO.N,/MotorControl/O3*%
X120000000Y-81000000D03*
%TD*%
D14*
%TO.P,J9,*%
%TO.N,*%
X185000000Y-84000000D03*
X185000000Y-73000000D03*
D18*
%TO.P,J9,1,Pin_1_1*%
%TO.N,/MotorControlB/O2*%
X180000000Y-81000000D03*
D16*
%TO.P,J9,2,Pin_2_2*%
%TO.N,/MotorControlB/O1*%
X180000000Y-76000000D03*
%TD*%
D19*
%TO.N,GND*%
X144000000Y-109000000D03*
X143000000Y-110500000D03*
%TO.N,VSS*%
X115300000Y-122900000D03*
%TO.N,/MotorControl/VS*%
X130000000Y-96000000D03*
X133000000Y-64000000D03*
X130000000Y-100000000D03*
X168000000Y-65000000D03*
X168000000Y-71000000D03*
X131000000Y-71000000D03*
X168000000Y-52000000D03*
X165000000Y-64000000D03*
X170000000Y-80000000D03*
X169000000Y-64000000D03*
X130000000Y-53000000D03*
X170000000Y-60000000D03*
X170000000Y-71000000D03*
X135000000Y-63000000D03*
X133000000Y-59000000D03*
X169000000Y-63000000D03*
X165000000Y-59000000D03*
X130000000Y-95000000D03*
X166000000Y-53000000D03*
X170000000Y-75000000D03*
X166000000Y-63000000D03*
X132000000Y-65000000D03*
X165000000Y-52000000D03*
X130000000Y-63000000D03*
X132000000Y-71000000D03*
X168000000Y-63000000D03*
X168000000Y-58000000D03*
X167000000Y-63000000D03*
X130000000Y-65000000D03*
X166000000Y-71000000D03*
X131000000Y-52000000D03*
X165000000Y-63000000D03*
X165000000Y-58000000D03*
X135000000Y-52000000D03*
X134000000Y-60000000D03*
X167000000Y-58000000D03*
X165000000Y-70000000D03*
X134000000Y-58000000D03*
X131000000Y-69000000D03*
X133000000Y-69000000D03*
X165000000Y-71000000D03*
X167000000Y-65000000D03*
X169000000Y-53000000D03*
X170000000Y-65000000D03*
X133000000Y-65000000D03*
X165000000Y-54000000D03*
X167000000Y-64000000D03*
X132000000Y-69000000D03*
X135000000Y-59000000D03*
X168000000Y-59000000D03*
X134000000Y-65000000D03*
X169000000Y-65000000D03*
X130000000Y-102000000D03*
X166000000Y-60000000D03*
X132000000Y-64000000D03*
X167000000Y-59000000D03*
X135000000Y-58000000D03*
X134000000Y-63000000D03*
X133000000Y-70000000D03*
X133000000Y-54000000D03*
X134000000Y-59000000D03*
X170000000Y-59000000D03*
X170000000Y-95000000D03*
X130000000Y-70000000D03*
X133000000Y-71000000D03*
X130000000Y-64000000D03*
X167000000Y-54000000D03*
X130000000Y-54000000D03*
X168000000Y-69000000D03*
X131000000Y-64000000D03*
X170000000Y-100000000D03*
X167000000Y-53000000D03*
X170000000Y-53000000D03*
X130000000Y-97000000D03*
X166000000Y-54000000D03*
X166000000Y-65000000D03*
X135000000Y-64000000D03*
X135000000Y-54000000D03*
X170000000Y-52000000D03*
X168000000Y-70000000D03*
X133000000Y-53000000D03*
X170000000Y-101000000D03*
X134000000Y-54000000D03*
X131000000Y-54000000D03*
X169000000Y-59000000D03*
X130000000Y-75000000D03*
X165000000Y-53000000D03*
X169000000Y-60000000D03*
X168000000Y-64000000D03*
X167000000Y-69000000D03*
X134000000Y-64000000D03*
X130000000Y-81000000D03*
X132000000Y-60000000D03*
X167000000Y-52000000D03*
X170000000Y-81000000D03*
X135000000Y-65000000D03*
X132000000Y-70000000D03*
X131000000Y-63000000D03*
X166000000Y-69000000D03*
X130000000Y-58000000D03*
X131000000Y-70000000D03*
X169000000Y-52000000D03*
X132000000Y-63000000D03*
X135000000Y-69000000D03*
X132000000Y-52000000D03*
X170000000Y-63000000D03*
X133000000Y-63000000D03*
X168000000Y-53000000D03*
X169000000Y-69000000D03*
X133000000Y-52000000D03*
X165000000Y-69000000D03*
X166000000Y-70000000D03*
X166000000Y-64000000D03*
X135000000Y-53000000D03*
X169000000Y-70000000D03*
X168000000Y-54000000D03*
X132000000Y-54000000D03*
X166000000Y-52000000D03*
X130000000Y-76000000D03*
X131000000Y-60000000D03*
X170000000Y-102000000D03*
X170000000Y-64000000D03*
X134000000Y-71000000D03*
X134000000Y-70000000D03*
X170000000Y-97000000D03*
X170000000Y-58000000D03*
X134000000Y-53000000D03*
X170000000Y-96000000D03*
X170000000Y-76000000D03*
X170000000Y-70000000D03*
X134000000Y-69000000D03*
X170000000Y-54000000D03*
X166000000Y-58000000D03*
X135000000Y-70000000D03*
X168000000Y-60000000D03*
X133000000Y-60000000D03*
X131000000Y-65000000D03*
X132000000Y-59000000D03*
X133000000Y-58000000D03*
X130000000Y-82000000D03*
X167000000Y-60000000D03*
X130000000Y-77000000D03*
X166000000Y-59000000D03*
X169000000Y-58000000D03*
X130000000Y-52000000D03*
X165000000Y-60000000D03*
X132000000Y-53000000D03*
X131000000Y-53000000D03*
X130000000Y-60000000D03*
X130000000Y-71000000D03*
X132000000Y-58000000D03*
X167000000Y-71000000D03*
X170000000Y-82000000D03*
X169000000Y-54000000D03*
X130000000Y-69000000D03*
X130000000Y-101000000D03*
X135000000Y-71000000D03*
X170000000Y-69000000D03*
X134000000Y-52000000D03*
X131000000Y-59000000D03*
X131000000Y-58000000D03*
X170000000Y-77000000D03*
X130000000Y-59000000D03*
X130000000Y-80000000D03*
X169000000Y-71000000D03*
X135000000Y-60000000D03*
X167000000Y-70000000D03*
X165000000Y-65000000D03*
%TO.N,GND*%
X142000000Y-54000000D03*
X139000000Y-58000000D03*
X137000000Y-58000000D03*
X141000000Y-71000000D03*
X138000000Y-71000000D03*
X163000000Y-53000000D03*
X158000000Y-71000000D03*
X160000000Y-53000000D03*
X161000000Y-64000000D03*
X138000000Y-80000000D03*
X176000000Y-122200000D03*
X158000000Y-58000000D03*
X163000000Y-59000000D03*
X159000000Y-60000000D03*
X193000000Y-96750000D03*
X160000000Y-58000000D03*
X140000000Y-60000000D03*
X149520000Y-80500000D03*
X159000000Y-70000000D03*
X138000000Y-65000000D03*
X163000000Y-54000000D03*
X141000000Y-60000000D03*
X140000000Y-69000000D03*
X161000000Y-59000000D03*
X138000000Y-97000000D03*
X153950000Y-115655000D03*
X139000000Y-52000000D03*
X159000000Y-58000000D03*
X162000000Y-80000000D03*
X162000000Y-69000000D03*
X138000000Y-54000000D03*
X158000000Y-70000000D03*
X161000000Y-70000000D03*
X140000000Y-63000000D03*
X163000000Y-71000000D03*
X162000000Y-58000000D03*
X140000000Y-70000000D03*
X183700000Y-113150000D03*
X138000000Y-52000000D03*
X159000000Y-65000000D03*
X162000000Y-100000000D03*
X158000000Y-65000000D03*
X162000000Y-77000000D03*
X161000000Y-71000000D03*
X141000000Y-63000000D03*
X160000000Y-64000000D03*
X161000000Y-52000000D03*
X138000000Y-70000000D03*
X162000000Y-52000000D03*
X159000000Y-53000000D03*
X140000000Y-52000000D03*
X139000000Y-54000000D03*
X142000000Y-58000000D03*
X137000000Y-71000000D03*
X142000000Y-65000000D03*
X140000000Y-54000000D03*
X163000000Y-70000000D03*
X142000000Y-60000000D03*
X138000000Y-76000000D03*
X140000000Y-65000000D03*
X107000000Y-99250000D03*
X163000000Y-60000000D03*
X145700000Y-92445000D03*
X163000000Y-52000000D03*
X160000000Y-54000000D03*
X140000000Y-71000000D03*
X138000000Y-60000000D03*
X141000000Y-53000000D03*
X142000000Y-63000000D03*
X160000000Y-70000000D03*
X162000000Y-96000000D03*
X162000000Y-71000000D03*
X138000000Y-102000000D03*
X159000000Y-64000000D03*
X137000000Y-60000000D03*
X162100000Y-118600000D03*
X137000000Y-52000000D03*
X158000000Y-69000000D03*
X137000000Y-70000000D03*
X138000000Y-63000000D03*
X194515000Y-66200000D03*
X140000000Y-58000000D03*
X142000000Y-69000000D03*
X161000000Y-65000000D03*
X158000000Y-54000000D03*
X163000000Y-65000000D03*
X163000000Y-69000000D03*
X137000000Y-65000000D03*
X160000000Y-65000000D03*
X138000000Y-64000000D03*
X141000000Y-64000000D03*
X104520000Y-60000000D03*
X139000000Y-53000000D03*
X137000000Y-63000000D03*
X146050000Y-113500000D03*
X161000000Y-54000000D03*
X158000000Y-63000000D03*
X138000000Y-95000000D03*
X142000000Y-64000000D03*
X175300000Y-117300000D03*
X158000000Y-53000000D03*
X160000000Y-63000000D03*
X138000000Y-75000000D03*
X160000000Y-59000000D03*
X141000000Y-69000000D03*
X139000000Y-70000000D03*
X137000000Y-59000000D03*
X141000000Y-58000000D03*
X139000000Y-63000000D03*
X162000000Y-53000000D03*
X139000000Y-69000000D03*
X107000000Y-79250000D03*
X158000000Y-59000000D03*
X138000000Y-100000000D03*
X161000000Y-58000000D03*
X162000000Y-60000000D03*
X154600000Y-87365000D03*
X162000000Y-59000000D03*
X139000000Y-60000000D03*
X162000000Y-54000000D03*
X138000000Y-59000000D03*
X161000000Y-60000000D03*
X140000000Y-64000000D03*
X139000000Y-65000000D03*
X158000000Y-52000000D03*
X162000000Y-102000000D03*
X140000000Y-53000000D03*
X162000000Y-97000000D03*
X159000000Y-71000000D03*
X137000000Y-69000000D03*
X140000000Y-59000000D03*
X159000000Y-63000000D03*
X162000000Y-70000000D03*
X146050000Y-117450000D03*
X146500000Y-99000000D03*
X138000000Y-53000000D03*
X138000000Y-77000000D03*
X138000000Y-58000000D03*
X189700000Y-113150000D03*
X161000000Y-69000000D03*
X182000000Y-66000000D03*
X160000000Y-60000000D03*
X158000000Y-60000000D03*
X138000000Y-81000000D03*
X142000000Y-53000000D03*
X142000000Y-70000000D03*
X139000000Y-71000000D03*
X142000000Y-59000000D03*
X141000000Y-65000000D03*
X118000000Y-66000000D03*
X141000000Y-52000000D03*
X162000000Y-95000000D03*
X138000000Y-101000000D03*
X137000000Y-54000000D03*
X162000000Y-65000000D03*
X160000000Y-52000000D03*
X138000000Y-69000000D03*
X153950000Y-117450000D03*
X146050000Y-115475000D03*
X163000000Y-63000000D03*
X162000000Y-64000000D03*
X142000000Y-52000000D03*
X159000000Y-54000000D03*
X163000000Y-58000000D03*
X124300000Y-119500000D03*
X142000000Y-71000000D03*
X139000000Y-64000000D03*
X141000000Y-54000000D03*
X162000000Y-81000000D03*
X138000000Y-96000000D03*
X162000000Y-82000000D03*
X137000000Y-53000000D03*
X160000000Y-69000000D03*
X166200000Y-117000000D03*
X193000000Y-76750000D03*
X137000000Y-64000000D03*
X161000000Y-63000000D03*
X158000000Y-64000000D03*
X139000000Y-59000000D03*
X195480000Y-60000000D03*
X162000000Y-63000000D03*
X153950000Y-113500000D03*
X104515000Y-66200000D03*
X161000000Y-53000000D03*
X163000000Y-64000000D03*
X160000000Y-71000000D03*
X162000000Y-76000000D03*
X162000000Y-101000000D03*
X141000000Y-70000000D03*
X159000000Y-69000000D03*
X141000000Y-59000000D03*
X138000000Y-82000000D03*
X162000000Y-75000000D03*
X159000000Y-59000000D03*
X159000000Y-52000000D03*
%TO.N,VSS*%
X167500000Y-123000000D03*
X198500000Y-111000000D03*
X181700000Y-118700000D03*
X104800000Y-62000000D03*
X194500000Y-62100000D03*
%TO.N,/ADC/ADC0*%
X113500000Y-86000000D03*
X129500000Y-86000000D03*
X146500000Y-101500000D03*
X121400000Y-86000000D03*
X118700000Y-86000000D03*
%TO.N,/MotorControl/O4*%
X128000000Y-73000000D03*
%TO.N,/ESP32-C6/RST*%
X142200000Y-117000000D03*
X157500000Y-113900000D03*
%TO.N,3V3*%
X164020000Y-117620000D03*
X155510000Y-95900000D03*
X107000000Y-101750000D03*
X144000000Y-84500000D03*
X150480000Y-80500000D03*
X166250000Y-119850000D03*
X171950000Y-115050000D03*
X193000000Y-94250000D03*
X131900000Y-118400000D03*
X196000000Y-74250000D03*
X104000000Y-81750000D03*
X155800000Y-85500000D03*
X150500000Y-104000000D03*
%TO.N,/I8*%
X157500000Y-116300000D03*
%TO.N,/EN4*%
X157500000Y-115500000D03*
%TO.N,/I7*%
X157500000Y-113100000D03*
%TO.N,/I6*%
X157500000Y-112300000D03*
%TO.N,/EN3*%
X154800000Y-108200000D03*
%TO.N,/I5*%
X154000000Y-107500000D03*
%TO.N,/SCL2*%
X153600000Y-99000000D03*
X152400000Y-107500000D03*
%TO.N,/SDA2*%
X151600000Y-107500000D03*
X152800000Y-97800000D03*
%TO.N,/I4*%
X145200000Y-108600000D03*
%TO.N,/EN2*%
X142000000Y-111500000D03*
%TO.N,/I3*%
X142000000Y-112300000D03*
%TO.N,/I2*%
X142000000Y-113100000D03*
%TO.N,/EN1*%
X142000000Y-113900003D03*
%TO.N,/I1*%
X142000000Y-114700006D03*
%TO.N,/ESP32-C6/USB_D-*%
X186375000Y-113282915D03*
X177050000Y-110775000D03*
%TO.N,/ESP32-C6/USB_D+*%
X187225000Y-113282915D03*
X177050000Y-109925000D03*
%TO.N,/MotorEncoder/SDA0*%
X182050000Y-92500000D03*
X154750000Y-92500000D03*
X186400000Y-99500000D03*
X157250000Y-92500000D03*
%TO.N,/ADC/ADC2*%
X154565687Y-100934313D03*
%TO.N,/ADC/ADC1*%
X146500000Y-100500000D03*
%TO.N,/MotorEncoder/SDA2*%
X115950000Y-76500000D03*
X115950000Y-78300000D03*
%TO.N,/MotorEncoder/SDA3*%
X140100000Y-89905000D03*
X137700000Y-90900000D03*
X119250000Y-90900000D03*
X115080331Y-95019669D03*
%TO.N,/MotorEncoder/SDA1*%
X185000000Y-78250000D03*
X179200000Y-86650000D03*
%TO.N,/MotorControlB/O1*%
X172000000Y-73250000D03*
%TO.N,/ADC/ADC3*%
X173800000Y-78700000D03*
X154000000Y-101500000D03*
%TO.N,/MotorEncoder/SCL2*%
X143400000Y-86300000D03*
X144500000Y-88700000D03*
%TD*%
%TO.N,VSS*%
D20*
X101700000Y-65100000D02*
X104800000Y-62000000D01*
X101700000Y-109300000D02*
X101700000Y-65100000D01*
X115300000Y-122900000D02*
X101700000Y-109300000D01*
%TO.N,/MotorControlB/O4*%
D21*
X188350000Y-78700000D02*
X188350000Y-61682500D01*
X180000000Y-87050000D02*
X188350000Y-78700000D01*
X180000000Y-96000000D02*
X180000000Y-87050000D01*
%TO.N,VSS*%
D20*
X177400000Y-123000000D02*
X181700000Y-118700000D01*
X198500000Y-66100000D02*
X194500000Y-62100000D01*
X198500000Y-111000000D02*
X198500000Y-66100000D01*
X167500000Y-123000000D02*
X177400000Y-123000000D01*
%TO.N,/MotorControl/O4*%
D21*
X127000000Y-56000000D02*
X125620000Y-56000000D01*
X128500000Y-72500000D02*
X128500000Y-57500000D01*
X128500000Y-57500000D02*
X127000000Y-56000000D01*
X128000000Y-73000000D02*
X128500000Y-72500000D01*
X120000000Y-76000000D02*
X125000000Y-76000000D01*
X125000000Y-76000000D02*
X128000000Y-73000000D01*
%TO.N,3V3*%
D22*
X153700000Y-104000000D02*
X164020000Y-114320000D01*
X107000000Y-101750000D02*
X107000000Y-109500000D01*
X195875000Y-91375000D02*
X195875000Y-105025000D01*
X155800000Y-85500000D02*
X155800000Y-95610000D01*
X150500000Y-104000000D02*
X153700000Y-104000000D01*
X145300000Y-79800000D02*
X149780000Y-79800000D01*
X131900000Y-121600000D02*
X133673000Y-123373000D01*
X131900000Y-118400000D02*
X131900000Y-121600000D01*
X171950000Y-113350000D02*
X171950000Y-115050000D01*
X196000000Y-74250000D02*
X196000000Y-91250000D01*
X195875000Y-105025000D02*
X192350000Y-108550000D01*
X155800000Y-95610000D02*
X155510000Y-95900000D01*
X120873000Y-123373000D02*
X133673000Y-123373000D01*
X149780000Y-79800000D02*
X150480000Y-80500000D01*
X176750000Y-108550000D02*
X171950000Y-113350000D01*
X107000000Y-101750000D02*
X104000000Y-98750000D01*
X144000000Y-81100000D02*
X145300000Y-79800000D01*
X104000000Y-98750000D02*
X104000000Y-81750000D01*
X196000000Y-91250000D02*
X195875000Y-91375000D01*
X162727000Y-123373000D02*
X166250000Y-119850000D01*
X164020000Y-114320000D02*
X164020000Y-117620000D01*
X107000000Y-109500000D02*
X120873000Y-123373000D01*
X195875000Y-91375000D02*
X193000000Y-94250000D01*
X144000000Y-84500000D02*
X144000000Y-81100000D01*
X192350000Y-108550000D02*
X176750000Y-108550000D01*
X133673000Y-123373000D02*
X162727000Y-123373000D01*
%TO.N,/ESP32-C6/USB_D-*%
D23*
X185606803Y-110575001D02*
X177249999Y-110575001D01*
X186375000Y-113282915D02*
X186375000Y-113069312D01*
X186575000Y-113082915D02*
X186575000Y-111543198D01*
X186575000Y-111543198D02*
X185606803Y-110575001D01*
X177249999Y-110575001D02*
X177050000Y-110775000D01*
X186375000Y-113282915D02*
X186575000Y-113082915D01*
%TO.N,/ESP32-C6/USB_D+*%
X177249999Y-110124999D02*
X177050000Y-109925000D01*
X185793197Y-110124999D02*
X177249999Y-110124999D01*
X187225000Y-113282915D02*
X187025000Y-113082915D01*
X187025000Y-113082915D02*
X187025000Y-111356802D01*
X187025000Y-111356802D02*
X185793197Y-110124999D01*
%TO.N,/MotorControlB/O2*%
D21*
X177450000Y-63500000D02*
X175650000Y-61700000D01*
X180750000Y-81000000D02*
X182800000Y-78950000D01*
X182800000Y-65000000D02*
X181300000Y-63500000D01*
X181300000Y-63500000D02*
X177450000Y-63500000D01*
D23*
X180750000Y-81000000D02*
X180000000Y-81000000D01*
D21*
X182800000Y-78950000D02*
X182800000Y-65000000D01*
X175650000Y-61700000D02*
X175650000Y-61682500D01*
%TO.N,/MotorControlB/O3*%
X189620000Y-56152500D02*
X193600000Y-60132500D01*
X193600000Y-60132500D02*
X193600000Y-76289339D01*
X193750000Y-76439339D02*
X193750000Y-87250000D01*
X193750000Y-87250000D02*
X180000000Y-101000000D01*
X193600000Y-76289339D02*
X193750000Y-76439339D01*
%TO.N,/MotorControl/O1*%
X106000000Y-60380000D02*
X110380000Y-56000000D01*
X106000000Y-87000000D02*
X106000000Y-60380000D01*
X120000000Y-101000000D02*
X106000000Y-87000000D01*
%TO.N,/MotorControl/O2*%
X120000000Y-96000000D02*
X120000000Y-86200000D01*
X111650000Y-77850000D02*
X111650000Y-61530000D01*
X120000000Y-86200000D02*
X111650000Y-77850000D01*
%TO.N,/MotorControl/O3*%
X122380000Y-63500000D02*
X122380000Y-63520000D01*
X124350000Y-61530000D02*
X122380000Y-63500000D01*
X122380000Y-63520000D02*
X117000000Y-68900000D01*
X117000000Y-68900000D02*
X117000000Y-78000000D01*
X117000000Y-78000000D02*
X120000000Y-81000000D01*
%TO.N,/MotorControlB/O1*%
X172947500Y-56152500D02*
X174380000Y-56152500D01*
X170800000Y-58300000D02*
X172947500Y-56152500D01*
X170800000Y-72050000D02*
X170800000Y-58300000D01*
X175700000Y-76000000D02*
X174750000Y-76000000D01*
X175700000Y-76000000D02*
X180000000Y-76000000D01*
X172000000Y-73250000D02*
X170800000Y-72050000D01*
X174750000Y-76000000D02*
X172000000Y-73250000D01*
%TD*%
%TA.AperFunction,Conductor*%
%TO.N,/MotorControl/VS*%
G36*
X136690814Y-51003404D02*
G01*
X136757849Y-51023097D01*
X136803597Y-51075906D01*
X136813533Y-51145066D01*
X136784500Y-51208618D01*
X136738250Y-51241965D01*
X136620824Y-51290604D01*
X136620814Y-51290609D01*
X136489711Y-51378210D01*
X136489707Y-51378213D01*
X136378213Y-51489707D01*
X136378210Y-51489711D01*
X136290609Y-51620814D01*
X136290602Y-51620827D01*
X136230264Y-51766498D01*
X136230261Y-51766510D01*
X136199500Y-51921153D01*
X136199500Y-52078846D01*
X136230261Y-52233489D01*
X136230264Y-52233501D01*
X136290602Y-52379172D01*
X136290609Y-52379185D01*
X136325304Y-52431109D01*
X136346182Y-52497786D01*
X136327698Y-52565167D01*
X136325304Y-52568891D01*
X136290609Y-52620814D01*
X136290602Y-52620827D01*
X136230264Y-52766498D01*
X136230261Y-52766510D01*
X136199500Y-52921153D01*
X136199500Y-53078846D01*
X136230261Y-53233489D01*
X136230264Y-53233501D01*
X136290602Y-53379172D01*
X136290609Y-53379185D01*
X136325304Y-53431109D01*
X136346182Y-53497786D01*
X136327698Y-53565167D01*
X136325304Y-53568891D01*
X136290609Y-53620814D01*
X136290602Y-53620827D01*
X136230264Y-53766498D01*
X136230261Y-53766510D01*
X136199500Y-53921153D01*
X136199500Y-54078846D01*
X136230261Y-54233489D01*
X136230264Y-54233501D01*
X136290602Y-54379172D01*
X136290609Y-54379185D01*
X136378210Y-54510288D01*
X136378213Y-54510292D01*
X136489707Y-54621786D01*
X136489711Y-54621789D01*
X136620814Y-54709390D01*
X136620827Y-54709397D01*
X136766498Y-54769735D01*
X136766503Y-54769737D01*
X136921153Y-54800499D01*
X136921156Y-54800500D01*
X136921158Y-54800500D01*
X137078844Y-54800500D01*
X137078845Y-54800499D01*
X137233497Y-54769737D01*
X137379179Y-54709394D01*
X137431110Y-54674694D01*
X137497785Y-54653816D01*
X137565165Y-54672300D01*
X137568863Y-54674676D01*
X137620821Y-54709394D01*
X137620823Y-54709395D01*
X137620825Y-54709396D01*
X137720683Y-54750758D01*
X137766503Y-54769737D01*
X137921153Y-54800499D01*
X137921156Y-54800500D01*
X137921158Y-54800500D01*
X138078844Y-54800500D01*
X138078845Y-54800499D01*
X138233497Y-54769737D01*
X138379179Y-54709394D01*
X138431110Y-54674694D01*
X138497785Y-54653816D01*
X138565165Y-54672300D01*
X138568863Y-54674676D01*
X138620821Y-54709394D01*
X138620823Y-54709395D01*
X138620825Y-54709396D01*
X138720683Y-54750758D01*
X138766503Y-54769737D01*
X138921153Y-54800499D01*
X138921156Y-54800500D01*
X138921158Y-54800500D01*
X139078844Y-54800500D01*
X139078845Y-54800499D01*
X139233497Y-54769737D01*
X139379179Y-54709394D01*
X139431110Y-54674694D01*
X139497785Y-54653816D01*
X139565165Y-54672300D01*
X139568863Y-54674676D01*
X139620821Y-54709394D01*
X139620823Y-54709395D01*
X139620825Y-54709396D01*
X139720683Y-54750758D01*
X139766503Y-54769737D01*
X139921153Y-54800499D01*
X139921156Y-54800500D01*
X139921158Y-54800500D01*
X140078844Y-54800500D01*
X140078845Y-54800499D01*
X140233497Y-54769737D01*
X140379179Y-54709394D01*
X140431110Y-54674694D01*
X140497785Y-54653816D01*
X140565165Y-54672300D01*
X140568863Y-54674676D01*
X140620821Y-54709394D01*
X140620823Y-54709395D01*
X140620825Y-54709396D01*
X140720683Y-54750758D01*
X140766503Y-54769737D01*
X140921153Y-54800499D01*
X140921156Y-54800500D01*
X140921158Y-54800500D01*
X141078844Y-54800500D01*
X141078845Y-54800499D01*
X141233497Y-54769737D01*
X141379179Y-54709394D01*
X141431110Y-54674694D01*
X141497785Y-54653816D01*
X141565165Y-54672300D01*
X141568863Y-54674676D01*
X141620821Y-54709394D01*
X141620823Y-54709395D01*
X141620825Y-54709396D01*
X141720683Y-54750758D01*
X141766503Y-54769737D01*
X141921153Y-54800499D01*
X141921156Y-54800500D01*
X141921158Y-54800500D01*
X142078844Y-54800500D01*
X142078845Y-54800499D01*
X142233497Y-54769737D01*
X142379179Y-54709394D01*
X142510289Y-54621789D01*
X142621789Y-54510289D01*
X142709394Y-54379179D01*
X142769737Y-54233497D01*
X142800500Y-54078842D01*
X142800500Y-53921158D01*
X142800500Y-53921155D01*
X142800499Y-53921152D01*
X142797388Y-53905513D01*
X143299500Y-53905513D01*
X143299500Y-54094486D01*
X143329059Y-54281118D01*
X143387454Y-54460836D01*
X143469463Y-54621786D01*
X143473240Y-54629199D01*
X143584310Y-54782073D01*
X143717927Y-54915690D01*
X143870801Y-55026760D01*
X143894859Y-55039018D01*
X144039163Y-55112545D01*
X144039165Y-55112545D01*
X144039168Y-55112547D01*
X144135497Y-55143846D01*
X144218881Y-55170940D01*
X144405514Y-55200500D01*
X144405519Y-55200500D01*
X144594486Y-55200500D01*
X144781118Y-55170940D01*
X144960832Y-55112547D01*
X145129199Y-55026760D01*
X145282073Y-54915690D01*
X145415690Y-54782073D01*
X145526760Y-54629199D01*
X145612547Y-54460832D01*
X145670940Y-54281118D01*
X145678482Y-54233501D01*
X145700500Y-54094486D01*
X145700500Y-53905513D01*
X154299500Y-53905513D01*
X154299500Y-54094486D01*
X154329059Y-54281118D01*
X154387454Y-54460836D01*
X154469463Y-54621786D01*
X154473240Y-54629199D01*
X154584310Y-54782073D01*
X154717927Y-54915690D01*
X154870801Y-55026760D01*
X154894859Y-55039018D01*
X155039163Y-55112545D01*
X155039165Y-55112545D01*
X155039168Y-55112547D01*
X155135497Y-55143846D01*
X155218881Y-55170940D01*
X155405514Y-55200500D01*
X155405519Y-55200500D01*
X155594486Y-55200500D01*
X155781118Y-55170940D01*
X155960832Y-55112547D01*
X156129199Y-55026760D01*
X156282073Y-54915690D01*
X156415690Y-54782073D01*
X156526760Y-54629199D01*
X156612547Y-54460832D01*
X156670940Y-54281118D01*
X156678482Y-54233501D01*
X156700500Y-54094486D01*
X156700500Y-53905513D01*
X156670940Y-53718881D01*
X156622205Y-53568892D01*
X156612547Y-53539168D01*
X156612545Y-53539165D01*
X156612545Y-53539163D01*
X156557488Y-53431108D01*
X156526760Y-53370801D01*
X156415690Y-53217927D01*
X156282073Y-53084310D01*
X156129199Y-52973240D01*
X155960836Y-52887454D01*
X155781118Y-52829059D01*
X155594486Y-52799500D01*
X155594481Y-52799500D01*
X155405519Y-52799500D01*
X155405514Y-52799500D01*
X155218881Y-52829059D01*
X155039163Y-52887454D01*
X154870800Y-52973240D01*
X154783579Y-53036610D01*
X154717927Y-53084310D01*
X154717925Y-53084312D01*
X154717924Y-53084312D01*
X154584312Y-53217924D01*
X154584312Y-53217925D01*
X154584310Y-53217927D01*
X154572998Y-53233497D01*
X154473240Y-53370800D01*
X154387454Y-53539163D01*
X154329059Y-53718881D01*
X154299500Y-53905513D01*
X145700500Y-53905513D01*
X145670940Y-53718881D01*
X145622205Y-53568892D01*
X145612547Y-53539168D01*
X145612545Y-53539165D01*
X145612545Y-53539163D01*
X145557488Y-53431108D01*
X145526760Y-53370801D01*
X145415690Y-53217927D01*
X145282073Y-53084310D01*
X145129199Y-52973240D01*
X144960836Y-52887454D01*
X144781118Y-52829059D01*
X144594486Y-52799500D01*
X144594481Y-52799500D01*
X144405519Y-52799500D01*
X144405514Y-52799500D01*
X144218881Y-52829059D01*
X144039163Y-52887454D01*
X143870800Y-52973240D01*
X143783579Y-53036610D01*
X143717927Y-53084310D01*
X143717925Y-53084312D01*
X143717924Y-53084312D01*
X143584312Y-53217924D01*
X143584312Y-53217925D01*
X143584310Y-53217927D01*
X143572998Y-53233497D01*
X143473240Y-53370800D01*
X143387454Y-53539163D01*
X143329059Y-53718881D01*
X143299500Y-53905513D01*
X142797388Y-53905513D01*
X142769738Y-53766508D01*
X142769737Y-53766507D01*
X142769737Y-53766503D01*
X142750012Y-53718882D01*
X142709396Y-53620825D01*
X142709394Y-53620822D01*
X142709394Y-53620821D01*
X142674694Y-53568889D01*
X142653816Y-53502215D01*
X142672300Y-53434835D01*
X142674676Y-53431136D01*
X142709394Y-53379179D01*
X142769737Y-53233497D01*
X142800500Y-53078842D01*
X142800500Y-52921158D01*
X142800500Y-52921155D01*
X142800499Y-52921153D01*
X142782180Y-52829059D01*
X142769737Y-52766503D01*
X142769735Y-52766498D01*
X142709396Y-52620825D01*
X142709394Y-52620822D01*
X142709394Y-52620821D01*
X142674694Y-52568889D01*
X142653816Y-52502215D01*
X142672300Y-52434835D01*
X142674676Y-52431136D01*
X142709394Y-52379179D01*
X142769737Y-52233497D01*
X142800500Y-52078842D01*
X142800500Y-51921158D01*
X142800500Y-51921155D01*
X142800499Y-51921153D01*
X142769738Y-51766510D01*
X142769737Y-51766503D01*
X142769735Y-51766498D01*
X142709397Y-51620827D01*
X142709390Y-51620814D01*
X142621789Y-51489711D01*
X142621786Y-51489707D01*
X142510292Y-51378213D01*
X142510288Y-51378210D01*
X142379185Y-51290609D01*
X142379176Y-51290604D01*
X142263360Y-51242632D01*
X142208957Y-51198791D01*
X142186892Y-51132497D01*
X142204171Y-51064798D01*
X142255308Y-51017187D01*
X142310825Y-51004071D01*
X157684797Y-51005896D01*
X157751834Y-51025589D01*
X157797582Y-51078398D01*
X157807518Y-51147558D01*
X157778485Y-51211110D01*
X157732234Y-51244457D01*
X157620827Y-51290602D01*
X157620814Y-51290609D01*
X157489711Y-51378210D01*
X157489707Y-51378213D01*
X157378213Y-51489707D01*
X157378210Y-51489711D01*
X157290609Y-51620814D01*
X157290602Y-51620827D01*
X157230264Y-51766498D01*
X157230261Y-51766510D01*
X157199500Y-51921153D01*
X157199500Y-52078846D01*
X157230261Y-52233489D01*
X157230264Y-52233501D01*
X157290602Y-52379172D01*
X157290609Y-52379185D01*
X157325304Y-52431109D01*
X157346182Y-52497786D01*
X157327698Y-52565167D01*
X157325304Y-52568891D01*
X157290609Y-52620814D01*
X157290602Y-52620827D01*
X157230264Y-52766498D01*
X157230261Y-52766510D01*
X157199500Y-52921153D01*
X157199500Y-53078846D01*
X157230261Y-53233489D01*
X157230264Y-53233501D01*
X157290602Y-53379172D01*
X157290609Y-53379185D01*
X157325304Y-53431109D01*
X157346182Y-53497786D01*
X157327698Y-53565167D01*
X157325304Y-53568891D01*
X157290609Y-53620814D01*
X157290602Y-53620827D01*
X157230264Y-53766498D01*
X157230261Y-53766510D01*
X157199500Y-53921153D01*
X157199500Y-54078846D01*
X157230261Y-54233489D01*
X157230264Y-54233501D01*
X157290602Y-54379172D01*
X157290609Y-54379185D01*
X157378210Y-54510288D01*
X157378213Y-54510292D01*
X157489707Y-54621786D01*
X157489711Y-54621789D01*
X157620814Y-54709390D01*
X157620827Y-54709397D01*
X157766498Y-54769735D01*
X157766503Y-54769737D01*
X157921153Y-54800499D01*
X157921156Y-54800500D01*
X157921158Y-54800500D01*
X158078844Y-54800500D01*
X158078845Y-54800499D01*
X158233497Y-54769737D01*
X158379179Y-54709394D01*
X158431110Y-54674694D01*
X158497785Y-54653816D01*
X158565165Y-54672300D01*
X158568863Y-54674676D01*
X158620821Y-54709394D01*
X158620823Y-54709395D01*
X158620825Y-54709396D01*
X158720683Y-54750758D01*
X158766503Y-54769737D01*
X158921153Y-54800499D01*
X158921156Y-54800500D01*
X158921158Y-54800500D01*
X159078844Y-54800500D01*
X159078845Y-54800499D01*
X159233497Y-54769737D01*
X159379179Y-54709394D01*
X159431110Y-54674694D01*
X159497785Y-54653816D01*
X159565165Y-54672300D01*
X159568863Y-54674676D01*
X159620821Y-54709394D01*
X159620823Y-54709395D01*
X159620825Y-54709396D01*
X159720683Y-54750758D01*
X159766503Y-54769737D01*
X159921153Y-54800499D01*
X159921156Y-54800500D01*
X159921158Y-54800500D01*
X160078844Y-54800500D01*
X160078845Y-54800499D01*
X160233497Y-54769737D01*
X160379179Y-54709394D01*
X160431110Y-54674694D01*
X160497785Y-54653816D01*
X160565165Y-54672300D01*
X160568863Y-54674676D01*
X160620821Y-54709394D01*
X160620823Y-54709395D01*
X160620825Y-54709396D01*
X160720683Y-54750758D01*
X160766503Y-54769737D01*
X160921153Y-54800499D01*
X160921156Y-54800500D01*
X160921158Y-54800500D01*
X161078844Y-54800500D01*
X161078845Y-54800499D01*
X161233497Y-54769737D01*
X161379179Y-54709394D01*
X161431110Y-54674694D01*
X161497785Y-54653816D01*
X161565165Y-54672300D01*
X161568863Y-54674676D01*
X161620821Y-54709394D01*
X161620823Y-54709395D01*
X161620825Y-54709396D01*
X161720683Y-54750758D01*
X161766503Y-54769737D01*
X161921153Y-54800499D01*
X161921156Y-54800500D01*
X161921158Y-54800500D01*
X162078844Y-54800500D01*
X162078845Y-54800499D01*
X162233497Y-54769737D01*
X162379179Y-54709394D01*
X162431110Y-54674694D01*
X162497785Y-54653816D01*
X162565165Y-54672300D01*
X162568863Y-54674676D01*
X162620821Y-54709394D01*
X162620823Y-54709395D01*
X162620825Y-54709396D01*
X162720683Y-54750758D01*
X162766503Y-54769737D01*
X162921153Y-54800499D01*
X162921156Y-54800500D01*
X162921158Y-54800500D01*
X163078844Y-54800500D01*
X163078845Y-54800499D01*
X163233497Y-54769737D01*
X163379179Y-54709394D01*
X163510289Y-54621789D01*
X163621789Y-54510289D01*
X163709394Y-54379179D01*
X163769737Y-54233497D01*
X163800500Y-54078842D01*
X163800500Y-53921158D01*
X163800500Y-53921155D01*
X163800499Y-53921153D01*
X163769738Y-53766510D01*
X163769738Y-53766508D01*
X163769737Y-53766503D01*
X163750012Y-53718882D01*
X163709396Y-53620825D01*
X163709394Y-53620822D01*
X163709394Y-53620821D01*
X163674694Y-53568889D01*
X163653816Y-53502215D01*
X163672300Y-53434835D01*
X163674676Y-53431136D01*
X163709394Y-53379179D01*
X163769737Y-53233497D01*
X163800500Y-53078842D01*
X163800500Y-52921158D01*
X163800500Y-52921155D01*
X163800499Y-52921153D01*
X163782180Y-52829059D01*
X163769737Y-52766503D01*
X163769735Y-52766498D01*
X163709396Y-52620825D01*
X163709394Y-52620822D01*
X163709394Y-52620821D01*
X163674694Y-52568889D01*
X163653816Y-52502215D01*
X163672300Y-52434835D01*
X163674676Y-52431136D01*
X163709394Y-52379179D01*
X163769737Y-52233497D01*
X163800500Y-52078842D01*
X163800500Y-51921158D01*
X163800500Y-51921155D01*
X163800499Y-51921153D01*
X163769738Y-51766510D01*
X163769737Y-51766503D01*
X163769735Y-51766498D01*
X163709397Y-51620827D01*
X163709390Y-51620814D01*
X163621789Y-51489711D01*
X163621786Y-51489707D01*
X163510292Y-51378213D01*
X163510288Y-51378210D01*
X163379185Y-51290609D01*
X163379176Y-51290604D01*
X163269378Y-51245125D01*
X163214975Y-51201284D01*
X163192910Y-51134990D01*
X163210189Y-51067291D01*
X163261326Y-51019680D01*
X163316843Y-51006564D01*
X192874633Y-51010072D01*
X192941670Y-51029765D01*
X192987418Y-51082574D01*
X192998610Y-51135446D01*
X192921490Y-58094642D01*
X192901064Y-58161459D01*
X192847756Y-58206626D01*
X192778492Y-58215803D01*
X192715262Y-58186075D01*
X192709817Y-58180949D01*
X190987990Y-56459122D01*
X190954505Y-56397799D01*
X190953198Y-56352043D01*
X190968000Y-56258588D01*
X190968000Y-56046410D01*
X190960649Y-55999999D01*
X190934807Y-55836843D01*
X190934806Y-55836839D01*
X190934806Y-55836838D01*
X190869241Y-55635050D01*
X190869239Y-55635047D01*
X190772913Y-55445994D01*
X190648197Y-55274337D01*
X190498163Y-55124303D01*
X190326506Y-54999587D01*
X190137452Y-54903260D01*
X190137449Y-54903258D01*
X189935659Y-54837693D01*
X189795945Y-54815564D01*
X189726090Y-54804500D01*
X189513910Y-54804500D01*
X189444054Y-54815564D01*
X189304341Y-54837693D01*
X189304338Y-54837693D01*
X189102550Y-54903258D01*
X189102547Y-54903260D01*
X188913492Y-54999588D01*
X188913489Y-54999590D01*
X188741834Y-55124305D01*
X188591805Y-55274334D01*
X188467090Y-55445989D01*
X188467085Y-55445997D01*
X188460484Y-55458953D01*
X188412509Y-55509748D01*
X188344688Y-55526543D01*
X188278553Y-55504005D01*
X188239516Y-55458953D01*
X188233052Y-55446267D01*
X188232913Y-55445994D01*
X188108197Y-55274337D01*
X187958163Y-55124303D01*
X187786506Y-54999587D01*
X187597452Y-54903260D01*
X187597449Y-54903258D01*
X187395659Y-54837693D01*
X187255945Y-54815564D01*
X187186090Y-54804500D01*
X186973910Y-54804500D01*
X186904054Y-54815564D01*
X186764341Y-54837693D01*
X186764338Y-54837693D01*
X186562550Y-54903258D01*
X186562547Y-54903260D01*
X186373492Y-54999588D01*
X186373489Y-54999590D01*
X186201834Y-55124305D01*
X186051805Y-55274334D01*
X185927090Y-55445989D01*
X185927085Y-55445997D01*
X185920484Y-55458953D01*
X185872509Y-55509748D01*
X185804688Y-55526543D01*
X185738553Y-55504005D01*
X185699516Y-55458953D01*
X185693052Y-55446267D01*
X185692913Y-55445994D01*
X185568197Y-55274337D01*
X185418163Y-55124303D01*
X185246506Y-54999587D01*
X185057452Y-54903260D01*
X185057449Y-54903258D01*
X184855659Y-54837693D01*
X184715945Y-54815564D01*
X184646090Y-54804500D01*
X184433910Y-54804500D01*
X184364054Y-54815564D01*
X184224341Y-54837693D01*
X184224338Y-54837693D01*
X184022550Y-54903258D01*
X184022547Y-54903260D01*
X183833492Y-54999588D01*
X183833489Y-54999590D01*
X183661834Y-55124305D01*
X183511805Y-55274334D01*
X183387090Y-55445989D01*
X183387085Y-55445997D01*
X183380484Y-55458953D01*
X183332509Y-55509748D01*
X183264688Y-55526543D01*
X183198553Y-55504005D01*
X183159516Y-55458953D01*
X183153052Y-55446267D01*
X183152913Y-55445994D01*
X183028197Y-55274337D01*
X182878163Y-55124303D01*
X182706506Y-54999587D01*
X182517452Y-54903260D01*
X182517449Y-54903258D01*
X182315659Y-54837693D01*
X182175945Y-54815564D01*
X182106090Y-54804500D01*
X181893910Y-54804500D01*
X181824054Y-54815564D01*
X181684341Y-54837693D01*
X181684338Y-54837693D01*
X181482550Y-54903258D01*
X181482547Y-54903260D01*
X181293492Y-54999588D01*
X181293489Y-54999590D01*
X181121834Y-55124305D01*
X180971805Y-55274334D01*
X180847090Y-55445989D01*
X180847085Y-55445997D01*
X180840484Y-55458953D01*
X180792509Y-55509748D01*
X180724688Y-55526543D01*
X180658553Y-55504005D01*
X180619516Y-55458953D01*
X180613052Y-55446267D01*
X180612913Y-55445994D01*
X180488197Y-55274337D01*
X180338163Y-55124303D01*
X180166506Y-54999587D01*
X179977452Y-54903260D01*
X179977449Y-54903258D01*
X179775659Y-54837693D01*
X179635945Y-54815564D01*
X179566090Y-54804500D01*
X179353910Y-54804500D01*
X179284054Y-54815564D01*
X179144341Y-54837693D01*
X179144338Y-54837693D01*
X178942550Y-54903258D01*
X178942547Y-54903260D01*
X178753492Y-54999588D01*
X178753489Y-54999590D01*
X178581834Y-55124305D01*
X178431805Y-55274334D01*
X178307090Y-55445989D01*
X178307083Y-55446000D01*
X178300200Y-55459508D01*
X178252222Y-55510301D01*
X178184400Y-55527092D01*
X178118267Y-55504550D01*
X178079233Y-55459498D01*
X178072491Y-55446267D01*
X178072481Y-55446250D01*
X178033481Y-55392571D01*
X178033480Y-55392570D01*
X177456034Y-55970016D01*
X177446496Y-55934418D01*
X177372112Y-55805582D01*
X177266918Y-55700388D01*
X177138082Y-55626004D01*
X177102480Y-55616464D01*
X177679928Y-55039018D01*
X177626244Y-55000014D01*
X177437261Y-54903723D01*
X177437258Y-54903721D01*
X177235542Y-54838180D01*
X177026050Y-54805000D01*
X176813950Y-54805000D01*
X176604458Y-54838180D01*
X176604455Y-54838180D01*
X176402741Y-54903721D01*
X176402738Y-54903722D01*
X176213757Y-55000013D01*
X176160071Y-55039018D01*
X176160071Y-55039019D01*
X176737517Y-55616465D01*
X176701918Y-55626004D01*
X176573082Y-55700388D01*
X176467888Y-55805582D01*
X176393504Y-55934418D01*
X176383965Y-55970017D01*
X175806519Y-55392571D01*
X175806518Y-55392571D01*
X175767513Y-55446258D01*
X175760764Y-55459504D01*
X175712788Y-55510299D01*
X175644967Y-55527093D01*
X175578832Y-55504554D01*
X175539796Y-55459503D01*
X175532913Y-55445994D01*
X175408197Y-55274337D01*
X175258163Y-55124303D01*
X175086506Y-54999587D01*
X174897452Y-54903260D01*
X174897449Y-54903258D01*
X174695659Y-54837693D01*
X174555945Y-54815564D01*
X174486090Y-54804500D01*
X174273910Y-54804500D01*
X174204054Y-54815564D01*
X174064341Y-54837693D01*
X174064338Y-54837693D01*
X173862550Y-54903258D01*
X173862547Y-54903260D01*
X173673492Y-54999588D01*
X173673489Y-54999590D01*
X173501834Y-55124305D01*
X173351805Y-55274334D01*
X173351805Y-55274335D01*
X173351803Y-55274337D01*
X173328069Y-55307004D01*
X173296187Y-55350886D01*
X173240857Y-55393551D01*
X173195869Y-55402000D01*
X172873576Y-55402000D01*
X172844742Y-55407734D01*
X172844743Y-55407735D01*
X172728593Y-55430839D01*
X172728583Y-55430842D01*
X172648581Y-55463979D01*
X172648582Y-55463980D01*
X172592005Y-55487415D01*
X172509872Y-55542295D01*
X172469085Y-55569547D01*
X172469081Y-55569550D01*
X170217049Y-57821582D01*
X170217049Y-57821583D01*
X170194390Y-57855495D01*
X170134914Y-57944508D01*
X170078343Y-58081082D01*
X170078340Y-58081092D01*
X170049500Y-58226079D01*
X170049500Y-58226082D01*
X170049500Y-72123918D01*
X170049500Y-72123920D01*
X170049499Y-72123920D01*
X170078340Y-72268907D01*
X170078343Y-72268917D01*
X170134912Y-72405488D01*
X170134918Y-72405499D01*
X170146967Y-72423530D01*
X170146969Y-72423535D01*
X170217046Y-72528414D01*
X170217052Y-72528421D01*
X170963681Y-73275049D01*
X170997166Y-73336372D01*
X171000000Y-73362730D01*
X171000000Y-102876000D01*
X170980315Y-102943039D01*
X170927511Y-102988794D01*
X170876000Y-103000000D01*
X162300983Y-103000000D01*
X162233944Y-102980315D01*
X162188189Y-102927511D01*
X162178245Y-102858353D01*
X162207270Y-102794797D01*
X162253531Y-102761439D01*
X162379172Y-102709397D01*
X162379172Y-102709396D01*
X162379179Y-102709394D01*
X162510289Y-102621789D01*
X162621789Y-102510289D01*
X162709394Y-102379179D01*
X162769737Y-102233497D01*
X162800500Y-102078842D01*
X162800500Y-101921158D01*
X162800500Y-101921155D01*
X162800499Y-101921153D01*
X162792150Y-101879179D01*
X162769737Y-101766503D01*
X162745892Y-101708935D01*
X162709396Y-101620825D01*
X162709394Y-101620822D01*
X162709394Y-101620821D01*
X162674694Y-101568889D01*
X162653816Y-101502215D01*
X162672300Y-101434835D01*
X162674676Y-101431136D01*
X162709394Y-101379179D01*
X162769737Y-101233497D01*
X162800500Y-101078842D01*
X162800500Y-100921158D01*
X162800500Y-100921155D01*
X162800499Y-100921153D01*
X162769738Y-100766510D01*
X162769737Y-100766503D01*
X162742529Y-100700816D01*
X162709396Y-100620825D01*
X162709394Y-100620822D01*
X162709394Y-100620821D01*
X162674694Y-100568889D01*
X162653816Y-100502215D01*
X162672300Y-100434835D01*
X162674676Y-100431136D01*
X162709394Y-100379179D01*
X162769737Y-100233497D01*
X162800500Y-100078842D01*
X162800500Y-99921158D01*
X162800500Y-99921155D01*
X162800499Y-99921153D01*
X162769738Y-99766510D01*
X162769737Y-99766503D01*
X162709795Y-99621789D01*
X162709397Y-99620827D01*
X162709390Y-99620814D01*
X162621789Y-99489711D01*
X162621786Y-99489707D01*
X162510292Y-99378213D01*
X162510288Y-99378210D01*
X162379185Y-99290609D01*
X162379172Y-99290602D01*
X162233501Y-99230264D01*
X162233489Y-99230261D01*
X162078845Y-99199500D01*
X162078842Y-99199500D01*
X161921158Y-99199500D01*
X161921155Y-99199500D01*
X161766510Y-99230261D01*
X161766498Y-99230264D01*
X161620827Y-99290602D01*
X161620814Y-99290609D01*
X161489711Y-99378210D01*
X161489707Y-99378213D01*
X161378213Y-99489707D01*
X161378210Y-99489711D01*
X161290609Y-99620814D01*
X161290602Y-99620827D01*
X161230264Y-99766498D01*
X161230261Y-99766510D01*
X161199500Y-99921153D01*
X161199500Y-100078846D01*
X161230261Y-100233489D01*
X161230264Y-100233501D01*
X161290602Y-100379172D01*
X161290609Y-100379185D01*
X161325304Y-100431109D01*
X161346182Y-100497786D01*
X161327698Y-100565167D01*
X161325304Y-100568891D01*
X161290609Y-100620814D01*
X161290602Y-100620827D01*
X161230264Y-100766498D01*
X161230261Y-100766510D01*
X161199500Y-100921153D01*
X161199500Y-101078846D01*
X161230261Y-101233489D01*
X161230264Y-101233501D01*
X161290602Y-101379172D01*
X161290609Y-101379185D01*
X161325304Y-101431109D01*
X161346182Y-101497786D01*
X161327698Y-101565167D01*
X161325304Y-101568891D01*
X161290609Y-101620814D01*
X161290602Y-101620827D01*
X161230264Y-101766498D01*
X161230261Y-101766510D01*
X161199500Y-101921153D01*
X161199500Y-102078846D01*
X161230261Y-102233489D01*
X161230264Y-102233501D01*
X161290602Y-102379172D01*
X161290609Y-102379185D01*
X161378210Y-102510288D01*
X161378213Y-102510292D01*
X161489707Y-102621786D01*
X161489711Y-102621789D01*
X161620814Y-102709390D01*
X161620827Y-102709397D01*
X161746469Y-102761439D01*
X161800873Y-102805280D01*
X161822938Y-102871574D01*
X161805659Y-102939273D01*
X161754522Y-102986884D01*
X161699017Y-103000000D01*
X158124000Y-103000000D01*
X158056961Y-102980315D01*
X158011206Y-102927511D01*
X158000000Y-102876000D01*
X158000000Y-94921153D01*
X161199500Y-94921153D01*
X161199500Y-95078846D01*
X161230261Y-95233489D01*
X161230264Y-95233501D01*
X161290602Y-95379172D01*
X161290609Y-95379185D01*
X161325304Y-95431109D01*
X161346182Y-95497786D01*
X161327698Y-95565167D01*
X161325304Y-95568891D01*
X161290609Y-95620814D01*
X161290602Y-95620827D01*
X161230264Y-95766498D01*
X161230261Y-95766510D01*
X161199500Y-95921153D01*
X161199500Y-96078846D01*
X161230261Y-96233489D01*
X161230264Y-96233501D01*
X161290602Y-96379172D01*
X161290609Y-96379185D01*
X161325304Y-96431109D01*
X161346182Y-96497786D01*
X161327698Y-96565167D01*
X161325304Y-96568891D01*
X161290609Y-96620814D01*
X161290602Y-96620827D01*
X161230264Y-96766498D01*
X161230261Y-96766510D01*
X161199500Y-96921153D01*
X161199500Y-97078846D01*
X161230261Y-97233489D01*
X161230264Y-97233501D01*
X161290602Y-97379172D01*
X161290609Y-97379185D01*
X161378210Y-97510288D01*
X161378213Y-97510292D01*
X161489707Y-97621786D01*
X161489711Y-97621789D01*
X161620814Y-97709390D01*
X161620827Y-97709397D01*
X161766498Y-97769735D01*
X161766503Y-97769737D01*
X161906192Y-97797523D01*
X161921153Y-97800499D01*
X161921156Y-97800500D01*
X161921158Y-97800500D01*
X162078844Y-97800500D01*
X162078845Y-97800499D01*
X162233497Y-97769737D01*
X162379179Y-97709394D01*
X162510289Y-97621789D01*
X162621789Y-97510289D01*
X162709394Y-97379179D01*
X162769737Y-97233497D01*
X162800500Y-97078842D01*
X162800500Y-96921158D01*
X162800500Y-96921155D01*
X162800499Y-96921153D01*
X162769738Y-96766510D01*
X162769737Y-96766503D01*
X162729656Y-96669737D01*
X162709396Y-96620825D01*
X162709394Y-96620822D01*
X162709394Y-96620821D01*
X162674694Y-96568889D01*
X162653816Y-96502215D01*
X162672300Y-96434835D01*
X162674676Y-96431136D01*
X162709394Y-96379179D01*
X162769737Y-96233497D01*
X162800500Y-96078842D01*
X162800500Y-95921158D01*
X162800500Y-95921155D01*
X162800499Y-95921153D01*
X162786842Y-95852494D01*
X162769737Y-95766503D01*
X162769735Y-95766498D01*
X162709396Y-95620825D01*
X162709394Y-95620822D01*
X162709394Y-95620821D01*
X162674694Y-95568889D01*
X162653816Y-95502215D01*
X162672300Y-95434835D01*
X162674676Y-95431136D01*
X162709394Y-95379179D01*
X162769737Y-95233497D01*
X162800500Y-95078842D01*
X162800500Y-94921158D01*
X162800500Y-94921155D01*
X162800499Y-94921153D01*
X162769738Y-94766510D01*
X162769737Y-94766503D01*
X162761661Y-94747006D01*
X162709397Y-94620827D01*
X162709390Y-94620814D01*
X162621789Y-94489711D01*
X162621786Y-94489707D01*
X162510292Y-94378213D01*
X162510288Y-94378210D01*
X162379185Y-94290609D01*
X162379172Y-94290602D01*
X162233501Y-94230264D01*
X162233489Y-94230261D01*
X162078845Y-94199500D01*
X162078842Y-94199500D01*
X161921158Y-94199500D01*
X161921155Y-94199500D01*
X161766510Y-94230261D01*
X161766498Y-94230264D01*
X161620827Y-94290602D01*
X161620814Y-94290609D01*
X161489711Y-94378210D01*
X161489707Y-94378213D01*
X161378213Y-94489707D01*
X161378210Y-94489711D01*
X161290609Y-94620814D01*
X161290602Y-94620827D01*
X161230264Y-94766498D01*
X161230261Y-94766510D01*
X161199500Y-94921153D01*
X158000000Y-94921153D01*
X158000000Y-92805811D01*
X158009439Y-92758358D01*
X158019737Y-92733497D01*
X158050500Y-92578842D01*
X158050500Y-92421158D01*
X158050500Y-92421155D01*
X158050499Y-92421153D01*
X158019739Y-92266511D01*
X158019738Y-92266510D01*
X158019737Y-92266503D01*
X158009437Y-92241636D01*
X158000000Y-92194189D01*
X158000000Y-79921153D01*
X161199500Y-79921153D01*
X161199500Y-80078846D01*
X161230261Y-80233489D01*
X161230264Y-80233501D01*
X161290602Y-80379172D01*
X161290609Y-80379185D01*
X161325304Y-80431109D01*
X161346182Y-80497786D01*
X161327698Y-80565167D01*
X161325304Y-80568891D01*
X161290609Y-80620814D01*
X161290602Y-80620827D01*
X161230264Y-80766498D01*
X161230261Y-80766510D01*
X161199500Y-80921153D01*
X161199500Y-81078846D01*
X161230261Y-81233489D01*
X161230264Y-81233501D01*
X161290602Y-81379172D01*
X161290609Y-81379185D01*
X161325304Y-81431109D01*
X161346182Y-81497786D01*
X161327698Y-81565167D01*
X161325304Y-81568891D01*
X161290609Y-81620814D01*
X161290602Y-81620827D01*
X161230264Y-81766498D01*
X161230261Y-81766510D01*
X161199500Y-81921153D01*
X161199500Y-82078846D01*
X161230261Y-82233489D01*
X161230264Y-82233501D01*
X161290602Y-82379172D01*
X161290609Y-82379185D01*
X161378210Y-82510288D01*
X161378213Y-82510292D01*
X161489707Y-82621786D01*
X161489711Y-82621789D01*
X161620814Y-82709390D01*
X161620827Y-82709397D01*
X161766498Y-82769735D01*
X161766503Y-82769737D01*
X161906192Y-82797523D01*
X161921153Y-82800499D01*
X161921156Y-82800500D01*
X161921158Y-82800500D01*
X162078844Y-82800500D01*
X162078845Y-82800499D01*
X162233497Y-82769737D01*
X162379179Y-82709394D01*
X162510289Y-82621789D01*
X162621789Y-82510289D01*
X162709394Y-82379179D01*
X162769737Y-82233497D01*
X162800500Y-82078842D01*
X162800500Y-81921158D01*
X162800500Y-81921155D01*
X162800499Y-81921153D01*
X162769738Y-81766510D01*
X162769737Y-81766503D01*
X162752526Y-81724952D01*
X162709396Y-81620825D01*
X162709394Y-81620822D01*
X162709394Y-81620821D01*
X162674694Y-81568889D01*
X162653816Y-81502215D01*
X162672300Y-81434835D01*
X162674676Y-81431136D01*
X162709394Y-81379179D01*
X162769737Y-81233497D01*
X162800500Y-81078842D01*
X162800500Y-80921158D01*
X162800500Y-80921155D01*
X162800499Y-80921153D01*
X162786842Y-80852494D01*
X162769737Y-80766503D01*
X162756066Y-80733497D01*
X162709396Y-80620825D01*
X162709394Y-80620822D01*
X162709394Y-80620821D01*
X162674694Y-80568889D01*
X162653816Y-80502215D01*
X162672300Y-80434835D01*
X162674676Y-80431136D01*
X162709394Y-80379179D01*
X162769737Y-80233497D01*
X162800500Y-80078842D01*
X162800500Y-79921158D01*
X162800500Y-79921155D01*
X162800499Y-79921153D01*
X162769738Y-79766510D01*
X162769737Y-79766503D01*
X162712856Y-79629179D01*
X162709397Y-79620827D01*
X162709390Y-79620814D01*
X162621789Y-79489711D01*
X162621786Y-79489707D01*
X162510292Y-79378213D01*
X162510288Y-79378210D01*
X162379185Y-79290609D01*
X162379172Y-79290602D01*
X162233501Y-79230264D01*
X162233489Y-79230261D01*
X162078845Y-79199500D01*
X162078842Y-79199500D01*
X161921158Y-79199500D01*
X161921155Y-79199500D01*
X161766510Y-79230261D01*
X161766498Y-79230264D01*
X161620827Y-79290602D01*
X161620814Y-79290609D01*
X161489711Y-79378210D01*
X161489707Y-79378213D01*
X161378213Y-79489707D01*
X161378210Y-79489711D01*
X161290609Y-79620814D01*
X161290602Y-79620827D01*
X161230264Y-79766498D01*
X161230261Y-79766510D01*
X161199500Y-79921153D01*
X158000000Y-79921153D01*
X158000000Y-74921153D01*
X161199500Y-74921153D01*
X161199500Y-75078846D01*
X161230261Y-75233489D01*
X161230264Y-75233501D01*
X161290602Y-75379172D01*
X161290609Y-75379185D01*
X161325304Y-75431109D01*
X161346182Y-75497786D01*
X161327698Y-75565167D01*
X161325304Y-75568891D01*
X161290609Y-75620814D01*
X161290602Y-75620827D01*
X161230264Y-75766498D01*
X161230261Y-75766510D01*
X161199500Y-75921153D01*
X161199500Y-76078846D01*
X161230261Y-76233489D01*
X161230264Y-76233501D01*
X161290602Y-76379172D01*
X161290609Y-76379185D01*
X161325304Y-76431109D01*
X161346182Y-76497786D01*
X161327698Y-76565167D01*
X161325304Y-76568891D01*
X161290609Y-76620814D01*
X161290602Y-76620827D01*
X161230264Y-76766498D01*
X161230261Y-76766510D01*
X161199500Y-76921153D01*
X161199500Y-77078846D01*
X161230261Y-77233489D01*
X161230264Y-77233501D01*
X161290602Y-77379172D01*
X161290609Y-77379185D01*
X161378210Y-77510288D01*
X161378213Y-77510292D01*
X161489707Y-77621786D01*
X161489711Y-77621789D01*
X161620814Y-77709390D01*
X161620827Y-77709397D01*
X161694013Y-77739711D01*
X161766503Y-77769737D01*
X161906192Y-77797523D01*
X161921153Y-77800499D01*
X161921156Y-77800500D01*
X161921158Y-77800500D01*
X162078844Y-77800500D01*
X162078845Y-77800499D01*
X162233497Y-77769737D01*
X162379179Y-77709394D01*
X162510289Y-77621789D01*
X162621789Y-77510289D01*
X162709394Y-77379179D01*
X162769737Y-77233497D01*
X162800500Y-77078842D01*
X162800500Y-76921158D01*
X162800500Y-76921155D01*
X162800499Y-76921153D01*
X162769738Y-76766510D01*
X162769737Y-76766503D01*
X162709795Y-76621789D01*
X162709396Y-76620825D01*
X162709394Y-76620822D01*
X162709394Y-76620821D01*
X162674694Y-76568889D01*
X162653816Y-76502215D01*
X162672300Y-76434835D01*
X162674676Y-76431136D01*
X162709394Y-76379179D01*
X162769737Y-76233497D01*
X162800500Y-76078842D01*
X162800500Y-75921158D01*
X162800500Y-75921155D01*
X162800499Y-75921153D01*
X162769738Y-75766510D01*
X162769737Y-75766503D01*
X162741984Y-75699500D01*
X162709396Y-75620825D01*
X162709394Y-75620822D01*
X162709394Y-75620821D01*
X162674694Y-75568889D01*
X162653816Y-75502215D01*
X162672300Y-75434835D01*
X162674676Y-75431136D01*
X162709394Y-75379179D01*
X162769737Y-75233497D01*
X162800500Y-75078842D01*
X162800500Y-74921158D01*
X162800500Y-74921155D01*
X162800499Y-74921153D01*
X162769738Y-74766510D01*
X162769737Y-74766503D01*
X162761661Y-74747006D01*
X162709397Y-74620827D01*
X162709390Y-74620814D01*
X162621789Y-74489711D01*
X162621786Y-74489707D01*
X162510292Y-74378213D01*
X162510288Y-74378210D01*
X162379185Y-74290609D01*
X162379172Y-74290602D01*
X162233501Y-74230264D01*
X162233489Y-74230261D01*
X162078845Y-74199500D01*
X162078842Y-74199500D01*
X161921158Y-74199500D01*
X161921155Y-74199500D01*
X161766510Y-74230261D01*
X161766498Y-74230264D01*
X161620827Y-74290602D01*
X161620814Y-74290609D01*
X161489711Y-74378210D01*
X161489707Y-74378213D01*
X161378213Y-74489707D01*
X161378210Y-74489711D01*
X161290609Y-74620814D01*
X161290602Y-74620827D01*
X161230264Y-74766498D01*
X161230261Y-74766510D01*
X161199500Y-74921153D01*
X158000000Y-74921153D01*
X158000000Y-71917947D01*
X158019685Y-71850908D01*
X158072489Y-71805153D01*
X158099809Y-71796330D01*
X158168435Y-71782678D01*
X158233497Y-71769737D01*
X158379179Y-71709394D01*
X158431110Y-71674694D01*
X158497785Y-71653816D01*
X158565165Y-71672300D01*
X158568863Y-71674676D01*
X158620821Y-71709394D01*
X158620823Y-71709395D01*
X158620825Y-71709396D01*
X158692615Y-71739132D01*
X158766503Y-71769737D01*
X158900194Y-71796330D01*
X158921153Y-71800499D01*
X158921156Y-71800500D01*
X158921158Y-71800500D01*
X159078844Y-71800500D01*
X159078845Y-71800499D01*
X159233497Y-71769737D01*
X159379179Y-71709394D01*
X159431110Y-71674694D01*
X159497785Y-71653816D01*
X159565165Y-71672300D01*
X159568863Y-71674676D01*
X159620821Y-71709394D01*
X159620823Y-71709395D01*
X159620825Y-71709396D01*
X159692615Y-71739132D01*
X159766503Y-71769737D01*
X159900194Y-71796330D01*
X159921153Y-71800499D01*
X159921156Y-71800500D01*
X159921158Y-71800500D01*
X160078844Y-71800500D01*
X160078845Y-71800499D01*
X160233497Y-71769737D01*
X160379179Y-71709394D01*
X160431110Y-71674694D01*
X160497785Y-71653816D01*
X160565165Y-71672300D01*
X160568863Y-71674676D01*
X160620821Y-71709394D01*
X160620823Y-71709395D01*
X160620825Y-71709396D01*
X160692615Y-71739132D01*
X160766503Y-71769737D01*
X160900194Y-71796330D01*
X160921153Y-71800499D01*
X160921156Y-71800500D01*
X160921158Y-71800500D01*
X161078844Y-71800500D01*
X161078845Y-71800499D01*
X161233497Y-71769737D01*
X161379179Y-71709394D01*
X161431110Y-71674694D01*
X161497785Y-71653816D01*
X161565165Y-71672300D01*
X161568863Y-71674676D01*
X161620821Y-71709394D01*
X161620823Y-71709395D01*
X161620825Y-71709396D01*
X161692615Y-71739132D01*
X161766503Y-71769737D01*
X161900194Y-71796330D01*
X161921153Y-71800499D01*
X161921156Y-71800500D01*
X161921158Y-71800500D01*
X162078844Y-71800500D01*
X162078845Y-71800499D01*
X162233497Y-71769737D01*
X162379179Y-71709394D01*
X162431110Y-71674694D01*
X162497785Y-71653816D01*
X162565165Y-71672300D01*
X162568863Y-71674676D01*
X162620821Y-71709394D01*
X162620823Y-71709395D01*
X162620825Y-71709396D01*
X162692615Y-71739132D01*
X162766503Y-71769737D01*
X162900194Y-71796330D01*
X162921153Y-71800499D01*
X162921156Y-71800500D01*
X162921158Y-71800500D01*
X163078844Y-71800500D01*
X163078845Y-71800499D01*
X163233497Y-71769737D01*
X163379179Y-71709394D01*
X163510289Y-71621789D01*
X163621789Y-71510289D01*
X163709394Y-71379179D01*
X163769737Y-71233497D01*
X163800500Y-71078842D01*
X163800500Y-70921158D01*
X163800500Y-70921155D01*
X163800499Y-70921153D01*
X163769738Y-70766510D01*
X163769737Y-70766503D01*
X163769735Y-70766498D01*
X163709396Y-70620825D01*
X163709394Y-70620822D01*
X163709394Y-70620821D01*
X163674694Y-70568889D01*
X163653816Y-70502215D01*
X163672300Y-70434835D01*
X163674676Y-70431136D01*
X163709394Y-70379179D01*
X163769737Y-70233497D01*
X163800500Y-70078842D01*
X163800500Y-69921158D01*
X163800500Y-69921155D01*
X163800499Y-69921153D01*
X163769738Y-69766510D01*
X163769737Y-69766503D01*
X163769735Y-69766498D01*
X163709396Y-69620825D01*
X163709394Y-69620822D01*
X163709394Y-69620821D01*
X163674694Y-69568889D01*
X163653816Y-69502215D01*
X163672300Y-69434835D01*
X163674676Y-69431136D01*
X163709394Y-69379179D01*
X163769737Y-69233497D01*
X163800500Y-69078842D01*
X163800500Y-68921158D01*
X163800500Y-68921155D01*
X163800499Y-68921153D01*
X163769738Y-68766510D01*
X163769737Y-68766503D01*
X163734357Y-68681087D01*
X163709397Y-68620827D01*
X163709390Y-68620814D01*
X163621789Y-68489711D01*
X163621786Y-68489707D01*
X163510292Y-68378213D01*
X163510288Y-68378210D01*
X163379185Y-68290609D01*
X163379172Y-68290602D01*
X163233501Y-68230264D01*
X163233489Y-68230261D01*
X163078845Y-68199500D01*
X163078842Y-68199500D01*
X162921158Y-68199500D01*
X162921155Y-68199500D01*
X162766510Y-68230261D01*
X162766498Y-68230264D01*
X162620827Y-68290602D01*
X162620814Y-68290609D01*
X162568891Y-68325304D01*
X162502214Y-68346182D01*
X162434833Y-68327698D01*
X162431109Y-68325304D01*
X162379185Y-68290609D01*
X162379172Y-68290602D01*
X162233501Y-68230264D01*
X162233489Y-68230261D01*
X162078845Y-68199500D01*
X162078842Y-68199500D01*
X161921158Y-68199500D01*
X161921155Y-68199500D01*
X161766510Y-68230261D01*
X161766498Y-68230264D01*
X161620827Y-68290602D01*
X161620814Y-68290609D01*
X161568891Y-68325304D01*
X161502214Y-68346182D01*
X161434833Y-68327698D01*
X161431109Y-68325304D01*
X161379185Y-68290609D01*
X161379172Y-68290602D01*
X161233501Y-68230264D01*
X161233489Y-68230261D01*
X161078845Y-68199500D01*
X161078842Y-68199500D01*
X160921158Y-68199500D01*
X160921155Y-68199500D01*
X160766510Y-68230261D01*
X160766498Y-68230264D01*
X160620827Y-68290602D01*
X160620814Y-68290609D01*
X160568891Y-68325304D01*
X160502214Y-68346182D01*
X160434833Y-68327698D01*
X160431109Y-68325304D01*
X160379185Y-68290609D01*
X160379172Y-68290602D01*
X160233501Y-68230264D01*
X160233489Y-68230261D01*
X160078845Y-68199500D01*
X160078842Y-68199500D01*
X159921158Y-68199500D01*
X159921155Y-68199500D01*
X159766510Y-68230261D01*
X159766498Y-68230264D01*
X159620827Y-68290602D01*
X159620814Y-68290609D01*
X159568891Y-68325304D01*
X159502214Y-68346182D01*
X159434833Y-68327698D01*
X159431109Y-68325304D01*
X159379185Y-68290609D01*
X159379172Y-68290602D01*
X159233501Y-68230264D01*
X159233489Y-68230261D01*
X159078845Y-68199500D01*
X159078842Y-68199500D01*
X158921158Y-68199500D01*
X158921155Y-68199500D01*
X158766510Y-68230261D01*
X158766498Y-68230264D01*
X158620827Y-68290602D01*
X158620814Y-68290609D01*
X158568891Y-68325304D01*
X158502214Y-68346182D01*
X158434833Y-68327698D01*
X158431109Y-68325304D01*
X158379185Y-68290609D01*
X158379172Y-68290602D01*
X158233501Y-68230264D01*
X158233491Y-68230261D01*
X158099808Y-68203669D01*
X158037897Y-68171284D01*
X158003323Y-68110568D01*
X158000000Y-68082052D01*
X158000000Y-67000000D01*
X142000000Y-67000000D01*
X142000000Y-68082052D01*
X141980315Y-68149091D01*
X141927511Y-68194846D01*
X141900192Y-68203669D01*
X141766508Y-68230261D01*
X141766498Y-68230264D01*
X141620827Y-68290602D01*
X141620814Y-68290609D01*
X141568891Y-68325304D01*
X141502214Y-68346182D01*
X141434833Y-68327698D01*
X141431109Y-68325304D01*
X141379185Y-68290609D01*
X141379172Y-68290602D01*
X141233501Y-68230264D01*
X141233489Y-68230261D01*
X141078845Y-68199500D01*
X141078842Y-68199500D01*
X140921158Y-68199500D01*
X140921155Y-68199500D01*
X140766510Y-68230261D01*
X140766498Y-68230264D01*
X140620827Y-68290602D01*
X140620814Y-68290609D01*
X140568891Y-68325304D01*
X140502214Y-68346182D01*
X140434833Y-68327698D01*
X140431109Y-68325304D01*
X140379185Y-68290609D01*
X140379172Y-68290602D01*
X140233501Y-68230264D01*
X140233489Y-68230261D01*
X140078845Y-68199500D01*
X140078842Y-68199500D01*
X139921158Y-68199500D01*
X139921155Y-68199500D01*
X139766510Y-68230261D01*
X139766498Y-68230264D01*
X139620827Y-68290602D01*
X139620814Y-68290609D01*
X139568891Y-68325304D01*
X139502214Y-68346182D01*
X139434833Y-68327698D01*
X139431109Y-68325304D01*
X139379185Y-68290609D01*
X139379172Y-68290602D01*
X139233501Y-68230264D01*
X139233489Y-68230261D01*
X139078845Y-68199500D01*
X139078842Y-68199500D01*
X138921158Y-68199500D01*
X138921155Y-68199500D01*
X138766510Y-68230261D01*
X138766498Y-68230264D01*
X138620827Y-68290602D01*
X138620814Y-68290609D01*
X138568891Y-68325304D01*
X138502214Y-68346182D01*
X138434833Y-68327698D01*
X138431109Y-68325304D01*
X138379185Y-68290609D01*
X138379172Y-68290602D01*
X138233501Y-68230264D01*
X138233489Y-68230261D01*
X138078845Y-68199500D01*
X138078842Y-68199500D01*
X137921158Y-68199500D01*
X137921155Y-68199500D01*
X137766510Y-68230261D01*
X137766498Y-68230264D01*
X137620827Y-68290602D01*
X137620814Y-68290609D01*
X137568891Y-68325304D01*
X137502214Y-68346182D01*
X137434833Y-68327698D01*
X137431109Y-68325304D01*
X137379185Y-68290609D01*
X137379172Y-68290602D01*
X137233501Y-68230264D01*
X137233489Y-68230261D01*
X137078845Y-68199500D01*
X137078842Y-68199500D01*
X136921158Y-68199500D01*
X136921155Y-68199500D01*
X136766510Y-68230261D01*
X136766498Y-68230264D01*
X136620827Y-68290602D01*
X136620814Y-68290609D01*
X136489711Y-68378210D01*
X136489707Y-68378213D01*
X136378213Y-68489707D01*
X136378210Y-68489711D01*
X136290609Y-68620814D01*
X136290602Y-68620827D01*
X136230264Y-68766498D01*
X136230261Y-68766510D01*
X136199500Y-68921153D01*
X136199500Y-69078846D01*
X136230261Y-69233489D01*
X136230264Y-69233501D01*
X136290602Y-69379172D01*
X136290609Y-69379185D01*
X136325304Y-69431109D01*
X136346182Y-69497786D01*
X136327698Y-69565167D01*
X136325304Y-69568891D01*
X136290609Y-69620814D01*
X136290602Y-69620827D01*
X136230264Y-69766498D01*
X136230261Y-69766510D01*
X136199500Y-69921153D01*
X136199500Y-70078846D01*
X136230261Y-70233489D01*
X136230264Y-70233501D01*
X136290602Y-70379172D01*
X136290609Y-70379185D01*
X136325304Y-70431109D01*
X136346182Y-70497786D01*
X136327698Y-70565167D01*
X136325304Y-70568891D01*
X136290609Y-70620814D01*
X136290602Y-70620827D01*
X136230264Y-70766498D01*
X136230261Y-70766510D01*
X136199500Y-70921153D01*
X136199500Y-71078846D01*
X136230261Y-71233489D01*
X136230264Y-71233501D01*
X136290602Y-71379172D01*
X136290609Y-71379185D01*
X136378210Y-71510288D01*
X136378213Y-71510292D01*
X136489707Y-71621786D01*
X136489711Y-71621789D01*
X136620814Y-71709390D01*
X136620827Y-71709397D01*
X136692615Y-71739132D01*
X136766503Y-71769737D01*
X136900194Y-71796330D01*
X136921153Y-71800499D01*
X136921156Y-71800500D01*
X136921158Y-71800500D01*
X137078844Y-71800500D01*
X137078845Y-71800499D01*
X137233497Y-71769737D01*
X137379179Y-71709394D01*
X137431110Y-71674694D01*
X137497785Y-71653816D01*
X137565165Y-71672300D01*
X137568863Y-71674676D01*
X137620821Y-71709394D01*
X137620823Y-71709395D01*
X137620825Y-71709396D01*
X137692615Y-71739132D01*
X137766503Y-71769737D01*
X137900194Y-71796330D01*
X137921153Y-71800499D01*
X137921156Y-71800500D01*
X137921158Y-71800500D01*
X138078844Y-71800500D01*
X138078845Y-71800499D01*
X138233497Y-71769737D01*
X138379179Y-71709394D01*
X138431110Y-71674694D01*
X138497785Y-71653816D01*
X138565165Y-71672300D01*
X138568863Y-71674676D01*
X138620821Y-71709394D01*
X138620823Y-71709395D01*
X138620825Y-71709396D01*
X138692615Y-71739132D01*
X138766503Y-71769737D01*
X138900194Y-71796330D01*
X138921153Y-71800499D01*
X138921156Y-71800500D01*
X138921158Y-71800500D01*
X139078844Y-71800500D01*
X139078845Y-71800499D01*
X139233497Y-71769737D01*
X139379179Y-71709394D01*
X139431110Y-71674694D01*
X139497785Y-71653816D01*
X139565165Y-71672300D01*
X139568863Y-71674676D01*
X139620821Y-71709394D01*
X139620823Y-71709395D01*
X139620825Y-71709396D01*
X139692615Y-71739132D01*
X139766503Y-71769737D01*
X139900194Y-71796330D01*
X139921153Y-71800499D01*
X139921156Y-71800500D01*
X139921158Y-71800500D01*
X140078844Y-71800500D01*
X140078845Y-71800499D01*
X140233497Y-71769737D01*
X140379179Y-71709394D01*
X140431110Y-71674694D01*
X140497785Y-71653816D01*
X140565165Y-71672300D01*
X140568863Y-71674676D01*
X140620821Y-71709394D01*
X140620823Y-71709395D01*
X140620825Y-71709396D01*
X140692615Y-71739132D01*
X140766503Y-71769737D01*
X140900194Y-71796330D01*
X140921153Y-71800499D01*
X140921156Y-71800500D01*
X140921158Y-71800500D01*
X141078844Y-71800500D01*
X141078845Y-71800499D01*
X141233497Y-71769737D01*
X141379179Y-71709394D01*
X141431110Y-71674694D01*
X141497785Y-71653816D01*
X141565165Y-71672300D01*
X141568863Y-71674676D01*
X141620821Y-71709394D01*
X141620823Y-71709395D01*
X141620825Y-71709396D01*
X141692615Y-71739132D01*
X141766503Y-71769737D01*
X141818130Y-71780006D01*
X141900191Y-71796330D01*
X141962102Y-71828715D01*
X141996677Y-71889431D01*
X142000000Y-71917947D01*
X142000000Y-102876000D01*
X141980315Y-102943039D01*
X141927511Y-102988794D01*
X141876000Y-103000000D01*
X138300983Y-103000000D01*
X138233944Y-102980315D01*
X138188189Y-102927511D01*
X138178245Y-102858353D01*
X138207270Y-102794797D01*
X138253531Y-102761439D01*
X138379172Y-102709397D01*
X138379172Y-102709396D01*
X138379179Y-102709394D01*
X138510289Y-102621789D01*
X138621789Y-102510289D01*
X138709394Y-102379179D01*
X138769737Y-102233497D01*
X138800500Y-102078842D01*
X138800500Y-101921158D01*
X138800500Y-101921155D01*
X138800499Y-101921153D01*
X138792150Y-101879179D01*
X138769737Y-101766503D01*
X138745892Y-101708935D01*
X138709396Y-101620825D01*
X138709394Y-101620822D01*
X138709394Y-101620821D01*
X138674694Y-101568889D01*
X138653816Y-101502215D01*
X138672300Y-101434835D01*
X138674676Y-101431136D01*
X138709394Y-101379179D01*
X138769737Y-101233497D01*
X138800500Y-101078842D01*
X138800500Y-100921158D01*
X138800500Y-100921155D01*
X138800499Y-100921153D01*
X138769738Y-100766510D01*
X138769737Y-100766503D01*
X138742529Y-100700816D01*
X138709396Y-100620825D01*
X138709394Y-100620822D01*
X138709394Y-100620821D01*
X138674694Y-100568889D01*
X138653816Y-100502215D01*
X138672300Y-100434835D01*
X138674676Y-100431136D01*
X138709394Y-100379179D01*
X138769737Y-100233497D01*
X138800500Y-100078842D01*
X138800500Y-99921158D01*
X138800500Y-99921155D01*
X138800499Y-99921153D01*
X138769738Y-99766510D01*
X138769737Y-99766503D01*
X138709795Y-99621789D01*
X138709397Y-99620827D01*
X138709390Y-99620814D01*
X138621789Y-99489711D01*
X138621786Y-99489707D01*
X138510292Y-99378213D01*
X138510288Y-99378210D01*
X138379185Y-99290609D01*
X138379172Y-99290602D01*
X138233501Y-99230264D01*
X138233489Y-99230261D01*
X138078845Y-99199500D01*
X138078842Y-99199500D01*
X137921158Y-99199500D01*
X137921155Y-99199500D01*
X137766510Y-99230261D01*
X137766498Y-99230264D01*
X137620827Y-99290602D01*
X137620814Y-99290609D01*
X137489711Y-99378210D01*
X137489707Y-99378213D01*
X137378213Y-99489707D01*
X137378210Y-99489711D01*
X137290609Y-99620814D01*
X137290602Y-99620827D01*
X137230264Y-99766498D01*
X137230261Y-99766510D01*
X137199500Y-99921153D01*
X137199500Y-100078846D01*
X137230261Y-100233489D01*
X137230264Y-100233501D01*
X137290602Y-100379172D01*
X137290609Y-100379185D01*
X137325304Y-100431109D01*
X137346182Y-100497786D01*
X137327698Y-100565167D01*
X137325304Y-100568891D01*
X137290609Y-100620814D01*
X137290602Y-100620827D01*
X137230264Y-100766498D01*
X137230261Y-100766510D01*
X137199500Y-100921153D01*
X137199500Y-101078846D01*
X137230261Y-101233489D01*
X137230264Y-101233501D01*
X137290602Y-101379172D01*
X137290609Y-101379185D01*
X137325304Y-101431109D01*
X137346182Y-101497786D01*
X137327698Y-101565167D01*
X137325304Y-101568891D01*
X137290609Y-101620814D01*
X137290602Y-101620827D01*
X137230264Y-101766498D01*
X137230261Y-101766510D01*
X137199500Y-101921153D01*
X137199500Y-102078846D01*
X137230261Y-102233489D01*
X137230264Y-102233501D01*
X137290602Y-102379172D01*
X137290609Y-102379185D01*
X137378210Y-102510288D01*
X137378213Y-102510292D01*
X137489707Y-102621786D01*
X137489711Y-102621789D01*
X137620814Y-102709390D01*
X137620827Y-102709397D01*
X137746469Y-102761439D01*
X137800873Y-102805280D01*
X137822938Y-102871574D01*
X137805659Y-102939273D01*
X137754522Y-102986884D01*
X137699017Y-103000000D01*
X129124000Y-103000000D01*
X129056961Y-102980315D01*
X129011206Y-102927511D01*
X129000000Y-102876000D01*
X129000000Y-94921153D01*
X137199500Y-94921153D01*
X137199500Y-95078846D01*
X137230261Y-95233489D01*
X137230264Y-95233501D01*
X137290602Y-95379172D01*
X137290609Y-95379185D01*
X137325304Y-95431109D01*
X137346182Y-95497786D01*
X137327698Y-95565167D01*
X137325304Y-95568891D01*
X137290609Y-95620814D01*
X137290602Y-95620827D01*
X137230264Y-95766498D01*
X137230261Y-95766510D01*
X137199500Y-95921153D01*
X137199500Y-96078846D01*
X137230261Y-96233489D01*
X137230264Y-96233501D01*
X137290602Y-96379172D01*
X137290609Y-96379185D01*
X137325304Y-96431109D01*
X137346182Y-96497786D01*
X137327698Y-96565167D01*
X137325304Y-96568891D01*
X137290609Y-96620814D01*
X137290602Y-96620827D01*
X137230264Y-96766498D01*
X137230261Y-96766510D01*
X137199500Y-96921153D01*
X137199500Y-97078846D01*
X137230261Y-97233489D01*
X137230264Y-97233501D01*
X137290602Y-97379172D01*
X137290609Y-97379185D01*
X137378210Y-97510288D01*
X137378213Y-97510292D01*
X137489707Y-97621786D01*
X137489711Y-97621789D01*
X137620814Y-97709390D01*
X137620827Y-97709397D01*
X137766498Y-97769735D01*
X137766503Y-97769737D01*
X137906192Y-97797523D01*
X137921153Y-97800499D01*
X137921156Y-97800500D01*
X137921158Y-97800500D01*
X138078844Y-97800500D01*
X138078845Y-97800499D01*
X138233497Y-97769737D01*
X138379179Y-97709394D01*
X138510289Y-97621789D01*
X138621789Y-97510289D01*
X138709394Y-97379179D01*
X138769737Y-97233497D01*
X138800500Y-97078842D01*
X138800500Y-96921158D01*
X138800500Y-96921155D01*
X138800499Y-96921153D01*
X138769738Y-96766510D01*
X138769737Y-96766503D01*
X138729656Y-96669737D01*
X138709396Y-96620825D01*
X138709394Y-96620822D01*
X138709394Y-96620821D01*
X138674694Y-96568889D01*
X138653816Y-96502215D01*
X138672300Y-96434835D01*
X138674676Y-96431136D01*
X138709394Y-96379179D01*
X138769737Y-96233497D01*
X138800500Y-96078842D01*
X138800500Y-95921158D01*
X138800500Y-95921155D01*
X138800499Y-95921153D01*
X138786842Y-95852494D01*
X138769737Y-95766503D01*
X138769735Y-95766498D01*
X138709396Y-95620825D01*
X138709394Y-95620822D01*
X138709394Y-95620821D01*
X138674694Y-95568889D01*
X138653816Y-95502215D01*
X138672300Y-95434835D01*
X138674676Y-95431136D01*
X138709394Y-95379179D01*
X138769737Y-95233497D01*
X138800500Y-95078842D01*
X138800500Y-94921158D01*
X138800500Y-94921155D01*
X138800499Y-94921153D01*
X138769738Y-94766510D01*
X138769737Y-94766503D01*
X138761661Y-94747006D01*
X138709397Y-94620827D01*
X138709390Y-94620814D01*
X138621789Y-94489711D01*
X138621786Y-94489707D01*
X138510292Y-94378213D01*
X138510288Y-94378210D01*
X138379185Y-94290609D01*
X138379172Y-94290602D01*
X138233501Y-94230264D01*
X138233489Y-94230261D01*
X138078845Y-94199500D01*
X138078842Y-94199500D01*
X137921158Y-94199500D01*
X137921155Y-94199500D01*
X137766510Y-94230261D01*
X137766498Y-94230264D01*
X137620827Y-94290602D01*
X137620814Y-94290609D01*
X137489711Y-94378210D01*
X137489707Y-94378213D01*
X137378213Y-94489707D01*
X137378210Y-94489711D01*
X137290609Y-94620814D01*
X137290602Y-94620827D01*
X137230264Y-94766498D01*
X137230261Y-94766510D01*
X137199500Y-94921153D01*
X129000000Y-94921153D01*
X129000000Y-90821153D01*
X136899500Y-90821153D01*
X136899500Y-90978846D01*
X136930261Y-91133489D01*
X136930264Y-91133501D01*
X136990602Y-91279172D01*
X136990609Y-91279185D01*
X137078210Y-91410288D01*
X137078213Y-91410292D01*
X137189707Y-91521786D01*
X137189711Y-91521789D01*
X137320814Y-91609390D01*
X137320827Y-91609397D01*
X137466498Y-91669735D01*
X137466503Y-91669737D01*
X137616131Y-91699500D01*
X137621153Y-91700499D01*
X137621156Y-91700500D01*
X137621158Y-91700500D01*
X137778844Y-91700500D01*
X137778845Y-91700499D01*
X137933497Y-91669737D01*
X138079179Y-91609394D01*
X138210289Y-91521789D01*
X138321789Y-91410289D01*
X138409394Y-91279179D01*
X138469737Y-91133497D01*
X138500500Y-90978842D01*
X138500500Y-90821158D01*
X138500500Y-90821155D01*
X138500499Y-90821153D01*
X138471375Y-90674738D01*
X138469737Y-90666503D01*
X138448151Y-90614390D01*
X138409397Y-90520827D01*
X138409390Y-90520814D01*
X138321789Y-90389711D01*
X138321786Y-90389707D01*
X138210292Y-90278213D01*
X138210288Y-90278210D01*
X138079185Y-90190609D01*
X138079172Y-90190602D01*
X137933501Y-90130264D01*
X137933489Y-90130261D01*
X137778845Y-90099500D01*
X137778842Y-90099500D01*
X137621158Y-90099500D01*
X137621155Y-90099500D01*
X137466510Y-90130261D01*
X137466498Y-90130264D01*
X137320827Y-90190602D01*
X137320814Y-90190609D01*
X137189711Y-90278210D01*
X137189707Y-90278213D01*
X137078213Y-90389707D01*
X137078210Y-90389711D01*
X136990609Y-90520814D01*
X136990602Y-90520827D01*
X136930264Y-90666498D01*
X136930261Y-90666510D01*
X136899500Y-90821153D01*
X129000000Y-90821153D01*
X129000000Y-89826153D01*
X139299500Y-89826153D01*
X139299500Y-89983846D01*
X139330261Y-90138489D01*
X139330264Y-90138501D01*
X139390602Y-90284172D01*
X139390609Y-90284185D01*
X139478210Y-90415288D01*
X139478213Y-90415292D01*
X139589707Y-90526786D01*
X139589711Y-90526789D01*
X139720814Y-90614390D01*
X139720827Y-90614397D01*
X139846612Y-90666498D01*
X139866503Y-90674737D01*
X140021153Y-90705499D01*
X140021156Y-90705500D01*
X140021158Y-90705500D01*
X140178844Y-90705500D01*
X140178845Y-90705499D01*
X140333497Y-90674737D01*
X140479179Y-90614394D01*
X140610289Y-90526789D01*
X140721789Y-90415289D01*
X140809394Y-90284179D01*
X140811867Y-90278210D01*
X140823067Y-90251166D01*
X140869737Y-90138497D01*
X140900500Y-89983842D01*
X140900500Y-89826158D01*
X140900500Y-89826155D01*
X140900499Y-89826153D01*
X140869738Y-89671510D01*
X140869737Y-89671503D01*
X140869735Y-89671498D01*
X140809397Y-89525827D01*
X140809390Y-89525814D01*
X140721789Y-89394711D01*
X140721786Y-89394707D01*
X140610292Y-89283213D01*
X140610288Y-89283210D01*
X140479185Y-89195609D01*
X140479172Y-89195602D01*
X140333501Y-89135264D01*
X140333489Y-89135261D01*
X140178845Y-89104500D01*
X140178842Y-89104500D01*
X140021158Y-89104500D01*
X140021155Y-89104500D01*
X139866510Y-89135261D01*
X139866498Y-89135264D01*
X139720827Y-89195602D01*
X139720814Y-89195609D01*
X139589711Y-89283210D01*
X139589707Y-89283213D01*
X139478213Y-89394707D01*
X139478210Y-89394711D01*
X139390609Y-89525814D01*
X139390602Y-89525827D01*
X139330264Y-89671498D01*
X139330261Y-89671510D01*
X139299500Y-89826153D01*
X129000000Y-89826153D01*
X129000000Y-86844927D01*
X129019685Y-86777888D01*
X129072489Y-86732133D01*
X129141647Y-86722189D01*
X129171450Y-86730365D01*
X129266503Y-86769737D01*
X129421153Y-86800499D01*
X129421156Y-86800500D01*
X129421158Y-86800500D01*
X129578844Y-86800500D01*
X129578845Y-86800499D01*
X129733497Y-86769737D01*
X129879179Y-86709394D01*
X130010289Y-86621789D01*
X130121789Y-86510289D01*
X130209394Y-86379179D01*
X130269737Y-86233497D01*
X130300500Y-86078842D01*
X130300500Y-85921158D01*
X130300500Y-85921155D01*
X130300499Y-85921153D01*
X130269738Y-85766510D01*
X130269737Y-85766503D01*
X130233166Y-85678211D01*
X130209397Y-85620827D01*
X130209390Y-85620814D01*
X130121789Y-85489711D01*
X130121786Y-85489707D01*
X130010292Y-85378213D01*
X130010288Y-85378210D01*
X129879185Y-85290609D01*
X129879172Y-85290602D01*
X129733501Y-85230264D01*
X129733489Y-85230261D01*
X129578845Y-85199500D01*
X129578842Y-85199500D01*
X129421158Y-85199500D01*
X129421155Y-85199500D01*
X129266510Y-85230261D01*
X129266507Y-85230262D01*
X129266506Y-85230262D01*
X129266503Y-85230263D01*
X129185410Y-85263852D01*
X129171452Y-85269634D01*
X129101982Y-85277102D01*
X129039503Y-85245826D01*
X129003851Y-85185737D01*
X129000000Y-85155072D01*
X129000000Y-79921153D01*
X137199500Y-79921153D01*
X137199500Y-80078846D01*
X137230261Y-80233489D01*
X137230264Y-80233501D01*
X137290602Y-80379172D01*
X137290609Y-80379185D01*
X137325304Y-80431109D01*
X137346182Y-80497786D01*
X137327698Y-80565167D01*
X137325304Y-80568891D01*
X137290609Y-80620814D01*
X137290602Y-80620827D01*
X137230264Y-80766498D01*
X137230261Y-80766510D01*
X137199500Y-80921153D01*
X137199500Y-81078846D01*
X137230261Y-81233489D01*
X137230264Y-81233501D01*
X137290602Y-81379172D01*
X137290609Y-81379185D01*
X137325304Y-81431109D01*
X137346182Y-81497786D01*
X137327698Y-81565167D01*
X137325304Y-81568891D01*
X137290609Y-81620814D01*
X137290602Y-81620827D01*
X137230264Y-81766498D01*
X137230261Y-81766510D01*
X137199500Y-81921153D01*
X137199500Y-82078846D01*
X137230261Y-82233489D01*
X137230264Y-82233501D01*
X137290602Y-82379172D01*
X137290609Y-82379185D01*
X137378210Y-82510288D01*
X137378213Y-82510292D01*
X137489707Y-82621786D01*
X137489711Y-82621789D01*
X137620814Y-82709390D01*
X137620827Y-82709397D01*
X137766498Y-82769735D01*
X137766503Y-82769737D01*
X137906192Y-82797523D01*
X137921153Y-82800499D01*
X137921156Y-82800500D01*
X137921158Y-82800500D01*
X138078844Y-82800500D01*
X138078845Y-82800499D01*
X138233497Y-82769737D01*
X138379179Y-82709394D01*
X138510289Y-82621789D01*
X138621789Y-82510289D01*
X138709394Y-82379179D01*
X138769737Y-82233497D01*
X138800500Y-82078842D01*
X138800500Y-81921158D01*
X138800500Y-81921155D01*
X138800499Y-81921153D01*
X138769738Y-81766510D01*
X138769737Y-81766503D01*
X138752526Y-81724952D01*
X138709396Y-81620825D01*
X138709394Y-81620822D01*
X138709394Y-81620821D01*
X138674694Y-81568889D01*
X138653816Y-81502215D01*
X138672300Y-81434835D01*
X138674676Y-81431136D01*
X138709394Y-81379179D01*
X138769737Y-81233497D01*
X138800500Y-81078842D01*
X138800500Y-80921158D01*
X138800500Y-80921155D01*
X138800499Y-80921153D01*
X138786842Y-80852494D01*
X138769737Y-80766503D01*
X138756066Y-80733497D01*
X138709396Y-80620825D01*
X138709394Y-80620822D01*
X138709394Y-80620821D01*
X138674694Y-80568889D01*
X138653816Y-80502215D01*
X138672300Y-80434835D01*
X138674676Y-80431136D01*
X138709394Y-80379179D01*
X138769737Y-80233497D01*
X138800500Y-80078842D01*
X138800500Y-79921158D01*
X138800500Y-79921155D01*
X138800499Y-79921153D01*
X138769738Y-79766510D01*
X138769737Y-79766503D01*
X138712856Y-79629179D01*
X138709397Y-79620827D01*
X138709390Y-79620814D01*
X138621789Y-79489711D01*
X138621786Y-79489707D01*
X138510292Y-79378213D01*
X138510288Y-79378210D01*
X138379185Y-79290609D01*
X138379172Y-79290602D01*
X138233501Y-79230264D01*
X138233489Y-79230261D01*
X138078845Y-79199500D01*
X138078842Y-79199500D01*
X137921158Y-79199500D01*
X137921155Y-79199500D01*
X137766510Y-79230261D01*
X137766498Y-79230264D01*
X137620827Y-79290602D01*
X137620814Y-79290609D01*
X137489711Y-79378210D01*
X137489707Y-79378213D01*
X137378213Y-79489707D01*
X137378210Y-79489711D01*
X137290609Y-79620814D01*
X137290602Y-79620827D01*
X137230264Y-79766498D01*
X137230261Y-79766510D01*
X137199500Y-79921153D01*
X129000000Y-79921153D01*
X129000000Y-74921153D01*
X137199500Y-74921153D01*
X137199500Y-75078846D01*
X137230261Y-75233489D01*
X137230264Y-75233501D01*
X137290602Y-75379172D01*
X137290609Y-75379185D01*
X137325304Y-75431109D01*
X137346182Y-75497786D01*
X137327698Y-75565167D01*
X137325304Y-75568891D01*
X137290609Y-75620814D01*
X137290602Y-75620827D01*
X137230264Y-75766498D01*
X137230261Y-75766510D01*
X137199500Y-75921153D01*
X137199500Y-76078846D01*
X137230261Y-76233489D01*
X137230264Y-76233501D01*
X137290602Y-76379172D01*
X137290609Y-76379185D01*
X137325304Y-76431109D01*
X137346182Y-76497786D01*
X137327698Y-76565167D01*
X137325304Y-76568891D01*
X137290609Y-76620814D01*
X137290602Y-76620827D01*
X137230264Y-76766498D01*
X137230261Y-76766510D01*
X137199500Y-76921153D01*
X137199500Y-77078846D01*
X137230261Y-77233489D01*
X137230264Y-77233501D01*
X137290602Y-77379172D01*
X137290609Y-77379185D01*
X137378210Y-77510288D01*
X137378213Y-77510292D01*
X137489707Y-77621786D01*
X137489711Y-77621789D01*
X137620814Y-77709390D01*
X137620827Y-77709397D01*
X137694013Y-77739711D01*
X137766503Y-77769737D01*
X137906192Y-77797523D01*
X137921153Y-77800499D01*
X137921156Y-77800500D01*
X137921158Y-77800500D01*
X138078844Y-77800500D01*
X138078845Y-77800499D01*
X138233497Y-77769737D01*
X138379179Y-77709394D01*
X138510289Y-77621789D01*
X138621789Y-77510289D01*
X138709394Y-77379179D01*
X138769737Y-77233497D01*
X138800500Y-77078842D01*
X138800500Y-76921158D01*
X138800500Y-76921155D01*
X138800499Y-76921153D01*
X138769738Y-76766510D01*
X138769737Y-76766503D01*
X138709795Y-76621789D01*
X138709396Y-76620825D01*
X138709394Y-76620822D01*
X138709394Y-76620821D01*
X138674694Y-76568889D01*
X138653816Y-76502215D01*
X138672300Y-76434835D01*
X138674676Y-76431136D01*
X138709394Y-76379179D01*
X138769737Y-76233497D01*
X138800500Y-76078842D01*
X138800500Y-75921158D01*
X138800500Y-75921155D01*
X138800499Y-75921153D01*
X138769738Y-75766510D01*
X138769737Y-75766503D01*
X138741984Y-75699500D01*
X138709396Y-75620825D01*
X138709394Y-75620822D01*
X138709394Y-75620821D01*
X138674694Y-75568889D01*
X138653816Y-75502215D01*
X138672300Y-75434835D01*
X138674676Y-75431136D01*
X138709394Y-75379179D01*
X138769737Y-75233497D01*
X138800500Y-75078842D01*
X138800500Y-74921158D01*
X138800500Y-74921155D01*
X138800499Y-74921153D01*
X138769738Y-74766510D01*
X138769737Y-74766503D01*
X138761661Y-74747006D01*
X138709397Y-74620827D01*
X138709390Y-74620814D01*
X138621789Y-74489711D01*
X138621786Y-74489707D01*
X138510292Y-74378213D01*
X138510288Y-74378210D01*
X138379185Y-74290609D01*
X138379172Y-74290602D01*
X138233501Y-74230264D01*
X138233489Y-74230261D01*
X138078845Y-74199500D01*
X138078842Y-74199500D01*
X137921158Y-74199500D01*
X137921155Y-74199500D01*
X137766510Y-74230261D01*
X137766498Y-74230264D01*
X137620827Y-74290602D01*
X137620814Y-74290609D01*
X137489711Y-74378210D01*
X137489707Y-74378213D01*
X137378213Y-74489707D01*
X137378210Y-74489711D01*
X137290609Y-74620814D01*
X137290602Y-74620827D01*
X137230264Y-74766498D01*
X137230261Y-74766510D01*
X137199500Y-74921153D01*
X129000000Y-74921153D01*
X129000000Y-73112730D01*
X129006689Y-73089948D01*
X129009013Y-73066320D01*
X129017309Y-73053780D01*
X129019685Y-73045691D01*
X129026746Y-73035804D01*
X129031219Y-73030148D01*
X129082952Y-72978416D01*
X129139018Y-72894505D01*
X129165084Y-72855495D01*
X129221658Y-72718913D01*
X129250500Y-72573918D01*
X129250500Y-62921153D01*
X136199500Y-62921153D01*
X136199500Y-63078846D01*
X136230261Y-63233489D01*
X136230264Y-63233501D01*
X136290602Y-63379172D01*
X136290609Y-63379185D01*
X136325304Y-63431109D01*
X136346182Y-63497786D01*
X136327698Y-63565167D01*
X136325304Y-63568891D01*
X136290609Y-63620814D01*
X136290602Y-63620827D01*
X136230264Y-63766498D01*
X136230261Y-63766510D01*
X136199500Y-63921153D01*
X136199500Y-64078846D01*
X136230261Y-64233489D01*
X136230264Y-64233501D01*
X136290602Y-64379172D01*
X136290609Y-64379185D01*
X136325304Y-64431109D01*
X136346182Y-64497786D01*
X136327698Y-64565167D01*
X136325304Y-64568891D01*
X136290609Y-64620814D01*
X136290602Y-64620827D01*
X136230264Y-64766498D01*
X136230261Y-64766510D01*
X136199500Y-64921153D01*
X136199500Y-65078846D01*
X136230261Y-65233489D01*
X136230264Y-65233501D01*
X136290602Y-65379172D01*
X136290609Y-65379185D01*
X136378210Y-65510288D01*
X136378213Y-65510292D01*
X136489707Y-65621786D01*
X136489711Y-65621789D01*
X136620814Y-65709390D01*
X136620827Y-65709397D01*
X136738703Y-65758222D01*
X136766503Y-65769737D01*
X136906192Y-65797523D01*
X136921153Y-65800499D01*
X136921156Y-65800500D01*
X136921158Y-65800500D01*
X137078844Y-65800500D01*
X137078845Y-65800499D01*
X137233497Y-65769737D01*
X137379179Y-65709394D01*
X137431110Y-65674694D01*
X137497785Y-65653816D01*
X137565165Y-65672300D01*
X137568863Y-65674676D01*
X137620821Y-65709394D01*
X137620823Y-65709395D01*
X137620825Y-65709396D01*
X137738703Y-65758222D01*
X137766503Y-65769737D01*
X137906192Y-65797523D01*
X137921153Y-65800499D01*
X137921156Y-65800500D01*
X137921158Y-65800500D01*
X138078844Y-65800500D01*
X138078845Y-65800499D01*
X138233497Y-65769737D01*
X138379179Y-65709394D01*
X138431110Y-65674694D01*
X138497785Y-65653816D01*
X138565165Y-65672300D01*
X138568863Y-65674676D01*
X138620821Y-65709394D01*
X138620823Y-65709395D01*
X138620825Y-65709396D01*
X138738703Y-65758222D01*
X138766503Y-65769737D01*
X138906192Y-65797523D01*
X138921153Y-65800499D01*
X138921156Y-65800500D01*
X138921158Y-65800500D01*
X139078844Y-65800500D01*
X139078845Y-65800499D01*
X139233497Y-65769737D01*
X139379179Y-65709394D01*
X139431110Y-65674694D01*
X139497785Y-65653816D01*
X139565165Y-65672300D01*
X139568863Y-65674676D01*
X139620821Y-65709394D01*
X139620823Y-65709395D01*
X139620825Y-65709396D01*
X139738703Y-65758222D01*
X139766503Y-65769737D01*
X139906192Y-65797523D01*
X139921153Y-65800499D01*
X139921156Y-65800500D01*
X139921158Y-65800500D01*
X140078844Y-65800500D01*
X140078845Y-65800499D01*
X140233497Y-65769737D01*
X140379179Y-65709394D01*
X140431110Y-65674694D01*
X140497785Y-65653816D01*
X140565165Y-65672300D01*
X140568863Y-65674676D01*
X140620821Y-65709394D01*
X140620823Y-65709395D01*
X140620825Y-65709396D01*
X140738703Y-65758222D01*
X140766503Y-65769737D01*
X140906192Y-65797523D01*
X140921153Y-65800499D01*
X140921156Y-65800500D01*
X140921158Y-65800500D01*
X141078844Y-65800500D01*
X141078845Y-65800499D01*
X141233497Y-65769737D01*
X141379179Y-65709394D01*
X141431110Y-65674694D01*
X141497785Y-65653816D01*
X141565165Y-65672300D01*
X141568863Y-65674676D01*
X141620821Y-65709394D01*
X141620823Y-65709395D01*
X141620825Y-65709396D01*
X141738703Y-65758222D01*
X141766503Y-65769737D01*
X141906192Y-65797523D01*
X141921153Y-65800499D01*
X141921156Y-65800500D01*
X141921158Y-65800500D01*
X142078844Y-65800500D01*
X142078845Y-65800499D01*
X142233497Y-65769737D01*
X142379179Y-65709394D01*
X142510289Y-65621789D01*
X142621789Y-65510289D01*
X142709394Y-65379179D01*
X142769737Y-65233497D01*
X142800500Y-65078842D01*
X142800500Y-64921158D01*
X142800500Y-64921155D01*
X142800499Y-64921153D01*
X142769738Y-64766510D01*
X142769737Y-64766503D01*
X142719204Y-64644505D01*
X142709396Y-64620825D01*
X142709394Y-64620822D01*
X142709394Y-64620821D01*
X142674694Y-64568889D01*
X142653816Y-64502215D01*
X142672300Y-64434835D01*
X142674676Y-64431136D01*
X142709394Y-64379179D01*
X142769737Y-64233497D01*
X142800500Y-64078842D01*
X142800500Y-63921158D01*
X142790853Y-63872658D01*
X142790853Y-63872655D01*
X142786850Y-63852533D01*
X145250000Y-63852533D01*
X145250000Y-64147466D01*
X145250001Y-64147483D01*
X145288496Y-64439884D01*
X145288499Y-64439897D01*
X145364835Y-64724790D01*
X145364838Y-64724800D01*
X145477704Y-64997281D01*
X145477709Y-64997292D01*
X145625174Y-65252707D01*
X145625180Y-65252715D01*
X145741777Y-65404667D01*
X146673473Y-64472971D01*
X146762087Y-64605590D01*
X146894410Y-64737913D01*
X147027027Y-64826525D01*
X146095331Y-65758221D01*
X146247284Y-65874819D01*
X146247292Y-65874825D01*
X146502707Y-66022290D01*
X146502718Y-66022295D01*
X146775199Y-66135161D01*
X146775209Y-66135164D01*
X147060102Y-66211500D01*
X147060115Y-66211503D01*
X147352516Y-66249998D01*
X147352534Y-66250000D01*
X147647466Y-66250000D01*
X147647483Y-66249998D01*
X147939884Y-66211503D01*
X147939897Y-66211500D01*
X148224790Y-66135164D01*
X148224800Y-66135161D01*
X148497281Y-66022295D01*
X148497292Y-66022290D01*
X148752707Y-65874825D01*
X148752725Y-65874813D01*
X148904667Y-65758222D01*
X148904667Y-65758220D01*
X147972971Y-64826525D01*
X148105590Y-64737913D01*
X148237913Y-64605590D01*
X148326525Y-64472971D01*
X149258220Y-65404667D01*
X149258222Y-65404667D01*
X149374813Y-65252725D01*
X149374825Y-65252707D01*
X149522290Y-64997292D01*
X149522295Y-64997281D01*
X149635161Y-64724800D01*
X149635164Y-64724790D01*
X149711500Y-64439897D01*
X149711503Y-64439884D01*
X149749998Y-64147483D01*
X149750000Y-64147466D01*
X149750000Y-63852533D01*
X149749998Y-63852516D01*
X149711503Y-63560115D01*
X149711500Y-63560102D01*
X149635164Y-63275209D01*
X149635161Y-63275199D01*
X149522296Y-63002720D01*
X149522290Y-63002707D01*
X149494600Y-62954747D01*
X150249500Y-62954747D01*
X150249500Y-65045238D01*
X150249501Y-65045253D01*
X150252145Y-65078844D01*
X150260070Y-65179553D01*
X150315949Y-65401316D01*
X150356100Y-65489711D01*
X150410528Y-65609537D01*
X150410531Y-65609543D01*
X150540759Y-65797514D01*
X150540763Y-65797519D01*
X150540766Y-65797523D01*
X150702477Y-65959234D01*
X150702481Y-65959237D01*
X150702485Y-65959240D01*
X150890456Y-66089468D01*
X150890462Y-66089471D01*
X150890463Y-66089471D01*
X150890464Y-66089472D01*
X151098684Y-66184051D01*
X151320447Y-66239930D01*
X151454753Y-66250500D01*
X153545246Y-66250499D01*
X153679553Y-66239930D01*
X153901316Y-66184051D01*
X154109536Y-66089472D01*
X154109538Y-66089470D01*
X154109543Y-66089468D01*
X154297514Y-65959240D01*
X154297523Y-65959234D01*
X154459234Y-65797523D01*
X154576221Y-65628663D01*
X154589468Y-65609543D01*
X154589471Y-65609537D01*
X154589472Y-65609536D01*
X154684051Y-65401316D01*
X154739930Y-65179553D01*
X154750500Y-65045247D01*
X154750499Y-62954754D01*
X154747855Y-62921153D01*
X157199500Y-62921153D01*
X157199500Y-63078846D01*
X157230261Y-63233489D01*
X157230264Y-63233501D01*
X157290602Y-63379172D01*
X157290609Y-63379185D01*
X157325304Y-63431109D01*
X157346182Y-63497786D01*
X157327698Y-63565167D01*
X157325304Y-63568891D01*
X157290609Y-63620814D01*
X157290602Y-63620827D01*
X157230264Y-63766498D01*
X157230261Y-63766510D01*
X157199500Y-63921153D01*
X157199500Y-64078846D01*
X157230261Y-64233489D01*
X157230264Y-64233501D01*
X157290602Y-64379172D01*
X157290609Y-64379185D01*
X157325304Y-64431109D01*
X157346182Y-64497786D01*
X157327698Y-64565167D01*
X157325304Y-64568891D01*
X157290609Y-64620814D01*
X157290602Y-64620827D01*
X157230264Y-64766498D01*
X157230261Y-64766510D01*
X157199500Y-64921153D01*
X157199500Y-65078846D01*
X157230261Y-65233489D01*
X157230264Y-65233501D01*
X157290602Y-65379172D01*
X157290609Y-65379185D01*
X157378210Y-65510288D01*
X157378213Y-65510292D01*
X157489707Y-65621786D01*
X157489711Y-65621789D01*
X157620814Y-65709390D01*
X157620827Y-65709397D01*
X157738703Y-65758222D01*
X157766503Y-65769737D01*
X157906192Y-65797523D01*
X157921153Y-65800499D01*
X157921156Y-65800500D01*
X157921158Y-65800500D01*
X158078844Y-65800500D01*
X158078845Y-65800499D01*
X158233497Y-65769737D01*
X158379179Y-65709394D01*
X158431110Y-65674694D01*
X158497785Y-65653816D01*
X158565165Y-65672300D01*
X158568863Y-65674676D01*
X158620821Y-65709394D01*
X158620823Y-65709395D01*
X158620825Y-65709396D01*
X158738703Y-65758222D01*
X158766503Y-65769737D01*
X158906192Y-65797523D01*
X158921153Y-65800499D01*
X158921156Y-65800500D01*
X158921158Y-65800500D01*
X159078844Y-65800500D01*
X159078845Y-65800499D01*
X159233497Y-65769737D01*
X159379179Y-65709394D01*
X159431110Y-65674694D01*
X159497785Y-65653816D01*
X159565165Y-65672300D01*
X159568863Y-65674676D01*
X159620821Y-65709394D01*
X159620823Y-65709395D01*
X159620825Y-65709396D01*
X159738703Y-65758222D01*
X159766503Y-65769737D01*
X159906192Y-65797523D01*
X159921153Y-65800499D01*
X159921156Y-65800500D01*
X159921158Y-65800500D01*
X160078844Y-65800500D01*
X160078845Y-65800499D01*
X160233497Y-65769737D01*
X160379179Y-65709394D01*
X160431110Y-65674694D01*
X160497785Y-65653816D01*
X160565165Y-65672300D01*
X160568863Y-65674676D01*
X160620821Y-65709394D01*
X160620823Y-65709395D01*
X160620825Y-65709396D01*
X160738703Y-65758222D01*
X160766503Y-65769737D01*
X160906192Y-65797523D01*
X160921153Y-65800499D01*
X160921156Y-65800500D01*
X160921158Y-65800500D01*
X161078844Y-65800500D01*
X161078845Y-65800499D01*
X161233497Y-65769737D01*
X161379179Y-65709394D01*
X161431110Y-65674694D01*
X161497785Y-65653816D01*
X161565165Y-65672300D01*
X161568863Y-65674676D01*
X161620821Y-65709394D01*
X161620823Y-65709395D01*
X161620825Y-65709396D01*
X161738703Y-65758222D01*
X161766503Y-65769737D01*
X161906192Y-65797523D01*
X161921153Y-65800499D01*
X161921156Y-65800500D01*
X161921158Y-65800500D01*
X162078844Y-65800500D01*
X162078845Y-65800499D01*
X162233497Y-65769737D01*
X162379179Y-65709394D01*
X162431110Y-65674694D01*
X162497785Y-65653816D01*
X162565165Y-65672300D01*
X162568863Y-65674676D01*
X162620821Y-65709394D01*
X162620823Y-65709395D01*
X162620825Y-65709396D01*
X162738703Y-65758222D01*
X162766503Y-65769737D01*
X162906192Y-65797523D01*
X162921153Y-65800499D01*
X162921156Y-65800500D01*
X162921158Y-65800500D01*
X163078844Y-65800500D01*
X163078845Y-65800499D01*
X163233497Y-65769737D01*
X163379179Y-65709394D01*
X163510289Y-65621789D01*
X163621789Y-65510289D01*
X163709394Y-65379179D01*
X163769737Y-65233497D01*
X163800500Y-65078842D01*
X163800500Y-64921158D01*
X163800500Y-64921155D01*
X163800499Y-64921153D01*
X163769738Y-64766510D01*
X163769737Y-64766503D01*
X163719204Y-64644505D01*
X163709396Y-64620825D01*
X163709394Y-64620822D01*
X163709394Y-64620821D01*
X163674694Y-64568889D01*
X163653816Y-64502215D01*
X163672300Y-64434835D01*
X163674676Y-64431136D01*
X163709394Y-64379179D01*
X163769737Y-64233497D01*
X163800500Y-64078842D01*
X163800500Y-63921158D01*
X163800500Y-63921155D01*
X163800499Y-63921153D01*
X163790852Y-63872655D01*
X163769737Y-63766503D01*
X163720008Y-63646446D01*
X163709396Y-63620825D01*
X163709394Y-63620822D01*
X163709394Y-63620821D01*
X163674694Y-63568889D01*
X163653816Y-63502215D01*
X163672300Y-63434835D01*
X163674676Y-63431136D01*
X163709394Y-63379179D01*
X163769737Y-63233497D01*
X163800500Y-63078842D01*
X163800500Y-62921158D01*
X163800500Y-62921155D01*
X163800499Y-62921153D01*
X163790640Y-62871591D01*
X163769737Y-62766503D01*
X163735113Y-62682913D01*
X163709397Y-62620827D01*
X163709390Y-62620814D01*
X163621789Y-62489711D01*
X163621786Y-62489707D01*
X163510292Y-62378213D01*
X163510288Y-62378210D01*
X163379185Y-62290609D01*
X163379172Y-62290602D01*
X163233501Y-62230264D01*
X163233489Y-62230261D01*
X163078845Y-62199500D01*
X163078842Y-62199500D01*
X162921158Y-62199500D01*
X162921155Y-62199500D01*
X162766510Y-62230261D01*
X162766498Y-62230264D01*
X162620827Y-62290602D01*
X162620814Y-62290609D01*
X162568891Y-62325304D01*
X162502214Y-62346182D01*
X162434833Y-62327698D01*
X162431109Y-62325304D01*
X162379185Y-62290609D01*
X162379172Y-62290602D01*
X162233501Y-62230264D01*
X162233489Y-62230261D01*
X162078845Y-62199500D01*
X162078842Y-62199500D01*
X161921158Y-62199500D01*
X161921155Y-62199500D01*
X161766510Y-62230261D01*
X161766498Y-62230264D01*
X161620827Y-62290602D01*
X161620814Y-62290609D01*
X161568891Y-62325304D01*
X161502214Y-62346182D01*
X161434833Y-62327698D01*
X161431109Y-62325304D01*
X161379185Y-62290609D01*
X161379172Y-62290602D01*
X161233501Y-62230264D01*
X161233489Y-62230261D01*
X161078845Y-62199500D01*
X161078842Y-62199500D01*
X160921158Y-62199500D01*
X160921155Y-62199500D01*
X160766510Y-62230261D01*
X160766498Y-62230264D01*
X160620827Y-62290602D01*
X160620814Y-62290609D01*
X160568891Y-62325304D01*
X160502214Y-62346182D01*
X160434833Y-62327698D01*
X160431109Y-62325304D01*
X160379185Y-62290609D01*
X160379172Y-62290602D01*
X160233501Y-62230264D01*
X160233489Y-62230261D01*
X160078845Y-62199500D01*
X160078842Y-62199500D01*
X159921158Y-62199500D01*
X159921155Y-62199500D01*
X159766510Y-62230261D01*
X159766498Y-62230264D01*
X159620827Y-62290602D01*
X159620814Y-62290609D01*
X159568891Y-62325304D01*
X159502214Y-62346182D01*
X159434833Y-62327698D01*
X159431109Y-62325304D01*
X159379185Y-62290609D01*
X159379172Y-62290602D01*
X159233501Y-62230264D01*
X159233489Y-62230261D01*
X159078845Y-62199500D01*
X159078842Y-62199500D01*
X158921158Y-62199500D01*
X158921155Y-62199500D01*
X158766510Y-62230261D01*
X158766498Y-62230264D01*
X158620827Y-62290602D01*
X158620814Y-62290609D01*
X158568891Y-62325304D01*
X158502214Y-62346182D01*
X158434833Y-62327698D01*
X158431109Y-62325304D01*
X158379185Y-62290609D01*
X158379172Y-62290602D01*
X158233501Y-62230264D01*
X158233489Y-62230261D01*
X158078845Y-62199500D01*
X158078842Y-62199500D01*
X157921158Y-62199500D01*
X157921155Y-62199500D01*
X157766510Y-62230261D01*
X157766498Y-62230264D01*
X157620827Y-62290602D01*
X157620814Y-62290609D01*
X157489711Y-62378210D01*
X157489707Y-62378213D01*
X157378213Y-62489707D01*
X157378210Y-62489711D01*
X157290609Y-62620814D01*
X157290602Y-62620827D01*
X157230264Y-62766498D01*
X157230261Y-62766510D01*
X157199500Y-62921153D01*
X154747855Y-62921153D01*
X154739930Y-62820447D01*
X154684051Y-62598684D01*
X154589472Y-62390464D01*
X154589471Y-62390462D01*
X154589468Y-62390456D01*
X154459240Y-62202485D01*
X154459237Y-62202481D01*
X154459234Y-62202477D01*
X154297523Y-62040766D01*
X154297519Y-62040763D01*
X154297514Y-62040759D01*
X154109543Y-61910531D01*
X154109537Y-61910528D01*
X154005426Y-61863238D01*
X153901316Y-61815949D01*
X153679553Y-61760070D01*
X153545247Y-61749500D01*
X153545245Y-61749500D01*
X151454761Y-61749500D01*
X151454746Y-61749501D01*
X151320447Y-61760070D01*
X151098684Y-61815949D01*
X150890462Y-61910528D01*
X150890456Y-61910531D01*
X150702485Y-62040759D01*
X150702473Y-62040769D01*
X150540769Y-62202473D01*
X150540759Y-62202485D01*
X150410531Y-62390456D01*
X150410528Y-62390462D01*
X150315949Y-62598684D01*
X150260070Y-62820447D01*
X150249500Y-62954747D01*
X149494600Y-62954747D01*
X149374825Y-62747292D01*
X149374819Y-62747284D01*
X149258221Y-62595331D01*
X148326525Y-63527027D01*
X148237913Y-63394410D01*
X148105590Y-63262087D01*
X147972971Y-63173474D01*
X148904667Y-62241777D01*
X148752715Y-62125180D01*
X148752707Y-62125174D01*
X148497292Y-61977709D01*
X148497281Y-61977704D01*
X148224800Y-61864838D01*
X148224790Y-61864835D01*
X147939897Y-61788499D01*
X147939884Y-61788496D01*
X147647483Y-61750001D01*
X147647466Y-61750000D01*
X147352534Y-61750000D01*
X147352516Y-61750001D01*
X147060115Y-61788496D01*
X147060102Y-61788499D01*
X146775209Y-61864835D01*
X146775199Y-61864838D01*
X146502718Y-61977704D01*
X146502707Y-61977709D01*
X146247292Y-62125174D01*
X146247276Y-62125185D01*
X146095331Y-62241775D01*
X146095331Y-62241777D01*
X147027028Y-63173474D01*
X146894410Y-63262087D01*
X146762087Y-63394410D01*
X146673474Y-63527028D01*
X145741777Y-62595331D01*
X145741775Y-62595331D01*
X145625185Y-62747276D01*
X145625174Y-62747292D01*
X145477709Y-63002707D01*
X145477704Y-63002718D01*
X145364838Y-63275199D01*
X145364835Y-63275209D01*
X145288499Y-63560102D01*
X145288496Y-63560115D01*
X145250001Y-63852516D01*
X145250000Y-63852533D01*
X142786850Y-63852533D01*
X142769738Y-63766508D01*
X142769737Y-63766507D01*
X142769737Y-63766503D01*
X142720008Y-63646446D01*
X142709396Y-63620825D01*
X142709394Y-63620822D01*
X142709394Y-63620821D01*
X142674694Y-63568889D01*
X142653816Y-63502215D01*
X142672300Y-63434835D01*
X142674676Y-63431136D01*
X142709394Y-63379179D01*
X142769737Y-63233497D01*
X142800500Y-63078842D01*
X142800500Y-62921158D01*
X142800500Y-62921155D01*
X142800499Y-62921153D01*
X142790640Y-62871591D01*
X142769737Y-62766503D01*
X142735113Y-62682913D01*
X142709397Y-62620827D01*
X142709390Y-62620814D01*
X142621789Y-62489711D01*
X142621786Y-62489707D01*
X142510292Y-62378213D01*
X142510288Y-62378210D01*
X142379185Y-62290609D01*
X142379172Y-62290602D01*
X142233501Y-62230264D01*
X142233489Y-62230261D01*
X142078845Y-62199500D01*
X142078842Y-62199500D01*
X141921158Y-62199500D01*
X141921155Y-62199500D01*
X141766510Y-62230261D01*
X141766498Y-62230264D01*
X141620827Y-62290602D01*
X141620814Y-62290609D01*
X141568891Y-62325304D01*
X141502214Y-62346182D01*
X141434833Y-62327698D01*
X141431109Y-62325304D01*
X141379185Y-62290609D01*
X141379172Y-62290602D01*
X141233501Y-62230264D01*
X141233489Y-62230261D01*
X141078845Y-62199500D01*
X141078842Y-62199500D01*
X140921158Y-62199500D01*
X140921155Y-62199500D01*
X140766510Y-62230261D01*
X140766498Y-62230264D01*
X140620827Y-62290602D01*
X140620814Y-62290609D01*
X140568891Y-62325304D01*
X140502214Y-62346182D01*
X140434833Y-62327698D01*
X140431109Y-62325304D01*
X140379185Y-62290609D01*
X140379172Y-62290602D01*
X140233501Y-62230264D01*
X140233489Y-62230261D01*
X140078845Y-62199500D01*
X140078842Y-62199500D01*
X139921158Y-62199500D01*
X139921155Y-62199500D01*
X139766510Y-62230261D01*
X139766498Y-62230264D01*
X139620827Y-62290602D01*
X139620814Y-62290609D01*
X139568891Y-62325304D01*
X139502214Y-62346182D01*
X139434833Y-62327698D01*
X139431109Y-62325304D01*
X139379185Y-62290609D01*
X139379172Y-62290602D01*
X139233501Y-62230264D01*
X139233489Y-62230261D01*
X139078845Y-62199500D01*
X139078842Y-62199500D01*
X138921158Y-62199500D01*
X138921155Y-62199500D01*
X138766510Y-62230261D01*
X138766498Y-62230264D01*
X138620827Y-62290602D01*
X138620814Y-62290609D01*
X138568891Y-62325304D01*
X138502214Y-62346182D01*
X138434833Y-62327698D01*
X138431109Y-62325304D01*
X138379185Y-62290609D01*
X138379172Y-62290602D01*
X138233501Y-62230264D01*
X138233489Y-62230261D01*
X138078845Y-62199500D01*
X138078842Y-62199500D01*
X137921158Y-62199500D01*
X137921155Y-62199500D01*
X137766510Y-62230261D01*
X137766498Y-62230264D01*
X137620827Y-62290602D01*
X137620814Y-62290609D01*
X137568891Y-62325304D01*
X137502214Y-62346182D01*
X137434833Y-62327698D01*
X137431109Y-62325304D01*
X137379185Y-62290609D01*
X137379172Y-62290602D01*
X137233501Y-62230264D01*
X137233489Y-62230261D01*
X137078845Y-62199500D01*
X137078842Y-62199500D01*
X136921158Y-62199500D01*
X136921155Y-62199500D01*
X136766510Y-62230261D01*
X136766498Y-62230264D01*
X136620827Y-62290602D01*
X136620814Y-62290609D01*
X136489711Y-62378210D01*
X136489707Y-62378213D01*
X136378213Y-62489707D01*
X136378210Y-62489711D01*
X136290609Y-62620814D01*
X136290602Y-62620827D01*
X136230264Y-62766498D01*
X136230261Y-62766510D01*
X136199500Y-62921153D01*
X129250500Y-62921153D01*
X129250500Y-57921153D01*
X136199500Y-57921153D01*
X136199500Y-58078846D01*
X136230261Y-58233489D01*
X136230264Y-58233501D01*
X136290602Y-58379172D01*
X136290609Y-58379185D01*
X136325304Y-58431109D01*
X136346182Y-58497786D01*
X136327698Y-58565167D01*
X136325304Y-58568891D01*
X136290609Y-58620814D01*
X136290602Y-58620827D01*
X136230264Y-58766498D01*
X136230261Y-58766510D01*
X136199500Y-58921153D01*
X136199500Y-59078846D01*
X136230261Y-59233489D01*
X136230264Y-59233501D01*
X136290602Y-59379172D01*
X136290609Y-59379185D01*
X136325304Y-59431109D01*
X136346182Y-59497786D01*
X136327698Y-59565167D01*
X136325304Y-59568891D01*
X136290609Y-59620814D01*
X136290602Y-59620827D01*
X136230264Y-59766498D01*
X136230261Y-59766510D01*
X136199500Y-59921153D01*
X136199500Y-60078846D01*
X136230261Y-60233489D01*
X136230264Y-60233501D01*
X136290602Y-60379172D01*
X136290609Y-60379185D01*
X136378210Y-60510288D01*
X136378213Y-60510292D01*
X136489707Y-60621786D01*
X136489711Y-60621789D01*
X136620814Y-60709390D01*
X136620827Y-60709397D01*
X136683832Y-60735494D01*
X136766503Y-60769737D01*
X136921153Y-60800499D01*
X136921156Y-60800500D01*
X136921158Y-60800500D01*
X137078844Y-60800500D01*
X137078845Y-60800499D01*
X137233497Y-60769737D01*
X137379179Y-60709394D01*
X137431110Y-60674694D01*
X137497785Y-60653816D01*
X137565165Y-60672300D01*
X137568863Y-60674676D01*
X137620821Y-60709394D01*
X137620823Y-60709395D01*
X137620825Y-60709396D01*
X137683832Y-60735494D01*
X137766503Y-60769737D01*
X137921153Y-60800499D01*
X137921156Y-60800500D01*
X137921158Y-60800500D01*
X138078844Y-60800500D01*
X138078845Y-60800499D01*
X138233497Y-60769737D01*
X138379179Y-60709394D01*
X138431110Y-60674694D01*
X138497785Y-60653816D01*
X138565165Y-60672300D01*
X138568863Y-60674676D01*
X138620821Y-60709394D01*
X138620823Y-60709395D01*
X138620825Y-60709396D01*
X138683832Y-60735494D01*
X138766503Y-60769737D01*
X138921153Y-60800499D01*
X138921156Y-60800500D01*
X138921158Y-60800500D01*
X139078844Y-60800500D01*
X139078845Y-60800499D01*
X139233497Y-60769737D01*
X139379179Y-60709394D01*
X139431110Y-60674694D01*
X139497785Y-60653816D01*
X139565165Y-60672300D01*
X139568863Y-60674676D01*
X139620821Y-60709394D01*
X139620823Y-60709395D01*
X139620825Y-60709396D01*
X139683832Y-60735494D01*
X139766503Y-60769737D01*
X139921153Y-60800499D01*
X139921156Y-60800500D01*
X139921158Y-60800500D01*
X140078844Y-60800500D01*
X140078845Y-60800499D01*
X140233497Y-60769737D01*
X140379179Y-60709394D01*
X140431110Y-60674694D01*
X140497785Y-60653816D01*
X140565165Y-60672300D01*
X140568863Y-60674676D01*
X140620821Y-60709394D01*
X140620823Y-60709395D01*
X140620825Y-60709396D01*
X140683832Y-60735494D01*
X140766503Y-60769737D01*
X140921153Y-60800499D01*
X140921156Y-60800500D01*
X140921158Y-60800500D01*
X141078844Y-60800500D01*
X141078845Y-60800499D01*
X141233497Y-60769737D01*
X141379179Y-60709394D01*
X141431110Y-60674694D01*
X141497785Y-60653816D01*
X141565165Y-60672300D01*
X141568863Y-60674676D01*
X141620821Y-60709394D01*
X141620823Y-60709395D01*
X141620825Y-60709396D01*
X141683832Y-60735494D01*
X141766503Y-60769737D01*
X141921153Y-60800499D01*
X141921156Y-60800500D01*
X141921158Y-60800500D01*
X142078844Y-60800500D01*
X142078845Y-60800499D01*
X142233497Y-60769737D01*
X142379179Y-60709394D01*
X142510289Y-60621789D01*
X142621789Y-60510289D01*
X142709394Y-60379179D01*
X142769737Y-60233497D01*
X142800500Y-60078842D01*
X142800500Y-59921158D01*
X142800500Y-59921155D01*
X142800499Y-59921153D01*
X142769738Y-59766510D01*
X142769737Y-59766503D01*
X142769735Y-59766498D01*
X142709396Y-59620825D01*
X142709394Y-59620822D01*
X142709394Y-59620821D01*
X142674694Y-59568889D01*
X142653816Y-59502215D01*
X142672300Y-59434835D01*
X142674676Y-59431136D01*
X142709394Y-59379179D01*
X142769737Y-59233497D01*
X142800500Y-59078842D01*
X142800500Y-58921158D01*
X142800500Y-58921155D01*
X142800499Y-58921153D01*
X142769738Y-58766510D01*
X142769737Y-58766503D01*
X142726546Y-58662229D01*
X142709396Y-58620825D01*
X142709394Y-58620822D01*
X142709394Y-58620821D01*
X142674694Y-58568889D01*
X142653816Y-58502215D01*
X142672300Y-58434835D01*
X142674676Y-58431136D01*
X142709394Y-58379179D01*
X142769737Y-58233497D01*
X142800500Y-58078842D01*
X142800500Y-57921158D01*
X142800500Y-57921155D01*
X142800499Y-57921153D01*
X157199500Y-57921153D01*
X157199500Y-58078846D01*
X157230261Y-58233489D01*
X157230264Y-58233501D01*
X157290602Y-58379172D01*
X157290609Y-58379185D01*
X157325304Y-58431109D01*
X157346182Y-58497786D01*
X157327698Y-58565167D01*
X157325304Y-58568891D01*
X157290609Y-58620814D01*
X157290602Y-58620827D01*
X157230264Y-58766498D01*
X157230261Y-58766510D01*
X157199500Y-58921153D01*
X157199500Y-59078846D01*
X157230261Y-59233489D01*
X157230264Y-59233501D01*
X157290602Y-59379172D01*
X157290609Y-59379185D01*
X157325304Y-59431109D01*
X157346182Y-59497786D01*
X157327698Y-59565167D01*
X157325304Y-59568891D01*
X157290609Y-59620814D01*
X157290602Y-59620827D01*
X157230264Y-59766498D01*
X157230261Y-59766510D01*
X157199500Y-59921153D01*
X157199500Y-60078846D01*
X157230261Y-60233489D01*
X157230264Y-60233501D01*
X157290602Y-60379172D01*
X157290609Y-60379185D01*
X157378210Y-60510288D01*
X157378213Y-60510292D01*
X157489707Y-60621786D01*
X157489711Y-60621789D01*
X157620814Y-60709390D01*
X157620827Y-60709397D01*
X157683832Y-60735494D01*
X157766503Y-60769737D01*
X157921153Y-60800499D01*
X157921156Y-60800500D01*
X157921158Y-60800500D01*
X158078844Y-60800500D01*
X158078845Y-60800499D01*
X158233497Y-60769737D01*
X158379179Y-60709394D01*
X158431110Y-60674694D01*
X158497785Y-60653816D01*
X158565165Y-60672300D01*
X158568863Y-60674676D01*
X158620821Y-60709394D01*
X158620823Y-60709395D01*
X158620825Y-60709396D01*
X158683832Y-60735494D01*
X158766503Y-60769737D01*
X158921153Y-60800499D01*
X158921156Y-60800500D01*
X158921158Y-60800500D01*
X159078844Y-60800500D01*
X159078845Y-60800499D01*
X159233497Y-60769737D01*
X159379179Y-60709394D01*
X159431110Y-60674694D01*
X159497785Y-60653816D01*
X159565165Y-60672300D01*
X159568863Y-60674676D01*
X159620821Y-60709394D01*
X159620823Y-60709395D01*
X159620825Y-60709396D01*
X159683832Y-60735494D01*
X159766503Y-60769737D01*
X159921153Y-60800499D01*
X159921156Y-60800500D01*
X159921158Y-60800500D01*
X160078844Y-60800500D01*
X160078845Y-60800499D01*
X160233497Y-60769737D01*
X160379179Y-60709394D01*
X160431110Y-60674694D01*
X160497785Y-60653816D01*
X160565165Y-60672300D01*
X160568863Y-60674676D01*
X160620821Y-60709394D01*
X160620823Y-60709395D01*
X160620825Y-60709396D01*
X160683832Y-60735494D01*
X160766503Y-60769737D01*
X160921153Y-60800499D01*
X160921156Y-60800500D01*
X160921158Y-60800500D01*
X161078844Y-60800500D01*
X161078845Y-60800499D01*
X161233497Y-60769737D01*
X161379179Y-60709394D01*
X161431110Y-60674694D01*
X161497785Y-60653816D01*
X161565165Y-60672300D01*
X161568863Y-60674676D01*
X161620821Y-60709394D01*
X161620823Y-60709395D01*
X161620825Y-60709396D01*
X161683832Y-60735494D01*
X161766503Y-60769737D01*
X161921153Y-60800499D01*
X161921156Y-60800500D01*
X161921158Y-60800500D01*
X162078844Y-60800500D01*
X162078845Y-60800499D01*
X162233497Y-60769737D01*
X162379179Y-60709394D01*
X162431110Y-60674694D01*
X162497785Y-60653816D01*
X162565165Y-60672300D01*
X162568863Y-60674676D01*
X162620821Y-60709394D01*
X162620823Y-60709395D01*
X162620825Y-60709396D01*
X162683832Y-60735494D01*
X162766503Y-60769737D01*
X162921153Y-60800499D01*
X162921156Y-60800500D01*
X162921158Y-60800500D01*
X163078844Y-60800500D01*
X163078845Y-60800499D01*
X163233497Y-60769737D01*
X163379179Y-60709394D01*
X163510289Y-60621789D01*
X163621789Y-60510289D01*
X163709394Y-60379179D01*
X163769737Y-60233497D01*
X163800500Y-60078842D01*
X163800500Y-59921158D01*
X163800500Y-59921155D01*
X163800499Y-59921153D01*
X163769738Y-59766510D01*
X163769737Y-59766503D01*
X163769735Y-59766498D01*
X163709396Y-59620825D01*
X163709394Y-59620822D01*
X163709394Y-59620821D01*
X163674694Y-59568889D01*
X163653816Y-59502215D01*
X163672300Y-59434835D01*
X163674676Y-59431136D01*
X163709394Y-59379179D01*
X163769737Y-59233497D01*
X163800500Y-59078842D01*
X163800500Y-58921158D01*
X163800500Y-58921155D01*
X163800499Y-58921153D01*
X163769738Y-58766510D01*
X163769737Y-58766503D01*
X163726546Y-58662229D01*
X163709396Y-58620825D01*
X163709394Y-58620822D01*
X163709394Y-58620821D01*
X163674694Y-58568889D01*
X163653816Y-58502215D01*
X163672300Y-58434835D01*
X163674676Y-58431136D01*
X163709394Y-58379179D01*
X163769737Y-58233497D01*
X163800500Y-58078842D01*
X163800500Y-57921158D01*
X163800500Y-57921155D01*
X163800499Y-57921153D01*
X163787439Y-57855495D01*
X163769737Y-57766503D01*
X163769735Y-57766498D01*
X163709397Y-57620827D01*
X163709390Y-57620814D01*
X163621789Y-57489711D01*
X163621786Y-57489707D01*
X163510292Y-57378213D01*
X163510288Y-57378210D01*
X163379185Y-57290609D01*
X163379172Y-57290602D01*
X163233501Y-57230264D01*
X163233489Y-57230261D01*
X163078845Y-57199500D01*
X163078842Y-57199500D01*
X162921158Y-57199500D01*
X162921155Y-57199500D01*
X162766510Y-57230261D01*
X162766498Y-57230264D01*
X162620827Y-57290602D01*
X162620814Y-57290609D01*
X162568891Y-57325304D01*
X162502214Y-57346182D01*
X162434833Y-57327698D01*
X162431109Y-57325304D01*
X162379185Y-57290609D01*
X162379172Y-57290602D01*
X162233501Y-57230264D01*
X162233489Y-57230261D01*
X162078845Y-57199500D01*
X162078842Y-57199500D01*
X161921158Y-57199500D01*
X161921155Y-57199500D01*
X161766510Y-57230261D01*
X161766498Y-57230264D01*
X161620827Y-57290602D01*
X161620814Y-57290609D01*
X161568891Y-57325304D01*
X161502214Y-57346182D01*
X161434833Y-57327698D01*
X161431109Y-57325304D01*
X161379185Y-57290609D01*
X161379172Y-57290602D01*
X161233501Y-57230264D01*
X161233489Y-57230261D01*
X161078845Y-57199500D01*
X161078842Y-57199500D01*
X160921158Y-57199500D01*
X160921155Y-57199500D01*
X160766510Y-57230261D01*
X160766498Y-57230264D01*
X160620827Y-57290602D01*
X160620814Y-57290609D01*
X160568891Y-57325304D01*
X160502214Y-57346182D01*
X160434833Y-57327698D01*
X160431109Y-57325304D01*
X160379185Y-57290609D01*
X160379172Y-57290602D01*
X160233501Y-57230264D01*
X160233489Y-57230261D01*
X160078845Y-57199500D01*
X160078842Y-57199500D01*
X159921158Y-57199500D01*
X159921155Y-57199500D01*
X159766510Y-57230261D01*
X159766498Y-57230264D01*
X159620827Y-57290602D01*
X159620814Y-57290609D01*
X159568891Y-57325304D01*
X159502214Y-57346182D01*
X159434833Y-57327698D01*
X159431109Y-57325304D01*
X159379185Y-57290609D01*
X159379172Y-57290602D01*
X159233501Y-57230264D01*
X159233489Y-57230261D01*
X159078845Y-57199500D01*
X159078842Y-57199500D01*
X158921158Y-57199500D01*
X158921155Y-57199500D01*
X158766510Y-57230261D01*
X158766498Y-57230264D01*
X158620827Y-57290602D01*
X158620814Y-57290609D01*
X158568891Y-57325304D01*
X158502214Y-57346182D01*
X158434833Y-57327698D01*
X158431109Y-57325304D01*
X158379185Y-57290609D01*
X158379172Y-57290602D01*
X158233501Y-57230264D01*
X158233489Y-57230261D01*
X158078845Y-57199500D01*
X158078842Y-57199500D01*
X157921158Y-57199500D01*
X157921155Y-57199500D01*
X157766510Y-57230261D01*
X157766498Y-57230264D01*
X157620827Y-57290602D01*
X157620814Y-57290609D01*
X157489711Y-57378210D01*
X157489707Y-57378213D01*
X157378213Y-57489707D01*
X157378210Y-57489711D01*
X157290609Y-57620814D01*
X157290602Y-57620827D01*
X157230264Y-57766498D01*
X157230261Y-57766510D01*
X157199500Y-57921153D01*
X142800499Y-57921153D01*
X142787439Y-57855495D01*
X142769737Y-57766503D01*
X142769735Y-57766498D01*
X142709397Y-57620827D01*
X142709390Y-57620814D01*
X142621789Y-57489711D01*
X142621786Y-57489707D01*
X142510292Y-57378213D01*
X142510288Y-57378210D01*
X142379185Y-57290609D01*
X142379172Y-57290602D01*
X142233501Y-57230264D01*
X142233489Y-57230261D01*
X142078845Y-57199500D01*
X142078842Y-57199500D01*
X141921158Y-57199500D01*
X141921155Y-57199500D01*
X141766510Y-57230261D01*
X141766498Y-57230264D01*
X141620827Y-57290602D01*
X141620814Y-57290609D01*
X141568891Y-57325304D01*
X141502214Y-57346182D01*
X141434833Y-57327698D01*
X141431109Y-57325304D01*
X141379185Y-57290609D01*
X141379172Y-57290602D01*
X141233501Y-57230264D01*
X141233489Y-57230261D01*
X141078845Y-57199500D01*
X141078842Y-57199500D01*
X140921158Y-57199500D01*
X140921155Y-57199500D01*
X140766510Y-57230261D01*
X140766498Y-57230264D01*
X140620827Y-57290602D01*
X140620814Y-57290609D01*
X140568891Y-57325304D01*
X140502214Y-57346182D01*
X140434833Y-57327698D01*
X140431109Y-57325304D01*
X140379185Y-57290609D01*
X140379172Y-57290602D01*
X140233501Y-57230264D01*
X140233489Y-57230261D01*
X140078845Y-57199500D01*
X140078842Y-57199500D01*
X139921158Y-57199500D01*
X139921155Y-57199500D01*
X139766510Y-57230261D01*
X139766498Y-57230264D01*
X139620827Y-57290602D01*
X139620814Y-57290609D01*
X139568891Y-57325304D01*
X139502214Y-57346182D01*
X139434833Y-57327698D01*
X139431109Y-57325304D01*
X139379185Y-57290609D01*
X139379172Y-57290602D01*
X139233501Y-57230264D01*
X139233489Y-57230261D01*
X139078845Y-57199500D01*
X139078842Y-57199500D01*
X138921158Y-57199500D01*
X138921155Y-57199500D01*
X138766510Y-57230261D01*
X138766498Y-57230264D01*
X138620827Y-57290602D01*
X138620814Y-57290609D01*
X138568891Y-57325304D01*
X138502214Y-57346182D01*
X138434833Y-57327698D01*
X138431109Y-57325304D01*
X138379185Y-57290609D01*
X138379172Y-57290602D01*
X138233501Y-57230264D01*
X138233489Y-57230261D01*
X138078845Y-57199500D01*
X138078842Y-57199500D01*
X137921158Y-57199500D01*
X137921155Y-57199500D01*
X137766510Y-57230261D01*
X137766498Y-57230264D01*
X137620827Y-57290602D01*
X137620814Y-57290609D01*
X137568891Y-57325304D01*
X137502214Y-57346182D01*
X137434833Y-57327698D01*
X137431109Y-57325304D01*
X137379185Y-57290609D01*
X137379172Y-57290602D01*
X137233501Y-57230264D01*
X137233489Y-57230261D01*
X137078845Y-57199500D01*
X137078842Y-57199500D01*
X136921158Y-57199500D01*
X136921155Y-57199500D01*
X136766510Y-57230261D01*
X136766498Y-57230264D01*
X136620827Y-57290602D01*
X136620814Y-57290609D01*
X136489711Y-57378210D01*
X136489707Y-57378213D01*
X136378213Y-57489707D01*
X136378210Y-57489711D01*
X136290609Y-57620814D01*
X136290602Y-57620827D01*
X136230264Y-57766498D01*
X136230261Y-57766510D01*
X136199500Y-57921153D01*
X129250500Y-57921153D01*
X129250500Y-57426082D01*
X129250500Y-57426079D01*
X129221659Y-57281092D01*
X129221658Y-57281091D01*
X129221658Y-57281087D01*
X129215401Y-57265981D01*
X129165087Y-57144511D01*
X129165080Y-57144498D01*
X129082952Y-57021585D01*
X129033147Y-56971780D01*
X128978416Y-56917049D01*
X128626367Y-56565000D01*
X127478421Y-55417052D01*
X127478414Y-55417046D01*
X127404729Y-55367812D01*
X127404729Y-55367813D01*
X127355491Y-55334913D01*
X127218917Y-55278343D01*
X127218907Y-55278340D01*
X127073920Y-55249500D01*
X127073918Y-55249500D01*
X126804131Y-55249500D01*
X126737092Y-55229815D01*
X126703813Y-55198386D01*
X126648197Y-55121837D01*
X126498163Y-54971803D01*
X126326506Y-54847087D01*
X126137452Y-54750760D01*
X126137449Y-54750758D01*
X125935659Y-54685193D01*
X125737555Y-54653816D01*
X125726090Y-54652000D01*
X125513910Y-54652000D01*
X125502445Y-54653816D01*
X125304341Y-54685193D01*
X125304338Y-54685193D01*
X125102550Y-54750758D01*
X125102547Y-54750760D01*
X124913492Y-54847088D01*
X124913489Y-54847090D01*
X124741834Y-54971805D01*
X124591805Y-55121834D01*
X124467090Y-55293489D01*
X124467085Y-55293497D01*
X124460484Y-55306453D01*
X124412509Y-55357248D01*
X124344688Y-55374043D01*
X124278553Y-55351505D01*
X124239516Y-55306453D01*
X124233052Y-55293767D01*
X124232913Y-55293494D01*
X124108197Y-55121837D01*
X123958163Y-54971803D01*
X123786506Y-54847087D01*
X123597452Y-54750760D01*
X123597449Y-54750758D01*
X123395659Y-54685193D01*
X123197555Y-54653816D01*
X123186090Y-54652000D01*
X122973910Y-54652000D01*
X122962445Y-54653816D01*
X122764341Y-54685193D01*
X122764338Y-54685193D01*
X122562550Y-54750758D01*
X122562547Y-54750760D01*
X122373492Y-54847088D01*
X122373489Y-54847090D01*
X122201834Y-54971805D01*
X122051805Y-55121834D01*
X121927090Y-55293489D01*
X121927085Y-55293497D01*
X121920484Y-55306453D01*
X121872509Y-55357248D01*
X121804688Y-55374043D01*
X121738553Y-55351505D01*
X121699516Y-55306453D01*
X121693052Y-55293767D01*
X121692913Y-55293494D01*
X121568197Y-55121837D01*
X121418163Y-54971803D01*
X121246506Y-54847087D01*
X121057452Y-54750760D01*
X121057449Y-54750758D01*
X120855659Y-54685193D01*
X120657555Y-54653816D01*
X120646090Y-54652000D01*
X120433910Y-54652000D01*
X120422445Y-54653816D01*
X120224341Y-54685193D01*
X120224338Y-54685193D01*
X120022550Y-54750758D01*
X120022547Y-54750760D01*
X119833492Y-54847088D01*
X119833489Y-54847090D01*
X119661834Y-54971805D01*
X119511805Y-55121834D01*
X119387090Y-55293489D01*
X119387085Y-55293497D01*
X119380484Y-55306453D01*
X119332509Y-55357248D01*
X119264688Y-55374043D01*
X119198553Y-55351505D01*
X119159516Y-55306453D01*
X119153052Y-55293767D01*
X119152913Y-55293494D01*
X119028197Y-55121837D01*
X118878163Y-54971803D01*
X118706506Y-54847087D01*
X118517452Y-54750760D01*
X118517449Y-54750758D01*
X118315659Y-54685193D01*
X118117555Y-54653816D01*
X118106090Y-54652000D01*
X117893910Y-54652000D01*
X117882445Y-54653816D01*
X117684341Y-54685193D01*
X117684338Y-54685193D01*
X117482550Y-54750758D01*
X117482547Y-54750760D01*
X117293492Y-54847088D01*
X117293489Y-54847090D01*
X117121834Y-54971805D01*
X116971805Y-55121834D01*
X116847090Y-55293489D01*
X116847085Y-55293497D01*
X116840484Y-55306453D01*
X116792509Y-55357248D01*
X116724688Y-55374043D01*
X116658553Y-55351505D01*
X116619516Y-55306453D01*
X116613052Y-55293767D01*
X116612913Y-55293494D01*
X116488197Y-55121837D01*
X116338163Y-54971803D01*
X116166506Y-54847087D01*
X115977452Y-54750760D01*
X115977449Y-54750758D01*
X115775659Y-54685193D01*
X115577555Y-54653816D01*
X115566090Y-54652000D01*
X115353910Y-54652000D01*
X115342445Y-54653816D01*
X115144341Y-54685193D01*
X115144338Y-54685193D01*
X114942550Y-54750758D01*
X114942547Y-54750760D01*
X114753492Y-54847088D01*
X114753489Y-54847090D01*
X114581834Y-54971805D01*
X114431805Y-55121834D01*
X114307090Y-55293489D01*
X114307083Y-55293500D01*
X114300200Y-55307008D01*
X114252222Y-55357801D01*
X114184400Y-55374592D01*
X114118267Y-55352050D01*
X114079233Y-55306998D01*
X114072491Y-55293767D01*
X114072481Y-55293750D01*
X114033481Y-55240071D01*
X114033480Y-55240070D01*
X113456034Y-55817516D01*
X113446496Y-55781918D01*
X113372112Y-55653082D01*
X113266918Y-55547888D01*
X113138082Y-55473504D01*
X113102480Y-55463964D01*
X113679928Y-54886518D01*
X113626244Y-54847514D01*
X113437261Y-54751223D01*
X113437258Y-54751221D01*
X113235542Y-54685680D01*
X113026050Y-54652500D01*
X112813950Y-54652500D01*
X112604458Y-54685680D01*
X112604455Y-54685680D01*
X112402741Y-54751221D01*
X112402738Y-54751222D01*
X112213757Y-54847513D01*
X112160071Y-54886518D01*
X112160071Y-54886519D01*
X112737517Y-55463965D01*
X112701918Y-55473504D01*
X112573082Y-55547888D01*
X112467888Y-55653082D01*
X112393504Y-55781918D01*
X112383965Y-55817517D01*
X111806519Y-55240071D01*
X111806518Y-55240071D01*
X111767513Y-55293758D01*
X111760764Y-55307004D01*
X111712788Y-55357799D01*
X111644967Y-55374593D01*
X111578832Y-55352054D01*
X111539796Y-55307003D01*
X111532913Y-55293494D01*
X111408197Y-55121837D01*
X111258163Y-54971803D01*
X111086506Y-54847087D01*
X110897452Y-54750760D01*
X110897449Y-54750758D01*
X110695659Y-54685193D01*
X110497555Y-54653816D01*
X110486090Y-54652000D01*
X110273910Y-54652000D01*
X110262445Y-54653816D01*
X110064341Y-54685193D01*
X110064338Y-54685193D01*
X109862550Y-54750758D01*
X109862547Y-54750760D01*
X109673492Y-54847088D01*
X109673489Y-54847090D01*
X109501834Y-54971805D01*
X109351805Y-55121834D01*
X109227090Y-55293489D01*
X109227088Y-55293492D01*
X109130760Y-55482547D01*
X109130758Y-55482550D01*
X109065193Y-55684338D01*
X109065193Y-55684341D01*
X109032000Y-55893910D01*
X109032000Y-56106095D01*
X109046801Y-56199542D01*
X109037847Y-56268835D01*
X109012009Y-56306621D01*
X108211681Y-57106950D01*
X108150358Y-57140435D01*
X108080667Y-57135451D01*
X108024733Y-57093579D01*
X108000316Y-57028115D01*
X108000000Y-57019269D01*
X108000000Y-51124014D01*
X108019685Y-51056975D01*
X108072489Y-51011220D01*
X108124011Y-51000014D01*
X136690814Y-51003404D01*
G37*
%TD.AperFunction*%
%TA.AperFunction,Conductor*%
G36*
X176393504Y-56370582D02*
G01*
X176467888Y-56499418D01*
X176573082Y-56604612D01*
X176701918Y-56678996D01*
X176737517Y-56688534D01*
X176160070Y-57265980D01*
X176160071Y-57265981D01*
X176213750Y-57304981D01*
X176213763Y-57304989D01*
X176402738Y-57401276D01*
X176402741Y-57401278D01*
X176604457Y-57466819D01*
X176813950Y-57500000D01*
X177026050Y-57500000D01*
X177235541Y-57466819D01*
X177235544Y-57466819D01*
X177437258Y-57401278D01*
X177437261Y-57401276D01*
X177626244Y-57304985D01*
X177679927Y-57265981D01*
X177679927Y-57265980D01*
X177102482Y-56688535D01*
X177138082Y-56678996D01*
X177266918Y-56604612D01*
X177372112Y-56499418D01*
X177446496Y-56370582D01*
X177456035Y-56334982D01*
X178033480Y-56912427D01*
X178033481Y-56912427D01*
X178072484Y-56858745D01*
X178079230Y-56845505D01*
X178127201Y-56794706D01*
X178195021Y-56777905D01*
X178261157Y-56800438D01*
X178300202Y-56845494D01*
X178307087Y-56859006D01*
X178431803Y-57030663D01*
X178581837Y-57180697D01*
X178753494Y-57305413D01*
X178942548Y-57401740D01*
X178942550Y-57401741D01*
X179017465Y-57426082D01*
X179144343Y-57467307D01*
X179353910Y-57500500D01*
X179353911Y-57500500D01*
X179566089Y-57500500D01*
X179566090Y-57500500D01*
X179775657Y-57467307D01*
X179775660Y-57467306D01*
X179775661Y-57467306D01*
X179977449Y-57401741D01*
X179977449Y-57401740D01*
X179977452Y-57401740D01*
X180166506Y-57305413D01*
X180338163Y-57180697D01*
X180488197Y-57030663D01*
X180612913Y-56859006D01*
X180619515Y-56846047D01*
X180667488Y-56795252D01*
X180735309Y-56778456D01*
X180801444Y-56800992D01*
X180840483Y-56846046D01*
X180847087Y-56859006D01*
X180971803Y-57030663D01*
X181121837Y-57180697D01*
X181293494Y-57305413D01*
X181482548Y-57401740D01*
X181482550Y-57401741D01*
X181557465Y-57426082D01*
X181684343Y-57467307D01*
X181893910Y-57500500D01*
X181893911Y-57500500D01*
X182106089Y-57500500D01*
X182106090Y-57500500D01*
X182315657Y-57467307D01*
X182315660Y-57467306D01*
X182315661Y-57467306D01*
X182517449Y-57401741D01*
X182517449Y-57401740D01*
X182517452Y-57401740D01*
X182706506Y-57305413D01*
X182878163Y-57180697D01*
X183028197Y-57030663D01*
X183152913Y-56859006D01*
X183159515Y-56846047D01*
X183207488Y-56795252D01*
X183275309Y-56778456D01*
X183341444Y-56800992D01*
X183380483Y-56846046D01*
X183387087Y-56859006D01*
X183511803Y-57030663D01*
X183661837Y-57180697D01*
X183833494Y-57305413D01*
X184022548Y-57401740D01*
X184022550Y-57401741D01*
X184097465Y-57426082D01*
X184224343Y-57467307D01*
X184433910Y-57500500D01*
X184433911Y-57500500D01*
X184646089Y-57500500D01*
X184646090Y-57500500D01*
X184855657Y-57467307D01*
X184855660Y-57467306D01*
X184855661Y-57467306D01*
X185057449Y-57401741D01*
X185057449Y-57401740D01*
X185057452Y-57401740D01*
X185246506Y-57305413D01*
X185418163Y-57180697D01*
X185568197Y-57030663D01*
X185692913Y-56859006D01*
X185699515Y-56846047D01*
X185747488Y-56795252D01*
X185815309Y-56778456D01*
X185881444Y-56800992D01*
X185920483Y-56846046D01*
X185927087Y-56859006D01*
X186051803Y-57030663D01*
X186201837Y-57180697D01*
X186373494Y-57305413D01*
X186562548Y-57401740D01*
X186562550Y-57401741D01*
X186637465Y-57426082D01*
X186764343Y-57467307D01*
X186973910Y-57500500D01*
X186973911Y-57500500D01*
X187186089Y-57500500D01*
X187186090Y-57500500D01*
X187395657Y-57467307D01*
X187395660Y-57467306D01*
X187395661Y-57467306D01*
X187597449Y-57401741D01*
X187597449Y-57401740D01*
X187597452Y-57401740D01*
X187786506Y-57305413D01*
X187958163Y-57180697D01*
X188108197Y-57030663D01*
X188232913Y-56859006D01*
X188239515Y-56846047D01*
X188287488Y-56795252D01*
X188355309Y-56778456D01*
X188421444Y-56800992D01*
X188460483Y-56846046D01*
X188467087Y-56859006D01*
X188591803Y-57030663D01*
X188741837Y-57180697D01*
X188913494Y-57305413D01*
X189102548Y-57401740D01*
X189102550Y-57401741D01*
X189177465Y-57426082D01*
X189304343Y-57467307D01*
X189513910Y-57500500D01*
X189513911Y-57500500D01*
X189726089Y-57500500D01*
X189726090Y-57500500D01*
X189819543Y-57485698D01*
X189888836Y-57494652D01*
X189926622Y-57520490D01*
X192227313Y-59821181D01*
X192260798Y-59882504D01*
X192255814Y-59952196D01*
X192213942Y-60008129D01*
X192148478Y-60032546D01*
X192139439Y-60032862D01*
X171674307Y-60001047D01*
X171607298Y-59981258D01*
X171561626Y-59928383D01*
X171550500Y-59877047D01*
X171550500Y-58662229D01*
X171570185Y-58595190D01*
X171586819Y-58574548D01*
X172350500Y-57810867D01*
X173156103Y-57005263D01*
X173217424Y-56971780D01*
X173287116Y-56976764D01*
X173343049Y-57018636D01*
X173344063Y-57020011D01*
X173351803Y-57030663D01*
X173501837Y-57180697D01*
X173673494Y-57305413D01*
X173862548Y-57401740D01*
X173862550Y-57401741D01*
X173937465Y-57426082D01*
X174064343Y-57467307D01*
X174273910Y-57500500D01*
X174273911Y-57500500D01*
X174486089Y-57500500D01*
X174486090Y-57500500D01*
X174695657Y-57467307D01*
X174695660Y-57467306D01*
X174695661Y-57467306D01*
X174897449Y-57401741D01*
X174897449Y-57401740D01*
X174897452Y-57401740D01*
X175086506Y-57305413D01*
X175258163Y-57180697D01*
X175408197Y-57030663D01*
X175532913Y-56859006D01*
X175539794Y-56845500D01*
X175587761Y-56794705D01*
X175655581Y-56777905D01*
X175721718Y-56800439D01*
X175760763Y-56845495D01*
X175767514Y-56858743D01*
X175806518Y-56912427D01*
X175806518Y-56912428D01*
X176383964Y-56334981D01*
X176393504Y-56370582D01*
G37*
%TD.AperFunction*%
%TA.AperFunction,Conductor*%
G36*
X112393504Y-56218082D02*
G01*
X112467888Y-56346918D01*
X112573082Y-56452112D01*
X112701918Y-56526496D01*
X112737517Y-56536034D01*
X112160070Y-57113480D01*
X112160071Y-57113481D01*
X112213750Y-57152481D01*
X112213763Y-57152489D01*
X112402738Y-57248776D01*
X112402741Y-57248778D01*
X112604457Y-57314319D01*
X112813950Y-57347500D01*
X113026050Y-57347500D01*
X113235541Y-57314319D01*
X113235544Y-57314319D01*
X113437258Y-57248778D01*
X113437261Y-57248776D01*
X113626244Y-57152485D01*
X113679927Y-57113481D01*
X113679927Y-57113480D01*
X113102482Y-56536035D01*
X113138082Y-56526496D01*
X113266918Y-56452112D01*
X113372112Y-56346918D01*
X113446496Y-56218082D01*
X113456035Y-56182482D01*
X114033480Y-56759927D01*
X114033481Y-56759927D01*
X114072484Y-56706245D01*
X114079230Y-56693005D01*
X114127201Y-56642206D01*
X114195021Y-56625405D01*
X114261157Y-56647938D01*
X114300202Y-56692994D01*
X114307087Y-56706506D01*
X114431803Y-56878163D01*
X114581837Y-57028197D01*
X114753494Y-57152913D01*
X114942548Y-57249240D01*
X114942550Y-57249241D01*
X115069869Y-57290609D01*
X115144343Y-57314807D01*
X115353910Y-57348000D01*
X115353911Y-57348000D01*
X115566089Y-57348000D01*
X115566090Y-57348000D01*
X115775657Y-57314807D01*
X115775660Y-57314806D01*
X115775661Y-57314806D01*
X115977449Y-57249241D01*
X115977449Y-57249240D01*
X115977452Y-57249240D01*
X116166506Y-57152913D01*
X116338163Y-57028197D01*
X116488197Y-56878163D01*
X116612913Y-56706506D01*
X116619515Y-56693547D01*
X116667488Y-56642752D01*
X116735309Y-56625956D01*
X116801444Y-56648492D01*
X116840483Y-56693546D01*
X116847087Y-56706506D01*
X116971803Y-56878163D01*
X117121837Y-57028197D01*
X117293494Y-57152913D01*
X117482548Y-57249240D01*
X117482550Y-57249241D01*
X117609869Y-57290609D01*
X117684343Y-57314807D01*
X117893910Y-57348000D01*
X117893911Y-57348000D01*
X118106089Y-57348000D01*
X118106090Y-57348000D01*
X118315657Y-57314807D01*
X118315660Y-57314806D01*
X118315661Y-57314806D01*
X118517449Y-57249241D01*
X118517449Y-57249240D01*
X118517452Y-57249240D01*
X118706506Y-57152913D01*
X118878163Y-57028197D01*
X119028197Y-56878163D01*
X119152913Y-56706506D01*
X119159515Y-56693547D01*
X119207488Y-56642752D01*
X119275309Y-56625956D01*
X119341444Y-56648492D01*
X119380483Y-56693546D01*
X119387087Y-56706506D01*
X119511803Y-56878163D01*
X119661837Y-57028197D01*
X119833494Y-57152913D01*
X120022548Y-57249240D01*
X120022550Y-57249241D01*
X120149869Y-57290609D01*
X120224343Y-57314807D01*
X120433910Y-57348000D01*
X120433911Y-57348000D01*
X120646089Y-57348000D01*
X120646090Y-57348000D01*
X120855657Y-57314807D01*
X120855660Y-57314806D01*
X120855661Y-57314806D01*
X121057449Y-57249241D01*
X121057449Y-57249240D01*
X121057452Y-57249240D01*
X121246506Y-57152913D01*
X121418163Y-57028197D01*
X121568197Y-56878163D01*
X121692913Y-56706506D01*
X121699515Y-56693547D01*
X121747488Y-56642752D01*
X121815309Y-56625956D01*
X121881444Y-56648492D01*
X121920483Y-56693546D01*
X121927087Y-56706506D01*
X122051803Y-56878163D01*
X122201837Y-57028197D01*
X122373494Y-57152913D01*
X122562548Y-57249240D01*
X122562550Y-57249241D01*
X122689869Y-57290609D01*
X122764343Y-57314807D01*
X122973910Y-57348000D01*
X122973911Y-57348000D01*
X123186089Y-57348000D01*
X123186090Y-57348000D01*
X123395657Y-57314807D01*
X123395660Y-57314806D01*
X123395661Y-57314806D01*
X123597449Y-57249241D01*
X123597449Y-57249240D01*
X123597452Y-57249240D01*
X123786506Y-57152913D01*
X123958163Y-57028197D01*
X124108197Y-56878163D01*
X124232913Y-56706506D01*
X124239515Y-56693547D01*
X124287488Y-56642752D01*
X124355309Y-56625956D01*
X124421444Y-56648492D01*
X124460483Y-56693546D01*
X124467087Y-56706506D01*
X124591803Y-56878163D01*
X124741837Y-57028197D01*
X124913494Y-57152913D01*
X125102548Y-57249240D01*
X125102550Y-57249241D01*
X125229869Y-57290609D01*
X125304343Y-57314807D01*
X125513910Y-57348000D01*
X125513911Y-57348000D01*
X125726089Y-57348000D01*
X125726090Y-57348000D01*
X125935657Y-57314807D01*
X125935660Y-57314806D01*
X125935661Y-57314806D01*
X126137449Y-57249241D01*
X126137449Y-57249240D01*
X126137452Y-57249240D01*
X126326506Y-57152913D01*
X126498163Y-57028197D01*
X126644818Y-56881541D01*
X126706138Y-56848059D01*
X126775829Y-56853043D01*
X126820174Y-56881542D01*
X127243614Y-57304981D01*
X127713181Y-57774548D01*
X127746666Y-57835871D01*
X127749500Y-57862229D01*
X127749500Y-59876000D01*
X127729815Y-59943039D01*
X127677011Y-59988794D01*
X127625500Y-60000000D01*
X108124000Y-60000000D01*
X108056961Y-59980315D01*
X108011206Y-59927511D01*
X108000000Y-59876000D01*
X108000000Y-59492729D01*
X108019685Y-59425690D01*
X108036316Y-59405050D01*
X110073379Y-57367987D01*
X110134700Y-57334504D01*
X110180451Y-57333197D01*
X110273910Y-57348000D01*
X110273912Y-57348000D01*
X110486089Y-57348000D01*
X110486090Y-57348000D01*
X110695657Y-57314807D01*
X110695660Y-57314806D01*
X110695661Y-57314806D01*
X110897449Y-57249241D01*
X110897449Y-57249240D01*
X110897452Y-57249240D01*
X111086506Y-57152913D01*
X111258163Y-57028197D01*
X111408197Y-56878163D01*
X111532913Y-56706506D01*
X111539794Y-56693000D01*
X111587761Y-56642205D01*
X111655581Y-56625405D01*
X111721718Y-56647939D01*
X111760763Y-56692995D01*
X111767514Y-56706243D01*
X111806518Y-56759927D01*
X111806518Y-56759928D01*
X112383964Y-56182481D01*
X112393504Y-56218082D01*
G37*
%TD.AperFunction*%
%TD*%
M02*
