%TF.GenerationSoftware,KiCad,Pcbnew,9.0.6*%
%TF.CreationDate,2025-12-27T21:54:22+01:00*%
%TF.ProjectId,Odyssey_Driver,4f647973-7365-4795-9f44-72697665722e,rev?*%
%TF.SameCoordinates,Original*%
%TF.FileFunction,Drillmap*%
%TF.FilePolarity,Positive*%
%FSLAX45Y45*%
G04 Gerber Fmt 4.5, Leading zero omitted, Abs format (unit mm)*
G04 Created by KiCad (PCBNEW 9.0.6) date 2025-12-27 21:54:22*
%MOMM*%
%LPD*%
G01*
G04 APERTURE LIST*
%ADD10C,0.050000*%
%ADD11C,0.200000*%
%ADD12C,0.100000*%
%ADD13C,0.102000*%
%ADD14C,0.113000*%
%ADD15C,0.270000*%
G04 APERTURE END LIST*
D10*
X5250000Y-10600000D02*
G75*
G02*
X4750000Y-10100000I0J500000D01*
G01*
X4750000Y-2300000D02*
G75*
G02*
X5250000Y-1800000I500000J0D01*
G01*
X14250000Y-10100000D02*
G75*
G02*
X13750000Y-10600000I-500000J0D01*
G01*
X13750000Y-1800000D02*
G75*
G02*
X14250000Y-2300000I0J-500000D01*
G01*
X13750000Y-10600000D02*
X5250000Y-10600000D01*
X5250000Y-1800000D02*
X13750000Y-1800000D01*
X4750000Y-10100000D02*
X4750000Y-2300000D01*
X14250000Y-2300000D02*
X14250000Y-10100000D01*
D11*
D12*
X5445000Y-4485000D02*
X5475000Y-4515000D01*
X5475000Y-4485000D02*
X5445000Y-4515000D01*
X5445000Y-4560000D02*
X5475000Y-4590000D01*
X5475000Y-4560000D02*
X5445000Y-4590000D01*
X5485000Y-4145000D02*
X5515000Y-4175000D01*
X5515000Y-4145000D02*
X5485000Y-4175000D01*
X5485000Y-4265000D02*
X5515000Y-4295000D01*
X5515000Y-4265000D02*
X5485000Y-4295000D01*
X5485000Y-4385000D02*
X5515000Y-4415000D01*
X5515000Y-4385000D02*
X5485000Y-4415000D01*
X5525000Y-4485000D02*
X5555000Y-4515000D01*
X5555000Y-4485000D02*
X5525000Y-4515000D01*
X5525000Y-4560000D02*
X5555000Y-4590000D01*
X5555000Y-4560000D02*
X5525000Y-4590000D01*
X5665000Y-2790000D02*
X5695000Y-2820000D01*
X5695000Y-2790000D02*
X5665000Y-2820000D01*
X5855000Y-4485000D02*
X5885000Y-4515000D01*
X5885000Y-4485000D02*
X5855000Y-4515000D01*
X5855000Y-4560000D02*
X5885000Y-4590000D01*
X5885000Y-4560000D02*
X5855000Y-4590000D01*
X5895000Y-4145000D02*
X5925000Y-4175000D01*
X5925000Y-4145000D02*
X5895000Y-4175000D01*
X5895000Y-4265000D02*
X5925000Y-4295000D01*
X5925000Y-4265000D02*
X5895000Y-4295000D01*
X5895000Y-4385000D02*
X5925000Y-4415000D01*
X5925000Y-4385000D02*
X5895000Y-4415000D01*
X5935000Y-4485000D02*
X5965000Y-4515000D01*
X5965000Y-4485000D02*
X5935000Y-4515000D01*
X5935000Y-4560000D02*
X5965000Y-4590000D01*
X5965000Y-4560000D02*
X5935000Y-4590000D01*
X5994000Y-4780000D02*
X6024000Y-4810000D01*
X6024000Y-4780000D02*
X5994000Y-4810000D01*
X6791336Y-4363664D02*
X6821336Y-4393664D01*
X6821336Y-4363664D02*
X6791336Y-4393664D01*
X7235000Y-4360000D02*
X7265000Y-4390000D01*
X7265000Y-4360000D02*
X7235000Y-4390000D01*
X8029000Y-4790000D02*
X8059000Y-4820000D01*
X8059000Y-4790000D02*
X8029000Y-4820000D01*
X8450000Y-4490000D02*
X8480000Y-4520000D01*
X8480000Y-4490000D02*
X8450000Y-4520000D01*
X8450000Y-4565000D02*
X8480000Y-4595000D01*
X8480000Y-4565000D02*
X8450000Y-4595000D01*
X8490000Y-4150000D02*
X8520000Y-4180000D01*
X8520000Y-4150000D02*
X8490000Y-4180000D01*
X8490000Y-4270000D02*
X8520000Y-4300000D01*
X8520000Y-4270000D02*
X8490000Y-4300000D01*
X8490000Y-4390000D02*
X8520000Y-4420000D01*
X8520000Y-4390000D02*
X8490000Y-4420000D01*
X8505000Y-5340000D02*
X8535000Y-5370000D01*
X8535000Y-5340000D02*
X8505000Y-5370000D01*
X8530000Y-4490000D02*
X8560000Y-4520000D01*
X8560000Y-4490000D02*
X8530000Y-4520000D01*
X8530000Y-4565000D02*
X8560000Y-4595000D01*
X8560000Y-4565000D02*
X8530000Y-4595000D01*
X8563800Y-5235000D02*
X8593800Y-5265000D01*
X8593800Y-5235000D02*
X8563800Y-5265000D01*
X8740000Y-6620000D02*
X8770000Y-6650000D01*
X8770000Y-6620000D02*
X8740000Y-6650000D01*
X8817791Y-6438557D02*
X8847791Y-6468557D01*
X8847791Y-6438557D02*
X8817791Y-6468557D01*
X8860000Y-4490000D02*
X8890000Y-4520000D01*
X8890000Y-4490000D02*
X8860000Y-4520000D01*
X8860000Y-4565000D02*
X8890000Y-4595000D01*
X8890000Y-4565000D02*
X8860000Y-4595000D01*
X8862985Y-6372407D02*
X8892985Y-6402407D01*
X8892985Y-6372407D02*
X8862985Y-6402407D01*
X8900000Y-4150000D02*
X8930000Y-4180000D01*
X8930000Y-4150000D02*
X8900000Y-4180000D01*
X8900000Y-4270000D02*
X8930000Y-4300000D01*
X8930000Y-4270000D02*
X8900000Y-4300000D01*
X8900000Y-4390000D02*
X8930000Y-4420000D01*
X8930000Y-4390000D02*
X8900000Y-4420000D01*
X8908431Y-6306569D02*
X8938431Y-6336569D01*
X8938431Y-6306569D02*
X8908431Y-6336569D01*
X8940000Y-4490000D02*
X8970000Y-4520000D01*
X8970000Y-4490000D02*
X8940000Y-4520000D01*
X8940000Y-4565000D02*
X8970000Y-4595000D01*
X8970000Y-4565000D02*
X8940000Y-4595000D01*
X8950000Y-5945000D02*
X8980000Y-5975000D01*
X8980000Y-5945000D02*
X8950000Y-5975000D01*
X8954000Y-4790000D02*
X8984000Y-4820000D01*
X8984000Y-4790000D02*
X8954000Y-4820000D01*
X8965000Y-6250000D02*
X8995000Y-6280000D01*
X8995000Y-6250000D02*
X8965000Y-6280000D01*
X9125000Y-5935000D02*
X9155000Y-5965000D01*
X9155000Y-5935000D02*
X9125000Y-5965000D01*
X9332258Y-6224219D02*
X9362258Y-6254219D01*
X9362258Y-6224219D02*
X9332258Y-6254219D01*
X9365000Y-7340000D02*
X9395000Y-7370000D01*
X9395000Y-7340000D02*
X9365000Y-7370000D01*
X9378920Y-6289201D02*
X9408920Y-6319201D01*
X9408920Y-6289201D02*
X9378920Y-6319201D01*
X9395000Y-5245000D02*
X9425000Y-5275000D01*
X9425000Y-5245000D02*
X9395000Y-5275000D01*
X9430000Y-5365000D02*
X9460000Y-5395000D01*
X9460000Y-5365000D02*
X9430000Y-5395000D01*
X9443238Y-6336776D02*
X9473238Y-6366776D01*
X9473238Y-6336776D02*
X9443238Y-6366776D01*
X9455000Y-5930000D02*
X9485000Y-5960000D01*
X9485000Y-5930000D02*
X9455000Y-5960000D01*
X9460000Y-6415000D02*
X9490000Y-6445000D01*
X9490000Y-6415000D02*
X9460000Y-6445000D01*
X9690000Y-5480000D02*
X9720000Y-5510000D01*
X9720000Y-5480000D02*
X9690000Y-5510000D01*
X9820000Y-6620000D02*
X9850000Y-6650000D01*
X9850000Y-6620000D02*
X9820000Y-6650000D01*
X10029000Y-4773000D02*
X10059000Y-4803000D01*
X10059000Y-4773000D02*
X10029000Y-4803000D01*
X10350000Y-4470000D02*
X10380000Y-4500000D01*
X10380000Y-4470000D02*
X10350000Y-4500000D01*
X10350000Y-4545000D02*
X10380000Y-4575000D01*
X10380000Y-4545000D02*
X10350000Y-4575000D01*
X10390000Y-4130000D02*
X10420000Y-4160000D01*
X10420000Y-4130000D02*
X10390000Y-4160000D01*
X10390000Y-4250000D02*
X10420000Y-4280000D01*
X10420000Y-4250000D02*
X10390000Y-4280000D01*
X10390000Y-4370000D02*
X10420000Y-4400000D01*
X10420000Y-4370000D02*
X10390000Y-4400000D01*
X10430000Y-4470000D02*
X10460000Y-4500000D01*
X10460000Y-4470000D02*
X10430000Y-4500000D01*
X10430000Y-4545000D02*
X10460000Y-4575000D01*
X10460000Y-4545000D02*
X10430000Y-4575000D01*
X10760000Y-4470000D02*
X10790000Y-4500000D01*
X10790000Y-4470000D02*
X10760000Y-4500000D01*
X10760000Y-4545000D02*
X10790000Y-4575000D01*
X10790000Y-4545000D02*
X10760000Y-4575000D01*
X10800000Y-4130000D02*
X10830000Y-4160000D01*
X10830000Y-4130000D02*
X10800000Y-4160000D01*
X10800000Y-4250000D02*
X10830000Y-4280000D01*
X10830000Y-4250000D02*
X10800000Y-4280000D01*
X10800000Y-4370000D02*
X10830000Y-4400000D01*
X10830000Y-4370000D02*
X10800000Y-4400000D01*
X10840000Y-4470000D02*
X10870000Y-4500000D01*
X10870000Y-4470000D02*
X10840000Y-4500000D01*
X10840000Y-4545000D02*
X10870000Y-4575000D01*
X10870000Y-4545000D02*
X10840000Y-4575000D01*
X10935000Y-4770000D02*
X10965000Y-4800000D01*
X10965000Y-4770000D02*
X10935000Y-4800000D01*
X11745000Y-4363500D02*
X11775000Y-4393500D01*
X11775000Y-4363500D02*
X11745000Y-4393500D01*
X12199336Y-4364336D02*
X12229336Y-4394336D01*
X12229336Y-4364336D02*
X12199336Y-4394336D01*
X12945000Y-4760000D02*
X12975000Y-4790000D01*
X12975000Y-4760000D02*
X12945000Y-4790000D01*
X13040000Y-4085000D02*
X13070000Y-4115000D01*
X13070000Y-4085000D02*
X13040000Y-4115000D01*
X13040000Y-4160000D02*
X13070000Y-4190000D01*
X13070000Y-4160000D02*
X13040000Y-4190000D01*
X13080000Y-3745000D02*
X13110000Y-3775000D01*
X13110000Y-3745000D02*
X13080000Y-3775000D01*
X13080000Y-3865000D02*
X13110000Y-3895000D01*
X13110000Y-3865000D02*
X13080000Y-3895000D01*
X13080000Y-3985000D02*
X13110000Y-4015000D01*
X13110000Y-3985000D02*
X13080000Y-4015000D01*
X13120000Y-4085000D02*
X13150000Y-4115000D01*
X13150000Y-4085000D02*
X13120000Y-4115000D01*
X13120000Y-4160000D02*
X13150000Y-4190000D01*
X13150000Y-4160000D02*
X13120000Y-4190000D01*
X13315000Y-2790000D02*
X13345000Y-2820000D01*
X13345000Y-2790000D02*
X13315000Y-2820000D01*
X13450000Y-4085000D02*
X13480000Y-4115000D01*
X13480000Y-4085000D02*
X13450000Y-4115000D01*
X13450000Y-4160000D02*
X13480000Y-4190000D01*
X13480000Y-4160000D02*
X13450000Y-4190000D01*
X13490000Y-3745000D02*
X13520000Y-3775000D01*
X13520000Y-3745000D02*
X13490000Y-3775000D01*
X13490000Y-3865000D02*
X13520000Y-3895000D01*
X13520000Y-3865000D02*
X13490000Y-3895000D01*
X13490000Y-3985000D02*
X13520000Y-4015000D01*
X13520000Y-3985000D02*
X13490000Y-4015000D01*
X13530000Y-4085000D02*
X13560000Y-4115000D01*
X13560000Y-4085000D02*
X13530000Y-4115000D01*
X13530000Y-4160000D02*
X13560000Y-4190000D01*
X13560000Y-4160000D02*
X13530000Y-4190000D01*
X5397500Y-6800000D02*
G75*
G02*
X5302500Y-6800000I-47500J0D01*
G01*
X5302500Y-6800000D02*
G75*
G02*
X5397500Y-6800000I47500J0D01*
G01*
X5647500Y-6800000D02*
G75*
G02*
X5552500Y-6800000I-47500J0D01*
G01*
X5552500Y-6800000D02*
G75*
G02*
X5647500Y-6800000I47500J0D01*
G01*
X5897500Y-6800000D02*
G75*
G02*
X5802500Y-6800000I-47500J0D01*
G01*
X5802500Y-6800000D02*
G75*
G02*
X5897500Y-6800000I47500J0D01*
G01*
X6147500Y-6800000D02*
G75*
G02*
X6052500Y-6800000I-47500J0D01*
G01*
X6052500Y-6800000D02*
G75*
G02*
X6147500Y-6800000I47500J0D01*
G01*
X7197500Y-6800000D02*
G75*
G02*
X7102500Y-6800000I-47500J0D01*
G01*
X7102500Y-6800000D02*
G75*
G02*
X7197500Y-6800000I47500J0D01*
G01*
X7447500Y-6800000D02*
G75*
G02*
X7352500Y-6800000I-47500J0D01*
G01*
X7352500Y-6800000D02*
G75*
G02*
X7447500Y-6800000I47500J0D01*
G01*
X7697500Y-6800000D02*
G75*
G02*
X7602500Y-6800000I-47500J0D01*
G01*
X7602500Y-6800000D02*
G75*
G02*
X7697500Y-6800000I47500J0D01*
G01*
X7947500Y-6800000D02*
G75*
G02*
X7852500Y-6800000I-47500J0D01*
G01*
X7852500Y-6800000D02*
G75*
G02*
X7947500Y-6800000I47500J0D01*
G01*
X10497500Y-6800000D02*
G75*
G02*
X10402500Y-6800000I-47500J0D01*
G01*
X10402500Y-6800000D02*
G75*
G02*
X10497500Y-6800000I47500J0D01*
G01*
X10747500Y-6800000D02*
G75*
G02*
X10652500Y-6800000I-47500J0D01*
G01*
X10652500Y-6800000D02*
G75*
G02*
X10747500Y-6800000I47500J0D01*
G01*
X10997500Y-6800000D02*
G75*
G02*
X10902500Y-6800000I-47500J0D01*
G01*
X10902500Y-6800000D02*
G75*
G02*
X10997500Y-6800000I47500J0D01*
G01*
X11247500Y-6800000D02*
G75*
G02*
X11152500Y-6800000I-47500J0D01*
G01*
X11152500Y-6800000D02*
G75*
G02*
X11247500Y-6800000I47500J0D01*
G01*
X12297500Y-6800000D02*
G75*
G02*
X12202500Y-6800000I-47500J0D01*
G01*
X12202500Y-6800000D02*
G75*
G02*
X12297500Y-6800000I47500J0D01*
G01*
X12547500Y-6800000D02*
G75*
G02*
X12452500Y-6800000I-47500J0D01*
G01*
X12452500Y-6800000D02*
G75*
G02*
X12547500Y-6800000I47500J0D01*
G01*
X12797500Y-6800000D02*
G75*
G02*
X12702500Y-6800000I-47500J0D01*
G01*
X12702500Y-6800000D02*
G75*
G02*
X12797500Y-6800000I47500J0D01*
G01*
X13047500Y-6800000D02*
G75*
G02*
X12952500Y-6800000I-47500J0D01*
G01*
X12952500Y-6800000D02*
G75*
G02*
X13047500Y-6800000I47500J0D01*
G01*
D13*
X7101000Y-7908000D02*
X7101000Y-8010000D01*
X7050000Y-7959000D02*
X7152000Y-7959000D01*
X7101000Y-10194000D02*
X7101000Y-10296000D01*
X7050000Y-10245000D02*
X7152000Y-10245000D01*
X7355000Y-7908000D02*
X7355000Y-8010000D01*
X7304000Y-7959000D02*
X7406000Y-7959000D01*
X7355000Y-10194000D02*
X7355000Y-10296000D01*
X7304000Y-10245000D02*
X7406000Y-10245000D01*
X7609000Y-7908000D02*
X7609000Y-8010000D01*
X7558000Y-7959000D02*
X7660000Y-7959000D01*
X7609000Y-10194000D02*
X7609000Y-10296000D01*
X7558000Y-10245000D02*
X7660000Y-10245000D01*
X7863000Y-7908000D02*
X7863000Y-8010000D01*
X7812000Y-7959000D02*
X7914000Y-7959000D01*
X7863000Y-10194000D02*
X7863000Y-10296000D01*
X7812000Y-10245000D02*
X7914000Y-10245000D01*
X8117000Y-7908000D02*
X8117000Y-8010000D01*
X8066000Y-7959000D02*
X8168000Y-7959000D01*
X8117000Y-10194000D02*
X8117000Y-10296000D01*
X8066000Y-10245000D02*
X8168000Y-10245000D01*
X8371000Y-7908000D02*
X8371000Y-8010000D01*
X8320000Y-7959000D02*
X8422000Y-7959000D01*
X8371000Y-10194000D02*
X8371000Y-10296000D01*
X8320000Y-10245000D02*
X8422000Y-10245000D01*
X8625000Y-7908000D02*
X8625000Y-8010000D01*
X8574000Y-7959000D02*
X8676000Y-7959000D01*
X8625000Y-10194000D02*
X8625000Y-10296000D01*
X8574000Y-10245000D02*
X8676000Y-10245000D01*
X8879000Y-7908000D02*
X8879000Y-8010000D01*
X8828000Y-7959000D02*
X8930000Y-7959000D01*
X8879000Y-10194000D02*
X8879000Y-10296000D01*
X8828000Y-10245000D02*
X8930000Y-10245000D01*
X9133000Y-7908000D02*
X9133000Y-8010000D01*
X9082000Y-7959000D02*
X9184000Y-7959000D01*
X9133000Y-10194000D02*
X9133000Y-10296000D01*
X9082000Y-10245000D02*
X9184000Y-10245000D01*
X9387000Y-7908000D02*
X9387000Y-8010000D01*
X9336000Y-7959000D02*
X9438000Y-7959000D01*
X9387000Y-10194000D02*
X9387000Y-10296000D01*
X9336000Y-10245000D02*
X9438000Y-10245000D01*
X9641000Y-7908000D02*
X9641000Y-8010000D01*
X9590000Y-7959000D02*
X9692000Y-7959000D01*
X9641000Y-10194000D02*
X9641000Y-10296000D01*
X9590000Y-10245000D02*
X9692000Y-10245000D01*
X9895000Y-7908000D02*
X9895000Y-8010000D01*
X9844000Y-7959000D02*
X9946000Y-7959000D01*
X9895000Y-10194000D02*
X9895000Y-10296000D01*
X9844000Y-10245000D02*
X9946000Y-10245000D01*
X10149000Y-7908000D02*
X10149000Y-8010000D01*
X10098000Y-7959000D02*
X10200000Y-7959000D01*
X10149000Y-10194000D02*
X10149000Y-10296000D01*
X10098000Y-10245000D02*
X10200000Y-10245000D01*
X10403000Y-7908000D02*
X10403000Y-8010000D01*
X10352000Y-7959000D02*
X10454000Y-7959000D01*
X10403000Y-10194000D02*
X10403000Y-10296000D01*
X10352000Y-10245000D02*
X10454000Y-10245000D01*
X10657000Y-7908000D02*
X10657000Y-8010000D01*
X10606000Y-7959000D02*
X10708000Y-7959000D01*
X10657000Y-10194000D02*
X10657000Y-10296000D01*
X10606000Y-10245000D02*
X10708000Y-10245000D01*
X10911000Y-7908000D02*
X10911000Y-8010000D01*
X10860000Y-7959000D02*
X10962000Y-7959000D01*
X10911000Y-10194000D02*
X10911000Y-10296000D01*
X10860000Y-10245000D02*
X10962000Y-10245000D01*
X11165000Y-7908000D02*
X11165000Y-8010000D01*
X11114000Y-7959000D02*
X11216000Y-7959000D01*
X11165000Y-10194000D02*
X11165000Y-10296000D01*
X11114000Y-10245000D02*
X11216000Y-10245000D01*
X11419000Y-7908000D02*
X11419000Y-8010000D01*
X11368000Y-7959000D02*
X11470000Y-7959000D01*
X11419000Y-10194000D02*
X11419000Y-10296000D01*
X11368000Y-10245000D02*
X11470000Y-10245000D01*
X11673000Y-7908000D02*
X11673000Y-8010000D01*
X11622000Y-7959000D02*
X11724000Y-7959000D01*
X11673000Y-10194000D02*
X11673000Y-10296000D01*
X11622000Y-10245000D02*
X11724000Y-10245000D01*
X11927000Y-7908000D02*
X11927000Y-8010000D01*
X11876000Y-7959000D02*
X11978000Y-7959000D01*
X11927000Y-10194000D02*
X11927000Y-10296000D01*
X11876000Y-10245000D02*
X11978000Y-10245000D01*
X12181000Y-7908000D02*
X12181000Y-8010000D01*
X12130000Y-7959000D02*
X12232000Y-7959000D01*
X12181000Y-10194000D02*
X12181000Y-10296000D01*
X12130000Y-10245000D02*
X12232000Y-10245000D01*
X12435000Y-7908000D02*
X12435000Y-8010000D01*
X12384000Y-7959000D02*
X12486000Y-7959000D01*
X12435000Y-10194000D02*
X12435000Y-10296000D01*
X12384000Y-10245000D02*
X12486000Y-10245000D01*
D14*
X6159952Y-3839952D02*
X6159952Y-3760048D01*
X6080048Y-3760048D01*
X6080048Y-3839952D01*
X6159952Y-3839952D01*
X6286952Y-3286952D02*
X6286952Y-3207048D01*
X6207048Y-3207048D01*
X6207048Y-3286952D01*
X6286952Y-3286952D01*
X6413952Y-3839952D02*
X6413952Y-3760048D01*
X6334048Y-3760048D01*
X6334048Y-3839952D01*
X6413952Y-3839952D01*
X6540952Y-3286952D02*
X6540952Y-3207048D01*
X6461048Y-3207048D01*
X6461048Y-3286952D01*
X6540952Y-3286952D01*
X6667952Y-3839952D02*
X6667952Y-3760048D01*
X6588048Y-3760048D01*
X6588048Y-3839952D01*
X6667952Y-3839952D01*
X6794952Y-3286952D02*
X6794952Y-3207048D01*
X6715048Y-3207048D01*
X6715048Y-3286952D01*
X6794952Y-3286952D01*
X6921952Y-3839952D02*
X6921952Y-3760048D01*
X6842048Y-3760048D01*
X6842048Y-3839952D01*
X6921952Y-3839952D01*
X7048952Y-3286952D02*
X7048952Y-3207048D01*
X6969048Y-3207048D01*
X6969048Y-3286952D01*
X7048952Y-3286952D01*
X7175952Y-3839952D02*
X7175952Y-3760048D01*
X7096048Y-3760048D01*
X7096048Y-3839952D01*
X7175952Y-3839952D01*
X7302952Y-3286952D02*
X7302952Y-3207048D01*
X7223048Y-3207048D01*
X7223048Y-3286952D01*
X7302952Y-3286952D01*
X7429952Y-3839952D02*
X7429952Y-3760048D01*
X7350048Y-3760048D01*
X7350048Y-3839952D01*
X7429952Y-3839952D01*
X7556952Y-3286952D02*
X7556952Y-3207048D01*
X7477048Y-3207048D01*
X7477048Y-3286952D01*
X7556952Y-3286952D01*
X7683952Y-3839952D02*
X7683952Y-3760048D01*
X7604048Y-3760048D01*
X7604048Y-3839952D01*
X7683952Y-3839952D01*
X7810952Y-3286952D02*
X7810952Y-3207048D01*
X7731048Y-3207048D01*
X7731048Y-3286952D01*
X7810952Y-3286952D01*
X7937952Y-3839952D02*
X7937952Y-3760048D01*
X7858048Y-3760048D01*
X7858048Y-3839952D01*
X7937952Y-3839952D01*
X11139952Y-3839952D02*
X11139952Y-3760048D01*
X11060048Y-3760048D01*
X11060048Y-3839952D01*
X11139952Y-3839952D01*
X11266952Y-3286952D02*
X11266952Y-3207048D01*
X11187048Y-3207048D01*
X11187048Y-3286952D01*
X11266952Y-3286952D01*
X11393952Y-3839952D02*
X11393952Y-3760048D01*
X11314048Y-3760048D01*
X11314048Y-3839952D01*
X11393952Y-3839952D01*
X11520952Y-3286952D02*
X11520952Y-3207048D01*
X11441048Y-3207048D01*
X11441048Y-3286952D01*
X11520952Y-3286952D01*
X11647952Y-3839952D02*
X11647952Y-3760048D01*
X11568048Y-3760048D01*
X11568048Y-3839952D01*
X11647952Y-3839952D01*
X11774952Y-3286952D02*
X11774952Y-3207048D01*
X11695048Y-3207048D01*
X11695048Y-3286952D01*
X11774952Y-3286952D01*
X11901952Y-3839952D02*
X11901952Y-3760048D01*
X11822048Y-3760048D01*
X11822048Y-3839952D01*
X11901952Y-3839952D01*
X12028952Y-3286952D02*
X12028952Y-3207048D01*
X11949048Y-3207048D01*
X11949048Y-3286952D01*
X12028952Y-3286952D01*
X12155952Y-3839952D02*
X12155952Y-3760048D01*
X12076048Y-3760048D01*
X12076048Y-3839952D01*
X12155952Y-3839952D01*
X12282952Y-3286952D02*
X12282952Y-3207048D01*
X12203048Y-3207048D01*
X12203048Y-3286952D01*
X12282952Y-3286952D01*
X12409952Y-3839952D02*
X12409952Y-3760048D01*
X12330048Y-3760048D01*
X12330048Y-3839952D01*
X12409952Y-3839952D01*
X12536952Y-3286952D02*
X12536952Y-3207048D01*
X12457048Y-3207048D01*
X12457048Y-3286952D01*
X12536952Y-3286952D01*
X12663952Y-3839952D02*
X12663952Y-3760048D01*
X12584048Y-3760048D01*
X12584048Y-3839952D01*
X12663952Y-3839952D01*
X12790952Y-3286952D02*
X12790952Y-3207048D01*
X12711048Y-3207048D01*
X12711048Y-3286952D01*
X12790952Y-3286952D01*
X12917952Y-3839952D02*
X12917952Y-3760048D01*
X12838048Y-3760048D01*
X12838048Y-3839952D01*
X12917952Y-3839952D01*
D15*
X5500000Y-5935000D02*
X5635000Y-5800000D01*
X5500000Y-5665000D01*
X5365000Y-5800000D01*
X5500000Y-5935000D01*
X6000000Y-5935000D02*
X6135000Y-5800000D01*
X6000000Y-5665000D01*
X5865000Y-5800000D01*
X6000000Y-5935000D01*
X7300000Y-5935000D02*
X7435000Y-5800000D01*
X7300000Y-5665000D01*
X7165000Y-5800000D01*
X7300000Y-5935000D01*
X7800000Y-5935000D02*
X7935000Y-5800000D01*
X7800000Y-5665000D01*
X7665000Y-5800000D01*
X7800000Y-5935000D01*
X9450000Y-3385000D02*
X9585000Y-3250000D01*
X9450000Y-3115000D01*
X9315000Y-3250000D01*
X9450000Y-3385000D01*
X9450000Y-3885000D02*
X9585000Y-3750000D01*
X9450000Y-3615000D01*
X9315000Y-3750000D01*
X9450000Y-3885000D01*
X10600000Y-5935000D02*
X10735000Y-5800000D01*
X10600000Y-5665000D01*
X10465000Y-5800000D01*
X10600000Y-5935000D01*
X11100000Y-5935000D02*
X11235000Y-5800000D01*
X11100000Y-5665000D01*
X10965000Y-5800000D01*
X11100000Y-5935000D01*
X12400000Y-5935000D02*
X12535000Y-5800000D01*
X12400000Y-5665000D01*
X12265000Y-5800000D01*
X12400000Y-5935000D01*
X12900000Y-5935000D02*
X13035000Y-5800000D01*
X12900000Y-5665000D01*
X12765000Y-5800000D01*
X12900000Y-5935000D01*
D11*
X5008277Y-10913984D02*
X5008277Y-10713984D01*
X5008277Y-10713984D02*
X5055896Y-10713984D01*
X5055896Y-10713984D02*
X5084467Y-10723508D01*
X5084467Y-10723508D02*
X5103515Y-10742555D01*
X5103515Y-10742555D02*
X5113039Y-10761603D01*
X5113039Y-10761603D02*
X5122563Y-10799698D01*
X5122563Y-10799698D02*
X5122563Y-10828270D01*
X5122563Y-10828270D02*
X5113039Y-10866365D01*
X5113039Y-10866365D02*
X5103515Y-10885412D01*
X5103515Y-10885412D02*
X5084467Y-10904460D01*
X5084467Y-10904460D02*
X5055896Y-10913984D01*
X5055896Y-10913984D02*
X5008277Y-10913984D01*
X5208277Y-10913984D02*
X5208277Y-10780650D01*
X5208277Y-10818746D02*
X5217801Y-10799698D01*
X5217801Y-10799698D02*
X5227324Y-10790174D01*
X5227324Y-10790174D02*
X5246372Y-10780650D01*
X5246372Y-10780650D02*
X5265420Y-10780650D01*
X5332086Y-10913984D02*
X5332086Y-10780650D01*
X5332086Y-10713984D02*
X5322563Y-10723508D01*
X5322563Y-10723508D02*
X5332086Y-10733031D01*
X5332086Y-10733031D02*
X5341610Y-10723508D01*
X5341610Y-10723508D02*
X5332086Y-10713984D01*
X5332086Y-10713984D02*
X5332086Y-10733031D01*
X5455896Y-10913984D02*
X5436848Y-10904460D01*
X5436848Y-10904460D02*
X5427324Y-10885412D01*
X5427324Y-10885412D02*
X5427324Y-10713984D01*
X5560658Y-10913984D02*
X5541610Y-10904460D01*
X5541610Y-10904460D02*
X5532086Y-10885412D01*
X5532086Y-10885412D02*
X5532086Y-10713984D01*
X5789229Y-10913984D02*
X5789229Y-10713984D01*
X5789229Y-10713984D02*
X5855896Y-10856841D01*
X5855896Y-10856841D02*
X5922562Y-10713984D01*
X5922562Y-10713984D02*
X5922562Y-10913984D01*
X6103515Y-10913984D02*
X6103515Y-10809222D01*
X6103515Y-10809222D02*
X6093991Y-10790174D01*
X6093991Y-10790174D02*
X6074943Y-10780650D01*
X6074943Y-10780650D02*
X6036848Y-10780650D01*
X6036848Y-10780650D02*
X6017801Y-10790174D01*
X6103515Y-10904460D02*
X6084467Y-10913984D01*
X6084467Y-10913984D02*
X6036848Y-10913984D01*
X6036848Y-10913984D02*
X6017801Y-10904460D01*
X6017801Y-10904460D02*
X6008277Y-10885412D01*
X6008277Y-10885412D02*
X6008277Y-10866365D01*
X6008277Y-10866365D02*
X6017801Y-10847317D01*
X6017801Y-10847317D02*
X6036848Y-10837793D01*
X6036848Y-10837793D02*
X6084467Y-10837793D01*
X6084467Y-10837793D02*
X6103515Y-10828270D01*
X6198753Y-10780650D02*
X6198753Y-10980650D01*
X6198753Y-10790174D02*
X6217801Y-10780650D01*
X6217801Y-10780650D02*
X6255896Y-10780650D01*
X6255896Y-10780650D02*
X6274943Y-10790174D01*
X6274943Y-10790174D02*
X6284467Y-10799698D01*
X6284467Y-10799698D02*
X6293991Y-10818746D01*
X6293991Y-10818746D02*
X6293991Y-10875889D01*
X6293991Y-10875889D02*
X6284467Y-10894936D01*
X6284467Y-10894936D02*
X6274943Y-10904460D01*
X6274943Y-10904460D02*
X6255896Y-10913984D01*
X6255896Y-10913984D02*
X6217801Y-10913984D01*
X6217801Y-10913984D02*
X6198753Y-10904460D01*
X6379705Y-10894936D02*
X6389229Y-10904460D01*
X6389229Y-10904460D02*
X6379705Y-10913984D01*
X6379705Y-10913984D02*
X6370182Y-10904460D01*
X6370182Y-10904460D02*
X6379705Y-10894936D01*
X6379705Y-10894936D02*
X6379705Y-10913984D01*
X6379705Y-10790174D02*
X6389229Y-10799698D01*
X6389229Y-10799698D02*
X6379705Y-10809222D01*
X6379705Y-10809222D02*
X6370182Y-10799698D01*
X6370182Y-10799698D02*
X6379705Y-10790174D01*
X6379705Y-10790174D02*
X6379705Y-10809222D01*
D12*
X4717500Y-11227500D02*
X4747500Y-11257500D01*
X4747500Y-11227500D02*
X4717500Y-11257500D01*
D11*
X5046372Y-11133984D02*
X5065420Y-11133984D01*
X5065420Y-11133984D02*
X5084467Y-11143508D01*
X5084467Y-11143508D02*
X5093991Y-11153031D01*
X5093991Y-11153031D02*
X5103515Y-11172079D01*
X5103515Y-11172079D02*
X5113039Y-11210174D01*
X5113039Y-11210174D02*
X5113039Y-11257793D01*
X5113039Y-11257793D02*
X5103515Y-11295888D01*
X5103515Y-11295888D02*
X5093991Y-11314936D01*
X5093991Y-11314936D02*
X5084467Y-11324460D01*
X5084467Y-11324460D02*
X5065420Y-11333984D01*
X5065420Y-11333984D02*
X5046372Y-11333984D01*
X5046372Y-11333984D02*
X5027324Y-11324460D01*
X5027324Y-11324460D02*
X5017801Y-11314936D01*
X5017801Y-11314936D02*
X5008277Y-11295888D01*
X5008277Y-11295888D02*
X4998753Y-11257793D01*
X4998753Y-11257793D02*
X4998753Y-11210174D01*
X4998753Y-11210174D02*
X5008277Y-11172079D01*
X5008277Y-11172079D02*
X5017801Y-11153031D01*
X5017801Y-11153031D02*
X5027324Y-11143508D01*
X5027324Y-11143508D02*
X5046372Y-11133984D01*
X5198753Y-11314936D02*
X5208277Y-11324460D01*
X5208277Y-11324460D02*
X5198753Y-11333984D01*
X5198753Y-11333984D02*
X5189229Y-11324460D01*
X5189229Y-11324460D02*
X5198753Y-11314936D01*
X5198753Y-11314936D02*
X5198753Y-11333984D01*
X5274944Y-11133984D02*
X5398753Y-11133984D01*
X5398753Y-11133984D02*
X5332086Y-11210174D01*
X5332086Y-11210174D02*
X5360658Y-11210174D01*
X5360658Y-11210174D02*
X5379705Y-11219698D01*
X5379705Y-11219698D02*
X5389229Y-11229222D01*
X5389229Y-11229222D02*
X5398753Y-11248269D01*
X5398753Y-11248269D02*
X5398753Y-11295888D01*
X5398753Y-11295888D02*
X5389229Y-11314936D01*
X5389229Y-11314936D02*
X5379705Y-11324460D01*
X5379705Y-11324460D02*
X5360658Y-11333984D01*
X5360658Y-11333984D02*
X5303515Y-11333984D01*
X5303515Y-11333984D02*
X5284467Y-11324460D01*
X5284467Y-11324460D02*
X5274944Y-11314936D01*
X5522563Y-11133984D02*
X5541610Y-11133984D01*
X5541610Y-11133984D02*
X5560658Y-11143508D01*
X5560658Y-11143508D02*
X5570182Y-11153031D01*
X5570182Y-11153031D02*
X5579705Y-11172079D01*
X5579705Y-11172079D02*
X5589229Y-11210174D01*
X5589229Y-11210174D02*
X5589229Y-11257793D01*
X5589229Y-11257793D02*
X5579705Y-11295888D01*
X5579705Y-11295888D02*
X5570182Y-11314936D01*
X5570182Y-11314936D02*
X5560658Y-11324460D01*
X5560658Y-11324460D02*
X5541610Y-11333984D01*
X5541610Y-11333984D02*
X5522563Y-11333984D01*
X5522563Y-11333984D02*
X5503515Y-11324460D01*
X5503515Y-11324460D02*
X5493991Y-11314936D01*
X5493991Y-11314936D02*
X5484467Y-11295888D01*
X5484467Y-11295888D02*
X5474944Y-11257793D01*
X5474944Y-11257793D02*
X5474944Y-11210174D01*
X5474944Y-11210174D02*
X5484467Y-11172079D01*
X5484467Y-11172079D02*
X5493991Y-11153031D01*
X5493991Y-11153031D02*
X5503515Y-11143508D01*
X5503515Y-11143508D02*
X5522563Y-11133984D01*
X5713039Y-11133984D02*
X5732086Y-11133984D01*
X5732086Y-11133984D02*
X5751134Y-11143508D01*
X5751134Y-11143508D02*
X5760658Y-11153031D01*
X5760658Y-11153031D02*
X5770182Y-11172079D01*
X5770182Y-11172079D02*
X5779705Y-11210174D01*
X5779705Y-11210174D02*
X5779705Y-11257793D01*
X5779705Y-11257793D02*
X5770182Y-11295888D01*
X5770182Y-11295888D02*
X5760658Y-11314936D01*
X5760658Y-11314936D02*
X5751134Y-11324460D01*
X5751134Y-11324460D02*
X5732086Y-11333984D01*
X5732086Y-11333984D02*
X5713039Y-11333984D01*
X5713039Y-11333984D02*
X5693991Y-11324460D01*
X5693991Y-11324460D02*
X5684467Y-11314936D01*
X5684467Y-11314936D02*
X5674943Y-11295888D01*
X5674943Y-11295888D02*
X5665420Y-11257793D01*
X5665420Y-11257793D02*
X5665420Y-11210174D01*
X5665420Y-11210174D02*
X5674943Y-11172079D01*
X5674943Y-11172079D02*
X5684467Y-11153031D01*
X5684467Y-11153031D02*
X5693991Y-11143508D01*
X5693991Y-11143508D02*
X5713039Y-11133984D01*
X5865420Y-11333984D02*
X5865420Y-11200650D01*
X5865420Y-11219698D02*
X5874943Y-11210174D01*
X5874943Y-11210174D02*
X5893991Y-11200650D01*
X5893991Y-11200650D02*
X5922563Y-11200650D01*
X5922563Y-11200650D02*
X5941610Y-11210174D01*
X5941610Y-11210174D02*
X5951134Y-11229222D01*
X5951134Y-11229222D02*
X5951134Y-11333984D01*
X5951134Y-11229222D02*
X5960658Y-11210174D01*
X5960658Y-11210174D02*
X5979705Y-11200650D01*
X5979705Y-11200650D02*
X6008277Y-11200650D01*
X6008277Y-11200650D02*
X6027324Y-11210174D01*
X6027324Y-11210174D02*
X6036848Y-11229222D01*
X6036848Y-11229222D02*
X6036848Y-11333984D01*
X6132086Y-11333984D02*
X6132086Y-11200650D01*
X6132086Y-11219698D02*
X6141610Y-11210174D01*
X6141610Y-11210174D02*
X6160658Y-11200650D01*
X6160658Y-11200650D02*
X6189229Y-11200650D01*
X6189229Y-11200650D02*
X6208277Y-11210174D01*
X6208277Y-11210174D02*
X6217801Y-11229222D01*
X6217801Y-11229222D02*
X6217801Y-11333984D01*
X6217801Y-11229222D02*
X6227324Y-11210174D01*
X6227324Y-11210174D02*
X6246372Y-11200650D01*
X6246372Y-11200650D02*
X6274943Y-11200650D01*
X6274943Y-11200650D02*
X6293991Y-11210174D01*
X6293991Y-11210174D02*
X6303515Y-11229222D01*
X6303515Y-11229222D02*
X6303515Y-11333984D01*
X6693991Y-11124460D02*
X6522563Y-11381603D01*
X6951134Y-11133984D02*
X6970182Y-11133984D01*
X6970182Y-11133984D02*
X6989229Y-11143508D01*
X6989229Y-11143508D02*
X6998753Y-11153031D01*
X6998753Y-11153031D02*
X7008277Y-11172079D01*
X7008277Y-11172079D02*
X7017801Y-11210174D01*
X7017801Y-11210174D02*
X7017801Y-11257793D01*
X7017801Y-11257793D02*
X7008277Y-11295888D01*
X7008277Y-11295888D02*
X6998753Y-11314936D01*
X6998753Y-11314936D02*
X6989229Y-11324460D01*
X6989229Y-11324460D02*
X6970182Y-11333984D01*
X6970182Y-11333984D02*
X6951134Y-11333984D01*
X6951134Y-11333984D02*
X6932086Y-11324460D01*
X6932086Y-11324460D02*
X6922563Y-11314936D01*
X6922563Y-11314936D02*
X6913039Y-11295888D01*
X6913039Y-11295888D02*
X6903515Y-11257793D01*
X6903515Y-11257793D02*
X6903515Y-11210174D01*
X6903515Y-11210174D02*
X6913039Y-11172079D01*
X6913039Y-11172079D02*
X6922563Y-11153031D01*
X6922563Y-11153031D02*
X6932086Y-11143508D01*
X6932086Y-11143508D02*
X6951134Y-11133984D01*
X7103515Y-11314936D02*
X7113039Y-11324460D01*
X7113039Y-11324460D02*
X7103515Y-11333984D01*
X7103515Y-11333984D02*
X7093991Y-11324460D01*
X7093991Y-11324460D02*
X7103515Y-11314936D01*
X7103515Y-11314936D02*
X7103515Y-11333984D01*
X7236848Y-11133984D02*
X7255896Y-11133984D01*
X7255896Y-11133984D02*
X7274944Y-11143508D01*
X7274944Y-11143508D02*
X7284467Y-11153031D01*
X7284467Y-11153031D02*
X7293991Y-11172079D01*
X7293991Y-11172079D02*
X7303515Y-11210174D01*
X7303515Y-11210174D02*
X7303515Y-11257793D01*
X7303515Y-11257793D02*
X7293991Y-11295888D01*
X7293991Y-11295888D02*
X7284467Y-11314936D01*
X7284467Y-11314936D02*
X7274944Y-11324460D01*
X7274944Y-11324460D02*
X7255896Y-11333984D01*
X7255896Y-11333984D02*
X7236848Y-11333984D01*
X7236848Y-11333984D02*
X7217801Y-11324460D01*
X7217801Y-11324460D02*
X7208277Y-11314936D01*
X7208277Y-11314936D02*
X7198753Y-11295888D01*
X7198753Y-11295888D02*
X7189229Y-11257793D01*
X7189229Y-11257793D02*
X7189229Y-11210174D01*
X7189229Y-11210174D02*
X7198753Y-11172079D01*
X7198753Y-11172079D02*
X7208277Y-11153031D01*
X7208277Y-11153031D02*
X7217801Y-11143508D01*
X7217801Y-11143508D02*
X7236848Y-11133984D01*
X7493991Y-11333984D02*
X7379706Y-11333984D01*
X7436848Y-11333984D02*
X7436848Y-11133984D01*
X7436848Y-11133984D02*
X7417801Y-11162555D01*
X7417801Y-11162555D02*
X7398753Y-11181603D01*
X7398753Y-11181603D02*
X7379706Y-11191127D01*
X7684467Y-11333984D02*
X7570182Y-11333984D01*
X7627325Y-11333984D02*
X7627325Y-11133984D01*
X7627325Y-11133984D02*
X7608277Y-11162555D01*
X7608277Y-11162555D02*
X7589229Y-11181603D01*
X7589229Y-11181603D02*
X7570182Y-11191127D01*
X7798753Y-11219698D02*
X7779706Y-11210174D01*
X7779706Y-11210174D02*
X7770182Y-11200650D01*
X7770182Y-11200650D02*
X7760658Y-11181603D01*
X7760658Y-11181603D02*
X7760658Y-11172079D01*
X7760658Y-11172079D02*
X7770182Y-11153031D01*
X7770182Y-11153031D02*
X7779706Y-11143508D01*
X7779706Y-11143508D02*
X7798753Y-11133984D01*
X7798753Y-11133984D02*
X7836848Y-11133984D01*
X7836848Y-11133984D02*
X7855896Y-11143508D01*
X7855896Y-11143508D02*
X7865420Y-11153031D01*
X7865420Y-11153031D02*
X7874944Y-11172079D01*
X7874944Y-11172079D02*
X7874944Y-11181603D01*
X7874944Y-11181603D02*
X7865420Y-11200650D01*
X7865420Y-11200650D02*
X7855896Y-11210174D01*
X7855896Y-11210174D02*
X7836848Y-11219698D01*
X7836848Y-11219698D02*
X7798753Y-11219698D01*
X7798753Y-11219698D02*
X7779706Y-11229222D01*
X7779706Y-11229222D02*
X7770182Y-11238746D01*
X7770182Y-11238746D02*
X7760658Y-11257793D01*
X7760658Y-11257793D02*
X7760658Y-11295888D01*
X7760658Y-11295888D02*
X7770182Y-11314936D01*
X7770182Y-11314936D02*
X7779706Y-11324460D01*
X7779706Y-11324460D02*
X7798753Y-11333984D01*
X7798753Y-11333984D02*
X7836848Y-11333984D01*
X7836848Y-11333984D02*
X7855896Y-11324460D01*
X7855896Y-11324460D02*
X7865420Y-11314936D01*
X7865420Y-11314936D02*
X7874944Y-11295888D01*
X7874944Y-11295888D02*
X7874944Y-11257793D01*
X7874944Y-11257793D02*
X7865420Y-11238746D01*
X7865420Y-11238746D02*
X7855896Y-11229222D01*
X7855896Y-11229222D02*
X7836848Y-11219698D01*
X7951134Y-11133984D02*
X7951134Y-11172079D01*
X8027325Y-11133984D02*
X8027325Y-11172079D01*
X8322563Y-11410174D02*
X8313039Y-11400650D01*
X8313039Y-11400650D02*
X8293991Y-11372079D01*
X8293991Y-11372079D02*
X8284468Y-11353031D01*
X8284468Y-11353031D02*
X8274944Y-11324460D01*
X8274944Y-11324460D02*
X8265420Y-11276841D01*
X8265420Y-11276841D02*
X8265420Y-11238746D01*
X8265420Y-11238746D02*
X8274944Y-11191127D01*
X8274944Y-11191127D02*
X8284468Y-11162555D01*
X8284468Y-11162555D02*
X8293991Y-11143508D01*
X8293991Y-11143508D02*
X8313039Y-11114936D01*
X8313039Y-11114936D02*
X8322563Y-11105412D01*
X8427325Y-11219698D02*
X8408277Y-11210174D01*
X8408277Y-11210174D02*
X8398753Y-11200650D01*
X8398753Y-11200650D02*
X8389230Y-11181603D01*
X8389230Y-11181603D02*
X8389230Y-11172079D01*
X8389230Y-11172079D02*
X8398753Y-11153031D01*
X8398753Y-11153031D02*
X8408277Y-11143508D01*
X8408277Y-11143508D02*
X8427325Y-11133984D01*
X8427325Y-11133984D02*
X8465420Y-11133984D01*
X8465420Y-11133984D02*
X8484468Y-11143508D01*
X8484468Y-11143508D02*
X8493991Y-11153031D01*
X8493991Y-11153031D02*
X8503515Y-11172079D01*
X8503515Y-11172079D02*
X8503515Y-11181603D01*
X8503515Y-11181603D02*
X8493991Y-11200650D01*
X8493991Y-11200650D02*
X8484468Y-11210174D01*
X8484468Y-11210174D02*
X8465420Y-11219698D01*
X8465420Y-11219698D02*
X8427325Y-11219698D01*
X8427325Y-11219698D02*
X8408277Y-11229222D01*
X8408277Y-11229222D02*
X8398753Y-11238746D01*
X8398753Y-11238746D02*
X8389230Y-11257793D01*
X8389230Y-11257793D02*
X8389230Y-11295888D01*
X8389230Y-11295888D02*
X8398753Y-11314936D01*
X8398753Y-11314936D02*
X8408277Y-11324460D01*
X8408277Y-11324460D02*
X8427325Y-11333984D01*
X8427325Y-11333984D02*
X8465420Y-11333984D01*
X8465420Y-11333984D02*
X8484468Y-11324460D01*
X8484468Y-11324460D02*
X8493991Y-11314936D01*
X8493991Y-11314936D02*
X8503515Y-11295888D01*
X8503515Y-11295888D02*
X8503515Y-11257793D01*
X8503515Y-11257793D02*
X8493991Y-11238746D01*
X8493991Y-11238746D02*
X8484468Y-11229222D01*
X8484468Y-11229222D02*
X8465420Y-11219698D01*
X8570182Y-11133984D02*
X8703515Y-11133984D01*
X8703515Y-11133984D02*
X8617801Y-11333984D01*
X8932087Y-11333984D02*
X8932087Y-11133984D01*
X9017801Y-11333984D02*
X9017801Y-11229222D01*
X9017801Y-11229222D02*
X9008277Y-11210174D01*
X9008277Y-11210174D02*
X8989230Y-11200650D01*
X8989230Y-11200650D02*
X8960658Y-11200650D01*
X8960658Y-11200650D02*
X8941611Y-11210174D01*
X8941611Y-11210174D02*
X8932087Y-11219698D01*
X9141611Y-11333984D02*
X9122563Y-11324460D01*
X9122563Y-11324460D02*
X9113039Y-11314936D01*
X9113039Y-11314936D02*
X9103515Y-11295888D01*
X9103515Y-11295888D02*
X9103515Y-11238746D01*
X9103515Y-11238746D02*
X9113039Y-11219698D01*
X9113039Y-11219698D02*
X9122563Y-11210174D01*
X9122563Y-11210174D02*
X9141611Y-11200650D01*
X9141611Y-11200650D02*
X9170182Y-11200650D01*
X9170182Y-11200650D02*
X9189230Y-11210174D01*
X9189230Y-11210174D02*
X9198753Y-11219698D01*
X9198753Y-11219698D02*
X9208277Y-11238746D01*
X9208277Y-11238746D02*
X9208277Y-11295888D01*
X9208277Y-11295888D02*
X9198753Y-11314936D01*
X9198753Y-11314936D02*
X9189230Y-11324460D01*
X9189230Y-11324460D02*
X9170182Y-11333984D01*
X9170182Y-11333984D02*
X9141611Y-11333984D01*
X9322563Y-11333984D02*
X9303515Y-11324460D01*
X9303515Y-11324460D02*
X9293992Y-11305412D01*
X9293992Y-11305412D02*
X9293992Y-11133984D01*
X9474944Y-11324460D02*
X9455896Y-11333984D01*
X9455896Y-11333984D02*
X9417801Y-11333984D01*
X9417801Y-11333984D02*
X9398753Y-11324460D01*
X9398753Y-11324460D02*
X9389230Y-11305412D01*
X9389230Y-11305412D02*
X9389230Y-11229222D01*
X9389230Y-11229222D02*
X9398753Y-11210174D01*
X9398753Y-11210174D02*
X9417801Y-11200650D01*
X9417801Y-11200650D02*
X9455896Y-11200650D01*
X9455896Y-11200650D02*
X9474944Y-11210174D01*
X9474944Y-11210174D02*
X9484468Y-11229222D01*
X9484468Y-11229222D02*
X9484468Y-11248269D01*
X9484468Y-11248269D02*
X9389230Y-11267317D01*
X9560658Y-11324460D02*
X9579706Y-11333984D01*
X9579706Y-11333984D02*
X9617801Y-11333984D01*
X9617801Y-11333984D02*
X9636849Y-11324460D01*
X9636849Y-11324460D02*
X9646373Y-11305412D01*
X9646373Y-11305412D02*
X9646373Y-11295888D01*
X9646373Y-11295888D02*
X9636849Y-11276841D01*
X9636849Y-11276841D02*
X9617801Y-11267317D01*
X9617801Y-11267317D02*
X9589230Y-11267317D01*
X9589230Y-11267317D02*
X9570182Y-11257793D01*
X9570182Y-11257793D02*
X9560658Y-11238746D01*
X9560658Y-11238746D02*
X9560658Y-11229222D01*
X9560658Y-11229222D02*
X9570182Y-11210174D01*
X9570182Y-11210174D02*
X9589230Y-11200650D01*
X9589230Y-11200650D02*
X9617801Y-11200650D01*
X9617801Y-11200650D02*
X9636849Y-11210174D01*
X9713039Y-11410174D02*
X9722563Y-11400650D01*
X9722563Y-11400650D02*
X9741611Y-11372079D01*
X9741611Y-11372079D02*
X9751134Y-11353031D01*
X9751134Y-11353031D02*
X9760658Y-11324460D01*
X9760658Y-11324460D02*
X9770182Y-11276841D01*
X9770182Y-11276841D02*
X9770182Y-11238746D01*
X9770182Y-11238746D02*
X9760658Y-11191127D01*
X9760658Y-11191127D02*
X9751134Y-11162555D01*
X9751134Y-11162555D02*
X9741611Y-11143508D01*
X9741611Y-11143508D02*
X9722563Y-11114936D01*
X9722563Y-11114936D02*
X9713039Y-11105412D01*
D12*
X4747500Y-11506500D02*
G75*
G02*
X4652500Y-11506500I-47500J0D01*
G01*
X4652500Y-11506500D02*
G75*
G02*
X4747500Y-11506500I47500J0D01*
G01*
D11*
X5046372Y-11397984D02*
X5065420Y-11397984D01*
X5065420Y-11397984D02*
X5084467Y-11407508D01*
X5084467Y-11407508D02*
X5093991Y-11417031D01*
X5093991Y-11417031D02*
X5103515Y-11436079D01*
X5103515Y-11436079D02*
X5113039Y-11474174D01*
X5113039Y-11474174D02*
X5113039Y-11521793D01*
X5113039Y-11521793D02*
X5103515Y-11559888D01*
X5103515Y-11559888D02*
X5093991Y-11578936D01*
X5093991Y-11578936D02*
X5084467Y-11588460D01*
X5084467Y-11588460D02*
X5065420Y-11597984D01*
X5065420Y-11597984D02*
X5046372Y-11597984D01*
X5046372Y-11597984D02*
X5027324Y-11588460D01*
X5027324Y-11588460D02*
X5017801Y-11578936D01*
X5017801Y-11578936D02*
X5008277Y-11559888D01*
X5008277Y-11559888D02*
X4998753Y-11521793D01*
X4998753Y-11521793D02*
X4998753Y-11474174D01*
X4998753Y-11474174D02*
X5008277Y-11436079D01*
X5008277Y-11436079D02*
X5017801Y-11417031D01*
X5017801Y-11417031D02*
X5027324Y-11407508D01*
X5027324Y-11407508D02*
X5046372Y-11397984D01*
X5198753Y-11578936D02*
X5208277Y-11588460D01*
X5208277Y-11588460D02*
X5198753Y-11597984D01*
X5198753Y-11597984D02*
X5189229Y-11588460D01*
X5189229Y-11588460D02*
X5198753Y-11578936D01*
X5198753Y-11578936D02*
X5198753Y-11597984D01*
X5303515Y-11597984D02*
X5341610Y-11597984D01*
X5341610Y-11597984D02*
X5360658Y-11588460D01*
X5360658Y-11588460D02*
X5370182Y-11578936D01*
X5370182Y-11578936D02*
X5389229Y-11550365D01*
X5389229Y-11550365D02*
X5398753Y-11512269D01*
X5398753Y-11512269D02*
X5398753Y-11436079D01*
X5398753Y-11436079D02*
X5389229Y-11417031D01*
X5389229Y-11417031D02*
X5379705Y-11407508D01*
X5379705Y-11407508D02*
X5360658Y-11397984D01*
X5360658Y-11397984D02*
X5322563Y-11397984D01*
X5322563Y-11397984D02*
X5303515Y-11407508D01*
X5303515Y-11407508D02*
X5293991Y-11417031D01*
X5293991Y-11417031D02*
X5284467Y-11436079D01*
X5284467Y-11436079D02*
X5284467Y-11483698D01*
X5284467Y-11483698D02*
X5293991Y-11502746D01*
X5293991Y-11502746D02*
X5303515Y-11512269D01*
X5303515Y-11512269D02*
X5322563Y-11521793D01*
X5322563Y-11521793D02*
X5360658Y-11521793D01*
X5360658Y-11521793D02*
X5379705Y-11512269D01*
X5379705Y-11512269D02*
X5389229Y-11502746D01*
X5389229Y-11502746D02*
X5398753Y-11483698D01*
X5579705Y-11397984D02*
X5484467Y-11397984D01*
X5484467Y-11397984D02*
X5474944Y-11493222D01*
X5474944Y-11493222D02*
X5484467Y-11483698D01*
X5484467Y-11483698D02*
X5503515Y-11474174D01*
X5503515Y-11474174D02*
X5551134Y-11474174D01*
X5551134Y-11474174D02*
X5570182Y-11483698D01*
X5570182Y-11483698D02*
X5579705Y-11493222D01*
X5579705Y-11493222D02*
X5589229Y-11512269D01*
X5589229Y-11512269D02*
X5589229Y-11559888D01*
X5589229Y-11559888D02*
X5579705Y-11578936D01*
X5579705Y-11578936D02*
X5570182Y-11588460D01*
X5570182Y-11588460D02*
X5551134Y-11597984D01*
X5551134Y-11597984D02*
X5503515Y-11597984D01*
X5503515Y-11597984D02*
X5484467Y-11588460D01*
X5484467Y-11588460D02*
X5474944Y-11578936D01*
X5713039Y-11397984D02*
X5732086Y-11397984D01*
X5732086Y-11397984D02*
X5751134Y-11407508D01*
X5751134Y-11407508D02*
X5760658Y-11417031D01*
X5760658Y-11417031D02*
X5770182Y-11436079D01*
X5770182Y-11436079D02*
X5779705Y-11474174D01*
X5779705Y-11474174D02*
X5779705Y-11521793D01*
X5779705Y-11521793D02*
X5770182Y-11559888D01*
X5770182Y-11559888D02*
X5760658Y-11578936D01*
X5760658Y-11578936D02*
X5751134Y-11588460D01*
X5751134Y-11588460D02*
X5732086Y-11597984D01*
X5732086Y-11597984D02*
X5713039Y-11597984D01*
X5713039Y-11597984D02*
X5693991Y-11588460D01*
X5693991Y-11588460D02*
X5684467Y-11578936D01*
X5684467Y-11578936D02*
X5674943Y-11559888D01*
X5674943Y-11559888D02*
X5665420Y-11521793D01*
X5665420Y-11521793D02*
X5665420Y-11474174D01*
X5665420Y-11474174D02*
X5674943Y-11436079D01*
X5674943Y-11436079D02*
X5684467Y-11417031D01*
X5684467Y-11417031D02*
X5693991Y-11407508D01*
X5693991Y-11407508D02*
X5713039Y-11397984D01*
X5865420Y-11597984D02*
X5865420Y-11464650D01*
X5865420Y-11483698D02*
X5874943Y-11474174D01*
X5874943Y-11474174D02*
X5893991Y-11464650D01*
X5893991Y-11464650D02*
X5922563Y-11464650D01*
X5922563Y-11464650D02*
X5941610Y-11474174D01*
X5941610Y-11474174D02*
X5951134Y-11493222D01*
X5951134Y-11493222D02*
X5951134Y-11597984D01*
X5951134Y-11493222D02*
X5960658Y-11474174D01*
X5960658Y-11474174D02*
X5979705Y-11464650D01*
X5979705Y-11464650D02*
X6008277Y-11464650D01*
X6008277Y-11464650D02*
X6027324Y-11474174D01*
X6027324Y-11474174D02*
X6036848Y-11493222D01*
X6036848Y-11493222D02*
X6036848Y-11597984D01*
X6132086Y-11597984D02*
X6132086Y-11464650D01*
X6132086Y-11483698D02*
X6141610Y-11474174D01*
X6141610Y-11474174D02*
X6160658Y-11464650D01*
X6160658Y-11464650D02*
X6189229Y-11464650D01*
X6189229Y-11464650D02*
X6208277Y-11474174D01*
X6208277Y-11474174D02*
X6217801Y-11493222D01*
X6217801Y-11493222D02*
X6217801Y-11597984D01*
X6217801Y-11493222D02*
X6227324Y-11474174D01*
X6227324Y-11474174D02*
X6246372Y-11464650D01*
X6246372Y-11464650D02*
X6274943Y-11464650D01*
X6274943Y-11464650D02*
X6293991Y-11474174D01*
X6293991Y-11474174D02*
X6303515Y-11493222D01*
X6303515Y-11493222D02*
X6303515Y-11597984D01*
X6693991Y-11388460D02*
X6522563Y-11645603D01*
X6951134Y-11397984D02*
X6970182Y-11397984D01*
X6970182Y-11397984D02*
X6989229Y-11407508D01*
X6989229Y-11407508D02*
X6998753Y-11417031D01*
X6998753Y-11417031D02*
X7008277Y-11436079D01*
X7008277Y-11436079D02*
X7017801Y-11474174D01*
X7017801Y-11474174D02*
X7017801Y-11521793D01*
X7017801Y-11521793D02*
X7008277Y-11559888D01*
X7008277Y-11559888D02*
X6998753Y-11578936D01*
X6998753Y-11578936D02*
X6989229Y-11588460D01*
X6989229Y-11588460D02*
X6970182Y-11597984D01*
X6970182Y-11597984D02*
X6951134Y-11597984D01*
X6951134Y-11597984D02*
X6932086Y-11588460D01*
X6932086Y-11588460D02*
X6922563Y-11578936D01*
X6922563Y-11578936D02*
X6913039Y-11559888D01*
X6913039Y-11559888D02*
X6903515Y-11521793D01*
X6903515Y-11521793D02*
X6903515Y-11474174D01*
X6903515Y-11474174D02*
X6913039Y-11436079D01*
X6913039Y-11436079D02*
X6922563Y-11417031D01*
X6922563Y-11417031D02*
X6932086Y-11407508D01*
X6932086Y-11407508D02*
X6951134Y-11397984D01*
X7103515Y-11578936D02*
X7113039Y-11588460D01*
X7113039Y-11588460D02*
X7103515Y-11597984D01*
X7103515Y-11597984D02*
X7093991Y-11588460D01*
X7093991Y-11588460D02*
X7103515Y-11578936D01*
X7103515Y-11578936D02*
X7103515Y-11597984D01*
X7236848Y-11397984D02*
X7255896Y-11397984D01*
X7255896Y-11397984D02*
X7274944Y-11407508D01*
X7274944Y-11407508D02*
X7284467Y-11417031D01*
X7284467Y-11417031D02*
X7293991Y-11436079D01*
X7293991Y-11436079D02*
X7303515Y-11474174D01*
X7303515Y-11474174D02*
X7303515Y-11521793D01*
X7303515Y-11521793D02*
X7293991Y-11559888D01*
X7293991Y-11559888D02*
X7284467Y-11578936D01*
X7284467Y-11578936D02*
X7274944Y-11588460D01*
X7274944Y-11588460D02*
X7255896Y-11597984D01*
X7255896Y-11597984D02*
X7236848Y-11597984D01*
X7236848Y-11597984D02*
X7217801Y-11588460D01*
X7217801Y-11588460D02*
X7208277Y-11578936D01*
X7208277Y-11578936D02*
X7198753Y-11559888D01*
X7198753Y-11559888D02*
X7189229Y-11521793D01*
X7189229Y-11521793D02*
X7189229Y-11474174D01*
X7189229Y-11474174D02*
X7198753Y-11436079D01*
X7198753Y-11436079D02*
X7208277Y-11417031D01*
X7208277Y-11417031D02*
X7217801Y-11407508D01*
X7217801Y-11407508D02*
X7236848Y-11397984D01*
X7370182Y-11397984D02*
X7493991Y-11397984D01*
X7493991Y-11397984D02*
X7427325Y-11474174D01*
X7427325Y-11474174D02*
X7455896Y-11474174D01*
X7455896Y-11474174D02*
X7474944Y-11483698D01*
X7474944Y-11483698D02*
X7484467Y-11493222D01*
X7484467Y-11493222D02*
X7493991Y-11512269D01*
X7493991Y-11512269D02*
X7493991Y-11559888D01*
X7493991Y-11559888D02*
X7484467Y-11578936D01*
X7484467Y-11578936D02*
X7474944Y-11588460D01*
X7474944Y-11588460D02*
X7455896Y-11597984D01*
X7455896Y-11597984D02*
X7398753Y-11597984D01*
X7398753Y-11597984D02*
X7379706Y-11588460D01*
X7379706Y-11588460D02*
X7370182Y-11578936D01*
X7560658Y-11397984D02*
X7693991Y-11397984D01*
X7693991Y-11397984D02*
X7608277Y-11597984D01*
X7855896Y-11464650D02*
X7855896Y-11597984D01*
X7808277Y-11388460D02*
X7760658Y-11531317D01*
X7760658Y-11531317D02*
X7884467Y-11531317D01*
X7951134Y-11397984D02*
X7951134Y-11436079D01*
X8027325Y-11397984D02*
X8027325Y-11436079D01*
X8322563Y-11674174D02*
X8313039Y-11664650D01*
X8313039Y-11664650D02*
X8293991Y-11636079D01*
X8293991Y-11636079D02*
X8284468Y-11617031D01*
X8284468Y-11617031D02*
X8274944Y-11588460D01*
X8274944Y-11588460D02*
X8265420Y-11540841D01*
X8265420Y-11540841D02*
X8265420Y-11502746D01*
X8265420Y-11502746D02*
X8274944Y-11455127D01*
X8274944Y-11455127D02*
X8284468Y-11426555D01*
X8284468Y-11426555D02*
X8293991Y-11407508D01*
X8293991Y-11407508D02*
X8313039Y-11378936D01*
X8313039Y-11378936D02*
X8322563Y-11369412D01*
X8503515Y-11597984D02*
X8389230Y-11597984D01*
X8446372Y-11597984D02*
X8446372Y-11397984D01*
X8446372Y-11397984D02*
X8427325Y-11426555D01*
X8427325Y-11426555D02*
X8408277Y-11445603D01*
X8408277Y-11445603D02*
X8389230Y-11455127D01*
X8674944Y-11397984D02*
X8636849Y-11397984D01*
X8636849Y-11397984D02*
X8617801Y-11407508D01*
X8617801Y-11407508D02*
X8608277Y-11417031D01*
X8608277Y-11417031D02*
X8589230Y-11445603D01*
X8589230Y-11445603D02*
X8579706Y-11483698D01*
X8579706Y-11483698D02*
X8579706Y-11559888D01*
X8579706Y-11559888D02*
X8589230Y-11578936D01*
X8589230Y-11578936D02*
X8598753Y-11588460D01*
X8598753Y-11588460D02*
X8617801Y-11597984D01*
X8617801Y-11597984D02*
X8655896Y-11597984D01*
X8655896Y-11597984D02*
X8674944Y-11588460D01*
X8674944Y-11588460D02*
X8684468Y-11578936D01*
X8684468Y-11578936D02*
X8693991Y-11559888D01*
X8693991Y-11559888D02*
X8693991Y-11512269D01*
X8693991Y-11512269D02*
X8684468Y-11493222D01*
X8684468Y-11493222D02*
X8674944Y-11483698D01*
X8674944Y-11483698D02*
X8655896Y-11474174D01*
X8655896Y-11474174D02*
X8617801Y-11474174D01*
X8617801Y-11474174D02*
X8598753Y-11483698D01*
X8598753Y-11483698D02*
X8589230Y-11493222D01*
X8589230Y-11493222D02*
X8579706Y-11512269D01*
X8932087Y-11597984D02*
X8932087Y-11397984D01*
X9017801Y-11597984D02*
X9017801Y-11493222D01*
X9017801Y-11493222D02*
X9008277Y-11474174D01*
X9008277Y-11474174D02*
X8989230Y-11464650D01*
X8989230Y-11464650D02*
X8960658Y-11464650D01*
X8960658Y-11464650D02*
X8941611Y-11474174D01*
X8941611Y-11474174D02*
X8932087Y-11483698D01*
X9141611Y-11597984D02*
X9122563Y-11588460D01*
X9122563Y-11588460D02*
X9113039Y-11578936D01*
X9113039Y-11578936D02*
X9103515Y-11559888D01*
X9103515Y-11559888D02*
X9103515Y-11502746D01*
X9103515Y-11502746D02*
X9113039Y-11483698D01*
X9113039Y-11483698D02*
X9122563Y-11474174D01*
X9122563Y-11474174D02*
X9141611Y-11464650D01*
X9141611Y-11464650D02*
X9170182Y-11464650D01*
X9170182Y-11464650D02*
X9189230Y-11474174D01*
X9189230Y-11474174D02*
X9198753Y-11483698D01*
X9198753Y-11483698D02*
X9208277Y-11502746D01*
X9208277Y-11502746D02*
X9208277Y-11559888D01*
X9208277Y-11559888D02*
X9198753Y-11578936D01*
X9198753Y-11578936D02*
X9189230Y-11588460D01*
X9189230Y-11588460D02*
X9170182Y-11597984D01*
X9170182Y-11597984D02*
X9141611Y-11597984D01*
X9322563Y-11597984D02*
X9303515Y-11588460D01*
X9303515Y-11588460D02*
X9293992Y-11569412D01*
X9293992Y-11569412D02*
X9293992Y-11397984D01*
X9474944Y-11588460D02*
X9455896Y-11597984D01*
X9455896Y-11597984D02*
X9417801Y-11597984D01*
X9417801Y-11597984D02*
X9398753Y-11588460D01*
X9398753Y-11588460D02*
X9389230Y-11569412D01*
X9389230Y-11569412D02*
X9389230Y-11493222D01*
X9389230Y-11493222D02*
X9398753Y-11474174D01*
X9398753Y-11474174D02*
X9417801Y-11464650D01*
X9417801Y-11464650D02*
X9455896Y-11464650D01*
X9455896Y-11464650D02*
X9474944Y-11474174D01*
X9474944Y-11474174D02*
X9484468Y-11493222D01*
X9484468Y-11493222D02*
X9484468Y-11512269D01*
X9484468Y-11512269D02*
X9389230Y-11531317D01*
X9560658Y-11588460D02*
X9579706Y-11597984D01*
X9579706Y-11597984D02*
X9617801Y-11597984D01*
X9617801Y-11597984D02*
X9636849Y-11588460D01*
X9636849Y-11588460D02*
X9646373Y-11569412D01*
X9646373Y-11569412D02*
X9646373Y-11559888D01*
X9646373Y-11559888D02*
X9636849Y-11540841D01*
X9636849Y-11540841D02*
X9617801Y-11531317D01*
X9617801Y-11531317D02*
X9589230Y-11531317D01*
X9589230Y-11531317D02*
X9570182Y-11521793D01*
X9570182Y-11521793D02*
X9560658Y-11502746D01*
X9560658Y-11502746D02*
X9560658Y-11493222D01*
X9560658Y-11493222D02*
X9570182Y-11474174D01*
X9570182Y-11474174D02*
X9589230Y-11464650D01*
X9589230Y-11464650D02*
X9617801Y-11464650D01*
X9617801Y-11464650D02*
X9636849Y-11474174D01*
X9713039Y-11674174D02*
X9722563Y-11664650D01*
X9722563Y-11664650D02*
X9741611Y-11636079D01*
X9741611Y-11636079D02*
X9751134Y-11617031D01*
X9751134Y-11617031D02*
X9760658Y-11588460D01*
X9760658Y-11588460D02*
X9770182Y-11540841D01*
X9770182Y-11540841D02*
X9770182Y-11502746D01*
X9770182Y-11502746D02*
X9760658Y-11455127D01*
X9760658Y-11455127D02*
X9751134Y-11426555D01*
X9751134Y-11426555D02*
X9741611Y-11407508D01*
X9741611Y-11407508D02*
X9722563Y-11378936D01*
X9722563Y-11378936D02*
X9713039Y-11369412D01*
D13*
X4696500Y-11719500D02*
X4696500Y-11821500D01*
X4645500Y-11770500D02*
X4747500Y-11770500D01*
D11*
X5113039Y-11861984D02*
X4998753Y-11861984D01*
X5055896Y-11861984D02*
X5055896Y-11661984D01*
X5055896Y-11661984D02*
X5036848Y-11690555D01*
X5036848Y-11690555D02*
X5017801Y-11709603D01*
X5017801Y-11709603D02*
X4998753Y-11719127D01*
X5198753Y-11842936D02*
X5208277Y-11852460D01*
X5208277Y-11852460D02*
X5198753Y-11861984D01*
X5198753Y-11861984D02*
X5189229Y-11852460D01*
X5189229Y-11852460D02*
X5198753Y-11842936D01*
X5198753Y-11842936D02*
X5198753Y-11861984D01*
X5332086Y-11661984D02*
X5351134Y-11661984D01*
X5351134Y-11661984D02*
X5370182Y-11671508D01*
X5370182Y-11671508D02*
X5379705Y-11681031D01*
X5379705Y-11681031D02*
X5389229Y-11700079D01*
X5389229Y-11700079D02*
X5398753Y-11738174D01*
X5398753Y-11738174D02*
X5398753Y-11785793D01*
X5398753Y-11785793D02*
X5389229Y-11823888D01*
X5389229Y-11823888D02*
X5379705Y-11842936D01*
X5379705Y-11842936D02*
X5370182Y-11852460D01*
X5370182Y-11852460D02*
X5351134Y-11861984D01*
X5351134Y-11861984D02*
X5332086Y-11861984D01*
X5332086Y-11861984D02*
X5313039Y-11852460D01*
X5313039Y-11852460D02*
X5303515Y-11842936D01*
X5303515Y-11842936D02*
X5293991Y-11823888D01*
X5293991Y-11823888D02*
X5284467Y-11785793D01*
X5284467Y-11785793D02*
X5284467Y-11738174D01*
X5284467Y-11738174D02*
X5293991Y-11700079D01*
X5293991Y-11700079D02*
X5303515Y-11681031D01*
X5303515Y-11681031D02*
X5313039Y-11671508D01*
X5313039Y-11671508D02*
X5332086Y-11661984D01*
X5474944Y-11681031D02*
X5484467Y-11671508D01*
X5484467Y-11671508D02*
X5503515Y-11661984D01*
X5503515Y-11661984D02*
X5551134Y-11661984D01*
X5551134Y-11661984D02*
X5570182Y-11671508D01*
X5570182Y-11671508D02*
X5579705Y-11681031D01*
X5579705Y-11681031D02*
X5589229Y-11700079D01*
X5589229Y-11700079D02*
X5589229Y-11719127D01*
X5589229Y-11719127D02*
X5579705Y-11747698D01*
X5579705Y-11747698D02*
X5465420Y-11861984D01*
X5465420Y-11861984D02*
X5589229Y-11861984D01*
X5713039Y-11661984D02*
X5732086Y-11661984D01*
X5732086Y-11661984D02*
X5751134Y-11671508D01*
X5751134Y-11671508D02*
X5760658Y-11681031D01*
X5760658Y-11681031D02*
X5770182Y-11700079D01*
X5770182Y-11700079D02*
X5779705Y-11738174D01*
X5779705Y-11738174D02*
X5779705Y-11785793D01*
X5779705Y-11785793D02*
X5770182Y-11823888D01*
X5770182Y-11823888D02*
X5760658Y-11842936D01*
X5760658Y-11842936D02*
X5751134Y-11852460D01*
X5751134Y-11852460D02*
X5732086Y-11861984D01*
X5732086Y-11861984D02*
X5713039Y-11861984D01*
X5713039Y-11861984D02*
X5693991Y-11852460D01*
X5693991Y-11852460D02*
X5684467Y-11842936D01*
X5684467Y-11842936D02*
X5674943Y-11823888D01*
X5674943Y-11823888D02*
X5665420Y-11785793D01*
X5665420Y-11785793D02*
X5665420Y-11738174D01*
X5665420Y-11738174D02*
X5674943Y-11700079D01*
X5674943Y-11700079D02*
X5684467Y-11681031D01*
X5684467Y-11681031D02*
X5693991Y-11671508D01*
X5693991Y-11671508D02*
X5713039Y-11661984D01*
X5865420Y-11861984D02*
X5865420Y-11728650D01*
X5865420Y-11747698D02*
X5874943Y-11738174D01*
X5874943Y-11738174D02*
X5893991Y-11728650D01*
X5893991Y-11728650D02*
X5922563Y-11728650D01*
X5922563Y-11728650D02*
X5941610Y-11738174D01*
X5941610Y-11738174D02*
X5951134Y-11757222D01*
X5951134Y-11757222D02*
X5951134Y-11861984D01*
X5951134Y-11757222D02*
X5960658Y-11738174D01*
X5960658Y-11738174D02*
X5979705Y-11728650D01*
X5979705Y-11728650D02*
X6008277Y-11728650D01*
X6008277Y-11728650D02*
X6027324Y-11738174D01*
X6027324Y-11738174D02*
X6036848Y-11757222D01*
X6036848Y-11757222D02*
X6036848Y-11861984D01*
X6132086Y-11861984D02*
X6132086Y-11728650D01*
X6132086Y-11747698D02*
X6141610Y-11738174D01*
X6141610Y-11738174D02*
X6160658Y-11728650D01*
X6160658Y-11728650D02*
X6189229Y-11728650D01*
X6189229Y-11728650D02*
X6208277Y-11738174D01*
X6208277Y-11738174D02*
X6217801Y-11757222D01*
X6217801Y-11757222D02*
X6217801Y-11861984D01*
X6217801Y-11757222D02*
X6227324Y-11738174D01*
X6227324Y-11738174D02*
X6246372Y-11728650D01*
X6246372Y-11728650D02*
X6274943Y-11728650D01*
X6274943Y-11728650D02*
X6293991Y-11738174D01*
X6293991Y-11738174D02*
X6303515Y-11757222D01*
X6303515Y-11757222D02*
X6303515Y-11861984D01*
X6693991Y-11652460D02*
X6522563Y-11909603D01*
X6951134Y-11661984D02*
X6970182Y-11661984D01*
X6970182Y-11661984D02*
X6989229Y-11671508D01*
X6989229Y-11671508D02*
X6998753Y-11681031D01*
X6998753Y-11681031D02*
X7008277Y-11700079D01*
X7008277Y-11700079D02*
X7017801Y-11738174D01*
X7017801Y-11738174D02*
X7017801Y-11785793D01*
X7017801Y-11785793D02*
X7008277Y-11823888D01*
X7008277Y-11823888D02*
X6998753Y-11842936D01*
X6998753Y-11842936D02*
X6989229Y-11852460D01*
X6989229Y-11852460D02*
X6970182Y-11861984D01*
X6970182Y-11861984D02*
X6951134Y-11861984D01*
X6951134Y-11861984D02*
X6932086Y-11852460D01*
X6932086Y-11852460D02*
X6922563Y-11842936D01*
X6922563Y-11842936D02*
X6913039Y-11823888D01*
X6913039Y-11823888D02*
X6903515Y-11785793D01*
X6903515Y-11785793D02*
X6903515Y-11738174D01*
X6903515Y-11738174D02*
X6913039Y-11700079D01*
X6913039Y-11700079D02*
X6922563Y-11681031D01*
X6922563Y-11681031D02*
X6932086Y-11671508D01*
X6932086Y-11671508D02*
X6951134Y-11661984D01*
X7103515Y-11842936D02*
X7113039Y-11852460D01*
X7113039Y-11852460D02*
X7103515Y-11861984D01*
X7103515Y-11861984D02*
X7093991Y-11852460D01*
X7093991Y-11852460D02*
X7103515Y-11842936D01*
X7103515Y-11842936D02*
X7103515Y-11861984D01*
X7236848Y-11661984D02*
X7255896Y-11661984D01*
X7255896Y-11661984D02*
X7274944Y-11671508D01*
X7274944Y-11671508D02*
X7284467Y-11681031D01*
X7284467Y-11681031D02*
X7293991Y-11700079D01*
X7293991Y-11700079D02*
X7303515Y-11738174D01*
X7303515Y-11738174D02*
X7303515Y-11785793D01*
X7303515Y-11785793D02*
X7293991Y-11823888D01*
X7293991Y-11823888D02*
X7284467Y-11842936D01*
X7284467Y-11842936D02*
X7274944Y-11852460D01*
X7274944Y-11852460D02*
X7255896Y-11861984D01*
X7255896Y-11861984D02*
X7236848Y-11861984D01*
X7236848Y-11861984D02*
X7217801Y-11852460D01*
X7217801Y-11852460D02*
X7208277Y-11842936D01*
X7208277Y-11842936D02*
X7198753Y-11823888D01*
X7198753Y-11823888D02*
X7189229Y-11785793D01*
X7189229Y-11785793D02*
X7189229Y-11738174D01*
X7189229Y-11738174D02*
X7198753Y-11700079D01*
X7198753Y-11700079D02*
X7208277Y-11681031D01*
X7208277Y-11681031D02*
X7217801Y-11671508D01*
X7217801Y-11671508D02*
X7236848Y-11661984D01*
X7474944Y-11728650D02*
X7474944Y-11861984D01*
X7427325Y-11652460D02*
X7379706Y-11795317D01*
X7379706Y-11795317D02*
X7503515Y-11795317D01*
X7617801Y-11661984D02*
X7636848Y-11661984D01*
X7636848Y-11661984D02*
X7655896Y-11671508D01*
X7655896Y-11671508D02*
X7665420Y-11681031D01*
X7665420Y-11681031D02*
X7674944Y-11700079D01*
X7674944Y-11700079D02*
X7684467Y-11738174D01*
X7684467Y-11738174D02*
X7684467Y-11785793D01*
X7684467Y-11785793D02*
X7674944Y-11823888D01*
X7674944Y-11823888D02*
X7665420Y-11842936D01*
X7665420Y-11842936D02*
X7655896Y-11852460D01*
X7655896Y-11852460D02*
X7636848Y-11861984D01*
X7636848Y-11861984D02*
X7617801Y-11861984D01*
X7617801Y-11861984D02*
X7598753Y-11852460D01*
X7598753Y-11852460D02*
X7589229Y-11842936D01*
X7589229Y-11842936D02*
X7579706Y-11823888D01*
X7579706Y-11823888D02*
X7570182Y-11785793D01*
X7570182Y-11785793D02*
X7570182Y-11738174D01*
X7570182Y-11738174D02*
X7579706Y-11700079D01*
X7579706Y-11700079D02*
X7589229Y-11681031D01*
X7589229Y-11681031D02*
X7598753Y-11671508D01*
X7598753Y-11671508D02*
X7617801Y-11661984D01*
X7760658Y-11681031D02*
X7770182Y-11671508D01*
X7770182Y-11671508D02*
X7789229Y-11661984D01*
X7789229Y-11661984D02*
X7836848Y-11661984D01*
X7836848Y-11661984D02*
X7855896Y-11671508D01*
X7855896Y-11671508D02*
X7865420Y-11681031D01*
X7865420Y-11681031D02*
X7874944Y-11700079D01*
X7874944Y-11700079D02*
X7874944Y-11719127D01*
X7874944Y-11719127D02*
X7865420Y-11747698D01*
X7865420Y-11747698D02*
X7751134Y-11861984D01*
X7751134Y-11861984D02*
X7874944Y-11861984D01*
X7951134Y-11661984D02*
X7951134Y-11700079D01*
X8027325Y-11661984D02*
X8027325Y-11700079D01*
X8322563Y-11938174D02*
X8313039Y-11928650D01*
X8313039Y-11928650D02*
X8293991Y-11900079D01*
X8293991Y-11900079D02*
X8284468Y-11881031D01*
X8284468Y-11881031D02*
X8274944Y-11852460D01*
X8274944Y-11852460D02*
X8265420Y-11804841D01*
X8265420Y-11804841D02*
X8265420Y-11766746D01*
X8265420Y-11766746D02*
X8274944Y-11719127D01*
X8274944Y-11719127D02*
X8284468Y-11690555D01*
X8284468Y-11690555D02*
X8293991Y-11671508D01*
X8293991Y-11671508D02*
X8313039Y-11642936D01*
X8313039Y-11642936D02*
X8322563Y-11633412D01*
X8484468Y-11728650D02*
X8484468Y-11861984D01*
X8436849Y-11652460D02*
X8389230Y-11795317D01*
X8389230Y-11795317D02*
X8513039Y-11795317D01*
X8674944Y-11728650D02*
X8674944Y-11861984D01*
X8627325Y-11652460D02*
X8579706Y-11795317D01*
X8579706Y-11795317D02*
X8703515Y-11795317D01*
X8932087Y-11861984D02*
X8932087Y-11661984D01*
X9017801Y-11861984D02*
X9017801Y-11757222D01*
X9017801Y-11757222D02*
X9008277Y-11738174D01*
X9008277Y-11738174D02*
X8989230Y-11728650D01*
X8989230Y-11728650D02*
X8960658Y-11728650D01*
X8960658Y-11728650D02*
X8941611Y-11738174D01*
X8941611Y-11738174D02*
X8932087Y-11747698D01*
X9141611Y-11861984D02*
X9122563Y-11852460D01*
X9122563Y-11852460D02*
X9113039Y-11842936D01*
X9113039Y-11842936D02*
X9103515Y-11823888D01*
X9103515Y-11823888D02*
X9103515Y-11766746D01*
X9103515Y-11766746D02*
X9113039Y-11747698D01*
X9113039Y-11747698D02*
X9122563Y-11738174D01*
X9122563Y-11738174D02*
X9141611Y-11728650D01*
X9141611Y-11728650D02*
X9170182Y-11728650D01*
X9170182Y-11728650D02*
X9189230Y-11738174D01*
X9189230Y-11738174D02*
X9198753Y-11747698D01*
X9198753Y-11747698D02*
X9208277Y-11766746D01*
X9208277Y-11766746D02*
X9208277Y-11823888D01*
X9208277Y-11823888D02*
X9198753Y-11842936D01*
X9198753Y-11842936D02*
X9189230Y-11852460D01*
X9189230Y-11852460D02*
X9170182Y-11861984D01*
X9170182Y-11861984D02*
X9141611Y-11861984D01*
X9322563Y-11861984D02*
X9303515Y-11852460D01*
X9303515Y-11852460D02*
X9293992Y-11833412D01*
X9293992Y-11833412D02*
X9293992Y-11661984D01*
X9474944Y-11852460D02*
X9455896Y-11861984D01*
X9455896Y-11861984D02*
X9417801Y-11861984D01*
X9417801Y-11861984D02*
X9398753Y-11852460D01*
X9398753Y-11852460D02*
X9389230Y-11833412D01*
X9389230Y-11833412D02*
X9389230Y-11757222D01*
X9389230Y-11757222D02*
X9398753Y-11738174D01*
X9398753Y-11738174D02*
X9417801Y-11728650D01*
X9417801Y-11728650D02*
X9455896Y-11728650D01*
X9455896Y-11728650D02*
X9474944Y-11738174D01*
X9474944Y-11738174D02*
X9484468Y-11757222D01*
X9484468Y-11757222D02*
X9484468Y-11776269D01*
X9484468Y-11776269D02*
X9389230Y-11795317D01*
X9560658Y-11852460D02*
X9579706Y-11861984D01*
X9579706Y-11861984D02*
X9617801Y-11861984D01*
X9617801Y-11861984D02*
X9636849Y-11852460D01*
X9636849Y-11852460D02*
X9646373Y-11833412D01*
X9646373Y-11833412D02*
X9646373Y-11823888D01*
X9646373Y-11823888D02*
X9636849Y-11804841D01*
X9636849Y-11804841D02*
X9617801Y-11795317D01*
X9617801Y-11795317D02*
X9589230Y-11795317D01*
X9589230Y-11795317D02*
X9570182Y-11785793D01*
X9570182Y-11785793D02*
X9560658Y-11766746D01*
X9560658Y-11766746D02*
X9560658Y-11757222D01*
X9560658Y-11757222D02*
X9570182Y-11738174D01*
X9570182Y-11738174D02*
X9589230Y-11728650D01*
X9589230Y-11728650D02*
X9617801Y-11728650D01*
X9617801Y-11728650D02*
X9636849Y-11738174D01*
X9713039Y-11938174D02*
X9722563Y-11928650D01*
X9722563Y-11928650D02*
X9741611Y-11900079D01*
X9741611Y-11900079D02*
X9751134Y-11881031D01*
X9751134Y-11881031D02*
X9760658Y-11852460D01*
X9760658Y-11852460D02*
X9770182Y-11804841D01*
X9770182Y-11804841D02*
X9770182Y-11766746D01*
X9770182Y-11766746D02*
X9760658Y-11719127D01*
X9760658Y-11719127D02*
X9751134Y-11690555D01*
X9751134Y-11690555D02*
X9741611Y-11671508D01*
X9741611Y-11671508D02*
X9722563Y-11642936D01*
X9722563Y-11642936D02*
X9713039Y-11633412D01*
D14*
X4730952Y-12074452D02*
X4730952Y-11994548D01*
X4651048Y-11994548D01*
X4651048Y-12074452D01*
X4730952Y-12074452D01*
D11*
X5113039Y-12125984D02*
X4998753Y-12125984D01*
X5055896Y-12125984D02*
X5055896Y-11925984D01*
X5055896Y-11925984D02*
X5036848Y-11954555D01*
X5036848Y-11954555D02*
X5017801Y-11973603D01*
X5017801Y-11973603D02*
X4998753Y-11983127D01*
X5198753Y-12106936D02*
X5208277Y-12116460D01*
X5208277Y-12116460D02*
X5198753Y-12125984D01*
X5198753Y-12125984D02*
X5189229Y-12116460D01*
X5189229Y-12116460D02*
X5198753Y-12106936D01*
X5198753Y-12106936D02*
X5198753Y-12125984D01*
X5398753Y-12125984D02*
X5284467Y-12125984D01*
X5341610Y-12125984D02*
X5341610Y-11925984D01*
X5341610Y-11925984D02*
X5322563Y-11954555D01*
X5322563Y-11954555D02*
X5303515Y-11973603D01*
X5303515Y-11973603D02*
X5284467Y-11983127D01*
X5465420Y-11925984D02*
X5589229Y-11925984D01*
X5589229Y-11925984D02*
X5522563Y-12002174D01*
X5522563Y-12002174D02*
X5551134Y-12002174D01*
X5551134Y-12002174D02*
X5570182Y-12011698D01*
X5570182Y-12011698D02*
X5579705Y-12021222D01*
X5579705Y-12021222D02*
X5589229Y-12040269D01*
X5589229Y-12040269D02*
X5589229Y-12087888D01*
X5589229Y-12087888D02*
X5579705Y-12106936D01*
X5579705Y-12106936D02*
X5570182Y-12116460D01*
X5570182Y-12116460D02*
X5551134Y-12125984D01*
X5551134Y-12125984D02*
X5493991Y-12125984D01*
X5493991Y-12125984D02*
X5474944Y-12116460D01*
X5474944Y-12116460D02*
X5465420Y-12106936D01*
X5713039Y-11925984D02*
X5732086Y-11925984D01*
X5732086Y-11925984D02*
X5751134Y-11935508D01*
X5751134Y-11935508D02*
X5760658Y-11945031D01*
X5760658Y-11945031D02*
X5770182Y-11964079D01*
X5770182Y-11964079D02*
X5779705Y-12002174D01*
X5779705Y-12002174D02*
X5779705Y-12049793D01*
X5779705Y-12049793D02*
X5770182Y-12087888D01*
X5770182Y-12087888D02*
X5760658Y-12106936D01*
X5760658Y-12106936D02*
X5751134Y-12116460D01*
X5751134Y-12116460D02*
X5732086Y-12125984D01*
X5732086Y-12125984D02*
X5713039Y-12125984D01*
X5713039Y-12125984D02*
X5693991Y-12116460D01*
X5693991Y-12116460D02*
X5684467Y-12106936D01*
X5684467Y-12106936D02*
X5674943Y-12087888D01*
X5674943Y-12087888D02*
X5665420Y-12049793D01*
X5665420Y-12049793D02*
X5665420Y-12002174D01*
X5665420Y-12002174D02*
X5674943Y-11964079D01*
X5674943Y-11964079D02*
X5684467Y-11945031D01*
X5684467Y-11945031D02*
X5693991Y-11935508D01*
X5693991Y-11935508D02*
X5713039Y-11925984D01*
X5865420Y-12125984D02*
X5865420Y-11992650D01*
X5865420Y-12011698D02*
X5874943Y-12002174D01*
X5874943Y-12002174D02*
X5893991Y-11992650D01*
X5893991Y-11992650D02*
X5922563Y-11992650D01*
X5922563Y-11992650D02*
X5941610Y-12002174D01*
X5941610Y-12002174D02*
X5951134Y-12021222D01*
X5951134Y-12021222D02*
X5951134Y-12125984D01*
X5951134Y-12021222D02*
X5960658Y-12002174D01*
X5960658Y-12002174D02*
X5979705Y-11992650D01*
X5979705Y-11992650D02*
X6008277Y-11992650D01*
X6008277Y-11992650D02*
X6027324Y-12002174D01*
X6027324Y-12002174D02*
X6036848Y-12021222D01*
X6036848Y-12021222D02*
X6036848Y-12125984D01*
X6132086Y-12125984D02*
X6132086Y-11992650D01*
X6132086Y-12011698D02*
X6141610Y-12002174D01*
X6141610Y-12002174D02*
X6160658Y-11992650D01*
X6160658Y-11992650D02*
X6189229Y-11992650D01*
X6189229Y-11992650D02*
X6208277Y-12002174D01*
X6208277Y-12002174D02*
X6217801Y-12021222D01*
X6217801Y-12021222D02*
X6217801Y-12125984D01*
X6217801Y-12021222D02*
X6227324Y-12002174D01*
X6227324Y-12002174D02*
X6246372Y-11992650D01*
X6246372Y-11992650D02*
X6274943Y-11992650D01*
X6274943Y-11992650D02*
X6293991Y-12002174D01*
X6293991Y-12002174D02*
X6303515Y-12021222D01*
X6303515Y-12021222D02*
X6303515Y-12125984D01*
X6693991Y-11916460D02*
X6522563Y-12173603D01*
X6951134Y-11925984D02*
X6970182Y-11925984D01*
X6970182Y-11925984D02*
X6989229Y-11935508D01*
X6989229Y-11935508D02*
X6998753Y-11945031D01*
X6998753Y-11945031D02*
X7008277Y-11964079D01*
X7008277Y-11964079D02*
X7017801Y-12002174D01*
X7017801Y-12002174D02*
X7017801Y-12049793D01*
X7017801Y-12049793D02*
X7008277Y-12087888D01*
X7008277Y-12087888D02*
X6998753Y-12106936D01*
X6998753Y-12106936D02*
X6989229Y-12116460D01*
X6989229Y-12116460D02*
X6970182Y-12125984D01*
X6970182Y-12125984D02*
X6951134Y-12125984D01*
X6951134Y-12125984D02*
X6932086Y-12116460D01*
X6932086Y-12116460D02*
X6922563Y-12106936D01*
X6922563Y-12106936D02*
X6913039Y-12087888D01*
X6913039Y-12087888D02*
X6903515Y-12049793D01*
X6903515Y-12049793D02*
X6903515Y-12002174D01*
X6903515Y-12002174D02*
X6913039Y-11964079D01*
X6913039Y-11964079D02*
X6922563Y-11945031D01*
X6922563Y-11945031D02*
X6932086Y-11935508D01*
X6932086Y-11935508D02*
X6951134Y-11925984D01*
X7103515Y-12106936D02*
X7113039Y-12116460D01*
X7113039Y-12116460D02*
X7103515Y-12125984D01*
X7103515Y-12125984D02*
X7093991Y-12116460D01*
X7093991Y-12116460D02*
X7103515Y-12106936D01*
X7103515Y-12106936D02*
X7103515Y-12125984D01*
X7236848Y-11925984D02*
X7255896Y-11925984D01*
X7255896Y-11925984D02*
X7274944Y-11935508D01*
X7274944Y-11935508D02*
X7284467Y-11945031D01*
X7284467Y-11945031D02*
X7293991Y-11964079D01*
X7293991Y-11964079D02*
X7303515Y-12002174D01*
X7303515Y-12002174D02*
X7303515Y-12049793D01*
X7303515Y-12049793D02*
X7293991Y-12087888D01*
X7293991Y-12087888D02*
X7284467Y-12106936D01*
X7284467Y-12106936D02*
X7274944Y-12116460D01*
X7274944Y-12116460D02*
X7255896Y-12125984D01*
X7255896Y-12125984D02*
X7236848Y-12125984D01*
X7236848Y-12125984D02*
X7217801Y-12116460D01*
X7217801Y-12116460D02*
X7208277Y-12106936D01*
X7208277Y-12106936D02*
X7198753Y-12087888D01*
X7198753Y-12087888D02*
X7189229Y-12049793D01*
X7189229Y-12049793D02*
X7189229Y-12002174D01*
X7189229Y-12002174D02*
X7198753Y-11964079D01*
X7198753Y-11964079D02*
X7208277Y-11945031D01*
X7208277Y-11945031D02*
X7217801Y-11935508D01*
X7217801Y-11935508D02*
X7236848Y-11925984D01*
X7474944Y-11992650D02*
X7474944Y-12125984D01*
X7427325Y-11916460D02*
X7379706Y-12059317D01*
X7379706Y-12059317D02*
X7503515Y-12059317D01*
X7665420Y-11992650D02*
X7665420Y-12125984D01*
X7617801Y-11916460D02*
X7570182Y-12059317D01*
X7570182Y-12059317D02*
X7693991Y-12059317D01*
X7865420Y-11925984D02*
X7770182Y-11925984D01*
X7770182Y-11925984D02*
X7760658Y-12021222D01*
X7760658Y-12021222D02*
X7770182Y-12011698D01*
X7770182Y-12011698D02*
X7789229Y-12002174D01*
X7789229Y-12002174D02*
X7836848Y-12002174D01*
X7836848Y-12002174D02*
X7855896Y-12011698D01*
X7855896Y-12011698D02*
X7865420Y-12021222D01*
X7865420Y-12021222D02*
X7874944Y-12040269D01*
X7874944Y-12040269D02*
X7874944Y-12087888D01*
X7874944Y-12087888D02*
X7865420Y-12106936D01*
X7865420Y-12106936D02*
X7855896Y-12116460D01*
X7855896Y-12116460D02*
X7836848Y-12125984D01*
X7836848Y-12125984D02*
X7789229Y-12125984D01*
X7789229Y-12125984D02*
X7770182Y-12116460D01*
X7770182Y-12116460D02*
X7760658Y-12106936D01*
X7951134Y-11925984D02*
X7951134Y-11964079D01*
X8027325Y-11925984D02*
X8027325Y-11964079D01*
X8322563Y-12202174D02*
X8313039Y-12192650D01*
X8313039Y-12192650D02*
X8293991Y-12164079D01*
X8293991Y-12164079D02*
X8284468Y-12145031D01*
X8284468Y-12145031D02*
X8274944Y-12116460D01*
X8274944Y-12116460D02*
X8265420Y-12068841D01*
X8265420Y-12068841D02*
X8265420Y-12030746D01*
X8265420Y-12030746D02*
X8274944Y-11983127D01*
X8274944Y-11983127D02*
X8284468Y-11954555D01*
X8284468Y-11954555D02*
X8293991Y-11935508D01*
X8293991Y-11935508D02*
X8313039Y-11906936D01*
X8313039Y-11906936D02*
X8322563Y-11897412D01*
X8379706Y-11925984D02*
X8503515Y-11925984D01*
X8503515Y-11925984D02*
X8436849Y-12002174D01*
X8436849Y-12002174D02*
X8465420Y-12002174D01*
X8465420Y-12002174D02*
X8484468Y-12011698D01*
X8484468Y-12011698D02*
X8493991Y-12021222D01*
X8493991Y-12021222D02*
X8503515Y-12040269D01*
X8503515Y-12040269D02*
X8503515Y-12087888D01*
X8503515Y-12087888D02*
X8493991Y-12106936D01*
X8493991Y-12106936D02*
X8484468Y-12116460D01*
X8484468Y-12116460D02*
X8465420Y-12125984D01*
X8465420Y-12125984D02*
X8408277Y-12125984D01*
X8408277Y-12125984D02*
X8389230Y-12116460D01*
X8389230Y-12116460D02*
X8379706Y-12106936D01*
X8627325Y-11925984D02*
X8646372Y-11925984D01*
X8646372Y-11925984D02*
X8665420Y-11935508D01*
X8665420Y-11935508D02*
X8674944Y-11945031D01*
X8674944Y-11945031D02*
X8684468Y-11964079D01*
X8684468Y-11964079D02*
X8693991Y-12002174D01*
X8693991Y-12002174D02*
X8693991Y-12049793D01*
X8693991Y-12049793D02*
X8684468Y-12087888D01*
X8684468Y-12087888D02*
X8674944Y-12106936D01*
X8674944Y-12106936D02*
X8665420Y-12116460D01*
X8665420Y-12116460D02*
X8646372Y-12125984D01*
X8646372Y-12125984D02*
X8627325Y-12125984D01*
X8627325Y-12125984D02*
X8608277Y-12116460D01*
X8608277Y-12116460D02*
X8598753Y-12106936D01*
X8598753Y-12106936D02*
X8589230Y-12087888D01*
X8589230Y-12087888D02*
X8579706Y-12049793D01*
X8579706Y-12049793D02*
X8579706Y-12002174D01*
X8579706Y-12002174D02*
X8589230Y-11964079D01*
X8589230Y-11964079D02*
X8598753Y-11945031D01*
X8598753Y-11945031D02*
X8608277Y-11935508D01*
X8608277Y-11935508D02*
X8627325Y-11925984D01*
X8932087Y-12125984D02*
X8932087Y-11925984D01*
X9017801Y-12125984D02*
X9017801Y-12021222D01*
X9017801Y-12021222D02*
X9008277Y-12002174D01*
X9008277Y-12002174D02*
X8989230Y-11992650D01*
X8989230Y-11992650D02*
X8960658Y-11992650D01*
X8960658Y-11992650D02*
X8941611Y-12002174D01*
X8941611Y-12002174D02*
X8932087Y-12011698D01*
X9141611Y-12125984D02*
X9122563Y-12116460D01*
X9122563Y-12116460D02*
X9113039Y-12106936D01*
X9113039Y-12106936D02*
X9103515Y-12087888D01*
X9103515Y-12087888D02*
X9103515Y-12030746D01*
X9103515Y-12030746D02*
X9113039Y-12011698D01*
X9113039Y-12011698D02*
X9122563Y-12002174D01*
X9122563Y-12002174D02*
X9141611Y-11992650D01*
X9141611Y-11992650D02*
X9170182Y-11992650D01*
X9170182Y-11992650D02*
X9189230Y-12002174D01*
X9189230Y-12002174D02*
X9198753Y-12011698D01*
X9198753Y-12011698D02*
X9208277Y-12030746D01*
X9208277Y-12030746D02*
X9208277Y-12087888D01*
X9208277Y-12087888D02*
X9198753Y-12106936D01*
X9198753Y-12106936D02*
X9189230Y-12116460D01*
X9189230Y-12116460D02*
X9170182Y-12125984D01*
X9170182Y-12125984D02*
X9141611Y-12125984D01*
X9322563Y-12125984D02*
X9303515Y-12116460D01*
X9303515Y-12116460D02*
X9293992Y-12097412D01*
X9293992Y-12097412D02*
X9293992Y-11925984D01*
X9474944Y-12116460D02*
X9455896Y-12125984D01*
X9455896Y-12125984D02*
X9417801Y-12125984D01*
X9417801Y-12125984D02*
X9398753Y-12116460D01*
X9398753Y-12116460D02*
X9389230Y-12097412D01*
X9389230Y-12097412D02*
X9389230Y-12021222D01*
X9389230Y-12021222D02*
X9398753Y-12002174D01*
X9398753Y-12002174D02*
X9417801Y-11992650D01*
X9417801Y-11992650D02*
X9455896Y-11992650D01*
X9455896Y-11992650D02*
X9474944Y-12002174D01*
X9474944Y-12002174D02*
X9484468Y-12021222D01*
X9484468Y-12021222D02*
X9484468Y-12040269D01*
X9484468Y-12040269D02*
X9389230Y-12059317D01*
X9560658Y-12116460D02*
X9579706Y-12125984D01*
X9579706Y-12125984D02*
X9617801Y-12125984D01*
X9617801Y-12125984D02*
X9636849Y-12116460D01*
X9636849Y-12116460D02*
X9646373Y-12097412D01*
X9646373Y-12097412D02*
X9646373Y-12087888D01*
X9646373Y-12087888D02*
X9636849Y-12068841D01*
X9636849Y-12068841D02*
X9617801Y-12059317D01*
X9617801Y-12059317D02*
X9589230Y-12059317D01*
X9589230Y-12059317D02*
X9570182Y-12049793D01*
X9570182Y-12049793D02*
X9560658Y-12030746D01*
X9560658Y-12030746D02*
X9560658Y-12021222D01*
X9560658Y-12021222D02*
X9570182Y-12002174D01*
X9570182Y-12002174D02*
X9589230Y-11992650D01*
X9589230Y-11992650D02*
X9617801Y-11992650D01*
X9617801Y-11992650D02*
X9636849Y-12002174D01*
X9713039Y-12202174D02*
X9722563Y-12192650D01*
X9722563Y-12192650D02*
X9741611Y-12164079D01*
X9741611Y-12164079D02*
X9751134Y-12145031D01*
X9751134Y-12145031D02*
X9760658Y-12116460D01*
X9760658Y-12116460D02*
X9770182Y-12068841D01*
X9770182Y-12068841D02*
X9770182Y-12030746D01*
X9770182Y-12030746D02*
X9760658Y-11983127D01*
X9760658Y-11983127D02*
X9751134Y-11954555D01*
X9751134Y-11954555D02*
X9741611Y-11935508D01*
X9741611Y-11935508D02*
X9722563Y-11906936D01*
X9722563Y-11906936D02*
X9713039Y-11897412D01*
X4647500Y-12398500D02*
X4747500Y-12298500D01*
X4647500Y-12198500D01*
X4547500Y-12298500D01*
X4647500Y-12398500D01*
X4998753Y-12209031D02*
X5008277Y-12199508D01*
X5008277Y-12199508D02*
X5027324Y-12189984D01*
X5027324Y-12189984D02*
X5074944Y-12189984D01*
X5074944Y-12189984D02*
X5093991Y-12199508D01*
X5093991Y-12199508D02*
X5103515Y-12209031D01*
X5103515Y-12209031D02*
X5113039Y-12228079D01*
X5113039Y-12228079D02*
X5113039Y-12247127D01*
X5113039Y-12247127D02*
X5103515Y-12275698D01*
X5103515Y-12275698D02*
X4989229Y-12389984D01*
X4989229Y-12389984D02*
X5113039Y-12389984D01*
X5198753Y-12370936D02*
X5208277Y-12380460D01*
X5208277Y-12380460D02*
X5198753Y-12389984D01*
X5198753Y-12389984D02*
X5189229Y-12380460D01*
X5189229Y-12380460D02*
X5198753Y-12370936D01*
X5198753Y-12370936D02*
X5198753Y-12389984D01*
X5274944Y-12189984D02*
X5408277Y-12189984D01*
X5408277Y-12189984D02*
X5322563Y-12389984D01*
X5522563Y-12189984D02*
X5541610Y-12189984D01*
X5541610Y-12189984D02*
X5560658Y-12199508D01*
X5560658Y-12199508D02*
X5570182Y-12209031D01*
X5570182Y-12209031D02*
X5579705Y-12228079D01*
X5579705Y-12228079D02*
X5589229Y-12266174D01*
X5589229Y-12266174D02*
X5589229Y-12313793D01*
X5589229Y-12313793D02*
X5579705Y-12351888D01*
X5579705Y-12351888D02*
X5570182Y-12370936D01*
X5570182Y-12370936D02*
X5560658Y-12380460D01*
X5560658Y-12380460D02*
X5541610Y-12389984D01*
X5541610Y-12389984D02*
X5522563Y-12389984D01*
X5522563Y-12389984D02*
X5503515Y-12380460D01*
X5503515Y-12380460D02*
X5493991Y-12370936D01*
X5493991Y-12370936D02*
X5484467Y-12351888D01*
X5484467Y-12351888D02*
X5474944Y-12313793D01*
X5474944Y-12313793D02*
X5474944Y-12266174D01*
X5474944Y-12266174D02*
X5484467Y-12228079D01*
X5484467Y-12228079D02*
X5493991Y-12209031D01*
X5493991Y-12209031D02*
X5503515Y-12199508D01*
X5503515Y-12199508D02*
X5522563Y-12189984D01*
X5713039Y-12189984D02*
X5732086Y-12189984D01*
X5732086Y-12189984D02*
X5751134Y-12199508D01*
X5751134Y-12199508D02*
X5760658Y-12209031D01*
X5760658Y-12209031D02*
X5770182Y-12228079D01*
X5770182Y-12228079D02*
X5779705Y-12266174D01*
X5779705Y-12266174D02*
X5779705Y-12313793D01*
X5779705Y-12313793D02*
X5770182Y-12351888D01*
X5770182Y-12351888D02*
X5760658Y-12370936D01*
X5760658Y-12370936D02*
X5751134Y-12380460D01*
X5751134Y-12380460D02*
X5732086Y-12389984D01*
X5732086Y-12389984D02*
X5713039Y-12389984D01*
X5713039Y-12389984D02*
X5693991Y-12380460D01*
X5693991Y-12380460D02*
X5684467Y-12370936D01*
X5684467Y-12370936D02*
X5674943Y-12351888D01*
X5674943Y-12351888D02*
X5665420Y-12313793D01*
X5665420Y-12313793D02*
X5665420Y-12266174D01*
X5665420Y-12266174D02*
X5674943Y-12228079D01*
X5674943Y-12228079D02*
X5684467Y-12209031D01*
X5684467Y-12209031D02*
X5693991Y-12199508D01*
X5693991Y-12199508D02*
X5713039Y-12189984D01*
X5865420Y-12389984D02*
X5865420Y-12256650D01*
X5865420Y-12275698D02*
X5874943Y-12266174D01*
X5874943Y-12266174D02*
X5893991Y-12256650D01*
X5893991Y-12256650D02*
X5922563Y-12256650D01*
X5922563Y-12256650D02*
X5941610Y-12266174D01*
X5941610Y-12266174D02*
X5951134Y-12285222D01*
X5951134Y-12285222D02*
X5951134Y-12389984D01*
X5951134Y-12285222D02*
X5960658Y-12266174D01*
X5960658Y-12266174D02*
X5979705Y-12256650D01*
X5979705Y-12256650D02*
X6008277Y-12256650D01*
X6008277Y-12256650D02*
X6027324Y-12266174D01*
X6027324Y-12266174D02*
X6036848Y-12285222D01*
X6036848Y-12285222D02*
X6036848Y-12389984D01*
X6132086Y-12389984D02*
X6132086Y-12256650D01*
X6132086Y-12275698D02*
X6141610Y-12266174D01*
X6141610Y-12266174D02*
X6160658Y-12256650D01*
X6160658Y-12256650D02*
X6189229Y-12256650D01*
X6189229Y-12256650D02*
X6208277Y-12266174D01*
X6208277Y-12266174D02*
X6217801Y-12285222D01*
X6217801Y-12285222D02*
X6217801Y-12389984D01*
X6217801Y-12285222D02*
X6227324Y-12266174D01*
X6227324Y-12266174D02*
X6246372Y-12256650D01*
X6246372Y-12256650D02*
X6274943Y-12256650D01*
X6274943Y-12256650D02*
X6293991Y-12266174D01*
X6293991Y-12266174D02*
X6303515Y-12285222D01*
X6303515Y-12285222D02*
X6303515Y-12389984D01*
X6693991Y-12180460D02*
X6522563Y-12437603D01*
X6951134Y-12189984D02*
X6970182Y-12189984D01*
X6970182Y-12189984D02*
X6989229Y-12199508D01*
X6989229Y-12199508D02*
X6998753Y-12209031D01*
X6998753Y-12209031D02*
X7008277Y-12228079D01*
X7008277Y-12228079D02*
X7017801Y-12266174D01*
X7017801Y-12266174D02*
X7017801Y-12313793D01*
X7017801Y-12313793D02*
X7008277Y-12351888D01*
X7008277Y-12351888D02*
X6998753Y-12370936D01*
X6998753Y-12370936D02*
X6989229Y-12380460D01*
X6989229Y-12380460D02*
X6970182Y-12389984D01*
X6970182Y-12389984D02*
X6951134Y-12389984D01*
X6951134Y-12389984D02*
X6932086Y-12380460D01*
X6932086Y-12380460D02*
X6922563Y-12370936D01*
X6922563Y-12370936D02*
X6913039Y-12351888D01*
X6913039Y-12351888D02*
X6903515Y-12313793D01*
X6903515Y-12313793D02*
X6903515Y-12266174D01*
X6903515Y-12266174D02*
X6913039Y-12228079D01*
X6913039Y-12228079D02*
X6922563Y-12209031D01*
X6922563Y-12209031D02*
X6932086Y-12199508D01*
X6932086Y-12199508D02*
X6951134Y-12189984D01*
X7103515Y-12370936D02*
X7113039Y-12380460D01*
X7113039Y-12380460D02*
X7103515Y-12389984D01*
X7103515Y-12389984D02*
X7093991Y-12380460D01*
X7093991Y-12380460D02*
X7103515Y-12370936D01*
X7103515Y-12370936D02*
X7103515Y-12389984D01*
X7303515Y-12389984D02*
X7189229Y-12389984D01*
X7246372Y-12389984D02*
X7246372Y-12189984D01*
X7246372Y-12189984D02*
X7227325Y-12218555D01*
X7227325Y-12218555D02*
X7208277Y-12237603D01*
X7208277Y-12237603D02*
X7189229Y-12247127D01*
X7427325Y-12189984D02*
X7446372Y-12189984D01*
X7446372Y-12189984D02*
X7465420Y-12199508D01*
X7465420Y-12199508D02*
X7474944Y-12209031D01*
X7474944Y-12209031D02*
X7484467Y-12228079D01*
X7484467Y-12228079D02*
X7493991Y-12266174D01*
X7493991Y-12266174D02*
X7493991Y-12313793D01*
X7493991Y-12313793D02*
X7484467Y-12351888D01*
X7484467Y-12351888D02*
X7474944Y-12370936D01*
X7474944Y-12370936D02*
X7465420Y-12380460D01*
X7465420Y-12380460D02*
X7446372Y-12389984D01*
X7446372Y-12389984D02*
X7427325Y-12389984D01*
X7427325Y-12389984D02*
X7408277Y-12380460D01*
X7408277Y-12380460D02*
X7398753Y-12370936D01*
X7398753Y-12370936D02*
X7389229Y-12351888D01*
X7389229Y-12351888D02*
X7379706Y-12313793D01*
X7379706Y-12313793D02*
X7379706Y-12266174D01*
X7379706Y-12266174D02*
X7389229Y-12228079D01*
X7389229Y-12228079D02*
X7398753Y-12209031D01*
X7398753Y-12209031D02*
X7408277Y-12199508D01*
X7408277Y-12199508D02*
X7427325Y-12189984D01*
X7665420Y-12189984D02*
X7627325Y-12189984D01*
X7627325Y-12189984D02*
X7608277Y-12199508D01*
X7608277Y-12199508D02*
X7598753Y-12209031D01*
X7598753Y-12209031D02*
X7579706Y-12237603D01*
X7579706Y-12237603D02*
X7570182Y-12275698D01*
X7570182Y-12275698D02*
X7570182Y-12351888D01*
X7570182Y-12351888D02*
X7579706Y-12370936D01*
X7579706Y-12370936D02*
X7589229Y-12380460D01*
X7589229Y-12380460D02*
X7608277Y-12389984D01*
X7608277Y-12389984D02*
X7646372Y-12389984D01*
X7646372Y-12389984D02*
X7665420Y-12380460D01*
X7665420Y-12380460D02*
X7674944Y-12370936D01*
X7674944Y-12370936D02*
X7684467Y-12351888D01*
X7684467Y-12351888D02*
X7684467Y-12304269D01*
X7684467Y-12304269D02*
X7674944Y-12285222D01*
X7674944Y-12285222D02*
X7665420Y-12275698D01*
X7665420Y-12275698D02*
X7646372Y-12266174D01*
X7646372Y-12266174D02*
X7608277Y-12266174D01*
X7608277Y-12266174D02*
X7589229Y-12275698D01*
X7589229Y-12275698D02*
X7579706Y-12285222D01*
X7579706Y-12285222D02*
X7570182Y-12304269D01*
X7751134Y-12189984D02*
X7874944Y-12189984D01*
X7874944Y-12189984D02*
X7808277Y-12266174D01*
X7808277Y-12266174D02*
X7836848Y-12266174D01*
X7836848Y-12266174D02*
X7855896Y-12275698D01*
X7855896Y-12275698D02*
X7865420Y-12285222D01*
X7865420Y-12285222D02*
X7874944Y-12304269D01*
X7874944Y-12304269D02*
X7874944Y-12351888D01*
X7874944Y-12351888D02*
X7865420Y-12370936D01*
X7865420Y-12370936D02*
X7855896Y-12380460D01*
X7855896Y-12380460D02*
X7836848Y-12389984D01*
X7836848Y-12389984D02*
X7779706Y-12389984D01*
X7779706Y-12389984D02*
X7760658Y-12380460D01*
X7760658Y-12380460D02*
X7751134Y-12370936D01*
X7951134Y-12189984D02*
X7951134Y-12228079D01*
X8027325Y-12189984D02*
X8027325Y-12228079D01*
X8322563Y-12466174D02*
X8313039Y-12456650D01*
X8313039Y-12456650D02*
X8293991Y-12428079D01*
X8293991Y-12428079D02*
X8284468Y-12409031D01*
X8284468Y-12409031D02*
X8274944Y-12380460D01*
X8274944Y-12380460D02*
X8265420Y-12332841D01*
X8265420Y-12332841D02*
X8265420Y-12294746D01*
X8265420Y-12294746D02*
X8274944Y-12247127D01*
X8274944Y-12247127D02*
X8284468Y-12218555D01*
X8284468Y-12218555D02*
X8293991Y-12199508D01*
X8293991Y-12199508D02*
X8313039Y-12170936D01*
X8313039Y-12170936D02*
X8322563Y-12161412D01*
X8503515Y-12389984D02*
X8389230Y-12389984D01*
X8446372Y-12389984D02*
X8446372Y-12189984D01*
X8446372Y-12189984D02*
X8427325Y-12218555D01*
X8427325Y-12218555D02*
X8408277Y-12237603D01*
X8408277Y-12237603D02*
X8389230Y-12247127D01*
X8627325Y-12189984D02*
X8646372Y-12189984D01*
X8646372Y-12189984D02*
X8665420Y-12199508D01*
X8665420Y-12199508D02*
X8674944Y-12209031D01*
X8674944Y-12209031D02*
X8684468Y-12228079D01*
X8684468Y-12228079D02*
X8693991Y-12266174D01*
X8693991Y-12266174D02*
X8693991Y-12313793D01*
X8693991Y-12313793D02*
X8684468Y-12351888D01*
X8684468Y-12351888D02*
X8674944Y-12370936D01*
X8674944Y-12370936D02*
X8665420Y-12380460D01*
X8665420Y-12380460D02*
X8646372Y-12389984D01*
X8646372Y-12389984D02*
X8627325Y-12389984D01*
X8627325Y-12389984D02*
X8608277Y-12380460D01*
X8608277Y-12380460D02*
X8598753Y-12370936D01*
X8598753Y-12370936D02*
X8589230Y-12351888D01*
X8589230Y-12351888D02*
X8579706Y-12313793D01*
X8579706Y-12313793D02*
X8579706Y-12266174D01*
X8579706Y-12266174D02*
X8589230Y-12228079D01*
X8589230Y-12228079D02*
X8598753Y-12209031D01*
X8598753Y-12209031D02*
X8608277Y-12199508D01*
X8608277Y-12199508D02*
X8627325Y-12189984D01*
X8932087Y-12389984D02*
X8932087Y-12189984D01*
X9017801Y-12389984D02*
X9017801Y-12285222D01*
X9017801Y-12285222D02*
X9008277Y-12266174D01*
X9008277Y-12266174D02*
X8989230Y-12256650D01*
X8989230Y-12256650D02*
X8960658Y-12256650D01*
X8960658Y-12256650D02*
X8941611Y-12266174D01*
X8941611Y-12266174D02*
X8932087Y-12275698D01*
X9141611Y-12389984D02*
X9122563Y-12380460D01*
X9122563Y-12380460D02*
X9113039Y-12370936D01*
X9113039Y-12370936D02*
X9103515Y-12351888D01*
X9103515Y-12351888D02*
X9103515Y-12294746D01*
X9103515Y-12294746D02*
X9113039Y-12275698D01*
X9113039Y-12275698D02*
X9122563Y-12266174D01*
X9122563Y-12266174D02*
X9141611Y-12256650D01*
X9141611Y-12256650D02*
X9170182Y-12256650D01*
X9170182Y-12256650D02*
X9189230Y-12266174D01*
X9189230Y-12266174D02*
X9198753Y-12275698D01*
X9198753Y-12275698D02*
X9208277Y-12294746D01*
X9208277Y-12294746D02*
X9208277Y-12351888D01*
X9208277Y-12351888D02*
X9198753Y-12370936D01*
X9198753Y-12370936D02*
X9189230Y-12380460D01*
X9189230Y-12380460D02*
X9170182Y-12389984D01*
X9170182Y-12389984D02*
X9141611Y-12389984D01*
X9322563Y-12389984D02*
X9303515Y-12380460D01*
X9303515Y-12380460D02*
X9293992Y-12361412D01*
X9293992Y-12361412D02*
X9293992Y-12189984D01*
X9474944Y-12380460D02*
X9455896Y-12389984D01*
X9455896Y-12389984D02*
X9417801Y-12389984D01*
X9417801Y-12389984D02*
X9398753Y-12380460D01*
X9398753Y-12380460D02*
X9389230Y-12361412D01*
X9389230Y-12361412D02*
X9389230Y-12285222D01*
X9389230Y-12285222D02*
X9398753Y-12266174D01*
X9398753Y-12266174D02*
X9417801Y-12256650D01*
X9417801Y-12256650D02*
X9455896Y-12256650D01*
X9455896Y-12256650D02*
X9474944Y-12266174D01*
X9474944Y-12266174D02*
X9484468Y-12285222D01*
X9484468Y-12285222D02*
X9484468Y-12304269D01*
X9484468Y-12304269D02*
X9389230Y-12323317D01*
X9560658Y-12380460D02*
X9579706Y-12389984D01*
X9579706Y-12389984D02*
X9617801Y-12389984D01*
X9617801Y-12389984D02*
X9636849Y-12380460D01*
X9636849Y-12380460D02*
X9646373Y-12361412D01*
X9646373Y-12361412D02*
X9646373Y-12351888D01*
X9646373Y-12351888D02*
X9636849Y-12332841D01*
X9636849Y-12332841D02*
X9617801Y-12323317D01*
X9617801Y-12323317D02*
X9589230Y-12323317D01*
X9589230Y-12323317D02*
X9570182Y-12313793D01*
X9570182Y-12313793D02*
X9560658Y-12294746D01*
X9560658Y-12294746D02*
X9560658Y-12285222D01*
X9560658Y-12285222D02*
X9570182Y-12266174D01*
X9570182Y-12266174D02*
X9589230Y-12256650D01*
X9589230Y-12256650D02*
X9617801Y-12256650D01*
X9617801Y-12256650D02*
X9636849Y-12266174D01*
X9713039Y-12466174D02*
X9722563Y-12456650D01*
X9722563Y-12456650D02*
X9741611Y-12428079D01*
X9741611Y-12428079D02*
X9751134Y-12409031D01*
X9751134Y-12409031D02*
X9760658Y-12380460D01*
X9760658Y-12380460D02*
X9770182Y-12332841D01*
X9770182Y-12332841D02*
X9770182Y-12294746D01*
X9770182Y-12294746D02*
X9760658Y-12247127D01*
X9760658Y-12247127D02*
X9751134Y-12218555D01*
X9751134Y-12218555D02*
X9741611Y-12199508D01*
X9741611Y-12199508D02*
X9722563Y-12170936D01*
X9722563Y-12170936D02*
X9713039Y-12161412D01*
M02*
