%TF.GenerationSoftware,KiCad,Pcbnew,10.0.1*%
%TF.CreationDate,2026-05-02T17:41:09+02:00*%
%TF.ProjectId,Odyssey_Driver,4f647973-7365-4795-9f44-72697665722e,rev?*%
%TF.SameCoordinates,Original*%
%TF.FileFunction,Soldermask,Bot*%
%TF.FilePolarity,Negative*%
%FSLAX46Y46*%
G04 Gerber Fmt 4.6, Leading zero omitted, Abs format (unit mm)*
G04 Created by KiCad (PCBNEW 10.0.1) date 2026-05-02 17:41:09*
%MOMM*%
%LPD*%
G01*
G04 APERTURE LIST*
G04 Aperture macros list*
%AMRoundRect*
0 Rectangle with rounded corners*
0 $1 Rounding radius*
0 $2 $3 $4 $5 $6 $7 $8 $9 X,Y pos of 4 corners*
0 Add a 4 corners polygon primitive as box body*
4,1,4,$2,$3,$4,$5,$6,$7,$8,$9,$2,$3,0*
0 Add four circle primitives for the rounded corners*
1,1,$1+$1,$2,$3*
1,1,$1+$1,$4,$5*
1,1,$1+$1,$6,$7*
1,1,$1+$1,$8,$9*
0 Add four rect primitives between the rounded corners*
20,1,$1+$1,$2,$3,$4,$5,0*
20,1,$1+$1,$4,$5,$6,$7,0*
20,1,$1+$1,$6,$7,$8,$9,0*
20,1,$1+$1,$8,$9,$2,$3,0*%
G04 Aperture macros list end*
%ADD10C,3.200000*%
%ADD11C,0.650000*%
%ADD12O,1.000000X2.100000*%
%ADD13O,1.000000X1.800000*%
%ADD14R,1.695000X1.695000*%
%ADD15C,1.695000*%
%ADD16C,1.400000*%
%ADD17RoundRect,0.770000X-0.980000X-0.980000X0.980000X-0.980000X0.980000X0.980000X-0.980000X0.980000X0*%
%ADD18C,3.500000*%
%ADD19RoundRect,0.770000X-0.980000X0.980000X-0.980000X-0.980000X0.980000X-0.980000X0.980000X0.980000X0*%
%ADD20RoundRect,0.770000X0.980000X-0.980000X0.980000X0.980000X-0.980000X0.980000X-0.980000X-0.980000X0*%
G04 APERTURE END LIST*
D10*
%TO.C,REF\u002A\u002A*%
X196000000Y-120000000D03*
%TD*%
D11*
%TO.C,J10*%
X183910000Y-117195000D03*
X189690000Y-117195000D03*
D12*
X182480000Y-116675000D03*
X182480000Y-120875000D03*
X191120000Y-116675000D03*
D13*
X191120000Y-120875000D03*
%TD*%
D14*
%TO.C,IC1*%
X109110000Y-61530000D03*
D15*
X110380000Y-56000000D03*
X111650000Y-61530000D03*
X112920000Y-56000000D03*
X114190000Y-61530000D03*
X115460000Y-56000000D03*
X116730000Y-61530000D03*
X118000000Y-56000000D03*
X119270000Y-61530000D03*
X120540000Y-56000000D03*
X121810000Y-61530000D03*
X123080000Y-56000000D03*
X124350000Y-61530000D03*
X125620000Y-56000000D03*
X126890000Y-61530000D03*
%TD*%
D10*
%TO.C,REF\u002A\u002A*%
X104000000Y-54000000D03*
%TD*%
%TO.C,REF\u002A\u002A*%
X104000000Y-120000000D03*
%TD*%
D16*
%TO.C,J1*%
X144500000Y-54000000D03*
X155500000Y-54000000D03*
D17*
X152500000Y-64000000D03*
D18*
X147500000Y-64000000D03*
%TD*%
D10*
%TO.C,REF\u002A\u002A*%
X196000000Y-54000000D03*
%TD*%
D14*
%TO.C,IC3*%
X173110000Y-61682500D03*
D15*
X174380000Y-56152500D03*
X175650000Y-61682500D03*
X176920000Y-56152500D03*
X178190000Y-61682500D03*
X179460000Y-56152500D03*
X180730000Y-61682500D03*
X182000000Y-56152500D03*
X183270000Y-61682500D03*
X184540000Y-56152500D03*
X185810000Y-61682500D03*
X187080000Y-56152500D03*
X188350000Y-61682500D03*
X189620000Y-56152500D03*
X190890000Y-61682500D03*
%TD*%
D16*
%TO.C,J3*%
X115000000Y-93000000D03*
X115000000Y-104000000D03*
D19*
X120000000Y-96000000D03*
D18*
X120000000Y-101000000D03*
%TD*%
D16*
%TO.C,J8*%
X185000000Y-104000000D03*
X185000000Y-93000000D03*
D20*
X180000000Y-101000000D03*
D18*
X180000000Y-96000000D03*
%TD*%
D16*
%TO.C,J2*%
X115000000Y-73000000D03*
X115000000Y-84000000D03*
D19*
X120000000Y-76000000D03*
D18*
X120000000Y-81000000D03*
%TD*%
D16*
%TO.C,J9*%
X185000000Y-84000000D03*
X185000000Y-73000000D03*
D20*
X180000000Y-81000000D03*
D18*
X180000000Y-76000000D03*
%TD*%
M02*
