%TF.GenerationSoftware,KiCad,Pcbnew,10.0.1*%
%TF.CreationDate,2026-05-02T17:41:09+02:00*%
%TF.ProjectId,Odyssey_Driver,4f647973-7365-4795-9f44-72697665722e,rev?*%
%TF.SameCoordinates,Original*%
%TF.FileFunction,Legend,Bot*%
%TF.FilePolarity,Positive*%
%FSLAX46Y46*%
G04 Gerber Fmt 4.6, Leading zero omitted, Abs format (unit mm)*
G04 Created by KiCad (PCBNEW 10.0.1) date 2026-05-02 17:41:09*
%MOMM*%
%LPD*%
G01*
G04 APERTURE LIST*
%ADD10C,0.150000*%
%ADD11C,0.120000*%
G04 APERTURE END LIST*
D10*
G36*
X104915000Y-97933845D02*
G01*
X104910115Y-97749869D01*
X104902753Y-97670903D01*
X104892651Y-97616940D01*
X104881196Y-97585549D01*
X104869592Y-97571314D01*
X104857663Y-97567297D01*
X104749891Y-97637273D01*
X104764308Y-97682092D01*
X104774377Y-97749869D01*
X104778896Y-97827870D01*
X104780666Y-97940867D01*
X104780666Y-98075139D01*
X104776348Y-98117721D01*
X104765367Y-98145073D01*
X104749220Y-98161846D01*
X104716332Y-98177653D01*
X104681381Y-98182850D01*
X104204314Y-98182850D01*
X104092390Y-98171676D01*
X104092390Y-98367559D01*
X104664590Y-98367559D01*
X104732593Y-98363009D01*
X104791901Y-98350035D01*
X104827284Y-98334425D01*
X104857120Y-98310955D01*
X104882149Y-98278716D01*
X104898956Y-98241139D01*
X104910562Y-98187924D01*
X104915000Y-98114340D01*
X104915000Y-97933845D01*
G37*
G36*
X104915000Y-98804082D02*
G01*
X104912576Y-98705277D01*
X104906634Y-98643126D01*
X104896692Y-98591566D01*
X104887705Y-98564785D01*
X104873051Y-98535415D01*
X104765279Y-98590003D01*
X104769492Y-98623587D01*
X104774438Y-98701195D01*
X104778590Y-98843222D01*
X104780666Y-99068475D01*
X104776644Y-99116761D01*
X104766683Y-99146816D01*
X104749970Y-99169446D01*
X104729619Y-99182475D01*
X104706060Y-99189291D01*
X104681381Y-99191573D01*
X104647798Y-99191573D01*
X104613807Y-99186486D01*
X104586920Y-99171973D01*
X104574460Y-99156892D01*
X104565837Y-99132568D01*
X104562435Y-99095036D01*
X104562435Y-98697714D01*
X104439337Y-98697714D01*
X104439337Y-99023718D01*
X104435871Y-99066965D01*
X104426805Y-99097608D01*
X104413447Y-99118850D01*
X104394577Y-99135256D01*
X104373193Y-99144913D01*
X104348417Y-99148220D01*
X104305003Y-99148220D01*
X104268511Y-99142447D01*
X104239302Y-99125811D01*
X104225780Y-99108725D01*
X104216386Y-99081287D01*
X104212679Y-99039105D01*
X104212679Y-98999904D01*
X104217625Y-98847435D01*
X104228799Y-98697714D01*
X104240645Y-98584386D01*
X104113333Y-98570403D01*
X104100816Y-98665535D01*
X104085429Y-98830644D01*
X104080230Y-98929044D01*
X104078407Y-99039105D01*
X104078407Y-99078245D01*
X104084101Y-99158903D01*
X104098679Y-99213983D01*
X104123002Y-99259485D01*
X104151863Y-99290186D01*
X104186382Y-99311822D01*
X104223182Y-99324442D01*
X104261492Y-99330802D01*
X104298042Y-99332868D01*
X104321795Y-99332868D01*
X104362806Y-99329198D01*
X104394802Y-99319140D01*
X104419736Y-99303498D01*
X104451576Y-99273694D01*
X104471516Y-99248970D01*
X104487112Y-99287796D01*
X104508075Y-99318860D01*
X104534469Y-99343370D01*
X104565790Y-99361291D01*
X104602221Y-99372386D01*
X104644989Y-99376282D01*
X104678572Y-99376282D01*
X104719154Y-99373698D01*
X104761127Y-99365780D01*
X104800982Y-99350398D01*
X104838063Y-99324503D01*
X104868495Y-99288400D01*
X104894056Y-99234927D01*
X104909139Y-99171206D01*
X104915000Y-99079649D01*
X104915000Y-98804082D01*
G37*
G36*
X195915000Y-97930426D02*
G01*
X195910115Y-97746450D01*
X195902753Y-97667484D01*
X195892651Y-97613521D01*
X195881196Y-97582130D01*
X195869592Y-97567895D01*
X195857663Y-97563878D01*
X195749891Y-97633854D01*
X195764308Y-97678673D01*
X195774377Y-97746450D01*
X195778896Y-97824451D01*
X195780666Y-97937448D01*
X195780666Y-98071720D01*
X195776348Y-98114302D01*
X195765367Y-98141654D01*
X195749220Y-98158427D01*
X195716332Y-98174234D01*
X195681381Y-98179431D01*
X195204314Y-98179431D01*
X195092390Y-98168257D01*
X195092390Y-98364140D01*
X195664590Y-98364140D01*
X195732593Y-98359590D01*
X195791901Y-98346616D01*
X195827284Y-98331006D01*
X195857120Y-98307536D01*
X195882149Y-98275297D01*
X195898956Y-98237720D01*
X195910562Y-98184505D01*
X195915000Y-98110921D01*
X195915000Y-97930426D01*
G37*
G36*
X195740688Y-98550550D02*
G01*
X195789737Y-98562883D01*
X195828288Y-98581795D01*
X195858335Y-98606856D01*
X195881270Y-98638506D01*
X195898959Y-98679903D01*
X195910676Y-98733430D01*
X195915000Y-98802006D01*
X195915000Y-99125201D01*
X195910692Y-99193021D01*
X195898999Y-99246112D01*
X195881313Y-99287315D01*
X195858335Y-99318946D01*
X195828284Y-99344036D01*
X195789731Y-99362966D01*
X195740683Y-99375311D01*
X195678572Y-99379824D01*
X195663185Y-99379824D01*
X195600033Y-99372966D01*
X195545643Y-99353202D01*
X195514962Y-99331804D01*
X195489371Y-99301223D01*
X195468707Y-99259534D01*
X195441611Y-99295854D01*
X195406425Y-99319679D01*
X195364536Y-99333136D01*
X195314834Y-99337875D01*
X195299446Y-99337875D01*
X195246414Y-99332060D01*
X195197292Y-99314794D01*
X195168338Y-99296364D01*
X195143016Y-99270646D01*
X195121088Y-99236453D01*
X195106152Y-99198433D01*
X195096124Y-99148358D01*
X195092390Y-99083252D01*
X195092390Y-98884561D01*
X195226662Y-98884561D01*
X195226662Y-99044051D01*
X195230031Y-99088628D01*
X195238327Y-99116189D01*
X195249743Y-99132162D01*
X195277492Y-99147179D01*
X195324603Y-99153167D01*
X195331625Y-99153167D01*
X195364953Y-99149656D01*
X195388848Y-99140288D01*
X195405753Y-99125872D01*
X195421892Y-99094147D01*
X195428162Y-99044051D01*
X195428162Y-98884561D01*
X195425118Y-98844879D01*
X195424471Y-98842612D01*
X195551261Y-98842612D01*
X195551261Y-99086061D01*
X195554499Y-99118610D01*
X195563523Y-99144707D01*
X195577883Y-99165745D01*
X195597298Y-99181906D01*
X195620673Y-99191723D01*
X195649202Y-99195176D01*
X195681381Y-99195176D01*
X195714605Y-99191555D01*
X195739050Y-99181766D01*
X195756913Y-99166478D01*
X195774208Y-99133738D01*
X195780666Y-99086061D01*
X195780666Y-98842612D01*
X195774255Y-98794662D01*
X195756913Y-98760729D01*
X195738936Y-98744655D01*
X195714481Y-98734447D01*
X195681381Y-98730688D01*
X195649202Y-98730688D01*
X195618013Y-98734433D01*
X195594116Y-98744794D01*
X195575746Y-98761462D01*
X195557779Y-98795847D01*
X195551261Y-98842612D01*
X195424471Y-98842612D01*
X195417228Y-98817250D01*
X195405753Y-98798526D01*
X195388971Y-98784922D01*
X195365091Y-98775998D01*
X195331625Y-98772636D01*
X195324603Y-98772636D01*
X195288004Y-98775886D01*
X195263507Y-98784226D01*
X195247667Y-98796389D01*
X195237170Y-98813804D01*
X195229653Y-98841761D01*
X195226662Y-98884561D01*
X195092390Y-98884561D01*
X195092390Y-98844016D01*
X195096128Y-98777947D01*
X195106162Y-98727177D01*
X195121088Y-98688678D01*
X195143083Y-98654097D01*
X195168405Y-98628418D01*
X195197292Y-98610337D01*
X195246377Y-98593628D01*
X195299446Y-98587989D01*
X195314834Y-98587989D01*
X195365828Y-98592909D01*
X195408562Y-98606856D01*
X195443954Y-98630918D01*
X195468707Y-98664925D01*
X195489400Y-98623237D01*
X195514990Y-98592883D01*
X195545643Y-98571869D01*
X195599988Y-98552703D01*
X195663185Y-98546040D01*
X195678572Y-98546040D01*
X195740688Y-98550550D01*
G37*
G36*
X104915000Y-77972436D02*
G01*
X104910115Y-77788460D01*
X104902753Y-77709494D01*
X104892651Y-77655531D01*
X104881196Y-77624140D01*
X104869592Y-77609905D01*
X104857663Y-77605888D01*
X104749891Y-77675864D01*
X104764308Y-77720683D01*
X104774377Y-77788460D01*
X104778896Y-77866461D01*
X104780666Y-77979458D01*
X104780666Y-78113730D01*
X104776348Y-78156312D01*
X104765367Y-78183664D01*
X104749220Y-78200437D01*
X104716332Y-78216244D01*
X104681381Y-78221441D01*
X104204314Y-78221441D01*
X104092390Y-78210267D01*
X104092390Y-78406150D01*
X104664590Y-78406150D01*
X104732593Y-78401600D01*
X104791901Y-78388626D01*
X104827284Y-78373016D01*
X104857120Y-78349546D01*
X104882149Y-78317307D01*
X104898956Y-78279730D01*
X104910562Y-78226515D01*
X104915000Y-78152931D01*
X104915000Y-77972436D01*
G37*
G36*
X104915000Y-78574006D02*
G01*
X104779323Y-78574006D01*
X104733161Y-78646058D01*
X104664590Y-78753769D01*
X104586920Y-78874791D01*
X104511388Y-78988852D01*
X104451915Y-79072078D01*
X104415564Y-79111733D01*
X104384077Y-79134299D01*
X104350751Y-79147602D01*
X104318986Y-79151824D01*
X104291020Y-79151824D01*
X104259279Y-79144874D01*
X104233684Y-79123858D01*
X104222255Y-79103802D01*
X104214337Y-79074145D01*
X104211275Y-79031534D01*
X104211275Y-78989524D01*
X104216892Y-78827225D01*
X104228799Y-78682450D01*
X104239302Y-78588050D01*
X104111990Y-78574006D01*
X104096603Y-78681717D01*
X104082620Y-78839803D01*
X104077002Y-79027321D01*
X104077002Y-79066522D01*
X104082676Y-79149959D01*
X104097274Y-79207755D01*
X104121463Y-79256270D01*
X104149726Y-79289638D01*
X104183837Y-79313800D01*
X104220373Y-79328106D01*
X104258719Y-79335485D01*
X104295233Y-79337875D01*
X104324603Y-79337875D01*
X104372597Y-79332711D01*
X104420104Y-79316974D01*
X104468035Y-79289638D01*
X104510340Y-79253759D01*
X104553423Y-79202848D01*
X104597423Y-79133627D01*
X104705867Y-78935669D01*
X104769492Y-78820264D01*
X104780666Y-78820264D01*
X104780666Y-79379885D01*
X104915000Y-79379885D01*
X104915000Y-78574006D01*
G37*
G36*
X195915000Y-77910886D02*
G01*
X195910115Y-77726910D01*
X195902753Y-77647944D01*
X195892651Y-77593981D01*
X195881196Y-77562590D01*
X195869592Y-77548355D01*
X195857663Y-77544338D01*
X195749891Y-77614314D01*
X195764308Y-77659133D01*
X195774377Y-77726910D01*
X195778896Y-77804911D01*
X195780666Y-77917908D01*
X195780666Y-78052180D01*
X195776348Y-78094762D01*
X195765367Y-78122114D01*
X195749220Y-78138887D01*
X195716332Y-78154694D01*
X195681381Y-78159891D01*
X195204314Y-78159891D01*
X195092390Y-78148717D01*
X195092390Y-78344600D01*
X195664590Y-78344600D01*
X195732593Y-78340050D01*
X195791901Y-78327076D01*
X195827284Y-78311466D01*
X195857120Y-78287996D01*
X195882149Y-78255757D01*
X195898956Y-78218180D01*
X195910562Y-78164965D01*
X195915000Y-78091381D01*
X195915000Y-77910886D01*
G37*
G36*
X195422560Y-78530683D02*
G01*
X195471824Y-78542168D01*
X195511080Y-78559805D01*
X195542163Y-78583103D01*
X195565953Y-78612953D01*
X195584503Y-78653781D01*
X195596971Y-78708591D01*
X195601636Y-78781123D01*
X195601636Y-78933592D01*
X195596751Y-79104989D01*
X195590401Y-79172828D01*
X195681381Y-79172828D01*
X195703621Y-79170611D01*
X195726810Y-79163730D01*
X195747698Y-79151361D01*
X195765279Y-79131551D01*
X195776315Y-79105181D01*
X195780666Y-79063712D01*
X195778590Y-78819530D01*
X195772301Y-78673351D01*
X195765279Y-78599223D01*
X195873051Y-78544635D01*
X195887065Y-78565606D01*
X195902421Y-78613206D01*
X195911213Y-78674593D01*
X195915000Y-78785275D01*
X195915000Y-79102852D01*
X195911338Y-79166106D01*
X195901549Y-79214277D01*
X195887034Y-79250436D01*
X195854689Y-79296533D01*
X195817791Y-79325296D01*
X195775803Y-79343502D01*
X195734565Y-79352590D01*
X195664590Y-79357475D01*
X195341395Y-79357475D01*
X195268672Y-79352590D01*
X195227525Y-79343324D01*
X195186118Y-79324625D01*
X195149966Y-79295410D01*
X195118951Y-79249764D01*
X195105215Y-79214130D01*
X195095891Y-79166216D01*
X195092390Y-79102852D01*
X195092390Y-78821667D01*
X195226662Y-78821667D01*
X195226662Y-79063712D01*
X195230440Y-79100759D01*
X195240549Y-79127643D01*
X195256093Y-79146938D01*
X195287907Y-79166356D01*
X195324603Y-79172828D01*
X195478476Y-79172828D01*
X195478476Y-78821667D01*
X195474661Y-78776522D01*
X195465198Y-78748481D01*
X195451915Y-78732091D01*
X195421743Y-78716860D01*
X195377787Y-78711148D01*
X195324603Y-78711148D01*
X195292057Y-78716679D01*
X195258841Y-78734228D01*
X195242127Y-78752273D01*
X195230968Y-78780104D01*
X195226662Y-78821667D01*
X195092390Y-78821667D01*
X195092390Y-78779719D01*
X195095395Y-78719990D01*
X195103474Y-78673717D01*
X195115471Y-78638363D01*
X195142890Y-78592350D01*
X195174944Y-78562831D01*
X195213088Y-78543491D01*
X195255361Y-78532789D01*
X195341395Y-78526500D01*
X195360996Y-78526500D01*
X195422560Y-78530683D01*
G37*
%TO.C,J3*%
D11*
X105840000Y-93970000D02*
X105840000Y-103000000D01*
X105840000Y-93970000D02*
X111840000Y-93970000D01*
X105840000Y-103030000D02*
X111840000Y-103030000D01*
X111840000Y-93440000D02*
X111840000Y-93970000D01*
X111840000Y-93440000D02*
X113890000Y-93440000D01*
X111840000Y-103030000D02*
X111840000Y-103560000D01*
X111840000Y-103560000D02*
X113890000Y-103560000D01*
X113890000Y-92740000D02*
X113890000Y-93440000D01*
X113890000Y-103560000D02*
X113890000Y-104260000D01*
X116110000Y-92740000D02*
X116110000Y-104260000D01*
X113890000Y-92850000D02*
G75*
G02*
X116096635Y-92678271I1110000J-1D01*
G01*
X116110000Y-104150000D02*
G75*
G02*
X113890000Y-104150000I-1110000J0D01*
G01*
%TO.C,J8*%
X183890000Y-104260000D02*
X183890000Y-92740000D01*
X186110000Y-93440000D02*
X186110000Y-92740000D01*
X186110000Y-104260000D02*
X186110000Y-103560000D01*
X188160000Y-93440000D02*
X186110000Y-93440000D01*
X188160000Y-93970000D02*
X188160000Y-93440000D01*
X188160000Y-103560000D02*
X186110000Y-103560000D01*
X188160000Y-103560000D02*
X188160000Y-103030000D01*
X194160000Y-93970000D02*
X188160000Y-93970000D01*
X194160000Y-103030000D02*
X188160000Y-103030000D01*
X194160000Y-103030000D02*
X194160000Y-94000000D01*
X183890000Y-92850000D02*
G75*
G02*
X186110000Y-92850000I1110000J0D01*
G01*
X186110000Y-104150000D02*
G75*
G02*
X183903365Y-104321729I-1110000J1D01*
G01*
%TO.C,J2*%
X105840000Y-73970000D02*
X105840000Y-83000000D01*
X105840000Y-73970000D02*
X111840000Y-73970000D01*
X105840000Y-83030000D02*
X111840000Y-83030000D01*
X111840000Y-73440000D02*
X111840000Y-73970000D01*
X111840000Y-73440000D02*
X113890000Y-73440000D01*
X111840000Y-83030000D02*
X111840000Y-83560000D01*
X111840000Y-83560000D02*
X113890000Y-83560000D01*
X113890000Y-72740000D02*
X113890000Y-73440000D01*
X113890000Y-83560000D02*
X113890000Y-84260000D01*
X116110000Y-72740000D02*
X116110000Y-84260000D01*
X113890000Y-72850000D02*
G75*
G02*
X116096635Y-72678271I1110000J-1D01*
G01*
X116110000Y-84150000D02*
G75*
G02*
X113890000Y-84150000I-1110000J0D01*
G01*
%TO.C,J9*%
X183890000Y-84260000D02*
X183890000Y-72740000D01*
X186110000Y-73440000D02*
X186110000Y-72740000D01*
X186110000Y-84260000D02*
X186110000Y-83560000D01*
X188160000Y-73440000D02*
X186110000Y-73440000D01*
X188160000Y-73970000D02*
X188160000Y-73440000D01*
X188160000Y-83560000D02*
X186110000Y-83560000D01*
X188160000Y-83560000D02*
X188160000Y-83030000D01*
X194160000Y-73970000D02*
X188160000Y-73970000D01*
X194160000Y-83030000D02*
X188160000Y-83030000D01*
X194160000Y-83030000D02*
X194160000Y-74000000D01*
X183890000Y-72850000D02*
G75*
G02*
X186110000Y-72850000I1110000J0D01*
G01*
X186110000Y-84150000D02*
G75*
G02*
X183903365Y-84321729I-1110000J1D01*
G01*
%TD*%
M02*
